<svg xmlns="http://www.w3.org/2000/svg" xmlns:cc="http://web.resource.org/cc/" xmlns:svg="http://www.w3.org/2000/svg" xmlns:xlink="http://www.w3.org/1999/xlink" id="svg4908" width="16" height="16" version="1.0"><defs id="defs4910"><linearGradient id="linearGradient8163"><stop style="stop-color:#b2cbe5;stop-opacity:1" id="stop8165" offset="0"/><stop style="stop-color:#7fa9d5;stop-opacity:1" id="stop8167" offset="1"/></linearGradient><radialGradient id="radialGradient12807" cx="5.296" cy="3.36" r="6.605" fx="5.296" fy="3.36" gradientTransform="matrix(1.312325,-4.955857e-3,4.926075e-3,1.072296,-2.045378,2.805456e-2)" gradientUnits="userSpaceOnUse" xlink:href="#linearGradient8163"/><linearGradient id="linearGradient6093"><stop style="stop-color:#000;stop-opacity:1" id="stop6095" offset="0"/><stop style="stop-color:#000;stop-opacity:0" id="stop6097" offset="1"/></linearGradient><linearGradient id="linearGradient6056"><stop id="stop6058" offset="0" style="stop-color:#fff;stop-opacity:1"/><stop id="stop6060" offset="1" style="stop-color:#d3d7cf;stop-opacity:1"/></linearGradient><linearGradient id="linearGradient5966" x1="13.841" x2="4.476" y1="9.147" y2="-.641" gradientTransform="matrix(0.6923078,0,0,0.7231216,-0.3076923,-0.5846825)" gradientUnits="userSpaceOnUse" xlink:href="#linearGradient6056"/><linearGradient id="linearGradient6099" x1="11.563" x2="11.563" y1="11.125" y2="8.179" gradientTransform="matrix(0.7142859,0,0,0.5,-0.5714286,1.9999993)" gradientUnits="userSpaceOnUse" xlink:href="#linearGradient6093"/><radialGradient id="radialGradient5111" cx="5.296" cy="3.36" r="6.605" fx="5.296" fy="3.36" gradientTransform="matrix(1.312325,-4.955857e-3,4.926075e-3,1.072296,-2.045378,2.805456e-2)" gradientUnits="userSpaceOnUse" xlink:href="#linearGradient8163"/></defs><metadata id="metadata4913"/><g id="layer1"><path style="opacity:1;fill:#babdb6;fill-opacity:1;stroke:#555753;stroke-width:.99999994;stroke-linecap:round;stroke-linejoin:miter;stroke-miterlimit:4;stroke-dashoffset:0;stroke-opacity:1" id="rect4923" d="M 2.6650374,7.5 L 13.334962,7.5 L 15.5,10.027675 L 15.5,14.821727 C 15.5,15.214803 15.178132,15.53125 14.77832,15.53125 L 1.2216791,15.53125 C 0.82186963,15.53125 0.49999997,15.214803 0.49999997,14.821727 L 0.49999997,10.027675 L 2.6650374,7.5 z"/><path style="opacity:.49456524;fill:none;fill-rule:evenodd;stroke:#fff;stroke-width:.99999994px;stroke-linecap:butt;stroke-linejoin:miter;stroke-opacity:1" id="path5915" d="M 1.5,14.53125 L 1.5,10.424446 L 3.0764563,8.5 L 12.892294,8.5 L 14.5,10.424446 L 14.5,14.53125 L 1.5,14.53125 z"/><path style="opacity:1;fill:url(#linearGradient5966);fill-opacity:1;stroke:#797c76;stroke-width:.99999982;stroke-linecap:round;stroke-linejoin:miter;stroke-miterlimit:4;stroke-dashoffset:0;stroke-opacity:1" id="rect5952" d="M 4.1994739,0.50000003 L 11.800527,0.50000003 C 12.188035,0.50000003 12.499999,0.82585053 12.499999,1.2306065 L 12.499999,8.4999998 L 3.5,8.4999998 L 3.5,1.2306065 C 3.5,0.82585053 3.8119654,0.50000003 4.1994739,0.50000003 z"/><rect style="opacity:1;fill:none;fill-opacity:1;stroke:#fff;stroke-width:.99999988;stroke-linecap:round;stroke-linejoin:miter;stroke-miterlimit:4;stroke-dasharray:none;stroke-dashoffset:0;stroke-opacity:1" id="rect5968" width="7" height="7" x="4.5" y="1.5" rx=".316" ry=".316"/><rect style="opacity:.26630435;fill:#000;fill-opacity:1;stroke:none;stroke-width:1;stroke-linecap:round;stroke-linejoin:miter;stroke-miterlimit:4;stroke-dasharray:none;stroke-dashoffset:0;stroke-opacity:1" id="rect5975" width="6" height="1" x="5" y="3" rx="0" ry="0"/><rect style="opacity:.26630435;fill:#000;fill-opacity:1;stroke:none;stroke-width:1;stroke-linecap:round;stroke-linejoin:miter;stroke-miterlimit:4;stroke-dasharray:none;stroke-dashoffset:0;stroke-opacity:1" id="rect5979" width="6" height="1" x="5" y="5" rx="0" ry="0"/><rect style="opacity:.19565214;fill:url(#linearGradient6099);fill-opacity:1;stroke:none;stroke-width:1;stroke-linecap:round;stroke-linejoin:miter;stroke-miterlimit:4;stroke-dasharray:none;stroke-dashoffset:0;stroke-opacity:1" id="rect6091" width="10" height="2" x="3" y="6"/><path style="fill:none;fill-rule:evenodd;stroke:#fff;stroke-width:1px;stroke-linecap:butt;stroke-linejoin:miter;stroke-opacity:1" id="path5911" d="M 2,10.492194 L 14,10.492194"/><path style="fill:none;fill-rule:evenodd;stroke:#555753;stroke-width:1px;stroke-linecap:butt;stroke-linejoin:miter;stroke-opacity:1" id="path5913" d="M 3.016466,8.5 L 12.983534,8.5"/><path style="fill:none;fill-rule:evenodd;stroke:#555753;stroke-width:1px;stroke-linecap:butt;stroke-linejoin:miter;stroke-opacity:1" id="path4922" d="M 3.03125,12.5 L 13,12.5"/><g id="g5106" transform="translate(-10.968753,-2)"><rect id="rect4946" width="2" height="5" x="6.033" y="25.074" rx="1.39" ry="1.497" transform="matrix(0.7075464,-0.7066669,0.7074896,0.7067238,0,0)" style="opacity:1;fill:#555753;fill-opacity:1;stroke:#2e3436;stroke-width:1.0000006;stroke-linecap:round;stroke-linejoin:miter;stroke-miterlimit:4;stroke-dasharray:none;stroke-dashoffset:0;stroke-opacity:1"/><path style="fill:#fff;fill-opacity:0;stroke:#204a87;stroke-width:1.62491965;stroke-linecap:round;stroke-linejoin:miter;stroke-miterlimit:4;stroke-dasharray:none;stroke-dashoffset:0;stroke-opacity:1;display:inline" id="path10066" d="M 12.487086 5.6153316 A 5.9727769 5.415318 0 1 1 0.54153204,5.6153316 A 5.9727769 5.415318 0 1 1 12.487086 5.6153316 z" transform="matrix(0.5859921,0,0,0.6463148,17.182666,7.370728)"/><path style="fill:url(#radialGradient5111);fill-opacity:1;stroke:#d1e0ef;stroke-width:2.27489066;stroke-linecap:round;stroke-linejoin:miter;stroke-miterlimit:4;stroke-dasharray:none;stroke-dashoffset:0;stroke-opacity:1;display:inline" id="path10068" d="M 12.487086 5.6153316 A 5.9727769 5.415318 0 1 1 0.54153204,5.6153316 A 5.9727769 5.415318 0 1 1 12.487086 5.6153316 z" transform="matrix(0.4185657,0,0,0.4616533,18.273334,8.4076634)"/></g></g></svg>