<svg xmlns="http://www.w3.org/2000/svg" xmlns:cc="http://web.resource.org/cc/" xmlns:svg="http://www.w3.org/2000/svg" xmlns:xlink="http://www.w3.org/1999/xlink" id="svg2" width="16" height="16" version="1.0"><defs id="defs4"><linearGradient id="linearGradient3695"><stop style="stop-color:#c8cec3;stop-opacity:1" id="stop3697" offset="0"/><stop style="stop-color:white;stop-opacity:1" id="stop3699" offset="1"/></linearGradient><linearGradient id="linearGradient2826"><stop style="stop-color:#2e3436;stop-opacity:1" id="stop2828" offset="0"/><stop style="stop-color:#555753;stop-opacity:1" id="stop2830" offset="1"/></linearGradient><linearGradient id="linearGradient2792"><stop style="stop-color:white;stop-opacity:1" id="stop2794" offset="0"/><stop style="stop-color:#d3d7cf;stop-opacity:1" id="stop2796" offset="1"/></linearGradient><linearGradient id="linearGradient2778"><stop style="stop-color:#d3d7cf;stop-opacity:1" id="stop2780" offset="0"/><stop style="stop-color:#555753;stop-opacity:1" id="stop2782" offset="1"/></linearGradient><radialGradient id="radialGradient7160" cx="7.731" cy="6.922" r="13.979" fx="7.731" fy="6.922" gradientTransform="matrix(2.751922,0,-2.346071e-6,2.195752,-13.95005,-8.420339)" gradientUnits="userSpaceOnUse" xlink:href="#linearGradient2778"/><linearGradient id="linearGradient7162" x1="1.335" x2="1.105" y1="21.247" y2="9.273" gradientUnits="userSpaceOnUse" xlink:href="#linearGradient2826"/><radialGradient id="radialGradient7164" cx="16.962" cy="23.891" r="14.065" fx="16.962" fy="23.891" gradientTransform="matrix(2.57113,1.6738e-6,0,2.461325,-24.47562,-35.11938)" gradientUnits="userSpaceOnUse" xlink:href="#linearGradient2792"/><linearGradient id="linearGradient7166" x1="12.41" x2="13.173" y1="6.938" y2="14.292" gradientUnits="userSpaceOnUse" xlink:href="#linearGradient3695"/></defs><metadata id="metadata7"/><g id="layer1"><g id="g7138"><path id="path1862" d="M 29.256543 17.018175 A 13.479223 13.479223 0 1 1 2.2980967,17.018175 A 13.479223 13.479223 0 1 1 29.256543 17.018175 z" transform="matrix(0.519318,0,0,0.519318,0.306558,-1.337841)" style="opacity:1;fill:url(#radialGradient7160);fill-opacity:1;stroke:url(#linearGradient7162);stroke-width:1.92560327;stroke-linecap:round;stroke-linejoin:miter;stroke-miterlimit:4;stroke-dasharray:none;stroke-opacity:1"/><path id="path2752" d="M 29.256543 17.018175 A 13.479223 13.479223 0 1 1 2.2980967,17.018175 A 13.479223 13.479223 0 1 1 29.256543 17.018175 z" transform="matrix(0.408035,0,0,0.408035,2.062296,0.555984)" style="opacity:1;fill:url(#radialGradient7164);fill-opacity:1;stroke:none;stroke-width:2.41186762;stroke-linecap:round;stroke-linejoin:miter;stroke-miterlimit:4;stroke-dasharray:none;stroke-opacity:1"/><path id="path2790" d="M 17.5625 10.75 A 3.5625 4.3125 0 1 1 10.4375,10.75 A 3.5625 4.3125 0 1 1 17.5625 10.75 z" transform="matrix(1.403509,0,0,1.147826,-11.14912,-4.889132)" style="opacity:1;fill:none;fill-opacity:1;stroke:url(#linearGradient7166);stroke-width:.78786951;stroke-linecap:round;stroke-linejoin:miter;stroke-miterlimit:4;stroke-dasharray:none;stroke-opacity:1"/><rect id="rect1904" width="1" height="1" x="9" y="6" style="opacity:1;fill:#000;fill-opacity:1;stroke:none;stroke-width:3;stroke-linecap:round;stroke-linejoin:round;stroke-miterlimit:4;stroke-dasharray:none;stroke-dashoffset:1.20000057;stroke-opacity:1"/><rect id="rect5945" width="1" height="1" x="10" y="5" style="opacity:1;fill:#000;fill-opacity:1;stroke:none;stroke-width:3;stroke-linecap:round;stroke-linejoin:round;stroke-miterlimit:4;stroke-dasharray:none;stroke-dashoffset:1.20000057;stroke-opacity:1"/><rect id="rect5947" width="1" height="1" x="11" y="4" style="opacity:1;fill:#000;fill-opacity:1;stroke:none;stroke-width:3;stroke-linecap:round;stroke-linejoin:round;stroke-miterlimit:4;stroke-dasharray:none;stroke-dashoffset:1.20000057;stroke-opacity:1"/><rect id="rect5949" width="1" height="1" x="9" y="8" style="opacity:1;fill:#000;fill-opacity:1;stroke:none;stroke-width:3;stroke-linecap:round;stroke-linejoin:round;stroke-miterlimit:4;stroke-dasharray:none;stroke-dashoffset:1.20000057;stroke-opacity:1"/><rect id="rect5951" width="1" height="1" x="10" y="9" style="opacity:1;fill:#000;fill-opacity:1;stroke:none;stroke-width:3;stroke-linecap:round;stroke-linejoin:round;stroke-miterlimit:4;stroke-dasharray:none;stroke-dashoffset:1.20000057;stroke-opacity:1"/><rect id="rect5963" width="1" height="1" x="7" y="8" style="opacity:1;fill:#000;fill-opacity:1;stroke:none;stroke-width:3;stroke-linecap:round;stroke-linejoin:round;stroke-miterlimit:4;stroke-dasharray:none;stroke-dashoffset:1.20000057;stroke-opacity:1"/><rect id="rect5965" width="1" height="1" x="7" y="6" style="opacity:1;fill:#000;fill-opacity:1;stroke:none;stroke-width:3;stroke-linecap:round;stroke-linejoin:round;stroke-miterlimit:4;stroke-dasharray:none;stroke-dashoffset:1.20000057;stroke-opacity:1"/><path id="rect5967" d="M 7,6 L 7,9 L 10,9 L 10,6 L 7,6 z M 8,7 L 9,7 L 9,8 L 8,8 L 8,7 z" style="opacity:.48999999;fill:#000;fill-opacity:1;stroke:none;stroke-width:3;stroke-linecap:round;stroke-linejoin:round;stroke-miterlimit:4;stroke-dasharray:none;stroke-dashoffset:1.20000057;stroke-opacity:1"/><rect id="rect6941" width="1" height="1" x="10" y="6" style="opacity:.25;fill:#000;fill-opacity:1;stroke:none;stroke-width:3;stroke-linecap:round;stroke-linejoin:round;stroke-miterlimit:4;stroke-dasharray:none;stroke-dashoffset:1.20000057;stroke-opacity:1"/><rect id="rect6943" width="1" height="1" x="11" y="5" style="opacity:.25;fill:#000;fill-opacity:1;stroke:none;stroke-width:3;stroke-linecap:round;stroke-linejoin:round;stroke-miterlimit:4;stroke-dasharray:none;stroke-dashoffset:1.20000057;stroke-opacity:1"/><rect id="rect6945" width="1" height="1" x="9" y="9" style="opacity:.25;fill:#000;fill-opacity:1;stroke:none;stroke-width:3;stroke-linecap:round;stroke-linejoin:round;stroke-miterlimit:4;stroke-dasharray:none;stroke-dashoffset:1.20000057;stroke-opacity:1"/><rect id="rect6947" width="1" height="1" x="10" y="10" style="opacity:.25;fill:#000;fill-opacity:1;stroke:none;stroke-width:3;stroke-linecap:round;stroke-linejoin:round;stroke-miterlimit:4;stroke-dasharray:none;stroke-dashoffset:1.20000057;stroke-opacity:1"/><rect id="rect6949" width="1" height="1" x="7" y="9" style="opacity:.25;fill:#000;fill-opacity:1;stroke:none;stroke-width:3;stroke-linecap:round;stroke-linejoin:round;stroke-miterlimit:4;stroke-dasharray:none;stroke-dashoffset:1.20000057;stroke-opacity:1"/><path id="path7406" d="M 7.3972605,4.5210702 C 8.8767126,4.5210702 8.8767126,2.5210702 7.3972605,2.5210702 C 6.4109591,2.5210702 2.4794277,1.968643 2.4657535,6.5210702 L 0.4931507,6.5210702 L 0.4931507,7.5210702 L 4.4383563,11.52107 L 8.3835619,7.5210702 L 8.3835619,6.5210702 L 6.4109591,6.5210702 C 6.4109591,4.0210702 6.5952981,4.5210702 7.3972605,4.5210702 z" style="fill:#8ae234;fill-opacity:1;fill-rule:evenodd;stroke:#4e9a06;stroke-width:1;stroke-linecap:butt;stroke-linejoin:round;stroke-miterlimit:4;stroke-dasharray:none;stroke-opacity:1"/><g style="opacity:.6" id="g7463" transform="matrix(0.9863014,0,0,1,0,-2.9789298)"><path style="fill:none;fill-opacity:1;fill-rule:evenodd;stroke:#fff;stroke-width:1.00692046;stroke-linecap:round;stroke-linejoin:miter;stroke-miterlimit:4;stroke-opacity:1" id="path7457" d="M 7.5,6.5 C 5.4782369,6.5 3.3587674,6.367033 3.46875,9.625 C 3.411765,10.118753 2.9969865,10.493392 2.5,10.5 L 1.875,10.5 L 4.5,13.125 L 7.125,10.5 L 6.5,10.5 C 6.2338333,10.50314 5.977651,10.398792 5.7894296,10.21057 C 5.6012083,10.022349 5.4968601,9.766167 5.5,9.5 C 5.3927705,7.968805 5.5444716,6.423666 7.5,6.5 z"/><path style="opacity:1;fill:#fff;fill-opacity:1;fill-rule:evenodd;stroke:none;stroke-width:1;stroke-linecap:round;stroke-linejoin:miter;stroke-miterlimit:4;stroke-dasharray:none;stroke-dashoffset:.69999992;stroke-opacity:1" id="path7461" d="M 9 5.5 A 0.5 0.5 0 1 1 8,5.5 A 0.5 0.5 0 1 1 9 5.5 z" transform="matrix(1.1436311,0,0,1,-2.1490485,1)"/></g></g></g></svg>