<svg xmlns="http://www.w3.org/2000/svg" xmlns:cc="http://web.resource.org/cc/" xmlns:svg="http://www.w3.org/2000/svg" xmlns:xlink="http://www.w3.org/1999/xlink" id="svg2" width="16" height="16" version="1.0"><defs id="defs3"><linearGradient id="linearGradient4913"><stop style="stop-color:#888a85;stop-opacity:1" id="stop4915" offset="0"/><stop style="stop-color:#888a85;stop-opacity:0" id="stop4917" offset="1"/></linearGradient><linearGradient id="linearGradient6108"><stop style="stop-color:#000;stop-opacity:1" id="stop6110" offset="0"/><stop style="stop-color:#000;stop-opacity:0" id="stop6112" offset="1"/></linearGradient><linearGradient id="linearGradient6076"><stop style="stop-color:#fff;stop-opacity:1" id="stop6078" offset="0"/><stop style="stop-color:#cbcbcb;stop-opacity:1" id="stop6080" offset="1"/></linearGradient><linearGradient id="linearGradient6056"><stop style="stop-color:#fff;stop-opacity:1" id="stop6058" offset="0"/><stop style="stop-color:#d3d7cf;stop-opacity:1" id="stop6060" offset="1"/></linearGradient><linearGradient id="linearGradient6062" x1="8.647" x2="27.577" y1="17.297" y2="-2.585" gradientTransform="matrix(0.7647058,0,0,0.75,-1.1764704,-0.6250001)" gradientUnits="userSpaceOnUse" xlink:href="#linearGradient6056"/><linearGradient id="linearGradient6082" x1="17.688" x2="18.562" y1="4.528" y2="3.749" gradientTransform="matrix(0.7647058,0,0,0.7463802,-2.117645,2.50982e-2)" gradientUnits="userSpaceOnUse" xlink:href="#linearGradient6076"/><linearGradient id="linearGradient6114" x1="16.552" x2="16.552" y1="2.963" y2="7.836" gradientTransform="matrix(0.677447,0,0,0.8182202,0.383314,-0.5457611)" gradientUnits="userSpaceOnUse" xlink:href="#linearGradient6108"/><linearGradient id="linearGradient4919" x1="10.752" x2="10.554" y1="5" y2="2.277" gradientUnits="userSpaceOnUse" xlink:href="#linearGradient4913"/></defs><metadata id="metadata6"/><g id="layer1"><path style="color:#000;fill:url(#linearGradient6062);fill-opacity:1;fill-rule:evenodd;stroke:#888a85;stroke-width:.99999982px;stroke-linecap:butt;stroke-linejoin:miter;marker:none;marker-start:none;marker-mid:none;marker-end:none;stroke-miterlimit:4;stroke-dashoffset:0;stroke-opacity:1;visibility:visible;display:inline;overflow:visible;enable-background:accumulate" id="rect4899" d="M 2.7503383,0.49999959 L 10.190838,0.49999959 C 10.883525,0.49999959 14.5,4.0469266 14.5,4.7262932 L 14.5,14.273705 C 14.5,14.953073 13.942349,15.5 13.249662,15.5 L 2.7503383,15.5 C 2.0576508,15.5 1.4999999,14.953073 1.4999999,14.273705 L 1.4999999,1.7262933 C 1.4999999,1.0469266 2.0576508,0.49999959 2.7503383,0.49999959 z"/><path id="path6084" d="M 3.6964079,1.4999999 L 10.084255,1.4999999 C 10.747066,1.4999999 13.5,4.5815742 13.5,5.2357791 L 13.47583,6.9366593 L 13.47583,13.319124 C 13.47583,13.973329 12.942231,14.5 12.279422,14.5 L 3.6964079,14.5 C 3.0335979,14.5 2.5000001,13.973329 2.5000001,13.319124 L 2.5000001,2.6808752 C 2.5000001,2.0266703 3.0335979,1.4999999 3.6964079,1.4999999 z" style="color:#000;fill:none;fill-opacity:1;fill-rule:evenodd;stroke:#fff;stroke-width:.99999988px;stroke-linecap:butt;stroke-linejoin:miter;marker:none;marker-start:none;marker-mid:none;marker-end:none;stroke-miterlimit:4;stroke-dashoffset:0;stroke-opacity:1;visibility:visible;display:inline;overflow:visible;enable-background:accumulate"/><path id="path6104" d="M 10.54502,1 L 13.987531,5.1962178 L 14,6 L 10.570054,5.9999999 L 10.54502,1 z" style="fill:url(#linearGradient6114);fill-opacity:1;fill-rule:evenodd;stroke:none;stroke-width:1px;stroke-linecap:butt;stroke-linejoin:miter;stroke-opacity:1"/><path style="fill:url(#linearGradient6082);fill-opacity:1;fill-rule:evenodd;stroke:url(#linearGradient4919);stroke-width:1px;stroke-linecap:butt;stroke-linejoin:miter;stroke-opacity:1" id="path6074" d="M 14.103719,4.5 L 13.44905,4.5 L 10.520774,4.5 L 10.5,0.83875574"/></g></svg>