<svg xmlns="http://www.w3.org/2000/svg" xmlns:cc="http://web.resource.org/cc/" xmlns:svg="http://www.w3.org/2000/svg" xmlns:xlink="http://www.w3.org/1999/xlink" id="svg4220" width="16" height="16" version="1.0"><defs id="defs4222"><linearGradient id="linearGradient3161"><stop style="stop-color:#fff;stop-opacity:1" id="stop3163" offset="0"/><stop style="stop-color:#eeeeec;stop-opacity:1" id="stop3165" offset="1"/></linearGradient><linearGradient id="linearGradient3153"><stop style="stop-color:#fff;stop-opacity:1" id="stop3155" offset="0"/><stop style="stop-color:#eeeeec;stop-opacity:1" id="stop3157" offset="1"/></linearGradient><linearGradient id="linearGradient6174"><stop style="stop-color:#888a85;stop-opacity:1" id="stop6176" offset="0"/><stop style="stop-color:#888a85;stop-opacity:0" id="stop6178" offset="1"/></linearGradient><linearGradient id="linearGradient6166"><stop style="stop-color:#eeeeec;stop-opacity:1" id="stop6168" offset="0"/><stop style="stop-color:#eeeeec;stop-opacity:0" id="stop6170" offset="1"/></linearGradient><linearGradient id="linearGradient6172" x1="13.031" x2="13.031" y1="11.323" y2="17.402" gradientUnits="userSpaceOnUse" xlink:href="#linearGradient6166"/><linearGradient id="linearGradient6180" x1="8.577" x2="8.577" y1="15.866" y2="9.769" gradientUnits="userSpaceOnUse" xlink:href="#linearGradient6174"/><linearGradient id="linearGradient3159" x1="3.407" x2="3.407" y1="7.152" y2="17.469" gradientUnits="userSpaceOnUse" xlink:href="#linearGradient3153"/><linearGradient id="linearGradient3167" x1="9.306" x2="9.306" y1="13.086" y2="20.596" gradientUnits="userSpaceOnUse" xlink:href="#linearGradient3161"/></defs><metadata id="metadata4225"/><g id="layer1"><path style="fill:#ced3ae;fill-opacity:1;stroke:#777b61;stroke-width:1.31748343;stroke-miterlimit:4;stroke-opacity:1" id="path6119" d="M 4.012827,3.4879724 C 2.7424273,3.4879724 2.5,4.6029715 2.5,5.9879724 L 2.5,6.5 L 2.5,19.46875 C 2.5,20.032944 3.0159561,20.5 3.65625,20.5 L 19.34375,20.5 C 19.984044,20.5 20.5,20.032944 20.5,19.46875 L 20.5,7.1477443 C 20.5,6.5835495 19.984043,6.1164945 19.34375,6.1164943 L 10.5,6.1164943 C 10.5,5.4577658 10.5,6.0576768 10.5,5.6044667 C 10.5,4.2194657 10.220981,3.4879724 8.9505814,3.4879724 L 4.012827,3.4879724 z" transform="matrix(0.776967,0,0,0.763307,-1.435116,-1.155092)"/><path style="opacity:.73563218;fill:url(#linearGradient6180);fill-opacity:1;stroke:url(#linearGradient3159);stroke-width:1.36882877;stroke-miterlimit:4;stroke-opacity:1" id="path6128" d="M 4,4.5245639 C 3.6556188,4.5245639 3.7479961,4.4890573 3.65625,4.6808139 C 3.5645039,4.8725705 3.5,5.3869936 3.5,6.0245639 L 3.5,6.5 L 3.5,19.46875 C 3.5,19.426903 3.4993571,19.5 3.65625,19.5 L 19.34375,19.5 C 19.500643,19.5 19.5,19.426903 19.5,19.46875 L 19.5,7.331687 L 10.109214,7.3503277 C 9.8435202,7.3518954 9.5882545,7.247042 9.4003772,7.0591647 C 9.2124999,6.8712874 9.1076465,6.6160217 9.1092142,6.3503277 C 9.1092142,5.6915992 9.1092142,6.3281017 9.1092142,5.8748916 C 9.1092142,5.2522738 9.0223141,4.9580446 8.9217142,4.7619546 C 8.8211143,4.5658646 8.8910957,4.5744546 8.5467142,4.5744546 L 4,4.5245639 z" transform="matrix(0.749087,0,0,0.733434,-1.114504,-0.809266)"/><path style="fill:#ced3ae;fill-opacity:1;stroke:#777b61;stroke-width:1.61308646;stroke-miterlimit:4;stroke-opacity:1;stroke-linecap:round" id="rect6106" d="M 6.3424769,15.518042 L 6.7718498,11.027925 C 6.7718498,10.458455 7.2303045,10 7.7997751,10 L 20.689566,10 C 21.259036,10 21.717491,10.458455 21.717491,11.027925 L 20.858746,20.008158 C 20.858746,20.577629 20.400291,21.036083 19.830821,21.036083 L 6.9410293,21.036083" transform="matrix(0.848261,0,0,0.45306,-2.922105,4.969404)"/><path style="opacity:.7;fill:url(#linearGradient6172);fill-opacity:1;stroke:url(#linearGradient3167);stroke-width:1.92503738;stroke-miterlimit:4;stroke-opacity:1;stroke-linejoin:round" id="path6117" d="M 7.5938374,11 C 7.5731889,11 7.5625874,11.010602 7.5625874,11.03125 C 7.5683707,11.093616 7.5683707,11.156384 7.5625874,11.21875 L 6.5748062,20.03125 L 19.827496,20.03125 C 19.848144,20.03125 19.858746,20.020649 19.858746,20 C 19.852963,19.937634 19.852963,19.874866 19.858746,19.8125 L 20.846527,11 L 7.5938374,11 z" transform="matrix(0.812358,0,0,0.33218,-2.434848,6.846012)"/></g></svg>