<svg xmlns="http://www.w3.org/2000/svg" xmlns:cc="http://web.resource.org/cc/" xmlns:svg="http://www.w3.org/2000/svg" id="svg5607" width="16" height="16" version="1.0"><metadata id="metadata5612"/><g id="layer1"><path id="path5641" d="M 12.498691,0.44365078 L 6.4440888,9.5918448 L 6.5324778,11.757359 C 6.5324778,11.757359 13.470963,5.570175 13.515157,3.4488546 C 13.559351,1.3275343 12.498691,0.48784495 12.498691,0.44365078 z" style="opacity:1;color:#000;fill:#e5e5e3;fill-opacity:1;fill-rule:evenodd;stroke:#989a95;stroke-width:1;stroke-linecap:butt;stroke-linejoin:miter;marker:none;marker-start:none;marker-mid:none;marker-end:none;stroke-miterlimit:10;stroke-dasharray:none;stroke-dashoffset:0;stroke-opacity:1;visibility:visible;display:inline;overflow:visible;enable-background:accumulate"/><path style="opacity:1;color:#000;fill:#e5e5e3;fill-opacity:1;fill-rule:evenodd;stroke:#989a95;stroke-width:1;stroke-linecap:butt;stroke-linejoin:miter;marker:none;marker-start:none;marker-mid:none;marker-end:none;stroke-miterlimit:10;stroke-dasharray:none;stroke-dashoffset:0;stroke-opacity:1;visibility:visible;display:inline;overflow:visible;enable-background:accumulate" id="path5639" d="M 2.4896308,0.44365078 L 8.5442328,9.5918448 L 8.4558438,11.757359 C 8.4558438,11.757359 1.5173588,5.570175 1.4731648,3.4488546 C 1.4289708,1.3275343 2.4896308,0.48784495 2.4896308,0.44365078 z"/><path style="opacity:1;color:#000;fill:#cd9740;fill-opacity:1;fill-rule:evenodd;stroke:#8f5902;stroke-width:1;stroke-linecap:butt;stroke-linejoin:miter;marker:none;marker-start:none;marker-mid:none;marker-end:none;stroke-miterlimit:10;stroke-dasharray:none;stroke-dashoffset:0;stroke-opacity:1;visibility:visible;display:inline;overflow:visible;enable-background:accumulate" id="path5625" d="M 2.4999998,9.5 C 0.56249979,9.5625 0.49999979,10.8125 0.49999979,11.4375 C 0.49999979,11.4375 0.49999979,13.875 0.49999979,13.875 C 0.43749979,14.9375 1.2499998,15.6875 2.2499998,15.5625 C 2.2499998,15.5625 3.8124998,15.53125 3.8124998,15.53125 C 7.2812498,15.46875 6.4374998,9.5 6.4374998,9.5 C 6.4374998,9.5 2.4999998,9.5 2.4999998,9.5 z M 2.5312498,11.5 L 4.4999998,11.5 C 4.4999998,11.5 4.6726668,13.604351 3.3124998,13.5625 C 2.2968748,13.53125 2.5624998,12.53125 2.5312498,11.5 z"/><rect style="opacity:1;color:#000;fill:#ecd7b5;fill-opacity:1;fill-rule:evenodd;stroke:none;stroke-width:1;stroke-linecap:butt;stroke-linejoin:miter;marker:none;marker-start:none;marker-mid:none;marker-end:none;stroke-miterlimit:10;stroke-dasharray:none;stroke-dashoffset:0;stroke-opacity:1;visibility:visible;display:inline;overflow:visible;enable-background:accumulate" id="rect5633" width="2" height="1" x="2" y="10" rx=".5" ry=".5"/><path id="path5635" d="M 12.49662,9.5 C 14.43412,9.5625 14.49662,10.8125 14.49662,11.4375 C 14.49662,11.4375 14.49662,13.875 14.49662,13.875 C 14.55912,14.9375 13.74662,15.6875 12.74662,15.5625 C 12.74662,15.5625 11.18412,15.53125 11.18412,15.53125 C 7.7153698,15.46875 8.5591198,9.5 8.5591198,9.5 C 8.5591198,9.5 12.49662,9.5 12.49662,9.5 z M 12.46537,11.5 L 10.49662,11.5 C 10.49662,11.5 10.323953,13.604351 11.68412,13.5625 C 12.699745,13.53125 12.43412,12.53125 12.46537,11.5 z" style="opacity:1;color:#000;fill:#cd9740;fill-opacity:1;fill-rule:evenodd;stroke:#8f5902;stroke-width:1;stroke-linecap:butt;stroke-linejoin:miter;marker:none;marker-start:none;marker-mid:none;marker-end:none;stroke-miterlimit:10;stroke-dasharray:none;stroke-dashoffset:0;stroke-opacity:1;visibility:visible;display:inline;overflow:visible;enable-background:accumulate"/><path style="opacity:1;color:#000;fill:#e5e5e3;fill-opacity:1;fill-rule:evenodd;stroke:#989a95;stroke-width:1.35557842;stroke-linecap:butt;stroke-linejoin:miter;marker:none;marker-start:none;marker-mid:none;marker-end:none;stroke-miterlimit:10;stroke-dasharray:none;stroke-dashoffset:0;stroke-opacity:1;visibility:visible;display:inline;overflow:visible;enable-background:accumulate" id="path5643" d="M 25.544233,7.3379421 A 1.3921164,1.4584078 0 1 1 22.76,7.3379421 A 1.3921164,1.4584078 0 1 1 25.544233,7.3379421 z" transform="matrix(0.7936512,0,0,0.6856794,-11.563503,3.4685245)"/><rect id="rect5637" width="2" height="1" x="-11" y="10" rx=".5" ry=".5" transform="scale(-1,1)" style="opacity:1;color:#000;fill:#ecd7b5;fill-opacity:1;fill-rule:evenodd;stroke:none;stroke-width:1;stroke-linecap:butt;stroke-linejoin:miter;marker:none;marker-start:none;marker-mid:none;marker-end:none;stroke-miterlimit:10;stroke-dasharray:none;stroke-dashoffset:0;stroke-opacity:1;visibility:visible;display:inline;overflow:visible;enable-background:accumulate"/></g></svg>