<svg xmlns="http://www.w3.org/2000/svg" xmlns:cc="http://web.resource.org/cc/" xmlns:svg="http://www.w3.org/2000/svg" xmlns:xlink="http://www.w3.org/1999/xlink" id="svg2" width="16" height="16" version="1.0"><defs id="defs3"><linearGradient id="linearGradient5914" x1="48.691" x2="52.986" y1="17.59" y2="22.409" gradientTransform="matrix(0.294729,0,0,0.294729,9.243496,8.110616)" gradientUnits="userSpaceOnUse" xlink:href="#linearGradient5908"/><linearGradient id="linearGradient5933" x1="25.279" x2="19.445" y1="28.731" y2="23.074" gradientTransform="matrix(0.721493,0,0,0.721025,4.4502,-1.075953)" gradientUnits="userSpaceOnUse" xlink:href="#linearGradient5927"/><radialGradient id="radialGradient3740" cx="48.178" cy="16.094" r="12.5" fx="48.178" fy="16.094" gradientTransform="matrix(0.117808,0.165688,-0.160285,0.113967,37.8996,24.60705)" gradientUnits="userSpaceOnUse" xlink:href="#linearGradient2812"/><radialGradient id="radialGradient2818" cx="18.39" cy="17.173" r="12.5" fx="18.39" fy="17.173" gradientTransform="matrix(0.710234,0.703965,-0.828897,0.836278,-17.34172,-12.95082)" gradientUnits="userSpaceOnUse" xlink:href="#linearGradient2812"/><linearGradient id="linearGradient2802" x1="42.994" x2="42.994" y1="18.054" y2="23.007" gradientTransform="translate(-21.33061,6.070707)" gradientUnits="userSpaceOnUse" xlink:href="#linearGradient2796"/><radialGradient id="radialGradient2794" cx="19.825" cy="17.499" r="9.5" fx="19.825" fy="17.499" gradientTransform="matrix(1.515341,1.822282e-2,-1.854671e-2,1.542275,-9.89215,-9.850491)" gradientUnits="userSpaceOnUse" xlink:href="#linearGradient2788"/><radialGradient id="radialGradient3221" cx="9.5" cy="16.5" r="8.5" fx="9.5" fy="16.5" gradientTransform="matrix(1,0,0,0.176471,0,13.58824)" gradientUnits="userSpaceOnUse" xlink:href="#linearGradient3215"/><linearGradient id="linearGradient3215"><stop id="stop3217" offset="0" style="stop-color:#2e3436;stop-opacity:1"/><stop id="stop3219" offset="1" style="stop-color:#2e3436;stop-opacity:0"/></linearGradient><linearGradient id="linearGradient2788"><stop id="stop2790" offset="0" style="stop-color:#729fcf;stop-opacity:1"/><stop id="stop2792" offset="1" style="stop-color:white;stop-opacity:1"/></linearGradient><linearGradient id="linearGradient2796"><stop id="stop2798" offset="0" style="stop-color:#204a87;stop-opacity:1"/><stop id="stop2800" offset="1" style="stop-color:#1a3c6e;stop-opacity:1"/></linearGradient><linearGradient id="linearGradient2812"><stop id="stop2814" offset="0" style="stop-color:#3070ce;stop-opacity:1"/><stop id="stop2816" offset="1" style="stop-color:#1a3c6e;stop-opacity:1"/></linearGradient><linearGradient id="linearGradient5927"><stop id="stop5929" offset="0" style="stop-color:#c17d11;stop-opacity:1"/><stop id="stop5931" offset="1" style="stop-color:#c17d11;stop-opacity:0"/></linearGradient><linearGradient id="linearGradient5908"><stop id="stop5910" offset="0" style="stop-color:#d3d7cf;stop-opacity:1"/><stop id="stop5912" offset="1" style="stop-color:#888a85;stop-opacity:1"/></linearGradient></defs><metadata id="metadata6"/><g id="layer1"><rect style="opacity:1;fill:#f4f5f3;fill-opacity:1;stroke:#888a85;stroke-width:1.53428209;stroke-miterlimit:4;stroke-dasharray:none;stroke-opacity:1" id="rect4287" width="20.032" height="22.889" x="2" y="0" rx="1.905" ry="1.905" transform="matrix(0.648212,0,0,0.655349,0.218353,0.5)"/><path style="fill:none;fill-opacity:1;stroke:#fff;stroke-width:1.63288057;stroke-miterlimit:4;stroke-opacity:1" id="path5177" d="M 3.90625,0.9375 C 3.3632678,0.9375 2.9375,1.3632678 2.9375,1.90625 L 2.9375,20.96875 C 2.9375,21.511732 3.3632676,21.9375 3.90625,21.9375 L 20.125,21.9375 C 20.667982,21.9375 21.09375,21.511732 21.09375,20.96875 L 21.09375,1.90625 C 21.09375,1.3632671 20.667984,0.9375 20.125,0.9375 L 3.90625,0.9375 z" transform="matrix(0.605852,0,0,0.619048,0.72031,0.919642)"/><path style="fill:#000;fill-opacity:1;fill-rule:evenodd;stroke:#bababa;stroke-width:1.64833736px;stroke-linecap:butt;stroke-linejoin:miter;stroke-opacity:1" id="path5015" d="M 6,5.495472 L 17,5.495472" transform="matrix(0.460332,0,0,0.799534,1.716065,-0.926019)"/><path style="fill:none;fill-rule:evenodd;stroke:#bababa;stroke-width:1.55161715px;stroke-linecap:butt;stroke-linejoin:miter;stroke-opacity:1" id="path6015" d="M 6,14.495472 L 17,14.495472" transform="matrix(0.636045,0,0,0.653046,0.671096,1.196583e-2)"/><path id="path5986" d="M 6,8.495472 L 17,8.495472" transform="matrix(0.641279,0,0,0.587011,0.617602,0.500509)" style="fill:none;fill-rule:evenodd;stroke:#bababa;stroke-width:1.62986946px;stroke-linecap:butt;stroke-linejoin:miter;stroke-opacity:1"/><path id="path5990" d="M 6,11.495472 L 17,11.495472" transform="matrix(0.451252,0,0,0.629082,1.796014,0.232387)" style="fill:none;fill-rule:evenodd;stroke:#bababa;stroke-width:1.87688172px;stroke-linecap:butt;stroke-linejoin:miter;stroke-opacity:1"/><path id="path6021" d="M 6,17.495472 L 12.045277,17.495472" transform="matrix(0.680469,0,0,0.674806,0.387984,-0.31369)" style="fill:none;fill-rule:evenodd;stroke:#bababa;stroke-width:1.47572756px;stroke-linecap:butt;stroke-linejoin:miter;stroke-opacity:1"/></g></svg>