<svg xmlns="http://www.w3.org/2000/svg" xmlns:cc="http://web.resource.org/cc/" xmlns:svg="http://www.w3.org/2000/svg" xmlns:xlink="http://www.w3.org/1999/xlink" id="svg2" width="16" height="16" version="1.0"><defs id="defs3"><linearGradient id="linearGradient5033"><stop id="stop5035" offset="0" style="stop-color:#8ae234;stop-opacity:1"/><stop id="stop5037" offset="1" style="stop-color:#4e9a06;stop-opacity:1"/></linearGradient><linearGradient id="linearGradient6128"><stop style="stop-color:#fff;stop-opacity:1" id="stop6130" offset="0"/><stop style="stop-color:#fff;stop-opacity:0" id="stop6132" offset="1"/></linearGradient><linearGradient id="linearGradient4927" x1="6.689" x2="7.5" y1="6.14" y2="11.645" gradientTransform="translate(0,-20)" gradientUnits="userSpaceOnUse" xlink:href="#linearGradient5033"/><linearGradient id="linearGradient4929" x1="-.198" x2="-.198" y1="-1.342" y2="8.926" gradientTransform="matrix(0.9064327,0,0,0.9064327,0.1685912,-18.812858)" gradientUnits="userSpaceOnUse" xlink:href="#linearGradient6128"/></defs><metadata id="metadata6"/><g id="layer1"><g id="g4921" transform="matrix(0,-1,1,0,20.015625,14.984375)"><path id="path4911" d="M 7.53125,-18.46875 L 1.5,-12.4375 L 7.53125,-6.5625 L 7.53125,-9.5 L 12.71875,-9.5 C 13.157937,-9.5 13.5,-9.842063 13.5,-10.28125 L 13.5,-14.71875 C 13.5,-15.157937 13.157937,-15.5 12.71875,-15.5 L 7.53125,-15.5 L 7.53125,-18.46875 z" style="fill:url(#linearGradient4927);fill-opacity:1;fill-rule:evenodd;stroke:#4e9a06;stroke-width:1px;stroke-linecap:butt;stroke-linejoin:miter;stroke-opacity:1"/><path style="fill:none;fill-opacity:1;fill-rule:evenodd;stroke:#fff;stroke-width:1px;stroke-linecap:butt;stroke-linejoin:miter;stroke-opacity:.36486487" id="path6121" d="M 6.53125,-16.081428 L 2.9459251,-12.4375 L 6.53125,-8.850728 L 6.53125,-10.5 L 11.71875,-10.5 C 12.157937,-10.5 12.5,-10.842063 12.5,-11.28125 L 12.5,-13.71875 C 12.5,-14.157937 12.157937,-14.5 11.71875,-14.5 L 6.53125,-14.5 L 6.53125,-16.081428 z"/><path id="path6123" d="M 6.9668368,-16.999992 C 6.8215143,-16.999992 6.6846414,-16.975639 6.5419465,-16.971666 L 2.7179333,-13.147653 C 3.7906582,-12.71812 5.2947036,-12.021903 6.9668368,-12.021903 C 9.4060473,-12.021903 11.906992,-12.846722 12.405433,-13.855804 L 12.405433,-14.02576 C 12.405433,-14.423853 12.095376,-14.73391 11.697282,-14.73391 L 6.9951628,-14.73391 L 6.9951628,-16.999992 C 6.9855162,-17.00001 6.9764943,-16.999992 6.9668368,-16.999992 z" style="opacity:1;color:#000;fill:url(#linearGradient4929);fill-opacity:1;fill-rule:nonzero;stroke:none;stroke-width:1;stroke-linecap:butt;stroke-linejoin:miter;marker:none;marker-start:none;marker-mid:none;marker-end:none;stroke-miterlimit:4;stroke-dasharray:none;stroke-dashoffset:0;stroke-opacity:.36486487;visibility:visible;display:inline;overflow:visible;enable-background:accumulate"/></g></g></svg>