<svg xmlns="http://www.w3.org/2000/svg" xmlns:cc="http://web.resource.org/cc/" xmlns:svg="http://www.w3.org/2000/svg" xmlns:xlink="http://www.w3.org/1999/xlink" id="svg4259" width="16" height="16"><defs id="defs4261"><linearGradient id="linearGradient5198"><stop style="stop-color:#eeeeec;stop-opacity:1" id="stop5200" offset="0"/><stop style="stop-color:#eeeeec;stop-opacity:0" id="stop5202" offset="1"/></linearGradient><linearGradient id="linearGradient5204" x1="12.633" x2="12.633" y1="18.377" y2="19.845" gradientUnits="userSpaceOnUse" xlink:href="#linearGradient5198"/><linearGradient id="linearGradient5165"><stop style="stop-color:#2e3436;stop-opacity:1" id="stop5167" offset="0"/><stop style="stop-color:#2e3436;stop-opacity:0" id="stop5169" offset="1"/></linearGradient><linearGradient id="linearGradient5171" x1="13.014" x2="13.014" y1="12.605" y2="13.58" gradientUnits="userSpaceOnUse" xlink:href="#linearGradient5165"/><linearGradient id="linearGradient5159" x1="1.205" x2=".08" y1="12.231" y2="12.231" gradientUnits="userSpaceOnUse" xlink:href="#linearGradient5149"/><linearGradient id="linearGradient5149"><stop style="stop-color:#819e07;stop-opacity:1" id="stop5151" offset="0"/><stop style="stop-color:#819e07;stop-opacity:0" id="stop5153" offset="1"/></linearGradient><linearGradient id="linearGradient5155" x1="1.205" x2=".08" y1="12.231" y2="12.231" gradientUnits="userSpaceOnUse" xlink:href="#linearGradient5149"/><linearGradient id="linearGradient5212" x1="9.352" x2="9.352" y1="15.12" y2="19.327" gradientUnits="userSpaceOnUse" xlink:href="#linearGradient5206"/><linearGradient id="linearGradient5206"><stop style="stop-color:#eeeeec;stop-opacity:1" id="stop5208" offset="0"/><stop style="stop-color:#eeeeec;stop-opacity:0" id="stop5210" offset="1"/></linearGradient><linearGradient id="linearGradient5191" x1="9.352" x2="9.352" y1="15.12" y2="19.327" gradientUnits="userSpaceOnUse" xlink:href="#linearGradient5206"/></defs><metadata id="metadata4264"/><g id="layer1"><rect style="opacity:1;fill:#cc4000;fill-opacity:1;stroke:#a43500;stroke-width:1.0254209;stroke-miterlimit:4;stroke-dasharray:none;stroke-opacity:1" id="rect5161" width="2.246" height="4.334" x="0" y="3" transform="matrix(0.890381,0,0,1.06812,3.5,-1.70436)"/><rect style="opacity:.37991267;fill:#c00;fill-opacity:1;stroke:url(#linearGradient5191);stroke-width:19.53719139;stroke-miterlimit:4;stroke-dasharray:none;stroke-opacity:1" id="rect5189" width="2.703" height="5.413" x="8" y="14" transform="matrix(9.664e-3,0,0,0.271093,4.396564,-1.295307)"/><path style="fill:#eeeeec;fill-opacity:1;stroke:#888a85;stroke-width:1.12544179;stroke-miterlimit:4;stroke-opacity:1" id="rect4228" d="M 5.2308439,11.726053 L 7.2489807,11.740999 L 7.2834303,21.5 L 18.796069,21.5 L 18.747132,11.694156 L 20.796623,11.693674 L 13.334495,3.7097642 C 10.726959,6.4899913 8.3579145,8.391883 5.2308439,11.726053 z" transform="matrix(0.963653,0,0,0.819282,-4.540717,-2.120086)"/><rect style="opacity:1;fill:#cdd2c8;fill-opacity:1;stroke:none;stroke-width:1;stroke-miterlimit:4;stroke-dasharray:none;stroke-opacity:1" id="rect4311" width="9.811" height="1.529" x="-8.473" y="-3.459" rx="0" ry="0" transform="matrix(0,-0.407695,0.654009,0,6.262117,4.545455)"/><rect style="opacity:1;fill:#cdd2c8;fill-opacity:1;stroke:none;stroke-width:1;stroke-miterlimit:4;stroke-dasharray:none;stroke-opacity:1" id="rect5179" width="9.811" height="1.529" x="-8.473" y="-3.459" rx="0" ry="0" transform="matrix(1.018893,0,0,0.654008,11.63347,13.26212)"/><path style="opacity:.82096073;fill:none;fill-opacity:1;stroke:#eeeeec;stroke-width:.99499375;stroke-miterlimit:4;stroke-opacity:1" id="path5128" d="M 8,10 L 12.379208,5.2539501 L 16.758416,10 L 16.758416,18.458911 L 8,18.458911 L 8,10 z" transform="matrix(1.078158,0,0,0.936865,-31.12526,1.206492)"/><rect style="opacity:1;fill:#cdd2c8;fill-opacity:1;stroke:none;stroke-width:1;stroke-miterlimit:4;stroke-dasharray:none;stroke-opacity:1" id="rect5177" width="9.811" height="1.529" x="-8.473" y="-3.459" rx="0" ry="0" transform="matrix(1.019235,0,0,0.654011,11.63637,15.26212)"/><rect style="opacity:1;fill:#cdd2c8;fill-opacity:1;stroke:none;stroke-width:1;stroke-miterlimit:4;stroke-dasharray:none;stroke-opacity:1" id="rect4309" width="9.811" height="1.529" x="-8.473" y="-3.459" rx="0" ry="0" transform="matrix(1.018893,0,0,0.654008,11.63682,11.26211)"/><rect style="opacity:1;fill:#cc4d00;fill-opacity:1;stroke:#a43500;stroke-width:.90202653;stroke-miterlimit:4;stroke-dasharray:none;stroke-opacity:1" id="rect5176" width="2.703" height="5.413" x="8" y="14" transform="matrix(1.109789,0,0,1.107442,-4.378313,-6.004183)"/><rect style="opacity:1;fill:#cdd2c8;fill-opacity:1;stroke:none;stroke-width:1;stroke-miterlimit:4;stroke-dasharray:none;stroke-opacity:1" id="rect5180" width="9.811" height="1.529" x="-8.473" y="-3.459" transform="matrix(1.019235,0,0,0.654007,11.63637,10.26211)"/><rect style="opacity:1;fill:#cdd2c8;fill-opacity:1;stroke:none;stroke-width:1;stroke-miterlimit:4;stroke-dasharray:none;stroke-opacity:1" id="rect5182" width="9.811" height="1.529" x="-8.473" y="-3.459" rx="0" ry="0" transform="matrix(0,-0.509618,0.654009,0,8.262116,3.681818)"/><rect style="opacity:1;fill:#cdd2c8;fill-opacity:1;stroke:none;stroke-width:1;stroke-miterlimit:4;stroke-dasharray:none;stroke-opacity:1" id="rect5184" width="9.811" height="1.529" x="-8.473" y="-3.459" rx="0" ry="0" transform="matrix(0,-0.611541,0.654008,0,10.26211,2.818182)"/><rect style="opacity:1;fill:#cdd2c8;fill-opacity:1;stroke:none;stroke-width:1;stroke-miterlimit:4;stroke-dasharray:none;stroke-opacity:1" id="rect5186" width="9.811" height="1.529" x="-8.473" y="-3.459" rx="0" ry="0" transform="matrix(0,-0.51401,0.654011,0,12.26212,3.644598)"/><rect style="opacity:.16593885;fill:#c00;fill-opacity:1;stroke:url(#linearGradient5212);stroke-width:1.91260946;stroke-miterlimit:4;stroke-dasharray:none;stroke-opacity:1" id="rect5204" width="2.703" height="5.413" x="8" y="14" transform="matrix(0.369929,0,0,0.738975,2.540575,0.154344)"/><rect style="opacity:1;fill:#a40000;fill-opacity:1;stroke:none;stroke-width:1;stroke-miterlimit:4;stroke-dasharray:none;stroke-opacity:1" id="rect5214" width="3.504" height="2.574" x="-3.568" y="-1" rx="1.287" ry="1.287" transform="matrix(0.207298,0,0,0.279868,6.931623,12.53237)"/><rect style="opacity:1;fill:url(#linearGradient5155);fill-opacity:1;stroke:none;stroke-width:1;stroke-miterlimit:4;stroke-dasharray:none;stroke-opacity:1" id="rect5145" width="3.189" height="2.462" x="0" y="11" transform="matrix(2.508552,0,0,0.406149,0,10.53236)"/><rect style="opacity:1;fill:url(#linearGradient5159);fill-opacity:1;stroke:none;stroke-width:1;stroke-miterlimit:4;stroke-dasharray:none;stroke-opacity:1" id="rect5157" width="3.189" height="2.462" x="0" y="11" transform="matrix(-2.508552,0,0,0.406153,16,10.53232)"/><rect style="opacity:1;fill:#cdd2c8;fill-opacity:1;stroke:none;stroke-width:1;stroke-miterlimit:4;stroke-dasharray:none;stroke-opacity:1" id="rect4313" width="9.811" height="1.529" x="-8.473" y="-3.459" rx="0" ry="0" transform="matrix(0,-0.305771,0.654009,0,14.26212,5.409092)"/><path style="opacity:.88646288;fill:none;fill-opacity:1;stroke:url(#linearGradient5204);stroke-width:1.18232727;stroke-miterlimit:4;stroke-opacity:1" id="path5196" d="M 13.3125,4.53125 C 11.143589,6.7892446 9.0366868,8.6974454 6.59375,11.1875 L 7.25,11.1875 C 7.5576045,11.194756 7.8052439,11.442396 7.8125,11.75 L 7.84375,20.9375 L 18.21875,20.9375 L 18.1875,11.65625 C 18.194756,11.348646 18.442396,11.101006 18.75,11.09375 L 19.46875,11.09375 L 13.3125,4.53125 z" transform="matrix(0.883237,0,0,0.809929,-3.450831,-1.919002)"/><rect style="opacity:1;fill:#888a85;fill-opacity:1;stroke:#555753;stroke-width:1.69453382;stroke-miterlimit:4;stroke-dasharray:none;stroke-opacity:1" id="rect5178" width="3.759" height="3.056" x="13.443" y="14" rx=".435" ry=".362" transform="matrix(0.532075,0,0,0.654525,2.34746,0.33665)"/><path style="fill:none;fill-opacity:1;stroke:url(#linearGradient5171);stroke-width:1.14855599;stroke-miterlimit:4;stroke-opacity:1" id="path5163" d="M 5.2883983,11.338271 L 7.3065351,11.353217 L 7.2834303,21.5 L 18.796069,21.5 L 18.747132,11.273827 L 20.796623,11.273345 L 13.334495,2.652179 C 10.726959,5.4324061 8.4154689,8.0041017 5.2883983,11.338271 z" transform="matrix(0.963653,0,0,0.786638,-4.540717,-1.418241)"/></g></svg>