<svg xmlns="http://www.w3.org/2000/svg" xmlns:cc="http://web.resource.org/cc/" xmlns:svg="http://www.w3.org/2000/svg" xmlns:xlink="http://www.w3.org/1999/xlink" id="svg2" width="16" height="16" version="1.0"><defs id="defs3"><linearGradient id="linearGradient5033"><stop id="stop5035" offset="0" style="stop-color:#8ae234;stop-opacity:1"/><stop id="stop5037" offset="1" style="stop-color:#4e9a06;stop-opacity:1"/></linearGradient><linearGradient id="linearGradient6128"><stop style="stop-color:#fff;stop-opacity:1" id="stop6130" offset="0"/><stop style="stop-color:#fff;stop-opacity:0" id="stop6132" offset="1"/></linearGradient><linearGradient id="linearGradient4920"><stop style="stop-color:#8ae234;stop-opacity:1" id="stop4922" offset="0"/><stop style="stop-color:#4e9a06;stop-opacity:1" id="stop4924" offset="1"/></linearGradient><linearGradient id="linearGradient6236" x1="6.689" x2="7.5" y1="6.14" y2="11.645" gradientTransform="translate(2,0)" gradientUnits="userSpaceOnUse" xlink:href="#linearGradient5033"/><linearGradient id="linearGradient6238" x1="-.198" x2="-.198" y1="-1.342" y2="8.926" gradientTransform="matrix(0.9064327,0,0,0.9064327,2.1685912,1.187142)" gradientUnits="userSpaceOnUse" xlink:href="#linearGradient6128"/><linearGradient id="linearGradient6240" x1="6.689" x2="7.542" y1="6.14" y2="11.206" gradientTransform="matrix(1.4342365,0,0,1.1181969,1.228808,-1.2578938)" gradientUnits="userSpaceOnUse" xlink:href="#linearGradient4920"/></defs><metadata id="metadata6"/><g id="layer1"><g id="g6204" transform="matrix(-1,0,0,1,16,0)"><path id="path4911" d="M 9.53125,1.53125 L 3.5,7.5625 L 9.53125,13.4375 L 9.53125,10.5 L 14.71875,10.5 C 15.157937,10.5 15.5,10.157937 15.5,9.71875 L 15.5,5.28125 C 15.5,4.842063 15.157937,4.5 14.71875,4.5 L 9.53125,4.5 L 9.53125,1.53125 z" style="fill:url(#linearGradient6236);fill-opacity:1;fill-rule:evenodd;stroke:#4e9a06;stroke-width:1px;stroke-linecap:butt;stroke-linejoin:miter;stroke-opacity:1"/><path style="fill:none;fill-opacity:1;fill-rule:evenodd;stroke:#fff;stroke-width:1px;stroke-linecap:butt;stroke-linejoin:miter;stroke-opacity:.36486487" id="path6121" d="M 8.53125,3.918572 L 4.9459251,7.5625 L 8.53125,11.149272 L 8.53125,9.5 L 13.71875,9.5 C 14.157937,9.5 14.5,9.157937 14.5,8.71875 L 14.5,6.28125 C 14.5,5.842063 14.157937,5.5 13.71875,5.5 L 8.53125,5.5 L 8.53125,3.918572 z"/><path id="path6123" d="M 8.9668368,3.000008 C 8.8215143,3.000008 8.6846414,3.024361 8.5419465,3.028334 L 4.7179333,6.852347 C 5.7906582,7.28188 7.2947036,7.978097 8.9668368,7.978097 C 11.406047,7.978097 13.906992,7.153278 14.405433,6.144196 L 14.405433,5.97424 C 14.405433,5.576147 14.095376,5.26609 13.697282,5.26609 L 8.9951628,5.26609 L 8.9951628,3.000008 C 8.9855162,2.99999 8.9764943,3.000008 8.9668368,3.000008 z" style="opacity:1;color:#000;fill:url(#linearGradient6238);fill-opacity:1;fill-rule:nonzero;stroke:none;stroke-width:1;stroke-linecap:butt;stroke-linejoin:miter;marker:none;marker-start:none;marker-mid:none;marker-end:none;stroke-miterlimit:4;stroke-dasharray:none;stroke-dashoffset:0;stroke-opacity:.36486487;visibility:visible;display:inline;overflow:visible;enable-background:accumulate"/><rect style="opacity:1;color:#000;fill:url(#linearGradient6240);fill-opacity:1;fill-rule:evenodd;stroke:#4e9a06;stroke-width:.99999994px;stroke-linecap:butt;stroke-linejoin:miter;marker:none;marker-start:none;marker-mid:none;marker-end:none;stroke-miterlimit:4;stroke-dasharray:none;stroke-dashoffset:0;stroke-opacity:1;visibility:visible;display:inline;overflow:visible;enable-background:accumulate" id="rect6196" width="3" height="14" x=".5" y=".5" rx=".347" ry=".347"/><path id="path6202" d="M 1.5359641,1.1358317 L 1.5359641,13.919017" style="opacity:1;color:#000;fill:none;fill-opacity:1;fill-rule:evenodd;stroke:#fff;stroke-width:.99999982px;stroke-linecap:butt;stroke-linejoin:miter;marker:none;marker-start:none;marker-mid:none;marker-end:none;stroke-miterlimit:4;stroke-dasharray:none;stroke-dashoffset:0;stroke-opacity:.36486487;visibility:visible;display:inline;overflow:visible;enable-background:accumulate"/></g></g></svg>