<svg xmlns="http://www.w3.org/2000/svg" xmlns:cc="http://web.resource.org/cc/" xmlns:svg="http://www.w3.org/2000/svg" xmlns:xlink="http://www.w3.org/1999/xlink" id="svg2" width="16" height="16" version="1.0"><defs id="defs5040"><linearGradient id="linearGradient5033"><stop id="stop5035" offset="0" style="stop-color:#8ae234;stop-opacity:1"/><stop id="stop5037" offset="1" style="stop-color:#4e9a06;stop-opacity:1"/></linearGradient><linearGradient id="linearGradient4926" x1="6.689" x2="7.5" y1="6.14" y2="11.645" gradientUnits="userSpaceOnUse" xlink:href="#linearGradient5033"/><linearGradient id="linearGradient6128"><stop style="stop-color:#fff;stop-opacity:1" id="stop6130" offset="0"/><stop style="stop-color:#fff;stop-opacity:0" id="stop6132" offset="1"/></linearGradient><linearGradient id="linearGradient6134" x1="-.198" x2="-.198" y1="-1.342" y2="8.926" gradientTransform="matrix(0.9064327,0,0,0.9064327,0.1685912,1.187142)" gradientUnits="userSpaceOnUse" xlink:href="#linearGradient6128"/></defs><metadata id="metadata5043"/><g id="layer1"><path style="fill:url(#linearGradient4926);fill-opacity:1;fill-rule:evenodd;stroke:#4e9a06;stroke-width:1px;stroke-linecap:butt;stroke-linejoin:miter;stroke-opacity:1" id="path4911" d="M 7.53125,1.53125 L 1.5,7.5625 L 7.53125,13.4375 L 7.53125,10.5 L 12.71875,10.5 C 13.157937,10.5 13.5,10.157937 13.5,9.71875 L 13.5,5.28125 C 13.5,4.842063 13.157937,4.5 12.71875,4.5 L 7.53125,4.5 L 7.53125,1.53125 z"/><path id="path6121" d="M 6.53125,3.918572 L 2.9459251,7.5625 L 6.53125,11.149272 L 6.53125,9.5 L 11.71875,9.5 C 12.157937,9.5 12.5,9.157937 12.5,8.71875 L 12.5,6.28125 C 12.5,5.842063 12.157937,5.5 11.71875,5.5 L 6.53125,5.5 L 6.53125,3.918572 z" style="fill:none;fill-opacity:1;fill-rule:evenodd;stroke:#fff;stroke-width:1px;stroke-linecap:butt;stroke-linejoin:miter;stroke-opacity:.36486487"/><path style="opacity:1;color:#000;fill:url(#linearGradient6134);fill-opacity:1;fill-rule:nonzero;stroke:none;stroke-width:1;stroke-linecap:butt;stroke-linejoin:miter;marker:none;marker-start:none;marker-mid:none;marker-end:none;stroke-miterlimit:4;stroke-dasharray:none;stroke-dashoffset:0;stroke-opacity:.36486487;visibility:visible;display:inline;overflow:visible;enable-background:accumulate" id="path6123" d="M 6.9668368,3.000008 C 6.8215143,3.000008 6.6846414,3.024361 6.5419465,3.028334 L 2.7179333,6.852347 C 3.7906582,7.28188 5.2947036,7.978097 6.9668368,7.978097 C 9.4060473,7.978097 11.906992,7.153278 12.405433,6.144196 L 12.405433,5.97424 C 12.405433,5.576147 12.095376,5.26609 11.697282,5.26609 L 6.9951628,5.26609 L 6.9951628,3.000008 C 6.9855162,2.99999 6.9764943,3.000008 6.9668368,3.000008 z"/></g></svg>