<svg xmlns="http://www.w3.org/2000/svg" xmlns:cc="http://web.resource.org/cc/" xmlns:svg="http://www.w3.org/2000/svg" xmlns:xlink="http://www.w3.org/1999/xlink" id="svg4908" width="16" height="16" version="1.0"><defs id="defs4910"><linearGradient id="linearGradient5942"><stop id="stop5944" offset="0" style="stop-color:#a46a0e;stop-opacity:1"/><stop id="stop5946" offset="1" style="stop-color:#c17d11;stop-opacity:0"/></linearGradient><linearGradient id="linearGradient5936"><stop id="stop5938" offset="0" style="stop-color:#a46a0e;stop-opacity:1"/><stop id="stop5940" offset="1" style="stop-color:#c17d11;stop-opacity:0"/></linearGradient><linearGradient id="linearGradient5930"><stop id="stop5932" offset="0" style="stop-color:#a46a0e;stop-opacity:1"/><stop id="stop5934" offset="1" style="stop-color:#c17d11;stop-opacity:0"/></linearGradient><linearGradient id="linearGradient3331"><stop style="stop-color:#eeeeec;stop-opacity:1" id="stop3333" offset="0"/><stop id="stop3339" offset=".422" style="stop-color:#fff;stop-opacity:1"/><stop style="stop-color:#eeeeec;stop-opacity:1" id="stop3335" offset="1"/></linearGradient><linearGradient id="linearGradient4553" x1="32.933" x2="40.789" y1="21.188" y2="21.188" gradientTransform="translate(-2.9802322e-8,-4.0000002)" gradientUnits="userSpaceOnUse" xlink:href="#linearGradient3331"/><linearGradient id="linearGradient3261"><stop style="stop-color:#fff;stop-opacity:1" id="stop3263" offset="0"/><stop style="stop-color:#fff;stop-opacity:0" id="stop3265" offset="1"/></linearGradient><linearGradient id="linearGradient4476" x1="45.469" x2="45.469" y1="12.094" y2="13.782" gradientUnits="userSpaceOnUse" xlink:href="#linearGradient3261"/><linearGradient id="linearGradient3253"><stop style="stop-color:#fff;stop-opacity:1" id="stop3255" offset="0"/><stop style="stop-color:#fff;stop-opacity:0" id="stop3257" offset="1"/></linearGradient><linearGradient id="linearGradient4474" x1="43.406" x2="43.406" y1="12.154" y2="13.879" gradientUnits="userSpaceOnUse" xlink:href="#linearGradient3253"/><linearGradient id="linearGradient3269"><stop style="stop-color:#fff;stop-opacity:1" id="stop3271" offset="0"/><stop style="stop-color:#fff;stop-opacity:0" id="stop3273" offset="1"/></linearGradient><linearGradient id="linearGradient4472" x1="41.406" x2="41.406" y1="10.063" y2="13.72" gradientUnits="userSpaceOnUse" xlink:href="#linearGradient3269"/><linearGradient id="linearGradient4470" x1="42.656" x2="42.656" y1="13.499" y2="15.57" gradientUnits="userSpaceOnUse" xlink:href="#linearGradient5930"/><linearGradient id="linearGradient4468" x1="42.656" x2="42.656" y1="12.531" y2="14.543" gradientUnits="userSpaceOnUse" xlink:href="#linearGradient5936"/><linearGradient id="linearGradient4466" x1="42.656" x2="42.656" y1="12.531" y2="14.543" gradientUnits="userSpaceOnUse" xlink:href="#linearGradient5942"/><linearGradient id="linearGradient3208"><stop style="stop-color:#a46a0e;stop-opacity:1" id="stop3210" offset="0"/><stop style="stop-color:#c17d11;stop-opacity:0" id="stop3212" offset="1"/></linearGradient><linearGradient id="linearGradient4464" x1="42.656" x2="42.656" y1="12.818" y2="15.543" gradientUnits="userSpaceOnUse" xlink:href="#linearGradient3208"/><linearGradient id="linearGradient3283"><stop style="stop-color:#f4dbb3;stop-opacity:1" id="stop3285" offset="0"/><stop style="stop-color:#e9b96e;stop-opacity:1" id="stop3287" offset="1"/></linearGradient><radialGradient id="radialGradient4462" cx="42.938" cy="13" r="5.5" fx="42.938" fy="13" gradientTransform="matrix(1,0,0,0.8750102,0,1.6248744)" gradientUnits="userSpaceOnUse" xlink:href="#linearGradient3283"/><linearGradient id="linearGradient5202" x1="32.933" x2="40.789" y1="21.188" y2="21.188" gradientTransform="translate(-20,-1)" gradientUnits="userSpaceOnUse" xlink:href="#linearGradient3331"/><linearGradient id="linearGradient4537" x1="-48.438" x2="-48.438" y1="2.654" y2="4.112" gradientTransform="translate(0,12)" gradientUnits="userSpaceOnUse" xlink:href="#linearGradient4392"/><linearGradient id="linearGradient4533" x1="-48.438" x2="-48.438" y1="2.654" y2="4.112" gradientTransform="translate(0,9)" gradientUnits="userSpaceOnUse" xlink:href="#linearGradient4392"/><linearGradient id="linearGradient4529" x1="-48.438" x2="-48.438" y1="2.654" y2="4.112" gradientTransform="translate(0,6)" gradientUnits="userSpaceOnUse" xlink:href="#linearGradient4392"/><linearGradient id="linearGradient4525" x1="-48.438" x2="-48.438" y1="2.654" y2="4.112" gradientTransform="translate(0,3)" gradientUnits="userSpaceOnUse" xlink:href="#linearGradient4392"/><linearGradient id="linearGradient4521" x1="9.969" x2="9.969" y1="15" y2="20.501" gradientUnits="userSpaceOnUse" xlink:href="#linearGradient4482"/><radialGradient id="radialGradient4519" cx="2" cy="17.75" r="2" fx="2" fy="17.75" gradientTransform="matrix(2,0,0,1.375,14,-6.65625)" gradientUnits="userSpaceOnUse" xlink:href="#linearGradient4433"/><radialGradient id="radialGradient4517" cx="2" cy="17.75" r="2" fx="2" fy="17.75" gradientTransform="matrix(2,0,0,1.375,-10,-42.15625)" gradientUnits="userSpaceOnUse" xlink:href="#linearGradient4433"/><radialGradient id="radialGradient4510" cx="2" cy="17.75" r="2" fx="2" fy="17.75" gradientTransform="matrix(2,0,0,1.375,-10,-42.15625)" gradientUnits="userSpaceOnUse" xlink:href="#linearGradient4433"/><radialGradient id="radialGradient4507" cx="2" cy="17.75" r="2" fx="2" fy="17.75" gradientTransform="matrix(2,0,0,1.375,14,-6.65625)" gradientUnits="userSpaceOnUse" xlink:href="#linearGradient4433"/><linearGradient id="linearGradient4504" x1="9.969" x2="9.969" y1="15" y2="20.501" gradientUnits="userSpaceOnUse" xlink:href="#linearGradient4482"/><linearGradient id="linearGradient4501" x1="9.969" x2="9.969" y1="15" y2="20.501" gradientUnits="userSpaceOnUse" xlink:href="#linearGradient4482"/><radialGradient id="radialGradient4499" cx="2" cy="17.75" r="2" fx="2" fy="17.75" gradientTransform="matrix(2,0,0,1.375,14,-6.65625)" gradientUnits="userSpaceOnUse" xlink:href="#linearGradient4433"/><radialGradient id="radialGradient4497" cx="2" cy="17.75" r="2" fx="2" fy="17.75" gradientTransform="matrix(2,0,0,1.375,-10,-42.15625)" gradientUnits="userSpaceOnUse" xlink:href="#linearGradient4433"/><linearGradient id="linearGradient4488" x1="9.969" x2="9.969" y1="15" y2="20.501" gradientUnits="userSpaceOnUse" xlink:href="#linearGradient4482"/><radialGradient id="radialGradient4478" cx="2" cy="17.75" r="2" fx="2" fy="17.75" gradientTransform="matrix(2,0,0,1.375,14,-6.65625)" gradientUnits="userSpaceOnUse" xlink:href="#linearGradient4433"/><linearGradient id="linearGradient5185" x1="45.469" x2="45.469" y1="12.094" y2="13.782" gradientUnits="userSpaceOnUse" xlink:href="#linearGradient3261"/><linearGradient id="linearGradient5183" x1="43.406" x2="43.406" y1="12.154" y2="13.879" gradientUnits="userSpaceOnUse" xlink:href="#linearGradient3253"/><linearGradient id="linearGradient5181" x1="41.406" x2="41.406" y1="10.063" y2="13.72" gradientUnits="userSpaceOnUse" xlink:href="#linearGradient3269"/><linearGradient id="linearGradient5179" x1="42.656" x2="42.656" y1="13.499" y2="15.57" gradientUnits="userSpaceOnUse" xlink:href="#linearGradient3208"/><linearGradient id="linearGradient5177" x1="42.656" x2="42.656" y1="12.531" y2="14.543" gradientUnits="userSpaceOnUse" xlink:href="#linearGradient3208"/><linearGradient id="linearGradient5175" x1="42.656" x2="42.656" y1="12.531" y2="14.543" gradientUnits="userSpaceOnUse" xlink:href="#linearGradient3208"/><linearGradient id="linearGradient5173" x1="42.656" x2="42.656" y1="12.818" y2="15.543" gradientUnits="userSpaceOnUse" xlink:href="#linearGradient3208"/><radialGradient id="radialGradient5171" cx="42.938" cy="13" r="5.5" fx="42.938" fy="13" gradientTransform="matrix(1,0,0,0.8750102,0,1.6248744)" gradientUnits="userSpaceOnUse" xlink:href="#linearGradient3283"/><linearGradient id="linearGradient4460" x1="32.933" x2="40.789" y1="21.188" y2="21.188" gradientTransform="translate(-20,-1)" gradientUnits="userSpaceOnUse" xlink:href="#linearGradient3331"/><radialGradient id="radialGradient4439" cx="2" cy="17.75" r="2" fx="2" fy="17.75" gradientTransform="matrix(2,0,0,1.375,-10,-42.15625)" gradientUnits="userSpaceOnUse" xlink:href="#linearGradient4433"/><linearGradient id="linearGradient4421" x1="-48.438" x2="-48.438" y1="2.654" y2="4.112" gradientUnits="userSpaceOnUse" xlink:href="#linearGradient4392"/><linearGradient id="linearGradient4366" x1="-48.438" x2="-48.438" y1="2.654" y2="4.112" gradientUnits="userSpaceOnUse" xlink:href="#linearGradient4392"/><linearGradient id="linearGradient4338" x1="42.656" x2="42.656" y1="13.499" y2="15.57" gradientUnits="userSpaceOnUse" xlink:href="#linearGradient3208"/><linearGradient id="linearGradient3337" x1="32.933" x2="40.789" y1="21.188" y2="21.188" gradientTransform="translate(-20,-1)" gradientUnits="userSpaceOnUse" xlink:href="#linearGradient3331"/><linearGradient id="linearGradient3319" x1="45.469" x2="45.469" y1="12.094" y2="13.782" gradientUnits="userSpaceOnUse" xlink:href="#linearGradient3261"/><linearGradient id="linearGradient3317" x1="43.406" x2="43.406" y1="12.154" y2="13.879" gradientUnits="userSpaceOnUse" xlink:href="#linearGradient3253"/><linearGradient id="linearGradient3315" x1="41.406" x2="41.406" y1="10.063" y2="13.72" gradientUnits="userSpaceOnUse" xlink:href="#linearGradient3269"/><linearGradient id="linearGradient3311" x1="42.656" x2="42.656" y1="12.531" y2="14.543" gradientUnits="userSpaceOnUse" xlink:href="#linearGradient3208"/><linearGradient id="linearGradient3309" x1="42.656" x2="42.656" y1="12.531" y2="14.543" gradientUnits="userSpaceOnUse" xlink:href="#linearGradient3208"/><linearGradient id="linearGradient3307" x1="42.656" x2="42.656" y1="12.818" y2="15.543" gradientUnits="userSpaceOnUse" xlink:href="#linearGradient3208"/><radialGradient id="radialGradient3305" cx="42.938" cy="13" r="5.5" fx="42.938" fy="13" gradientTransform="matrix(1,0,0,0.8750102,0,1.6248744)" gradientUnits="userSpaceOnUse" xlink:href="#linearGradient3283"/><linearGradient id="linearGradient3214" x1="42.656" x2="42.656" y1="12.531" y2="14.543" gradientUnits="userSpaceOnUse" xlink:href="#linearGradient3208"/><linearGradient id="linearGradient5119"><stop id="stop5121" offset="0" style="stop-color:#eeeeec;stop-opacity:1"/><stop style="stop-color:#fff;stop-opacity:1" id="stop5123" offset=".422"/><stop id="stop5125" offset="1" style="stop-color:#eeeeec;stop-opacity:1"/></linearGradient><linearGradient id="linearGradient4392"><stop style="stop-color:#fff;stop-opacity:1" id="stop4394" offset="0"/><stop style="stop-color:#d3d7cf;stop-opacity:1" id="stop4396" offset="1"/></linearGradient><linearGradient id="linearGradient4433"><stop id="stop4435" offset="0" style="stop-color:#000;stop-opacity:1"/><stop id="stop4437" offset="1" style="stop-color:#000;stop-opacity:0"/></linearGradient><linearGradient id="linearGradient4482"><stop id="stop4484" offset="0" style="stop-color:#000;stop-opacity:0"/><stop style="stop-color:#000;stop-opacity:1" id="stop4490" offset=".5"/><stop id="stop4486" offset="1" style="stop-color:#000;stop-opacity:0"/></linearGradient><radialGradient id="radialGradient5249" cx="42.938" cy="13" r="5.5" fx="42.938" fy="13" gradientTransform="matrix(1,0,0,0.8750102,0,1.6248744)" gradientUnits="userSpaceOnUse" xlink:href="#linearGradient3283"/><linearGradient id="linearGradient5251" x1="42.656" x2="42.656" y1="12.818" y2="15.543" gradientUnits="userSpaceOnUse" xlink:href="#linearGradient3208"/><linearGradient id="linearGradient5253" x1="42.656" x2="42.656" y1="12.531" y2="14.543" gradientUnits="userSpaceOnUse" xlink:href="#linearGradient5942"/><linearGradient id="linearGradient5255" x1="42.656" x2="42.656" y1="12.531" y2="14.543" gradientUnits="userSpaceOnUse" xlink:href="#linearGradient5936"/><linearGradient id="linearGradient5257" x1="42.656" x2="42.656" y1="13.499" y2="15.57" gradientUnits="userSpaceOnUse" xlink:href="#linearGradient5930"/><linearGradient id="linearGradient5259" x1="41.406" x2="41.406" y1="10.063" y2="13.72" gradientUnits="userSpaceOnUse" xlink:href="#linearGradient3269"/><linearGradient id="linearGradient5261" x1="43.406" x2="43.406" y1="12.154" y2="13.879" gradientUnits="userSpaceOnUse" xlink:href="#linearGradient3253"/><linearGradient id="linearGradient5263" x1="45.469" x2="45.469" y1="12.094" y2="13.782" gradientUnits="userSpaceOnUse" xlink:href="#linearGradient3261"/><linearGradient id="linearGradient5310" x1="32.933" x2="40.789" y1="21.188" y2="21.188" gradientTransform="translate(-52.5,-5.0000001)" gradientUnits="userSpaceOnUse" xlink:href="#linearGradient3331"/><linearGradient id="linearGradient2275" x1="-48.438" x2="-48.438" y1="2.654" y2="4.112" gradientTransform="translate(57,8)" gradientUnits="userSpaceOnUse" xlink:href="#linearGradient4392"/><linearGradient id="linearGradient2271" x1="-48.438" x2="-48.438" y1="2.654" y2="4.112" gradientTransform="translate(57,5)" gradientUnits="userSpaceOnUse" xlink:href="#linearGradient4392"/><linearGradient id="linearGradient2267" x1="-48.438" x2="-48.438" y1="2.654" y2="4.112" gradientTransform="translate(57,2)" gradientUnits="userSpaceOnUse" xlink:href="#linearGradient4392"/><linearGradient id="linearGradient2262" x1="-48.438" x2="-48.438" y1="2.654" y2="4.112" gradientTransform="translate(57,-1)" gradientUnits="userSpaceOnUse" xlink:href="#linearGradient4392"/><linearGradient id="linearGradient5446" x1="45.469" x2="45.469" y1="12.094" y2="13.782" gradientUnits="userSpaceOnUse" xlink:href="#linearGradient3261"/><linearGradient id="linearGradient5444" x1="43.406" x2="43.406" y1="12.154" y2="13.879" gradientUnits="userSpaceOnUse" xlink:href="#linearGradient3253"/><linearGradient id="linearGradient5442" x1="41.406" x2="41.406" y1="10.063" y2="13.72" gradientUnits="userSpaceOnUse" xlink:href="#linearGradient3269"/><linearGradient id="linearGradient5440" x1="42.656" x2="42.656" y1="13.499" y2="15.57" gradientUnits="userSpaceOnUse" xlink:href="#linearGradient3208"/><linearGradient id="linearGradient5438" x1="42.656" x2="42.656" y1="12.531" y2="14.543" gradientUnits="userSpaceOnUse" xlink:href="#linearGradient3208"/><linearGradient id="linearGradient5436" x1="42.656" x2="42.656" y1="12.531" y2="14.543" gradientUnits="userSpaceOnUse" xlink:href="#linearGradient3208"/><linearGradient id="linearGradient5434" x1="42.656" x2="42.656" y1="12.818" y2="15.543" gradientUnits="userSpaceOnUse" xlink:href="#linearGradient3208"/><radialGradient id="radialGradient5432" cx="42.938" cy="13" r="5.5" fx="42.938" fy="13" gradientTransform="matrix(1,0,0,0.8750102,0,1.6248744)" gradientUnits="userSpaceOnUse" xlink:href="#linearGradient3283"/><radialGradient id="radialGradient5490" cx="42.938" cy="13" r="5.5" fx="42.938" fy="13" gradientTransform="matrix(1,0,0,0.8750102,0,1.6248744)" gradientUnits="userSpaceOnUse" xlink:href="#linearGradient3283"/><linearGradient id="linearGradient5492" x1="42.656" x2="42.656" y1="12.818" y2="15.543" gradientUnits="userSpaceOnUse" xlink:href="#linearGradient3208"/><linearGradient id="linearGradient5494" x1="42.656" x2="42.656" y1="12.531" y2="14.543" gradientUnits="userSpaceOnUse" xlink:href="#linearGradient5942"/><linearGradient id="linearGradient5496" x1="42.656" x2="42.656" y1="12.531" y2="14.543" gradientUnits="userSpaceOnUse" xlink:href="#linearGradient5936"/><linearGradient id="linearGradient5498" x1="42.656" x2="42.656" y1="13.499" y2="15.57" gradientUnits="userSpaceOnUse" xlink:href="#linearGradient5930"/><linearGradient id="linearGradient5500" x1="41.406" x2="41.406" y1="10.063" y2="13.72" gradientUnits="userSpaceOnUse" xlink:href="#linearGradient3269"/><linearGradient id="linearGradient5502" x1="43.406" x2="43.406" y1="12.154" y2="13.879" gradientUnits="userSpaceOnUse" xlink:href="#linearGradient3253"/><linearGradient id="linearGradient5504" x1="45.469" x2="45.469" y1="12.094" y2="13.782" gradientUnits="userSpaceOnUse" xlink:href="#linearGradient3261"/><linearGradient id="linearGradient5522" x1="-48.438" x2="-48.438" y1="2.654" y2="4.112" gradientTransform="translate(30,7)" gradientUnits="userSpaceOnUse" xlink:href="#linearGradient4392"/><linearGradient id="linearGradient5525" x1="-48.438" x2="-48.438" y1="2.654" y2="4.112" gradientTransform="translate(30,4)" gradientUnits="userSpaceOnUse" xlink:href="#linearGradient4392"/><linearGradient id="linearGradient5528" x1="-48.438" x2="-48.438" y1="2.654" y2="4.112" gradientTransform="translate(30,1)" gradientUnits="userSpaceOnUse" xlink:href="#linearGradient4392"/><linearGradient id="linearGradient5531" x1="-48.438" x2="-48.438" y1="2.654" y2="4.112" gradientTransform="translate(30,-2)" gradientUnits="userSpaceOnUse" xlink:href="#linearGradient4392"/><radialGradient id="radialGradient5550" cx="42.938" cy="13" r="5.5" fx="42.938" fy="13" gradientTransform="matrix(1,0,0,0.8750102,0,1.6248744)" gradientUnits="userSpaceOnUse" xlink:href="#linearGradient3283"/><linearGradient id="linearGradient5552" x1="42.656" x2="42.656" y1="12.818" y2="15.543" gradientUnits="userSpaceOnUse" xlink:href="#linearGradient3208"/><linearGradient id="linearGradient5554" x1="42.656" x2="42.656" y1="12.531" y2="14.543" gradientUnits="userSpaceOnUse" xlink:href="#linearGradient5942"/><linearGradient id="linearGradient5556" x1="42.656" x2="42.656" y1="12.531" y2="14.543" gradientUnits="userSpaceOnUse" xlink:href="#linearGradient5936"/><linearGradient id="linearGradient5558" x1="42.656" x2="42.656" y1="13.499" y2="15.57" gradientUnits="userSpaceOnUse" xlink:href="#linearGradient5930"/><linearGradient id="linearGradient5560" x1="41.406" x2="41.406" y1="10.063" y2="13.72" gradientUnits="userSpaceOnUse" xlink:href="#linearGradient3269"/><linearGradient id="linearGradient5562" x1="43.406" x2="43.406" y1="12.154" y2="13.879" gradientUnits="userSpaceOnUse" xlink:href="#linearGradient3253"/><linearGradient id="linearGradient5564" x1="45.469" x2="45.469" y1="12.094" y2="13.782" gradientUnits="userSpaceOnUse" xlink:href="#linearGradient3261"/><radialGradient id="radialGradient5587" cx="42.938" cy="13" r="5.5" fx="42.938" fy="13" gradientTransform="matrix(1,0,0,0.8750102,0,1.6248744)" gradientUnits="userSpaceOnUse" xlink:href="#linearGradient3283"/><linearGradient id="linearGradient5589" x1="42.656" x2="42.656" y1="12.818" y2="15.543" gradientUnits="userSpaceOnUse" xlink:href="#linearGradient3208"/><linearGradient id="linearGradient5591" x1="42.656" x2="42.656" y1="12.531" y2="14.543" gradientUnits="userSpaceOnUse" xlink:href="#linearGradient5942"/><linearGradient id="linearGradient5593" x1="42.656" x2="42.656" y1="12.531" y2="14.543" gradientUnits="userSpaceOnUse" xlink:href="#linearGradient5936"/><linearGradient id="linearGradient5595" x1="42.656" x2="42.656" y1="13.499" y2="15.57" gradientUnits="userSpaceOnUse" xlink:href="#linearGradient5930"/><linearGradient id="linearGradient5597" x1="41.406" x2="41.406" y1="10.063" y2="13.72" gradientUnits="userSpaceOnUse" xlink:href="#linearGradient3269"/><linearGradient id="linearGradient5599" x1="43.406" x2="43.406" y1="12.154" y2="13.879" gradientUnits="userSpaceOnUse" xlink:href="#linearGradient3253"/><linearGradient id="linearGradient5601" x1="45.469" x2="45.469" y1="12.094" y2="13.782" gradientUnits="userSpaceOnUse" xlink:href="#linearGradient3261"/><linearGradient id="linearGradient5603" x1="32.933" x2="40.789" y1="21.188" y2="21.188" gradientTransform="translate(4.5,-3.5000002)" gradientUnits="userSpaceOnUse" xlink:href="#linearGradient3331"/></defs><metadata id="metadata4913"/><g id="layer1"><path id="path6877" d="M 0.50000006,12.026497 C 0.50000006,12.842817 1.157183,13.5 1.973504,13.5 L 6.5,13.500001 L 6.455349,7.5 L 0.50000006,7.5 L 0.50000006,12.026497 z" style="fill:#edd400;fill-opacity:1;stroke:#c4a000;stroke-width:.99999994;stroke-linecap:round;stroke-linejoin:miter;stroke-miterlimit:4;stroke-dashoffset:0;stroke-opacity:1"/><path id="rect5896" d="M 12.026497,0.49999997 C 12.842817,0.49999997 13.5,1.1571825 13.5,1.9735035 L 13.535697,6.5 L 7.5,6.5893032 L 7.5,0.49999997 L 12.026497,0.49999997 z" style="fill:#729fcf;fill-opacity:1;stroke:#204a87;stroke-width:.99999994;stroke-linecap:round;stroke-linejoin:miter;stroke-miterlimit:4;stroke-dashoffset:0;stroke-opacity:1"/><path id="path6875" d="M 13.5,12.026496 C 13.5,12.842816 12.842817,13.499999 12.026496,13.499999 L 7.5,13.5 L 7.4375,7.499999 L 13.517849,7.499999 L 13.5,12.026496 z" style="fill:#729fcf;fill-opacity:1;stroke:#204a87;stroke-width:.99999994;stroke-linecap:round;stroke-linejoin:miter;stroke-miterlimit:4;stroke-dashoffset:0;stroke-opacity:1"/><path id="path6882" d="M 0.5000001,1.973504 C 0.5000001,1.157184 1.1571831,0.500001 1.9735041,0.500001 L 6.5,0.5 L 6.502224,6.500001 L 0.5000001,6.500001 L 0.5000001,1.973504 z" style="fill:#c00;fill-opacity:1;stroke:#a40000;stroke-width:.99999994;stroke-linecap:round;stroke-linejoin:miter;stroke-miterlimit:4;stroke-dashoffset:0;stroke-opacity:1"/><rect style="opacity:.38586958;fill:none;fill-opacity:1;stroke:#fff;stroke-width:1;stroke-linecap:round;stroke-linejoin:miter;stroke-miterlimit:4;stroke-dasharray:none;stroke-dashoffset:0;stroke-opacity:1" id="rect5908" width="11" height="11" x="1.5" y="1.5" rx=".563" ry=".563"/><g id="g5534" transform="translate(27,0.9998878)"><path id="path2307" d="M -18.5,2.5 C -19.588207,2.5 -20.5,3.4117926 -20.5,4.5 L -20.5,6.5 C -21.588207,6.5 -22.5,7.411793 -22.5,8.5 L -22.5,10.5 C -22.5,11.186163 -22.346877,11.80668 -22.09375,12.375 C -21.871775,12.453366 -21.624461,12.5 -21.375,12.5 L -16.59375,12.5 C -15.417946,12.5 -14.46875,11.550805 -14.46875,10.375 L -14.46875,5.5 C -14.479555,5.499792 -14.489111,5.5 -14.5,5.5 C -14.889036,5.5 -15.190422,5.7387958 -15.5,5.9375 C -15.809578,5.7387958 -16.110964,5.5 -16.5,5.5 L -16.5,4.5 C -16.5,3.4117926 -17.411793,2.5 -18.5,2.5 z" style="opacity:.7;fill:#fff;fill-opacity:1;stroke:#fff;stroke-width:.99999994;stroke-linecap:round;stroke-linejoin:round;stroke-miterlimit:4;stroke-dasharray:none;stroke-dashoffset:0;stroke-opacity:1"/><g id="g5464" transform="translate(-60,-4)"><path style="opacity:1;fill:url(#radialGradient5550);fill-opacity:1;stroke:#c17d11;stroke-width:.99999994;stroke-linecap:round;stroke-linejoin:round;stroke-miterlimit:4;stroke-dasharray:none;stroke-dashoffset:0;stroke-opacity:1" id="path5466" d="M 41.5,7.5 C 40.946,7.5 40.5,7.946 40.5,8.5 L 40.5,12.5 C 40.5,11.946 40.054,11.5 39.5,11.5 C 38.946,11.5 38.5,11.946 38.5,12.5 L 38.5,14.5 C 38.5,16.968706 40.855226,18.515283 42.564721,18.5 L 45.65625,18.5 C 47.176529,18.5 48.5,16.555583 48.5,15.5 L 48.5,12.5 C 48.5,11.946 48.054,11.5 47.5,11.5 C 46.946,11.5 46.5,11.946 46.5,12.5 L 46.5,11.5 C 46.5,10.946 46.054,10.5 45.5,10.5 C 44.946,10.5 44.5,10.946 44.5,11.5 C 44.5,10.946 44.054,10.5 43.5,10.5 C 42.946,10.5 42.5,10.946 42.5,11.5 L 42.5,8.5 C 42.5,7.946 42.054,7.5 41.5,7.5 z"/><path style="opacity:.54406128;fill:none;fill-opacity:1;stroke:#fff;stroke-width:.99999994;stroke-linecap:round;stroke-linejoin:round;stroke-miterlimit:4;stroke-dashoffset:0;stroke-opacity:1" id="path5468" d="M 39.53125,12.5 L 39.46875,14.5 C 39.46875,15.423456 39.903717,16.144961 40.53125,16.6875 C 41.158783,17.230039 42.006829,17.536218 42.5625,17.53125 L 45.65625,17.53125 C 45.999204,17.53125 46.505158,17.225897 46.90625,16.75 C 47.307342,16.274103 47.53125,15.618827 47.53125,15.5 L 47.53125,12.5"/><path style="fill:#c17d11;fill-opacity:1;fill-rule:evenodd;stroke:url(#linearGradient5552);stroke-width:1px;stroke-linecap:round;stroke-linejoin:miter;stroke-opacity:1" id="path5470" d="M 46.5,11.991767 L 46.5,15.494369"/><path style="fill:#c17d11;fill-opacity:1;fill-rule:evenodd;stroke:url(#linearGradient5554);stroke-width:1px;stroke-linecap:round;stroke-linejoin:miter;stroke-opacity:1" id="path5472" d="M 44.5,10.903379 L 44.5,14.5"/><path style="fill:#c17d11;fill-opacity:1;fill-rule:evenodd;stroke:url(#linearGradient5556);stroke-width:1px;stroke-linecap:round;stroke-linejoin:miter;stroke-opacity:1" id="path5474" d="M 42.5,10.5 L 42.5,14.5"/><path style="fill:#c17d11;fill-opacity:1;fill-rule:evenodd;stroke:url(#linearGradient5558);stroke-width:1px;stroke-linecap:round;stroke-linejoin:miter;stroke-opacity:1" id="path5476" d="M 40.5,11.5 L 40.5,15.5"/><path style="opacity:.51724135;fill:none;fill-opacity:1;fill-rule:evenodd;stroke:url(#linearGradient5560);stroke-width:1px;stroke-linecap:round;stroke-linejoin:miter;stroke-opacity:1" id="path5478" d="M 41.5,8.5 L 41.5,14.5"/><path style="opacity:.57088126;fill:none;fill-opacity:1;fill-rule:evenodd;stroke:url(#linearGradient5562);stroke-width:1px;stroke-linecap:round;stroke-linejoin:miter;stroke-opacity:1" id="path5480" d="M 43.5,11.5 L 43.5,14.5"/><path style="opacity:.57088126;fill:none;fill-opacity:1;fill-rule:evenodd;stroke:url(#linearGradient5564);stroke-width:1px;stroke-linecap:round;stroke-linejoin:miter;stroke-opacity:1" id="path5482" d="M 45.5,11.5 L 45.5,14.5"/><path style="opacity:1;fill:#fff;fill-opacity:1;stroke:none;stroke-width:1;stroke-linecap:round;stroke-linejoin:round;stroke-miterlimit:4;stroke-dasharray:none;stroke-dashoffset:0;stroke-opacity:1" id="path5484" d="M 41.90625,14.5 A 0.421875,0.46875 0 1 1 41.0625,14.5 A 0.421875,0.46875 0 1 1 41.90625,14.5 z" transform="matrix(1.1851846,0,0,1.0666671,-7.666644,-0.9666736)"/><path style="opacity:1;fill:#fff;fill-opacity:1;stroke:none;stroke-width:1;stroke-linecap:round;stroke-linejoin:round;stroke-miterlimit:4;stroke-dasharray:none;stroke-dashoffset:0;stroke-opacity:1" id="path5486" d="M 41.90625,14.5 A 0.421875,0.46875 0 1 1 41.0625,14.5 A 0.421875,0.46875 0 1 1 41.90625,14.5 z" transform="matrix(1.1851846,0,0,1.0666671,-5.666644,-0.9666736)"/><path style="opacity:1;fill:#fff;fill-opacity:1;stroke:none;stroke-width:1;stroke-linecap:round;stroke-linejoin:round;stroke-miterlimit:4;stroke-dasharray:none;stroke-dashoffset:0;stroke-opacity:1" id="path5488" d="M 41.90625,14.5 A 0.421875,0.46875 0 1 1 41.0625,14.5 A 0.421875,0.46875 0 1 1 41.90625,14.5 z" transform="matrix(1.1851846,0,0,1.0666671,-3.666644,-0.9666736)"/></g></g></g></svg>