<svg xmlns="http://www.w3.org/2000/svg" xmlns:cc="http://web.resource.org/cc/" xmlns:svg="http://www.w3.org/2000/svg" xmlns:xlink="http://www.w3.org/1999/xlink" id="svg2" width="16" height="16" version="1.0"><defs id="defs3"><linearGradient id="linearGradient4924"><stop style="stop-color:#888a85;stop-opacity:1" id="stop4926" offset="0"/><stop style="stop-color:#555753;stop-opacity:0" id="stop4928" offset="1"/></linearGradient><linearGradient id="linearGradient6108"><stop style="stop-color:#000;stop-opacity:1" id="stop6110" offset="0"/><stop style="stop-color:#000;stop-opacity:0" id="stop6112" offset="1"/></linearGradient><linearGradient id="linearGradient6076"><stop style="stop-color:#fff;stop-opacity:1" id="stop6078" offset="0"/><stop style="stop-color:#cbcbcb;stop-opacity:1" id="stop6080" offset="1"/></linearGradient><linearGradient id="linearGradient6056"><stop style="stop-color:#fff;stop-opacity:1" id="stop6058" offset="0"/><stop style="stop-color:#eeeeec;stop-opacity:1" id="stop6060" offset="1"/></linearGradient><linearGradient id="linearGradient6062" x1="4.856" x2="21.892" y1="3.636" y2="21.275" gradientUnits="userSpaceOnUse" xlink:href="#linearGradient6056"/><linearGradient id="linearGradient6082" x1="17.688" x2="18.562" y1="4.528" y2="3.749" gradientTransform="translate(-1,0.4954723)" gradientUnits="userSpaceOnUse" xlink:href="#linearGradient6076"/><linearGradient id="linearGradient6114" x1="16.552" x2="16.552" y1="2.963" y2="7.836" gradientUnits="userSpaceOnUse" xlink:href="#linearGradient6108"/><linearGradient id="linearGradient6129" x1="4.856" x2="21.892" y1="3.636" y2="21.275" gradientUnits="userSpaceOnUse" xlink:href="#linearGradient6056"/><linearGradient id="linearGradient6131" x1="16.552" x2="16.552" y1="2.963" y2="7.836" gradientUnits="userSpaceOnUse" xlink:href="#linearGradient6108"/><linearGradient id="linearGradient6133" x1="17.688" x2="18.562" y1="4.528" y2="3.749" gradientTransform="translate(-1,0.4954723)" gradientUnits="userSpaceOnUse" xlink:href="#linearGradient6076"/><linearGradient id="linearGradient6136" x1="17.688" x2="18.624" y1="4.528" y2="3.225" gradientTransform="matrix(0,-0.7058824,-0.7142857,0,15.782481,17.14706)" gradientUnits="userSpaceOnUse" xlink:href="#linearGradient6076"/><linearGradient id="linearGradient6139" x1="16.552" x2="16.552" y1="2.963" y2="7.836" gradientTransform="matrix(0,-0.7826932,-0.81822,0,16.545761,17.732131)" gradientUnits="userSpaceOnUse" xlink:href="#linearGradient6108"/><linearGradient id="linearGradient6146" x1="4.856" x2="21.892" y1="3.636" y2="21.275" gradientTransform="matrix(0,-0.7647058,-0.7142857,0,15.857143,17.176471)" gradientUnits="userSpaceOnUse" xlink:href="#linearGradient6056"/><linearGradient id="linearGradient6150" x1="16.552" x2="16.552" y1="4.21" y2="8.01" gradientTransform="matrix(0.6936392,0,0,0.6545762,1.057852,1.7633912)" gradientUnits="userSpaceOnUse" xlink:href="#linearGradient6108"/><linearGradient id="linearGradient4930" x1="11.693" x2="11.693" y1="6.2" y2="3.108" gradientUnits="userSpaceOnUse" xlink:href="#linearGradient4924"/></defs><metadata id="metadata6"/><g id="layer1"><path style="color:#000;fill:url(#linearGradient6146);fill-opacity:1;fill-rule:evenodd;stroke:#888a85;stroke-width:.99999976px;stroke-linecap:butt;stroke-linejoin:miter;marker:none;marker-start:none;marker-mid:none;marker-end:none;stroke-miterlimit:4;stroke-dashoffset:0;stroke-opacity:1;visibility:visible;display:inline;overflow:visible;enable-background:accumulate" id="rect4899" d="M 15.5,13.249662 L 15.5,5.8091617 C 15.5,5.1164743 12.121974,1.4999999 11.474959,1.4999999 L 1.6678993,1.4999999 C 1.0208828,1.4999999 0.49999999,2.0576509 0.49999999,2.7503384 L 0.49999999,13.249662 C 0.49999999,13.942349 1.0208828,14.500001 1.6678993,14.500001 L 14.332101,14.500001 C 14.979117,14.500001 15.5,13.942349 15.5,13.249662 z"/><g id="g6116" transform="matrix(-0.7058824,0,0,0.7090575,16.579995,0.09353075)"><path id="path6068" d="m 15.55783,10.027681 c 0,1.8334 -1.486264,3.319665 -3.319664,3.319665 -1.8334,0 -3.3196644,-1.486265 -3.3196644,-3.319665 0,-1.8333996 1.4862644,-3.3196639 3.3196644,-3.3196639 1.8334,0 3.319664,1.4862643 3.319664,3.3196639 z" transform="matrix(0.9037057,0,0,0.849678,0.9402993,-8.7732462e-4)" style="color:#000;fill:#555753;fill-opacity:1;fill-rule:evenodd;stroke:none;stroke-width:.99999982px;marker:none;visibility:visible;display:inline;overflow:visible;enable-background:accumulate"/><path id="path6070" d="m 17,16 c 0,2.760001 -2.239999,2.000002 -5,2.000002 -2.7600007,0 -5.0000007,0.759999 -5.0000007,-2.000002 0,-2.76 2.24,-5 5.0000007,-5 2.760001,0 5,2.24 5,5 z" style="color:#000;fill:#555753;fill-opacity:1;fill-rule:evenodd;stroke:none;stroke-width:.99999982px;marker:none;visibility:visible;display:inline;overflow:visible;enable-background:accumulate"/></g><path id="path6084" d="M 14.500001,12.303592 L 14.500001,5.9157435 C 14.500001,5.2529336 11.580615,2.4999999 10.960842,2.4999999 L 9.3494813,2.5241701 L 2.6187246,2.5241701 C 1.9989509,2.5241701 1.4999999,3.057768 1.4999999,3.7205778 L 1.4999999,12.303592 C 1.4999999,12.966402 1.9989509,13.5 2.6187246,13.5 L 13.381278,13.5 C 14.00105,13.5 14.500001,12.966402 14.500001,12.303592 z" style="color:#000;fill:none;fill-opacity:1;fill-rule:evenodd;stroke:#fff;stroke-width:.9999997px;stroke-linecap:butt;stroke-linejoin:miter;marker:none;marker-start:none;marker-mid:none;marker-end:none;stroke-miterlimit:4;stroke-dashoffset:0;stroke-opacity:1;visibility:visible;display:inline;overflow:visible;enable-background:accumulate"/><path id="path6104" d="M 15,5.9917348 L 10.803782,2.0144063 L 10,2 L 10,5.9628111 L 15,5.9917348 z" style="fill:url(#linearGradient6139);fill-opacity:1;fill-rule:evenodd;stroke:none;stroke-width:1px;stroke-linecap:butt;stroke-linejoin:miter;stroke-opacity:1"/><path style="fill:url(#linearGradient6150);fill-opacity:1;fill-rule:evenodd;stroke:none;stroke-width:1px;stroke-linecap:butt;stroke-linejoin:miter;stroke-opacity:1" id="path6148" d="M 11.462441,3 L 14.987235,6.3569746 L 15,7 L 11.488074,7 L 11.462441,3 z"/><path style="fill:url(#linearGradient6136);fill-opacity:1;fill-rule:evenodd;stroke:url(#linearGradient4930);stroke-width:1px;stroke-linecap:butt;stroke-linejoin:miter;stroke-opacity:1" id="path6074" d="M 11.455958,1.8939931 L 11.5,5.480824 L 15.08313,5.5"/></g></svg>