<svg xmlns="http://www.w3.org/2000/svg" xmlns:cc="http://web.resource.org/cc/" xmlns:svg="http://www.w3.org/2000/svg" xmlns:xlink="http://www.w3.org/1999/xlink" id="svg2" width="16" height="16" version="1.0"><metadata id="metadata7"/><defs id="defs5"><linearGradient id="linearGradient4392"><stop id="stop4394" offset="0" style="stop-color:#fff;stop-opacity:1"/><stop id="stop4396" offset="1" style="stop-color:#d3d7cf;stop-opacity:1"/></linearGradient><linearGradient id="linearGradient3283"><stop style="stop-color:#f4dbb3;stop-opacity:1" id="stop3285" offset="0"/><stop style="stop-color:#e9b96e;stop-opacity:1" id="stop3287" offset="1"/></linearGradient><linearGradient id="linearGradient3269"><stop style="stop-color:#fff;stop-opacity:1" id="stop3271" offset="0"/><stop style="stop-color:#fff;stop-opacity:0" id="stop3273" offset="1"/></linearGradient><linearGradient id="linearGradient3261"><stop style="stop-color:#fff;stop-opacity:1" id="stop3263" offset="0"/><stop style="stop-color:#fff;stop-opacity:0" id="stop3265" offset="1"/></linearGradient><linearGradient id="linearGradient3253"><stop style="stop-color:#fff;stop-opacity:1" id="stop3255" offset="0"/><stop style="stop-color:#fff;stop-opacity:0" id="stop3257" offset="1"/></linearGradient><linearGradient id="linearGradient3208"><stop style="stop-color:#c17d11;stop-opacity:1" id="stop3210" offset="0"/><stop style="stop-color:#c17d11;stop-opacity:0" id="stop3212" offset="1"/></linearGradient><radialGradient id="radialGradient4462" cx="42.938" cy="13" r="5.5" fx="42.938" fy="13" gradientTransform="matrix(1,0,0,0.8750102,0,1.6248744)" gradientUnits="userSpaceOnUse" xlink:href="#linearGradient3283"/><linearGradient id="linearGradient4464" x1="42.656" x2="42.656" y1="12.818" y2="15.543" gradientUnits="userSpaceOnUse" xlink:href="#linearGradient3208"/><linearGradient id="linearGradient4466" x1="42.656" x2="42.656" y1="12.531" y2="14.543" gradientUnits="userSpaceOnUse" xlink:href="#linearGradient3208"/><linearGradient id="linearGradient4468" x1="42.656" x2="42.656" y1="12.531" y2="14.543" gradientUnits="userSpaceOnUse" xlink:href="#linearGradient3208"/><linearGradient id="linearGradient4470" x1="42.656" x2="42.656" y1="13.499" y2="15.57" gradientUnits="userSpaceOnUse" xlink:href="#linearGradient3208"/><linearGradient id="linearGradient4472" x1="41.406" x2="41.406" y1="10.063" y2="13.72" gradientUnits="userSpaceOnUse" xlink:href="#linearGradient3269"/><linearGradient id="linearGradient4474" x1="43.406" x2="43.406" y1="12.154" y2="13.879" gradientUnits="userSpaceOnUse" xlink:href="#linearGradient3253"/><linearGradient id="linearGradient4476" x1="45.469" x2="45.469" y1="12.094" y2="13.782" gradientUnits="userSpaceOnUse" xlink:href="#linearGradient3261"/><linearGradient id="linearGradient2262" x1="-48.438" x2="-48.438" y1="2.654" y2="4.112" gradientTransform="translate(57,-1)" gradientUnits="userSpaceOnUse" xlink:href="#linearGradient4392"/><linearGradient id="linearGradient2267" x1="-48.438" x2="-48.438" y1="2.654" y2="4.112" gradientTransform="translate(57,2)" gradientUnits="userSpaceOnUse" xlink:href="#linearGradient4392"/><linearGradient id="linearGradient2271" x1="-48.438" x2="-48.438" y1="2.654" y2="4.112" gradientTransform="translate(57,5)" gradientUnits="userSpaceOnUse" xlink:href="#linearGradient4392"/><linearGradient id="linearGradient2275" x1="-48.438" x2="-48.438" y1="2.654" y2="4.112" gradientTransform="translate(57,8)" gradientUnits="userSpaceOnUse" xlink:href="#linearGradient4392"/></defs><rect style="fill:#d3d7cf;fill-opacity:1;stroke:#888a85;stroke-width:1;stroke-linecap:round;stroke-linejoin:round;stroke-miterlimit:4;stroke-dasharray:none;stroke-dashoffset:0;stroke-opacity:1" id="rect4398" width="13" height="14" x=".5" y=".5" rx="2.122" ry="2.122"/><path id="rect4400" d="M 2.5,1 L 11.5,1 C 12.331,1 13,1.669 13,2.5 C 13,3.331 12.331,4 11.5,4 L 2.5,4 C 1.669,4 1,3.331 1,2.5 C 1,1.669 1.669,1 2.5,1 z" style="opacity:.98999999;fill:url(#linearGradient2262);fill-opacity:1;stroke:none;stroke-width:1;stroke-linecap:square;stroke-linejoin:round;stroke-miterlimit:4;stroke-dashoffset:0;stroke-opacity:1"/><path id="path2265" d="M 2.5,4 L 11.5,4 C 12.331,4 13,4.669 13,5.5 C 13,6.331 12.331,7 11.5,7 L 2.5,7 C 1.669,7 1,6.331 1,5.5 C 1,4.669 1.669,4 2.5,4 z" style="opacity:.98999999;fill:url(#linearGradient2267);fill-opacity:1;stroke:none;stroke-width:1;stroke-linecap:square;stroke-linejoin:round;stroke-miterlimit:4;stroke-dashoffset:0;stroke-opacity:1"/><path id="path2269" d="M 2.5,7 L 11.5,7 C 12.331,7 13,7.669 13,8.5 C 13,9.331 12.331,10 11.5,10 L 2.5,10 C 1.669,10 1,9.331 1,8.5 C 1,7.669 1.669,7 2.5,7 z" style="opacity:.98999999;fill:url(#linearGradient2271);fill-opacity:1;stroke:none;stroke-width:1;stroke-linecap:square;stroke-linejoin:round;stroke-miterlimit:4;stroke-dashoffset:0;stroke-opacity:1"/><path id="path2273" d="M 2.5,10 L 11.5,10 C 12.331,10 13,10.669 13,11.5 C 13,12.331 12.331,13 11.5,13 L 2.5,13 C 1.669,13 1,12.331 1,11.5 C 1,10.669 1.669,10 2.5,10 z" style="opacity:.98999999;fill:url(#linearGradient2275);fill-opacity:1;stroke:none;stroke-width:1;stroke-linecap:square;stroke-linejoin:round;stroke-miterlimit:4;stroke-dashoffset:0;stroke-opacity:1"/><path id="path4410" d="M 2.625,1.53125 C 1.99624,1.53125 1.53125,1.99624 1.53125,2.625 L 1.53125,12.375 C 1.53125,13.00376 1.996239,13.46875 2.625,13.46875 L 11.375,13.46875 C 12.00376,13.46875 12.46875,13.003761 12.46875,12.375 L 12.46875,2.625 C 12.46875,1.9962394 12.003761,1.53125 11.375,1.53125 L 2.625,1.53125 z" style="fill:none;fill-opacity:1;stroke:#fff;stroke-width:1;stroke-linecap:round;stroke-linejoin:round;stroke-miterlimit:4;stroke-dashoffset:0;stroke-opacity:1"/><path style="opacity:.7;fill:#fff;fill-opacity:1;stroke:#fff;stroke-width:.99999994;stroke-linecap:round;stroke-linejoin:round;stroke-miterlimit:4;stroke-dasharray:none;stroke-dashoffset:0;stroke-opacity:1" id="path2307" d="M 8.5 3.5 C 7.411793 3.5 6.5 4.4117926 6.5 5.5 L 6.5 7.5 C 5.411793 7.5 4.5 8.411793 4.5 9.5 L 4.5 11.5 C 4.5 12.186163 4.653123 12.80668 4.90625 13.375 C 5.1282249 13.453366 5.3755388 13.5 5.625 13.5 L 10.40625 13.5 C 11.582054 13.5 12.53125 12.550805 12.53125 11.375 L 12.53125 6.5 C 12.520445 6.499792 12.510889 6.5 12.5 6.5 C 12.110964 6.5 11.809578 6.7387958 11.5 6.9375 C 11.190422 6.7387958 10.889036 6.5 10.5 6.5 L 10.5 5.5 C 10.5 4.4117926 9.588207 3.5 8.5 3.5 z"/><g id="g3291" transform="translate(-33,-3)"><path id="path3185" d="M 41.5,7.5 C 40.946,7.5 40.5,7.946 40.5,8.5 L 40.5,12.5 C 40.5,11.946 40.054,11.5 39.5,11.5 C 38.946,11.5 38.5,11.946 38.5,12.5 L 38.5,14.5 C 38.5,16.968706 40.855226,18.515283 42.564721,18.5 L 45.65625,18.5 C 47.176529,18.5 48.5,16.555583 48.5,15.5 L 48.5,12.5 C 48.5,11.946 48.054,11.5 47.5,11.5 C 46.946,11.5 46.5,11.946 46.5,12.5 L 46.5,11.5 C 46.5,10.946 46.054,10.5 45.5,10.5 C 44.946,10.5 44.5,10.946 44.5,11.5 C 44.5,10.946 44.054,10.5 43.5,10.5 C 42.946,10.5 42.5,10.946 42.5,11.5 L 42.5,8.5 C 42.5,7.946 42.054,7.5 41.5,7.5 z" style="opacity:1;fill:url(#radialGradient4462);fill-opacity:1;stroke:#c17d11;stroke-width:.99999994;stroke-linecap:round;stroke-linejoin:round;stroke-miterlimit:4;stroke-dasharray:none;stroke-dashoffset:0;stroke-opacity:1"/><path id="path3238" d="M 39.53125,12.5 L 39.46875,14.5 C 39.46875,15.423456 39.903717,16.144961 40.53125,16.6875 C 41.158783,17.230039 42.006829,17.536218 42.5625,17.53125 L 45.65625,17.53125 C 45.999204,17.53125 46.505158,17.225897 46.90625,16.75 C 47.307342,16.274103 47.53125,15.618827 47.53125,15.5 L 47.53125,12.5" style="opacity:.54406128;fill:none;fill-opacity:1;stroke:#fff;stroke-width:.99999994;stroke-linecap:round;stroke-linejoin:round;stroke-miterlimit:4;stroke-dashoffset:0;stroke-opacity:1"/><path id="path3194" d="M 46.5,11.991767 L 46.5,15.494369" style="fill:#c17d11;fill-opacity:1;fill-rule:evenodd;stroke:url(#linearGradient4464);stroke-width:1px;stroke-linecap:round;stroke-linejoin:miter;stroke-opacity:1"/><path id="path3196" d="M 44.5,10.903379 L 44.5,14.5" style="fill:#c17d11;fill-opacity:1;fill-rule:evenodd;stroke:url(#linearGradient4466);stroke-width:1px;stroke-linecap:round;stroke-linejoin:miter;stroke-opacity:1"/><path id="path3198" d="M 42.5,10.5 L 42.5,14.5" style="fill:#c17d11;fill-opacity:1;fill-rule:evenodd;stroke:url(#linearGradient4468);stroke-width:1px;stroke-linecap:round;stroke-linejoin:miter;stroke-opacity:1"/><path id="path3200" d="M 40.5,11.5 L 40.5,15.5" style="fill:#c17d11;fill-opacity:1;fill-rule:evenodd;stroke:url(#linearGradient4470);stroke-width:1px;stroke-linecap:round;stroke-linejoin:miter;stroke-opacity:1"/><path id="path3247" d="M 41.5,8.5 L 41.5,14.5" style="opacity:.51724135;fill:none;fill-opacity:1;fill-rule:evenodd;stroke:url(#linearGradient4472);stroke-width:1px;stroke-linecap:round;stroke-linejoin:miter;stroke-opacity:1"/><path id="path3249" d="M 43.5,11.5 L 43.5,14.5" style="opacity:.57088126;fill:none;fill-opacity:1;fill-rule:evenodd;stroke:url(#linearGradient4474);stroke-width:1px;stroke-linecap:round;stroke-linejoin:miter;stroke-opacity:1"/><path id="path3251" d="M 45.5,11.5 L 45.5,14.5" style="opacity:.57088126;fill:none;fill-opacity:1;fill-rule:evenodd;stroke:url(#linearGradient4476);stroke-width:1px;stroke-linecap:round;stroke-linejoin:miter;stroke-opacity:1"/><path id="path3277" d="M 41.90625 14.5 A 0.421875 0.46875 0 1 1 41.0625,14.5 A 0.421875 0.46875 0 1 1 41.90625 14.5 z" transform="matrix(1.1851846,0,0,1.0666671,-7.666644,-0.9666736)" style="opacity:1;fill:#fff;fill-opacity:1;stroke:none;stroke-width:1;stroke-linecap:round;stroke-linejoin:round;stroke-miterlimit:4;stroke-dasharray:none;stroke-dashoffset:0;stroke-opacity:1"/><path id="path3279" d="M 41.90625 14.5 A 0.421875 0.46875 0 1 1 41.0625,14.5 A 0.421875 0.46875 0 1 1 41.90625 14.5 z" transform="matrix(1.1851846,0,0,1.0666671,-5.666644,-0.9666736)" style="opacity:1;fill:#fff;fill-opacity:1;stroke:none;stroke-width:1;stroke-linecap:round;stroke-linejoin:round;stroke-miterlimit:4;stroke-dasharray:none;stroke-dashoffset:0;stroke-opacity:1"/><path id="path3281" d="M 41.90625 14.5 A 0.421875 0.46875 0 1 1 41.0625,14.5 A 0.421875 0.46875 0 1 1 41.90625 14.5 z" transform="matrix(1.1851846,0,0,1.0666671,-3.666644,-0.9666736)" style="opacity:1;fill:#fff;fill-opacity:1;stroke:none;stroke-width:1;stroke-linecap:round;stroke-linejoin:round;stroke-miterlimit:4;stroke-dasharray:none;stroke-dashoffset:0;stroke-opacity:1"/></g></svg>