<svg xmlns="http://www.w3.org/2000/svg" xmlns:cc="http://web.resource.org/cc/" xmlns:svg="http://www.w3.org/2000/svg" xmlns:xlink="http://www.w3.org/1999/xlink" id="svg2" width="16" height="16" version="1.0"><defs id="defs4"><linearGradient id="linearGradient5141"><stop style="stop-color:#181500;stop-opacity:1" id="stop5144" offset="0"/><stop style="stop-color:#181500;stop-opacity:0" id="stop5146" offset="1"/></linearGradient><linearGradient id="linearGradient5148" x1="14.25" x2="13.842" y1="9.545" y2="14.429" gradientTransform="translate(-3.990801,-1.8903499)" gradientUnits="userSpaceOnUse" xlink:href="#linearGradient5141"/><linearGradient id="linearGradient5574"><stop style="stop-color:#fff;stop-opacity:1" id="stop5576" offset="0"/><stop style="stop-color:#fff;stop-opacity:0" id="stop5578" offset="1"/></linearGradient><linearGradient id="linearGradient5556"><stop style="stop-color:#fff;stop-opacity:1" id="stop5558" offset="0"/><stop style="stop-color:#fff;stop-opacity:0" id="stop5560" offset="1"/></linearGradient><linearGradient id="linearGradient5546"><stop style="stop-color:#fff;stop-opacity:1" id="stop5548" offset="0"/><stop style="stop-color:#fff;stop-opacity:0" id="stop5550" offset="1"/></linearGradient><linearGradient id="linearGradient5538"><stop style="stop-color:#fff;stop-opacity:1" id="stop5540" offset="0"/><stop style="stop-color:#fff;stop-opacity:0" id="stop5542" offset="1"/></linearGradient><linearGradient id="linearGradient5400"><stop style="stop-color:#000;stop-opacity:1" id="stop5402" offset="0"/><stop style="stop-color:#fff;stop-opacity:1" id="stop5404" offset="1"/></linearGradient><linearGradient id="linearGradient5336"><stop style="stop-color:#000;stop-opacity:1" id="stop5338" offset="0"/><stop style="stop-color:#000;stop-opacity:0" id="stop5340" offset="1"/></linearGradient><linearGradient id="linearGradient5326"><stop style="stop-color:#cdcdcb;stop-opacity:1" id="stop5328" offset="0"/><stop style="stop-color:#888a85;stop-opacity:1" id="stop5330" offset="1"/></linearGradient><linearGradient id="linearGradient5172"><stop style="stop-color:#2e3436;stop-opacity:1" id="stop5174" offset="0"/><stop style="stop-color:#2e3436;stop-opacity:0" id="stop5176" offset="1"/></linearGradient><linearGradient id="linearGradient5154"><stop style="stop-color:#555753;stop-opacity:1" id="stop5156" offset="0"/><stop id="stop5162" offset=".217" style="stop-color:#afb1ad;stop-opacity:1"/><stop style="stop-color:#b4b6b2;stop-opacity:1" id="stop5166" offset=".404"/><stop style="stop-color:#5b5d59;stop-opacity:1" id="stop5164" offset=".823"/><stop style="stop-color:#90938e;stop-opacity:1" id="stop5158" offset="1"/></linearGradient><linearGradient id="linearGradient5160" x1="3" x2="20" y1="16.764" y2="16.764" gradientTransform="matrix(0.6875,0,0,0.6936012,-0.8455898,-0.7996271)" gradientUnits="userSpaceOnUse" xlink:href="#linearGradient5154"/><linearGradient id="linearGradient5170" x1="3" x2="20" y1="16.764" y2="16.764" gradientUnits="userSpaceOnUse" xlink:href="#linearGradient5154"/><linearGradient id="linearGradient5178" x1="36" x2="36" y1="2.25" y2="3.25" gradientUnits="userSpaceOnUse" xlink:href="#linearGradient5172"/><filter id="filter5310" width="1.477" height="1.707" x="-.238" y="-.353"><feGaussianBlur id="feGaussianBlur5312" stdDeviation="1.067"/></filter><linearGradient id="linearGradient5322" x1="3" x2="20" y1="16.764" y2="16.764" gradientUnits="userSpaceOnUse" xlink:href="#linearGradient5154"/><linearGradient id="linearGradient5324" x1="36" x2="36" y1="2.25" y2="3.25" gradientUnits="userSpaceOnUse" xlink:href="#linearGradient5172"/><radialGradient id="radialGradient5332" cx="30.144" cy="6.405" r="9.125" fx="30.144" fy="6.405" gradientTransform="matrix(1,0,0,0.4863014,0,1.958476)" gradientUnits="userSpaceOnUse" xlink:href="#linearGradient5326"/><radialGradient id="radialGradient5342" cx="14.094" cy="16.569" r="7.969" fx="14.094" fy="16.569" gradientTransform="matrix(1.3843137,0,0,0.4413571,-7.4164215,6.4777168)" gradientUnits="userSpaceOnUse" xlink:href="#linearGradient5336"/><filter id="filter5372" width="1.127" height="1.399" x="-.064" y="-.2"><feGaussianBlur id="feGaussianBlur5374" stdDeviation=".423"/></filter><linearGradient id="linearGradient5436" x1="7" x2="11.336" y1="16.813" y2="16.813" gradientTransform="matrix(0.4705882,0,0,1,14.705882,-2.5)" gradientUnits="userSpaceOnUse" xlink:href="#linearGradient5400"/><linearGradient id="linearGradient5438" x1="7" x2="9.875" y1="16.813" y2="16.813" gradientTransform="translate(5.875,-0.3125)" gradientUnits="userSpaceOnUse" xlink:href="#linearGradient5400"/><linearGradient id="linearGradient5440" x1="7" x2="9.125" y1="16.813" y2="16.813" gradientTransform="translate(-0.125,-0.625)" gradientUnits="userSpaceOnUse" xlink:href="#linearGradient5400"/><linearGradient id="linearGradient5500" x1="3" x2="20" y1="16.764" y2="16.764" gradientTransform="matrix(0.7222222,0,0,0.6647633,-1.2448938,-0.4103167)" gradientUnits="userSpaceOnUse" xlink:href="#linearGradient5154"/><linearGradient id="linearGradient5502" x1="7" x2="9.125" y1="16.813" y2="16.813" gradientTransform="translate(3,0)" gradientUnits="userSpaceOnUse" xlink:href="#linearGradient5400"/><linearGradient id="linearGradient5504" x1="7" x2="11.336" y1="16.813" y2="16.813" gradientTransform="matrix(0.4705882,0,0,1,12.705882,-1)" gradientUnits="userSpaceOnUse" xlink:href="#linearGradient5400"/><linearGradient id="linearGradient5506" x1="4.875" x2="9.125" y1="16.813" y2="16.813" gradientTransform="matrix(0.4705882,0,0,1,1.705882,-2)" gradientUnits="userSpaceOnUse" xlink:href="#linearGradient5400"/><radialGradient id="radialGradient5544" cx="10.243" cy=".878" r="3.811" fx="10.243" fy=".878" gradientTransform="matrix(0.7222222,0,0,0.2938048,-1.2448938,1.2462212)" gradientUnits="userSpaceOnUse" xlink:href="#linearGradient5538"/><radialGradient id="radialGradient5552" cx="9.289" cy="15.768" r="8.55" fx="9.289" fy="15.768" gradientTransform="matrix(1.1254961,0,0,0.2937301,-4.4956238,1.3685571)" gradientUnits="userSpaceOnUse" xlink:href="#linearGradient5546"/><radialGradient id="radialGradient5562" cx="11.5" cy="23.032" r="8.5" fx="11.5" fy="23.032" gradientTransform="matrix(1.489436,0,0,1.1954956,-10.067853,-13.325709)" gradientUnits="userSpaceOnUse" xlink:href="#linearGradient5556"/><linearGradient id="linearGradient5580" x1="12.125" x2="12.125" y1="12.499" y2="5.561" gradientTransform="matrix(0.6111112,0,0,0.4893353,3.2883213e-2,1.1391676)" gradientUnits="userSpaceOnUse" xlink:href="#linearGradient5574"/><linearGradient id="linearGradient5783" x1="3" x2="20" y1="16.764" y2="16.764" gradientTransform="matrix(0.6875,0,0,0.6936012,-0.8455898,-0.7996271)" gradientUnits="userSpaceOnUse" xlink:href="#linearGradient5154"/><radialGradient id="radialGradient5785" cx="14.094" cy="16.569" r="7.969" fx="14.094" fy="16.569" gradientTransform="matrix(1.3843137,0,0,0.4413571,-7.4164215,6.4777168)" gradientUnits="userSpaceOnUse" xlink:href="#linearGradient5336"/><radialGradient id="radialGradient5787" cx="11.5" cy="23.032" r="8.5" fx="11.5" fy="23.032" gradientTransform="matrix(1.489436,0,0,1.1954956,-10.067853,-13.325709)" gradientUnits="userSpaceOnUse" xlink:href="#linearGradient5556"/><linearGradient id="linearGradient5789" x1="3" x2="20" y1="16.764" y2="16.764" gradientTransform="matrix(0.7222222,0,0,0.6647633,-1.2448938,-0.4103167)" gradientUnits="userSpaceOnUse" xlink:href="#linearGradient5154"/><radialGradient id="radialGradient5791" cx="30.144" cy="6.405" r="9.125" fx="30.144" fy="6.405" gradientTransform="matrix(1,0,0,0.4863014,0,1.958476)" gradientUnits="userSpaceOnUse" xlink:href="#linearGradient5326"/><radialGradient id="radialGradient5793" cx="9.289" cy="15.768" r="8.55" fx="9.289" fy="15.768" gradientTransform="matrix(1.1254961,0,0,0.2937301,-4.4956238,1.3685571)" gradientUnits="userSpaceOnUse" xlink:href="#linearGradient5546"/><linearGradient id="linearGradient5795" x1="3" x2="20" y1="16.764" y2="16.764" gradientUnits="userSpaceOnUse" xlink:href="#linearGradient5154"/><linearGradient id="linearGradient5797" x1="36" x2="36" y1="2.25" y2="3.25" gradientUnits="userSpaceOnUse" xlink:href="#linearGradient5172"/><radialGradient id="radialGradient5799" cx="10.243" cy=".878" r="3.811" fx="10.243" fy=".878" gradientTransform="matrix(0.7222222,0,0,0.2938048,-1.2448938,1.2462212)" gradientUnits="userSpaceOnUse" xlink:href="#linearGradient5538"/><linearGradient id="linearGradient5801" x1="12.125" x2="12.125" y1="12.499" y2="5.561" gradientTransform="matrix(0.6111112,0,0,0.4893353,3.2883213e-2,1.1391676)" gradientUnits="userSpaceOnUse" xlink:href="#linearGradient5574"/></defs><metadata id="metadata7"/><g id="layer1"><g id="g5764" transform="translate(2,0)"><path id="path5141" d="M 1.5606602,6.1556171 L 1.5606602,12.800512 C 1.5606602,14.283915 4.0246602,15.5 7.0606604,15.5 C 10.096662,15.5 12.560663,14.283915 12.560662,12.800512 L 12.560662,6.1556171 L 1.5606602,6.1556171 z" style="opacity:1;color:#000;fill:url(#linearGradient5783);fill-opacity:1;fill-rule:evenodd;stroke:#2e3436;stroke-width:1;stroke-linecap:round;stroke-linejoin:miter;marker:none;marker-start:none;marker-mid:none;marker-end:none;stroke-miterlimit:10;stroke-dasharray:none;stroke-dashoffset:0;stroke-opacity:1;visibility:visible;display:inline;overflow:visible;enable-background:accumulate"/><path id="path5334" d="M 1.8125001,8.500001 C 7.6370848,10.762149 12.714911,10.250624 17.375,8.187501 L 17.4375,12.500001 C 12.512251,17.004915 5.597732,15.102639 1.5000001,12.437501 L 1.8125001,8.500001 z" transform="matrix(0.7222222,0,0,0.6936012,0.1995502,-0.1060266)" style="opacity:.3218391;color:#000;fill:url(#radialGradient5785);fill-opacity:1;fill-rule:evenodd;stroke:none;stroke-width:.99999994;stroke-linecap:round;stroke-linejoin:miter;marker:none;marker-start:none;marker-mid:none;marker-end:none;stroke-miterlimit:10;stroke-dasharray:none;stroke-dashoffset:0;stroke-opacity:1;visibility:visible;display:inline;overflow:visible;filter:url(#filter5372);enable-background:accumulate"/><path style="opacity:.33908045;color:#000;fill:none;fill-opacity:1;fill-rule:evenodd;stroke:url(#radialGradient5787);stroke-width:1;stroke-linecap:round;stroke-linejoin:miter;marker:none;marker-start:none;marker-mid:none;marker-end:none;stroke-miterlimit:10;stroke-dasharray:none;stroke-dashoffset:0;stroke-opacity:1;visibility:visible;display:inline;overflow:visible;enable-background:accumulate" id="path5554" d="M 2.5606602,7.3550091 L 2.5606602,12.435893 C 2.5606602,13.570146 4.5766612,14.500001 7.0606615,14.500001 C 9.5446633,14.500001 11.560663,13.570146 11.560662,12.435893 L 11.560662,7.3550091 L 2.5606602,7.3550091 z"/><g id="g5592" transform="translate(-0.9393398,0)"><rect style="opacity:.20689655;color:#000;fill:#fff;fill-opacity:1;fill-rule:evenodd;stroke:none;stroke-width:.99999994;stroke-linecap:round;stroke-linejoin:miter;marker:none;marker-start:none;marker-mid:none;marker-end:none;stroke-miterlimit:10;stroke-dasharray:none;stroke-dashoffset:0;stroke-opacity:1;visibility:visible;display:inline;overflow:visible;enable-background:accumulate" id="rect5584" width="1" height="6" x="5" y="6" rx=".5" ry=".5"/><rect id="rect5586" width="1" height="6" x="7" y="7" rx=".5" ry=".5" style="opacity:.20689655;color:#000;fill:#000;fill-opacity:1;fill-rule:evenodd;stroke:none;stroke-width:.99999994;stroke-linecap:round;stroke-linejoin:miter;marker:none;marker-start:none;marker-mid:none;marker-end:none;stroke-miterlimit:10;stroke-dasharray:none;stroke-dashoffset:0;stroke-opacity:1;visibility:visible;display:inline;overflow:visible;enable-background:accumulate"/><rect style="opacity:.20689655;color:#000;fill:#000;fill-opacity:1;fill-rule:evenodd;stroke:none;stroke-width:.99999994;stroke-linecap:round;stroke-linejoin:miter;marker:none;marker-start:none;marker-mid:none;marker-end:none;stroke-miterlimit:10;stroke-dasharray:none;stroke-dashoffset:0;stroke-opacity:1;visibility:visible;display:inline;overflow:visible;enable-background:accumulate" id="rect5588" width="1" height="6" x="9" y="7" rx=".5" ry=".5"/><rect id="rect5590" width="1" height="6" x="11" y="6" rx=".5" ry=".5" style="opacity:.20689655;color:#000;fill:#000;fill-opacity:1;fill-rule:evenodd;stroke:none;stroke-width:.99999994;stroke-linecap:round;stroke-linejoin:miter;marker:none;marker-start:none;marker-mid:none;marker-end:none;stroke-miterlimit:10;stroke-dasharray:none;stroke-dashoffset:0;stroke-opacity:1;visibility:visible;display:inline;overflow:visible;enable-background:accumulate"/></g><path id="path4552" d="M 7.0606615,0.58682824 C 3.4726612,0.58682824 0.56066021,1.922289 0.56066021,3.5677673 C 0.56066021,3.5677673 0.56066021,5.58305 0.56066021,5.58305 C 0.56066021,7.228528 3.4726602,8.5639877 7.0606615,8.5639884 C 10.648663,8.5639891 13.560663,7.228528 13.560663,5.58305 C 13.560663,5.58305 13.560663,3.5677673 13.560663,3.5677673 C 13.560663,1.922289 10.648663,0.58682824 7.0606615,0.58682824 z" style="opacity:1;color:#000;fill:url(#linearGradient5789);fill-opacity:1;fill-rule:evenodd;stroke:#2e3436;stroke-width:.99999988;stroke-linecap:round;stroke-linejoin:miter;marker:none;marker-start:none;marker-mid:none;marker-end:none;stroke-miterlimit:10;stroke-dasharray:none;stroke-dashoffset:0;stroke-opacity:1;visibility:visible;display:inline;overflow:visible;enable-background:accumulate"/><path style="opacity:1;color:#000;fill:url(#radialGradient5791);fill-opacity:1;fill-rule:evenodd;stroke:none;stroke-width:1;stroke-linecap:round;stroke-linejoin:miter;marker:none;marker-start:none;marker-mid:none;marker-end:none;stroke-miterlimit:10;stroke-dasharray:none;stroke-dashoffset:0;stroke-opacity:1;visibility:visible;display:inline;overflow:visible;enable-background:accumulate" id="path4556" d="M 41.25,3.8125 A 9.125,4.4375 0 1 1 23,3.8125 A 9.125,4.4375 0 1 1 41.25,3.8125 z" transform="matrix(0.6575341,0,0,0.5633803,-14.062623,1.3521127)"/><path id="path5136" d="M 1.1215982,2.7769159 C 1.0888412,2.8960257 1.0606602,3.0290011 1.0606602,3.1522065 C 1.0606602,4.7292361 3.8270602,6 7.2356605,6 C 10.644262,6 13.410663,4.7292361 13.410663,3.1522065 C 13.410663,3.0290011 13.382482,2.8960257 13.349726,2.7769159 C 12.948864,4.1751175 10.366738,5.2494188 7.2356605,5.2494188 C 4.1045852,5.2494188 1.5224602,4.1751175 1.1215982,2.7769159 z" style="opacity:1;color:#000;fill:url(#radialGradient5793);fill-opacity:1;fill-rule:evenodd;stroke:none;stroke-width:1;stroke-linecap:round;stroke-linejoin:miter;marker:none;marker-start:none;marker-mid:none;marker-end:none;stroke-miterlimit:10;stroke-dasharray:none;stroke-dashoffset:0;stroke-opacity:1;visibility:visible;display:inline;overflow:visible;enable-background:accumulate"/><g id="g5317" transform="matrix(0.7171358,8.2173359e-2,-8.5564191e-2,0.6887163,-0.9949808,-0.4273548)"><path style="color:#000;fill:url(#linearGradient5795);fill-opacity:1;fill-rule:evenodd;stroke:url(#linearGradient5797);stroke-width:1.41289425;stroke-linecap:round;stroke-linejoin:miter;marker:none;marker-start:none;marker-mid:none;marker-end:none;stroke-miterlimit:10;stroke-dashoffset:0;stroke-opacity:1;visibility:visible;display:inline;overflow:visible;enable-background:accumulate" id="path5168" d="M 41.375,3.25 C 41.375,5.251 38.092,5.25 36,3.75 C 33.033,3.75 30.625,4.382917 30.625,3.25 C 30.625,1.249 33.033,-0.375 36,-0.375 C 38.967,-0.375 41.375,1.249 41.375,3.25 z" transform="translate(-24.25,0)"/><path id="path5180" d="M 41.375,3.25 A 5.375,3.625 0 1 1 30.625,3.25 A 5.375,3.625 0 1 1 41.375,3.25 z" transform="matrix(0.6712474,0,0,0.3793103,-13.102405,2.1422414)" style="opacity:1;color:#000;fill:#1c1d1c;fill-opacity:1;fill-rule:evenodd;stroke:none;stroke-width:2.55515075;stroke-linecap:round;stroke-linejoin:miter;marker:none;marker-start:none;marker-mid:none;marker-end:none;stroke-miterlimit:10;stroke-dasharray:none;stroke-dashoffset:0;stroke-opacity:1;visibility:visible;display:inline;overflow:visible;filter:url(#filter5310);enable-background:accumulate"/><path style="opacity:.31609198;color:#000;fill:#fff;fill-opacity:1;fill-rule:evenodd;stroke:none;stroke-width:2.55515075;stroke-linecap:round;stroke-linejoin:miter;marker:none;marker-start:none;marker-mid:none;marker-end:none;stroke-miterlimit:10;stroke-dasharray:none;stroke-dashoffset:0;stroke-opacity:1;visibility:visible;display:inline;overflow:visible;filter:url(#filter5310);enable-background:accumulate" id="path5315" d="M 41.375,3.25 A 5.375,3.625 0 1 1 30.625,3.25 A 5.375,3.625 0 1 1 41.375,3.25 z" transform="matrix(0.5549683,0,0,0.2578679,-8.5413583,0.2869291)"/></g><path id="path5536" d="M 3.9258242,2.8077989 C 5.2025442,1.64298 7.3729695,1.3364486 9.4157243,3.3595553 C 7.3091325,-0.62535177 3.6537942,1.700576 3.9258242,2.8077989 z" style="opacity:1;color:#000;fill:url(#radialGradient5799);fill-opacity:1;fill-rule:evenodd;stroke:none;stroke-width:.99999994;stroke-linecap:round;stroke-linejoin:miter;marker:none;marker-start:none;marker-mid:none;marker-end:none;stroke-miterlimit:10;stroke-dasharray:none;stroke-dashoffset:0;stroke-opacity:1;visibility:visible;display:inline;overflow:visible;enable-background:accumulate"/><path style="opacity:.20689655;color:#000;fill:none;fill-opacity:1;fill-rule:evenodd;stroke:url(#linearGradient5801);stroke-width:.9999997;stroke-linecap:round;stroke-linejoin:miter;marker:none;marker-start:none;marker-mid:none;marker-end:none;stroke-miterlimit:10;stroke-dasharray:none;stroke-dashoffset:0;stroke-opacity:1;visibility:visible;display:inline;overflow:visible;enable-background:accumulate" id="path5564" d="M 7.0606615,1.6279764 C 4.0246612,1.6279764 1.5606602,2.6110151 1.5606602,3.8222592 C 1.5606602,3.8222592 1.5606602,5.3057179 1.5606602,5.3057179 C 1.5606602,6.5169615 4.0246602,7.5 7.0606615,7.5 C 10.096664,7.5 12.560662,6.5169615 12.560662,5.3057179 C 12.560662,5.3057179 12.560662,3.8222592 12.560662,3.8222592 C 12.560662,2.6110151 10.096664,1.6279764 7.0606615,1.6279764 z"/></g><g id="g4952" transform="matrix(0.6448021,0,0,0.6555156,0.573981,5.5083633)"><path id="path4560" d="M 7.6967611,0.20120726 L 0.23728414,6.8253144 L 7.7343311,13.866786 L 7.6276371,10.530776 C 11.699972,10.335315 12.679276,11.232281 12.684318,15.201534 L 15.513595,15.299479 C 15.39259,10.046206 16.763105,2.9444481 7.7419131,3.3174982 L 7.6967611,0.20120726 z" style="opacity:1;color:#000;fill:#ffee58;fill-opacity:1;fill-rule:evenodd;stroke:#705b00;stroke-width:1.53813767;stroke-linecap:round;stroke-linejoin:miter;marker:none;marker-start:none;marker-mid:none;marker-end:none;stroke-miterlimit:10;stroke-dasharray:none;stroke-dashoffset:0;stroke-opacity:1;visibility:visible;display:inline;overflow:visible;enable-background:accumulate"/><path id="path5139" d="M 1.5046469,6.9768107 L 7.0091987,12.070298 C 7.1941578,12.575886 6.9258654,10.901317 6.8841987,10.04715 C 12.459616,9.5610101 13.122626,11.304763 13.454136,14.442236 C 13.544116,5.0530319 8.650703,7.0288133 1.5046469,6.9768107 z" style="opacity:.1896552;color:#000;fill:url(#linearGradient5148);fill-opacity:1;fill-rule:evenodd;stroke:none;stroke-width:.99999994;stroke-linecap:round;stroke-linejoin:miter;marker:none;marker-start:none;marker-mid:none;marker-end:none;stroke-miterlimit:10;stroke-dasharray:none;stroke-dashoffset:0;stroke-opacity:1;visibility:visible;display:inline;overflow:visible;enable-background:accumulate"/></g></g></svg>