<svg xmlns="http://www.w3.org/2000/svg" xmlns:cc="http://web.resource.org/cc/" xmlns:svg="http://www.w3.org/2000/svg" xmlns:xlink="http://www.w3.org/1999/xlink" id="svg2" width="16" height="16" version="1.0"><defs id="defs3"><linearGradient id="linearGradient6013" x1="19.281" x2="21.348" y1="16.875" y2="19.035" gradientTransform="translate(-2.8352152,-8.16808)" gradientUnits="userSpaceOnUse" xlink:href="#linearGradient6045"/><linearGradient id="linearGradient6045"><stop id="stop6047" offset="0" style="stop-color:#fff;stop-opacity:1"/><stop id="stop6049" offset="1" style="stop-color:#fff;stop-opacity:0"/></linearGradient><linearGradient id="linearGradient6011" x1="19.281" x2="20.852" y1="16.875" y2="18.544" gradientTransform="translate(-4.8474302,-6.103637)" gradientUnits="userSpaceOnUse" xlink:href="#linearGradient6045"/><linearGradient id="linearGradient4924"><stop id="stop4926" offset="0" style="stop-color:#ef2929;stop-opacity:1"/><stop id="stop4928" offset="1" style="stop-color:#c00;stop-opacity:1"/></linearGradient><linearGradient id="linearGradient6009" x1="52.659" x2="56.862" y1="14.434" y2="18.598" gradientTransform="matrix(0.4140801,0,0,0.4496565,-2.5623905,-0.7746861)" gradientUnits="userSpaceOnUse" xlink:href="#linearGradient4924"/><linearGradient id="linearGradient4913"><stop style="stop-color:#888a85;stop-opacity:1" id="stop4915" offset="0"/><stop style="stop-color:#888a85;stop-opacity:0" id="stop4917" offset="1"/></linearGradient><linearGradient id="linearGradient6108"><stop style="stop-color:#000;stop-opacity:1" id="stop6110" offset="0"/><stop style="stop-color:#000;stop-opacity:0" id="stop6112" offset="1"/></linearGradient><linearGradient id="linearGradient6076"><stop style="stop-color:#fff;stop-opacity:1" id="stop6078" offset="0"/><stop style="stop-color:#cbcbcb;stop-opacity:1" id="stop6080" offset="1"/></linearGradient><linearGradient id="linearGradient6056"><stop style="stop-color:#fff;stop-opacity:1" id="stop6058" offset="0"/><stop style="stop-color:#d3d7cf;stop-opacity:1" id="stop6060" offset="1"/></linearGradient><linearGradient id="linearGradient6062" x1="8.647" x2="27.577" y1="17.297" y2="-2.585" gradientTransform="matrix(0.7647058,0,0,0.75,-1.1764704,-0.6250001)" gradientUnits="userSpaceOnUse" xlink:href="#linearGradient6056"/><linearGradient id="linearGradient6082" x1="17.688" x2="18.562" y1="4.528" y2="3.749" gradientTransform="matrix(0.7647058,0,0,0.7463802,-2.117645,2.50982e-2)" gradientUnits="userSpaceOnUse" xlink:href="#linearGradient6076"/><linearGradient id="linearGradient6114" x1="16.552" x2="16.552" y1="2.963" y2="7.836" gradientTransform="matrix(0.677447,0,0,0.8182202,0.383314,-0.5457611)" gradientUnits="userSpaceOnUse" xlink:href="#linearGradient6108"/><linearGradient id="linearGradient4919" x1="10.752" x2="10.554" y1="5" y2="2.277" gradientUnits="userSpaceOnUse" xlink:href="#linearGradient4913"/></defs><metadata id="metadata6"/><g id="layer1"><path style="color:#000;fill:url(#linearGradient6062);fill-opacity:1;fill-rule:evenodd;stroke:#888a85;stroke-width:.99999982px;stroke-linecap:butt;stroke-linejoin:miter;marker:none;marker-start:none;marker-mid:none;marker-end:none;stroke-miterlimit:4;stroke-dashoffset:0;stroke-opacity:1;visibility:visible;display:inline;overflow:visible;enable-background:accumulate" id="rect4899" d="M 2.7503383,0.49999959 L 10.190838,0.49999959 C 10.883525,0.49999959 14.5,4.0469266 14.5,4.7262932 L 14.5,14.273705 C 14.5,14.953073 13.942349,15.5 13.249662,15.5 L 2.7503383,15.5 C 2.0576508,15.5 1.4999999,14.953073 1.4999999,14.273705 L 1.4999999,1.7262933 C 1.4999999,1.0469266 2.0576508,0.49999959 2.7503383,0.49999959 z"/><path id="path6084" d="M 3.6964079,1.4999999 L 10.084255,1.4999999 C 10.747066,1.4999999 13.5,4.5815742 13.5,5.2357791 L 13.47583,6.9366593 L 13.47583,13.319124 C 13.47583,13.973329 12.942231,14.5 12.279422,14.5 L 3.6964079,14.5 C 3.0335979,14.5 2.5000001,13.973329 2.5000001,13.319124 L 2.5000001,2.6808752 C 2.5000001,2.0266703 3.0335979,1.4999999 3.6964079,1.4999999 z" style="color:#000;fill:none;fill-opacity:1;fill-rule:evenodd;stroke:#fff;stroke-width:.99999988px;stroke-linecap:butt;stroke-linejoin:miter;marker:none;marker-start:none;marker-mid:none;marker-end:none;stroke-miterlimit:4;stroke-dashoffset:0;stroke-opacity:1;visibility:visible;display:inline;overflow:visible;enable-background:accumulate"/><path id="path5115" d="M 4.3513583,6.5 L 11.536222,6.5" style="fill:none;fill-rule:evenodd;stroke:#bababa;stroke-width:1px;stroke-linecap:butt;stroke-linejoin:miter;stroke-opacity:1"/><path id="path6104" d="M 10.54502,1 L 13.987531,5.1962178 L 14,6 L 10.570054,5.9999999 L 10.54502,1 z" style="fill:url(#linearGradient6114);fill-opacity:1;fill-rule:evenodd;stroke:none;stroke-width:1px;stroke-linecap:butt;stroke-linejoin:miter;stroke-opacity:1"/><path style="fill:none;fill-rule:evenodd;stroke:#bababa;stroke-width:1px;stroke-linecap:butt;stroke-linejoin:miter;stroke-opacity:1" id="path5015" d="M 4.3513583,4.5 L 11.536222,4.5"/><path style="fill:url(#linearGradient6082);fill-opacity:1;fill-rule:evenodd;stroke:url(#linearGradient4919);stroke-width:1px;stroke-linecap:butt;stroke-linejoin:miter;stroke-opacity:1" id="path6074" d="M 14.103719,4.5 L 13.44905,4.5 L 10.520774,4.5 L 10.5,0.83875574"/><path style="fill:none;fill-rule:evenodd;stroke:#bababa;stroke-width:1px;stroke-linecap:butt;stroke-linejoin:miter;stroke-opacity:1" id="path5117" d="M 4.3513583,8.5 L 11.536222,8.5"/><path id="path5119" d="M 4.3513583,10.5 L 11.536222,10.5" style="fill:none;fill-rule:evenodd;stroke:#bababa;stroke-width:1px;stroke-linecap:butt;stroke-linejoin:miter;stroke-opacity:1"/><g id="g6002" transform="matrix(0.6862203,0,0,0.6823665,6.0043125e-2,-0.5706492)"><path id="path2788" d="M 19.575478,4.566006 L 9.589185,14.735443 L 7.9625318,19.071551 L 9.265874,18.551716 L 12.11763,17.414301 L 22.482768,7.419573 C 22.733019,6.903184 20.184608,4.03152 19.575478,4.566006 z" style="fill:#fcaf3e;fill-opacity:1;fill-rule:evenodd;stroke:#8f5902;stroke-width:1.46136725px;stroke-linecap:butt;stroke-linejoin:miter;stroke-opacity:1"/><path id="path2803" d="M 7.1311928,19.955609 L 8.2870268,16.853295 C 8.2835468,17.365676 9.4722848,18.784668 10.109776,18.655613" style="fill:#2e3436;fill-opacity:1;fill-rule:evenodd;stroke:none;stroke-width:1px;stroke-linecap:butt;stroke-linejoin:miter;stroke-opacity:1"/><path style="fill:url(#linearGradient6009);fill-opacity:1;fill-rule:evenodd;stroke:#a40000;stroke-width:1.46136725px;stroke-linecap:butt;stroke-linejoin:miter;stroke-opacity:1" id="path4922" d="M 19.461302,4.685776 L 18.031604,6.210856 L 20.693475,9.149115 L 22.372758,7.443045 C 22.724348,6.655211 20.3171,3.8703324 19.461302,4.685776 z"/><path style="fill:none;fill-opacity:1;fill-rule:evenodd;stroke:url(#linearGradient6011);stroke-width:1.46136725px;stroke-linecap:butt;stroke-linejoin:miter;stroke-opacity:.53289472" id="path5935" d="M 17.493055,7.6113931 L 10.221325,15.059803 L 9.6859738,17.316707 L 11.615472,16.279841 L 19.068761,9.1107783 C 19.223729,8.7902283 17.870259,7.2796091 17.493055,7.6113931 z"/><path id="path5011" d="M 19.802552,5.745139 L 18.922414,6.7524104 L 20.118372,7.9229014 L 21.180069,7.194977 C 21.335037,6.874427 20.179756,5.413355 19.802552,5.745139 z" style="fill:none;fill-opacity:1;fill-rule:evenodd;stroke:url(#linearGradient6013);stroke-width:1.46136725px;stroke-linecap:butt;stroke-linejoin:miter;stroke-opacity:.53289472"/></g></g></svg>