<svg xmlns="http://www.w3.org/2000/svg" xmlns:cc="http://web.resource.org/cc/" xmlns:svg="http://www.w3.org/2000/svg" xmlns:xlink="http://www.w3.org/1999/xlink" id="svg2" width="16" height="16" version="1.0"><defs id="defs3"><linearGradient id="linearGradient4916"><stop style="stop-color:#888a85;stop-opacity:1" id="stop4918" offset="0"/><stop style="stop-color:#888a85;stop-opacity:0" id="stop4920" offset="1"/></linearGradient><linearGradient id="linearGradient6108"><stop style="stop-color:#000;stop-opacity:1" id="stop6110" offset="0"/><stop style="stop-color:#000;stop-opacity:0" id="stop6112" offset="1"/></linearGradient><linearGradient id="linearGradient6076"><stop style="stop-color:#fff;stop-opacity:1" id="stop6078" offset="0"/><stop style="stop-color:#cbcbcb;stop-opacity:1" id="stop6080" offset="1"/></linearGradient><linearGradient id="linearGradient6056"><stop style="stop-color:#fff;stop-opacity:1" id="stop6058" offset="0"/><stop style="stop-color:#eeeeec;stop-opacity:1" id="stop6060" offset="1"/></linearGradient><linearGradient id="linearGradient6062" x1="4.856" x2="21.892" y1="3.636" y2="21.275" gradientTransform="matrix(0.7647058,0,0,0.75,-1.1764704,-0.6250001)" gradientUnits="userSpaceOnUse" xlink:href="#linearGradient6056"/><linearGradient id="linearGradient6082" x1="17.688" x2="18.562" y1="4.528" y2="3.749" gradientTransform="matrix(0.7647058,0,0,0.7463802,-2.117645,2.50982e-2)" gradientUnits="userSpaceOnUse" xlink:href="#linearGradient6076"/><linearGradient id="linearGradient6114" x1="16.552" x2="16.552" y1="2.963" y2="7.836" gradientTransform="matrix(0.5882352,0,0,0.8182202,2.1764721,-0.5457611)" gradientUnits="userSpaceOnUse" xlink:href="#linearGradient6108"/><linearGradient id="linearGradient4922" x1="10.603" x2="10.603" y1="5.006" y2="1.978" gradientUnits="userSpaceOnUse" xlink:href="#linearGradient4916"/></defs><metadata id="metadata6"/><g id="layer1"><path style="color:#000;fill:url(#linearGradient6062);fill-opacity:1;fill-rule:evenodd;stroke:#888a85;stroke-width:.99999982px;stroke-linecap:butt;stroke-linejoin:miter;marker:none;marker-start:none;marker-mid:none;marker-end:none;stroke-miterlimit:4;stroke-dashoffset:0;stroke-opacity:1;visibility:visible;display:inline;overflow:visible;enable-background:accumulate" id="rect4899" d="M 2.7503383,0.49999959 L 10.190838,0.49999959 C 10.883525,0.49999959 14.5,4.0469266 14.5,4.7262932 L 14.5,14.273705 C 14.5,14.953073 13.942349,15.5 13.249662,15.5 L 2.7503383,15.5 C 2.0576508,15.5 1.4999999,14.953073 1.4999999,14.273705 L 1.4999999,1.7262933 C 1.4999999,1.0469266 2.0576508,0.49999959 2.7503383,0.49999959 z"/><g id="g6116" transform="matrix(0.7199999,0,0,-0.6872404,-0.6399994,16.436203)"><path id="path6068" d="M 15.55783 10.027681 A 3.3196642 3.3196642 0 1 1 8.9185016,10.027681 A 3.3196642 3.3196642 0 1 1 15.55783 10.027681 z" transform="matrix(0.8367648,0,0,0.9828279,1.7595342,-1.5928257)" style="opacity:1;color:#000;fill:#555753;fill-opacity:1;fill-rule:evenodd;stroke:none;stroke-width:.99999982px;stroke-linecap:butt;stroke-linejoin:miter;marker:none;marker-start:none;marker-mid:none;marker-end:none;stroke-miterlimit:4;stroke-dasharray:none;stroke-dashoffset:0;stroke-opacity:1;visibility:visible;display:inline;overflow:visible;enable-background:accumulate"/><path id="path6070" d="M 16.780149,15.946947 C 16.780149,18.776812 14.638643,17.997576 12,17.997576 C 9.3613572,17.997576 7.2198507,18.776812 7.2198507,15.946947 C 7.2198507,13.117083 9.3613572,10.82038 12,10.82038 C 14.638643,10.82038 16.780149,13.117083 16.780149,15.946947 z" style="color:#000;fill:#555753;fill-opacity:1;fill-rule:evenodd;stroke:none;stroke-width:.99999982px;stroke-linecap:butt;stroke-linejoin:miter;marker:none;marker-start:none;marker-mid:none;marker-end:none;stroke-miterlimit:4;stroke-dashoffset:0;stroke-opacity:1;visibility:visible;display:inline;overflow:visible;enable-background:accumulate"/></g><path id="path6084" d="M 3.6964079,1.4999999 L 10.084255,1.4999999 C 10.747066,1.4999999 13.5,4.5815742 13.5,5.2357791 L 13.47583,6.9366593 L 13.47583,13.319124 C 13.47583,13.973329 12.942231,14.5 12.279422,14.5 L 3.6964079,14.5 C 3.0335979,14.5 2.5000001,13.973329 2.5000001,13.319124 L 2.5000001,2.6808752 C 2.5000001,2.0266703 3.0335979,1.4999999 3.6964079,1.4999999 z" style="color:#000;fill:none;fill-opacity:1;fill-rule:evenodd;stroke:#fff;stroke-width:.99999988px;stroke-linecap:butt;stroke-linejoin:miter;marker:none;marker-start:none;marker-mid:none;marker-end:none;stroke-miterlimit:4;stroke-dashoffset:0;stroke-opacity:1;visibility:visible;display:inline;overflow:visible;enable-background:accumulate"/><path id="path6104" d="M 11,1.3963778 L 13.989173,5.1962178 L 14,6 L 11.021738,5.9999999 L 11,1.3963778 z" style="fill:url(#linearGradient6114);fill-opacity:1;fill-rule:evenodd;stroke:none;stroke-width:1px;stroke-linecap:butt;stroke-linejoin:miter;stroke-opacity:1"/><path style="fill:url(#linearGradient6082);fill-opacity:1;fill-rule:evenodd;stroke:url(#linearGradient4922);stroke-width:1px;stroke-linecap:butt;stroke-linejoin:miter;stroke-opacity:1" id="path6074" d="M 14.103719,4.5 L 13.44905,4.5 L 10.520774,4.5 L 10.5,0.83875574"/></g></svg>