<svg xmlns="http://www.w3.org/2000/svg" xmlns:cc="http://web.resource.org/cc/" xmlns:svg="http://www.w3.org/2000/svg" xmlns:xlink="http://www.w3.org/1999/xlink" id="svg4908" width="16" height="16"><defs id="defs4910"><linearGradient id="linearGradient5899"><stop style="stop-color:#f66d6d;stop-opacity:1" id="stop5901" offset="0"/><stop style="stop-color:#d00e0e;stop-opacity:1" id="stop5903" offset="1"/></linearGradient><radialGradient id="radialGradient5905" cx="10.629" cy="11.018" r="2.851" fx="10.629" fy="11.018" gradientTransform="matrix(0.9387545,-1.1022182e-2,1.2105798e-2,0.917556,0.6110392,1.1229117)" gradientUnits="userSpaceOnUse" xlink:href="#linearGradient5899"/></defs><metadata id="metadata4913"/><g id="layer1"><path style="opacity:1;fill:url(#radialGradient5905);fill-opacity:1;stroke:#790000;stroke-width:.92762601;stroke-linecap:round;stroke-linejoin:miter;stroke-miterlimit:4;stroke-dasharray:none;stroke-dashoffset:0;stroke-opacity:1" id="path4926" d="M 13.740099 11.630198 A 2.3876238 2.2524753 0 1 1 8.9648514,11.630198 A 2.3876238 2.2524753 0 1 1 13.740099 11.630198 z" transform="matrix(1.0470662,0,0,1.1098901,0.1132071,-0.9082411)"/><path style="opacity:.58695652;fill:#eeeeec;fill-opacity:1;stroke:none;stroke-width:1;stroke-linecap:round;stroke-linejoin:miter;stroke-miterlimit:4;stroke-dasharray:none;stroke-dashoffset:0;stroke-opacity:1" id="path4928" d="M 12.839109 12.125743 A 1.1262376 1.1262376 0 1 1 10.586634,12.125743 A 1.1262376 1.1262376 0 1 1 12.839109 12.125743 z" transform="matrix(0.8879121,0,0,0.8879121,0.5999996,0.2334061)"/><path style="fill:#3465a4;fill-rule:evenodd;stroke:#132c52;stroke-width:1px;stroke-linecap:butt;stroke-linejoin:miter;stroke-opacity:1;opacity:1" id="path5907" d="M 0.5,5.8999999 L 3.5387914,0.47747524 L 8.5000002,5.5391088 L 4.2213588,9.4999998 L 0.5,5.8999999 z"/><path style="opacity:.54891304;fill:#fff;fill-opacity:1;stroke:none;stroke-width:1;stroke-linecap:round;stroke-linejoin:miter;stroke-miterlimit:4;stroke-dashoffset:0;stroke-opacity:1" id="rect5909" d="M 3,2.4641089 L 3.680198,1.3266089 L 4,1.6757426 L 4,8.6170792 L 3,7.6034653 L 3,2.4641089 z"/><path style="fill:#fff;fill-opacity:1;fill-rule:evenodd;stroke:none;stroke-width:1px;stroke-linecap:butt;stroke-linejoin:miter;stroke-opacity:1;opacity:.43478261" id="path5911" d="M 1.1351485,5.8486987 L 3,2.5076731 L 3,7.5495049 L 1.1351485,5.8486987 z"/><path style="fill:none;fill-rule:evenodd;stroke:#fff;stroke-width:1px;stroke-linecap:butt;stroke-linejoin:miter;stroke-opacity:1;opacity:.32608696" id="path5914" d="M 1.729703,5.7522277 L 3.7747525,2.090099 L 7.0675743,5.5034652 L 4.2121287,8.1351485 L 1.729703,5.7522277 z"/><path style="fill:none;fill-rule:evenodd;stroke:#000;stroke-width:.99999994px;stroke-linecap:butt;stroke-linejoin:miter;stroke-opacity:1" id="path5916" d="M 9.044769,2.4999999 L 11.480646,2.4999999 C 12.01156,2.4192207 12.478763,3.0711021 12.5,3.4999999 L 12.5,5.4999998"/><path style="fill:#000;fill-opacity:1;fill-rule:evenodd;stroke:none;stroke-width:1px;stroke-linecap:butt;stroke-linejoin:miter;stroke-opacity:1" id="path5918" d="M 10,5 L 15,5 L 12.487086,8 L 10,5 z"/></g></svg>