<svg xmlns="http://www.w3.org/2000/svg" xmlns:cc="http://web.resource.org/cc/" xmlns:svg="http://www.w3.org/2000/svg" xmlns:xlink="http://www.w3.org/1999/xlink" id="svg5345" width="16" height="16" version="1.0"><defs id="defs5347"><linearGradient id="linearGradient3230"><stop style="stop-color:#fdee74;stop-opacity:1" id="stop3232" offset="0"/><stop id="stop3238" offset=".711" style="stop-color:#f4de27;stop-opacity:1"/><stop style="stop-color:#edd400;stop-opacity:1" id="stop3234" offset="1"/></linearGradient><radialGradient id="radialGradient3281" cx="6.412" cy="5.841" r="9.608" fx="6.412" fy="5.841" gradientTransform="matrix(1.1487419,0,0,1.1033001,-0.9439844,-0.6023333)" gradientUnits="userSpaceOnUse" xlink:href="#linearGradient3230"/></defs><metadata id="metadata5350"/><g id="layer1" style="opacity:1"><path style="opacity:1;fill:url(#radialGradient3281);fill-opacity:1;stroke:#c4a000;stroke-width:1.29466059;stroke-linecap:round;stroke-linejoin:round;stroke-miterlimit:4;stroke-dashoffset:0;stroke-opacity:1;stroke-dasharray:none" id="path3272" d="M 7.8125,-1.34375 C 7.3556775,-1.2690285 6.9804758,-0.94223991 6.84375,-0.5 L 5.28125,4.4564874 L 0.21875,4.4564874 C -0.31676657,4.4486663 -0.79478101,4.7909785 -0.95983251,5.3004853 C -1.124884,5.8099921 -0.9383832,6.3675698 -0.5,6.6752374 L 3.59375,9.5 L 2.03125,14.3125 C 1.8619931,14.815983 2.0379057,15.371119 2.466245,15.685234 C 2.8945843,15.99935 3.4769243,16.000266 3.90625,15.6875 L 8,12.71875 L 12.09375,15.6875 C 12.523076,16.000266 13.105416,15.99935 13.533755,15.685234 C 13.962094,15.371119 14.138007,14.815983 13.96875,14.3125 L 12.40625,9.5 L 16.5,6.6752374 C 16.938383,6.3675698 17.124884,5.8099921 16.959833,5.3004853 C 16.794781,4.7909785 16.316767,4.4486663 15.78125,4.4564874 L 10.71875,4.4564874 L 9.15625,-0.5 C 8.977316,-1.0738495 8.4071023,-1.4318907 7.8125,-1.34375 z" transform="matrix(0.8315493,0,0,0.8681315,1.347605,1.6780889)"/><path style="opacity:1;fill:none;fill-opacity:1;stroke:#fff;stroke-width:1.17696428;stroke-linecap:round;stroke-linejoin:round;stroke-miterlimit:4;stroke-dashoffset:0;stroke-opacity:1" id="path3285" d="M 8,-0.03125 L 6.46875,4.84375 C 6.3025292,5.3606231 5.8241637,5.713103 5.28125,5.71875 L 0.3125,5.71875 L 4.3125,8.46875 C 4.7568029,8.7865223 4.9460289,9.3542005 4.78125,9.875 L 3.25,14.59375 L 7.25,11.6875 C 7.6956638,11.357845 8.3043362,11.357845 8.75,11.6875 L 12.75,14.59375 L 11.21875,9.875 C 11.053971,9.3542005 11.243197,8.7865223 11.6875,8.46875 L 15.6875,5.71875 L 10.71875,5.71875 C 10.175836,5.713103 9.6974708,5.3606231 9.53125,4.84375 L 8,-0.03125 z" transform="matrix(0.8315493,0,0,0.8681315,1.347605,1.6780889)"/></g></svg>