<svg xmlns="http://www.w3.org/2000/svg" xmlns:cc="http://web.resource.org/cc/" xmlns:svg="http://www.w3.org/2000/svg" xmlns:xlink="http://www.w3.org/1999/xlink" id="svg2" width="16" height="16" version="1.0"><defs id="defs3"><linearGradient id="linearGradient6262"><stop style="stop-color:#000;stop-opacity:1" id="stop6264" offset="0"/><stop style="stop-color:#000;stop-opacity:0" id="stop6266" offset="1"/></linearGradient><linearGradient id="linearGradient6254"><stop style="stop-color:#000;stop-opacity:1" id="stop6256" offset="0"/><stop style="stop-color:#000;stop-opacity:0" id="stop6258" offset="1"/></linearGradient><linearGradient id="linearGradient6234"><stop id="stop6236" offset="0" style="stop-color:#fd0000;stop-opacity:1"/><stop style="stop-color:#fd0000;stop-opacity:1" id="stop6238" offset="0"/><stop style="stop-color:#bc0000;stop-opacity:1" id="stop6240" offset=".5"/><stop id="stop6242" offset="1" style="stop-color:#fd0000;stop-opacity:1"/><stop id="stop6244" offset="1" style="stop-color:#fd0000;stop-opacity:1"/></linearGradient><linearGradient id="linearGradient6004"><stop style="stop-color:#fd0000;stop-opacity:1" id="stop6006" offset="0"/><stop id="stop6024" offset=".147" style="stop-color:#fd0000;stop-opacity:1"/><stop id="stop6018" offset=".5" style="stop-color:#bc0000;stop-opacity:1"/><stop style="stop-color:#fd0000;stop-opacity:1" id="stop6022" offset=".888"/><stop style="stop-color:#fd0000;stop-opacity:1" id="stop6008" offset="1"/></linearGradient><linearGradient id="linearGradient4917"><stop style="stop-color:#fff;stop-opacity:1" id="stop4919" offset="0"/><stop style="stop-color:#d8d8d4;stop-opacity:1" id="stop4921" offset="1"/></linearGradient><linearGradient id="linearGradient5531"><stop id="stop5533" offset="0" style="stop-color:#fff;stop-opacity:1"/><stop id="stop5535" offset="1" style="stop-color:#fff;stop-opacity:0"/></linearGradient><linearGradient id="linearGradient5519"><stop style="stop-color:#000;stop-opacity:1" id="stop5521" offset="0"/><stop style="stop-color:#000;stop-opacity:0" id="stop5523" offset="1"/></linearGradient><linearGradient id="linearGradient5505"><stop style="stop-color:#2e3436;stop-opacity:1" id="stop5507" offset="0"/><stop style="stop-color:#2e3436;stop-opacity:0" id="stop5509" offset="1"/></linearGradient><linearGradient id="linearGradient5525" x1="18" x2="10" y1="16.562" y2="10" gradientTransform="matrix(1.1910261,0,0,1.1910261,1.9446414,32.208533)" gradientUnits="userSpaceOnUse" xlink:href="#linearGradient5519"/><linearGradient id="linearGradient5529" x1="18" x2="10" y1="16.562" y2="10" gradientTransform="matrix(-1.3963778,0,0,-1.3963778,22.376126,52.277032)" gradientUnits="userSpaceOnUse" xlink:href="#linearGradient5531"/><linearGradient id="linearGradient4923" x1="10.441" x2="12.805" y1="10.306" y2="15.184" gradientTransform="matrix(1.3963779,0,0,1.3963779,-0.198189,29.801811)" gradientUnits="userSpaceOnUse" xlink:href="#linearGradient4917"/><linearGradient id="linearGradient5948" x1="6.573" x2="13.444" y1="6.19" y2="15.042" gradientUnits="userSpaceOnUse" xlink:href="#linearGradient4917"/><linearGradient id="linearGradient5950" x1="8.526" x2="13" y1="8" y2="13" gradientTransform="matrix(0,-0.9313719,-0.9313719,0,15.762427,15.841447)" gradientUnits="userSpaceOnUse" xlink:href="#linearGradient5505"/><linearGradient id="linearGradient5952" x1="18" x2="10" y1="16.562" y2="10" gradientTransform="matrix(-1,0,0,-1,15.999111,16.34375)" gradientUnits="userSpaceOnUse" xlink:href="#linearGradient5531"/><linearGradient id="linearGradient5954" x1="18" x2="10" y1="16.562" y2="10" gradientTransform="matrix(0.8529397,0,0,0.8529397,1.4559031,1.4010577)" gradientUnits="userSpaceOnUse" xlink:href="#linearGradient5519"/><linearGradient id="linearGradient5978" x1="6.573" x2="13.444" y1="6.19" y2="15.042" gradientTransform="translate(-20,0)" gradientUnits="userSpaceOnUse" xlink:href="#linearGradient4917"/><linearGradient id="linearGradient5980" x1="8.526" x2="13" y1="8" y2="13" gradientTransform="matrix(0,-0.9313719,-0.9313719,0,-4.237573,15.841447)" gradientUnits="userSpaceOnUse" xlink:href="#linearGradient5505"/><linearGradient id="linearGradient5982" x1="18" x2="10" y1="16.562" y2="10" gradientTransform="matrix(-1,0,0,-1,-3.65625,16.34375)" gradientUnits="userSpaceOnUse" xlink:href="#linearGradient5531"/><linearGradient id="linearGradient5984" x1="18" x2="10" y1="16.562" y2="10" gradientTransform="matrix(0.8529397,0,0,0.8529397,-17.999077,2.000923)" gradientUnits="userSpaceOnUse" xlink:href="#linearGradient5519"/><radialGradient id="radialGradient5992" cx="9.146" cy="10.09" r="5.197" fx="9.146" fy="10.09" gradientTransform="matrix(1.362303,0,0,1.3548289,-3.2464087,26.588452)" gradientUnits="userSpaceOnUse" xlink:href="#linearGradient5505"/><linearGradient id="linearGradient6010" x1="3.815" x2="17.837" y1="17.888" y2="4.361" gradientTransform="translate(0,30)" gradientUnits="userSpaceOnUse" xlink:href="#linearGradient6004"/><linearGradient id="linearGradient6042" x1="10.192" x2="12.663" y1="10.377" y2="15.149" gradientTransform="matrix(1.3963779,0,0,1.3963779,-26.198189,29.801811)" gradientUnits="userSpaceOnUse" xlink:href="#linearGradient4917"/><linearGradient id="linearGradient6044" x1="3.716" x2="17.837" y1="17.987" y2="4.361" gradientTransform="translate(-26,30)" gradientUnits="userSpaceOnUse" xlink:href="#linearGradient6004"/><linearGradient id="linearGradient6046" x1="18" x2="10" y1="16.562" y2="10" gradientTransform="matrix(-1.3963778,0,0,-1.3963778,-3.623874,52.277032)" gradientUnits="userSpaceOnUse" xlink:href="#linearGradient5531"/><linearGradient id="linearGradient6048" x1="18" x2="10" y1="16.562" y2="10" gradientTransform="matrix(1.1910261,0,0,1.1910261,-24.055359,32.208533)" gradientUnits="userSpaceOnUse" xlink:href="#linearGradient5519"/><radialGradient id="radialGradient6050" cx="9.146" cy="10.09" r="5.197" fx="9.146" fy="10.09" gradientTransform="matrix(1.362303,0,0,1.3548289,-29.246409,26.588452)" gradientUnits="userSpaceOnUse" xlink:href="#linearGradient5505"/><linearGradient id="linearGradient6190" x1="10.192" x2="12.663" y1="10.377" y2="15.149" gradientTransform="matrix(2.0597774,0,0,2.0597772,-0.5292324,62.470882)" gradientUnits="userSpaceOnUse" xlink:href="#linearGradient4917"/><linearGradient id="linearGradient6192" x1="3.716" x2="17.837" y1="17.987" y2="4.361" gradientTransform="matrix(1.4971349,0,0,1.4971349,-0.4789645,62.521428)" gradientUnits="userSpaceOnUse" xlink:href="#linearGradient6234"/><linearGradient id="linearGradient6194" x1="18" x2="10" y1="16.562" y2="10" gradientTransform="matrix(-2.0597774,0,0,-2.0597771,32.769824,95.62376)" gradientUnits="userSpaceOnUse" xlink:href="#linearGradient5531"/><linearGradient id="linearGradient6196" x1="18" x2="10" y1="16.562" y2="10" gradientTransform="matrix(1.7568659,0,0,1.7568657,2.6316267,66.021003)" gradientUnits="userSpaceOnUse" xlink:href="#linearGradient5519"/><radialGradient id="radialGradient6198" cx="9.146" cy="10.09" r="5.197" fx="9.146" fy="10.09" gradientTransform="matrix(2.0095141,0,0,1.9984889,-5.0256187,57.730901)" gradientUnits="userSpaceOnUse" xlink:href="#linearGradient5505"/><linearGradient id="linearGradient6320" x1="10.192" x2="12.663" y1="10.377" y2="15.149" gradientTransform="matrix(2.0597774,0,0,2.0597772,-36.529232,62.470882)" gradientUnits="userSpaceOnUse" xlink:href="#linearGradient4917"/><linearGradient id="linearGradient6322" x1="3.716" x2="17.837" y1="17.987" y2="4.361" gradientTransform="matrix(1.4971349,0,0,1.4971349,-36.478965,62.521428)" gradientUnits="userSpaceOnUse" xlink:href="#linearGradient6234"/><linearGradient id="linearGradient6324" x1="18" x2="10" y1="16.562" y2="10" gradientTransform="matrix(-2.0597774,0,0,-2.0597771,-3.230176,95.62376)" gradientUnits="userSpaceOnUse" xlink:href="#linearGradient5531"/><linearGradient id="linearGradient6326" x1="18" x2="10" y1="16.562" y2="10" gradientTransform="matrix(1.7568659,0,0,1.7568657,-33.368373,66.021003)" gradientUnits="userSpaceOnUse" xlink:href="#linearGradient5519"/><linearGradient id="linearGradient6330" x1="32.899" x2="27.251" y1="4.997" y2="9.84" gradientTransform="translate(-36,63)" gradientUnits="userSpaceOnUse" xlink:href="#linearGradient6262"/><linearGradient id="linearGradient6334" x1="21.305" x2="26.458" y1="10.744" y2="6.075" gradientTransform="translate(-39.501708,66.603622)" gradientUnits="userSpaceOnUse" xlink:href="#linearGradient6262"/><linearGradient id="linearGradient6336" x1="21.305" x2="26.458" y1="10.744" y2="6.075" gradientTransform="matrix(-1,0,0,-1,-0.498292,91.39638)" gradientUnits="userSpaceOnUse" xlink:href="#linearGradient6262"/><linearGradient id="linearGradient6338" x1="21.305" x2="26.458" y1="10.744" y2="6.075" gradientTransform="matrix(0,-1,1,0,-32.445925,98.38573)" gradientUnits="userSpaceOnUse" xlink:href="#linearGradient6262"/><linearGradient id="linearGradient6438" x1="21.305" x2="26.458" y1="10.744" y2="6.075" gradientTransform="matrix(0,0.6634469,-0.6634469,0,-6.735745,28.013666)" gradientUnits="userSpaceOnUse" xlink:href="#linearGradient6262"/><linearGradient id="linearGradient6440" x1="21.305" x2="26.458" y1="10.744" y2="6.075" gradientTransform="matrix(0,0.6634469,0.6634469,0,-23.253316,28.145792)" gradientUnits="userSpaceOnUse" xlink:href="#linearGradient6262"/><linearGradient id="linearGradient6442" x1="21.305" x2="26.458" y1="10.744" y2="6.075" gradientTransform="matrix(0,-0.6634469,0.6634469,0,-23.253316,53.865142)" gradientUnits="userSpaceOnUse" xlink:href="#linearGradient6262"/><linearGradient id="linearGradient6444" x1="21.305" x2="26.458" y1="10.744" y2="6.075" gradientTransform="matrix(0.6634469,0,0,0.6634469,-27.909371,32.746683)" gradientUnits="userSpaceOnUse" xlink:href="#linearGradient6262"/><linearGradient id="linearGradient6446" x1="21.305" x2="26.458" y1="10.744" y2="6.075" gradientTransform="matrix(0,0.6634469,-0.6634469,0,19.264255,28.013666)" gradientUnits="userSpaceOnUse" xlink:href="#linearGradient6262"/><linearGradient id="linearGradient6448" x1="21.305" x2="26.458" y1="10.744" y2="6.075" gradientTransform="matrix(0,0.6634469,0.6634469,0,2.746684,28.145792)" gradientUnits="userSpaceOnUse" xlink:href="#linearGradient6262"/><linearGradient id="linearGradient6450" x1="21.305" x2="26.458" y1="10.744" y2="6.075" gradientTransform="matrix(0,-0.6634469,0.6634469,0,2.746684,53.865142)" gradientUnits="userSpaceOnUse" xlink:href="#linearGradient6262"/><linearGradient id="linearGradient6452" x1="21.305" x2="26.458" y1="10.744" y2="6.075" gradientTransform="matrix(0.6634469,0,0,0.6634469,-1.9093712,32.746683)" gradientUnits="userSpaceOnUse" xlink:href="#linearGradient6262"/><linearGradient id="linearGradient6454" x1="32.899" x2="27.251" y1="4.997" y2="9.84" gradientTransform="matrix(0,0.6704528,0.673966,0,-25.705272,30.362451)" gradientUnits="userSpaceOnUse" xlink:href="#linearGradient6262"/><linearGradient id="linearGradient6456" x1="32.899" x2="27.251" y1="4.997" y2="9.84" gradientTransform="matrix(0.6704528,0,0,0.673966,-25.776879,30.367986)" gradientUnits="userSpaceOnUse" xlink:href="#linearGradient6262"/><linearGradient id="linearGradient6458" x1="32.899" x2="27.251" y1="4.997" y2="9.84" gradientTransform="matrix(0,0.6704528,0.673966,0,0.2947279,30.362451)" gradientUnits="userSpaceOnUse" xlink:href="#linearGradient6262"/><linearGradient id="linearGradient6460" x1="32.899" x2="27.251" y1="4.997" y2="9.84" gradientTransform="matrix(0.6704528,0,0,0.673966,0.2231211,30.367986)" gradientUnits="userSpaceOnUse" xlink:href="#linearGradient6262"/><linearGradient id="linearGradient6462" x1="21.305" x2="26.458" y1="10.744" y2="6.075" gradientTransform="matrix(0,1,-1,0,-7.664764,59.498292)" gradientUnits="userSpaceOnUse" xlink:href="#linearGradient6262"/><linearGradient id="linearGradient6464" x1=".297" x2="10.504" y1="36.36" y2="26.698" gradientTransform="translate(-36,63)" gradientUnits="userSpaceOnUse" xlink:href="#linearGradient6254"/><radialGradient id="radialGradient6466" cx="9.146" cy="10.09" r="5.197" fx="9.146" fy="10.09" gradientTransform="matrix(2.0095141,0,0,1.9984889,-41.025619,57.730901)" gradientUnits="userSpaceOnUse" xlink:href="#linearGradient5505"/><linearGradient id="linearGradient6468" x1="21.305" x2="26.458" y1="10.744" y2="6.075" gradientTransform="matrix(0,1,-1,0,28.335236,59.498292)" gradientUnits="userSpaceOnUse" xlink:href="#linearGradient6262"/><linearGradient id="linearGradient6470" x1="21.305" x2="26.458" y1="10.744" y2="6.075" gradientTransform="matrix(0,-1,1,0,3.5540748,98.38573)" gradientUnits="userSpaceOnUse" xlink:href="#linearGradient6262"/><linearGradient id="linearGradient6472" x1="21.305" x2="26.458" y1="10.744" y2="6.075" gradientTransform="matrix(-1,0,0,-1,35.501708,91.39638)" gradientUnits="userSpaceOnUse" xlink:href="#linearGradient6262"/><linearGradient id="linearGradient6474" x1="21.305" x2="26.458" y1="10.744" y2="6.075" gradientTransform="translate(-3.501708,66.603622)" gradientUnits="userSpaceOnUse" xlink:href="#linearGradient6262"/><linearGradient id="linearGradient6476" x1=".297" x2="10.504" y1="36.36" y2="26.698" gradientTransform="translate(0,63)" gradientUnits="userSpaceOnUse" xlink:href="#linearGradient6254"/><linearGradient id="linearGradient6478" x1="32.899" x2="27.251" y1="4.997" y2="9.84" gradientTransform="translate(0,63)" gradientUnits="userSpaceOnUse" xlink:href="#linearGradient6262"/></defs><metadata id="metadata6"/><g id="layer1"><path style="opacity:1;color:#000;fill:none;fill-opacity:1;fill-rule:evenodd;stroke:#8f5902;stroke-width:.65762585;stroke-linecap:butt;stroke-linejoin:miter;marker:none;marker-start:none;marker-mid:none;marker-end:none;stroke-miterlimit:4;stroke-dasharray:none;stroke-dashoffset:0;stroke-opacity:1;visibility:visible;display:inline;overflow:visible;enable-background:accumulate" id="path5926" d="M 3.7812456 2.4405754 A 1.4855574 1.7859957 0 1 1 0.81013072,2.4405754 A 1.4855574 1.7859957 0 1 1 3.7812456 2.4405754 z" transform="matrix(1.2994337,-1.2994337,-0.8897298,-0.8897298,2.188358,18.154547)"/><path id="path5928" d="M 3.7812456 2.4405754 A 1.4855574 1.7859957 0 1 1 0.81013072,2.4405754 A 1.4855574 1.7859957 0 1 1 3.7812456 2.4405754 z" transform="matrix(1.2994337,1.2994337,-0.8897298,0.8897298,2.188358,-2.154547)" style="opacity:1;color:#000;fill:none;fill-opacity:1;fill-rule:evenodd;stroke:#8f5902;stroke-width:.65762585;stroke-linecap:butt;stroke-linejoin:miter;marker:none;marker-start:none;marker-mid:none;marker-end:none;stroke-miterlimit:4;stroke-dasharray:none;stroke-dashoffset:0;stroke-opacity:1;visibility:visible;display:inline;overflow:visible;enable-background:accumulate"/><path id="path5930" d="M 3.7812456 2.4405754 A 1.4855574 1.7859957 0 1 1 0.81013072,2.4405754 A 1.4855574 1.7859957 0 1 1 3.7812456 2.4405754 z" transform="matrix(-1.2994337,-1.2994337,0.8897298,-0.8897298,13.811642,18.154547)" style="opacity:1;color:#000;fill:none;fill-opacity:1;fill-rule:evenodd;stroke:#8f5902;stroke-width:.65762585;stroke-linecap:butt;stroke-linejoin:miter;marker:none;marker-start:none;marker-mid:none;marker-end:none;stroke-miterlimit:4;stroke-dasharray:none;stroke-dashoffset:0;stroke-opacity:1;visibility:visible;display:inline;overflow:visible;enable-background:accumulate"/><path style="opacity:1;color:#000;fill:none;fill-opacity:1;fill-rule:evenodd;stroke:#8f5902;stroke-width:.65762585;stroke-linecap:butt;stroke-linejoin:miter;marker:none;marker-start:none;marker-mid:none;marker-end:none;stroke-miterlimit:4;stroke-dasharray:none;stroke-dashoffset:0;stroke-opacity:1;visibility:visible;display:inline;overflow:visible;enable-background:accumulate" id="path5932" d="M 3.7812456 2.4405754 A 1.4855574 1.7859957 0 1 1 0.81013072,2.4405754 A 1.4855574 1.7859957 0 1 1 3.7812456 2.4405754 z" transform="matrix(-1.2994337,1.2994337,0.8897298,0.8897298,13.811642,-2.154547)"/><path id="path5934" d="M 8,0.5 C 3.86,0.5 0.5,3.86 0.5,8 C 0.5,12.14 3.86,15.5 8,15.5 C 12.14,15.5 15.5,12.14 15.5,8 C 15.5,3.86 12.14,0.5 8,0.5 z M 7.96875,4.5 C 9.9144389,4.5 11.5,6.085561 11.5,8.03125 C 11.5,9.976939 9.914439,11.5625 7.96875,11.5625 C 6.0230608,11.5625 4.4375,9.976939 4.4375,8.03125 C 4.4374998,6.085561 6.023061,4.5 7.96875,4.5 z" style="opacity:1;color:#000;fill:url(#linearGradient5948);fill-opacity:1;fill-rule:evenodd;stroke:#555753;stroke-width:1;stroke-linecap:butt;stroke-linejoin:miter;marker:none;marker-start:none;marker-mid:none;marker-end:none;stroke-miterlimit:4;stroke-dasharray:none;stroke-dashoffset:0;stroke-opacity:1;visibility:visible;display:inline;overflow:visible;enable-background:accumulate"/><path id="path5936" d="M 4.125,2 C 3.2709679,2.599059 2.5038135,3.263277 2,4.125 L 4.6875,6.78125 C 5.0573355,5.808368 5.8258751,5.028597 6.8125,4.6875 L 4.125,2 z M 11.3125,9.1875 C 10.971402,10.174125 10.191632,10.942664 9.21875,11.3125 L 11.90625,14 C 12.866768,13.422967 13.567981,12.716282 14,11.875 L 11.3125,9.1875 z" style="opacity:1;color:#000;fill:#fd0000;fill-opacity:1;fill-rule:evenodd;stroke:none;stroke-width:1;stroke-linecap:butt;stroke-linejoin:miter;marker:none;marker-start:none;marker-mid:none;marker-end:none;stroke-miterlimit:4;stroke-dasharray:none;stroke-dashoffset:0;stroke-opacity:1;visibility:visible;display:inline;overflow:visible;enable-background:accumulate"/><path id="use5938" d="M 14.004528,4.120472 C 13.405469,3.26644 12.741251,2.499285 11.879528,1.995472 L 9.223278,4.682972 C 10.19616,5.052808 10.975931,5.821347 11.317028,6.807972 L 14.004528,4.120472 z M 6.817028,11.307972 C 5.830403,10.966874 5.061864,10.187104 4.692028,9.214222 L 2.004528,11.901722 C 2.581561,12.86224 3.288246,13.563453 4.129528,13.995472 L 6.817028,11.307972 z" style="color:#000;fill:#fd0000;fill-opacity:1;fill-rule:evenodd;stroke:none;stroke-width:1;stroke-linecap:butt;stroke-linejoin:miter;marker:none;marker-start:none;marker-mid:none;marker-end:none;stroke-miterlimit:4;stroke-dasharray:none;stroke-dashoffset:0;stroke-opacity:1;visibility:visible;display:inline;overflow:visible;enable-background:accumulate"/><path id="path5940" d="M 11,5.717754 C 10.287681,5.149732 9.723706,4.827329 8.748033,4.723195 C 6.3369674,4.465863 4.4506701,6.268797 4.5859641,8.885263 C 4.6297821,9.73264 5.0654901,10.341322 5.5015041,11 C 4.5617881,10.235549 3.6228191,9.257337 3.5611771,7.953891 C 3.4398331,5.388037 5.5306831,3.264813 7.8748714,3.640196 C 9.294768,3.867569 10.250723,4.608982 11,5.717754 z" style="opacity:1;color:#000;fill:url(#linearGradient5950);fill-opacity:1;fill-rule:evenodd;stroke:none;stroke-width:2.12778091;stroke-linecap:butt;stroke-linejoin:miter;marker:none;marker-start:none;marker-mid:none;marker-end:none;stroke-miterlimit:4;stroke-dasharray:none;stroke-dashoffset:0;stroke-opacity:1;visibility:visible;display:inline;overflow:visible;enable-background:accumulate"/><path style="fill:url(#linearGradient5952);fill-opacity:1;fill-rule:evenodd;stroke:none;stroke-width:2;stroke-linecap:butt;stroke-linejoin:miter;stroke-miterlimit:4;stroke-dasharray:none;stroke-opacity:1;opacity:.8558952" id="path5942" d="M 2.2491107,14 L 2.2626937,13.843602 C -0.50478722,10.639982 1.3763087,5.896713 3.4205777,3.858967 C 5.4648467,1.821221 10.305852,-0.073719 13.531994,2.640365 L 13.655361,2.59375 C 9.740027,-0.700135 5.0126137,0.026365 2.3116107,2.71875 C -0.38939222,5.411135 -1.1059743,10.116175 2.2491107,14 z"/><path style="opacity:1;color:#000;fill:none;fill-opacity:1;fill-rule:evenodd;stroke:#fff;stroke-width:1.15384614;stroke-linecap:butt;stroke-linejoin:miter;marker:none;marker-start:none;marker-mid:none;marker-end:none;stroke-miterlimit:4;stroke-dasharray:none;stroke-dashoffset:0;stroke-opacity:.54504502;visibility:visible;display:inline;overflow:visible;enable-background:accumulate" id="path5944" d="M 15 7.5 A 7.5 7.5 0 1 1 0,7.5 A 7.5 7.5 0 1 1 15 7.5 z" transform="matrix(0.8666667,0,0,0.8666667,1.5,1.5)"/><path id="path5946" d="M 13.183823,3.4001347 L 13.172238,3.5335327 C 15.532732,6.2660277 13.928271,10.31175 12.184633,12.049825 C 10.440994,13.787899 6.3119098,15.404169 3.5602047,13.089219 L 3.4549805,13.128979 C 6.794524,15.938464 10.826722,15.318803 13.130515,13.022361 C 15.434307,10.725919 16.045509,6.7128037 13.183823,3.4001347 z" style="fill:url(#linearGradient5954);fill-opacity:1;fill-rule:evenodd;stroke:none;stroke-width:2;stroke-linecap:butt;stroke-linejoin:miter;stroke-miterlimit:4;stroke-dasharray:none;stroke-opacity:1;opacity:.69868996"/></g><g id="layer3"><path id="path6517" d="M 12.42786,5.2389641 C 11.971314,4.46626 11.469365,3.7595369 10.614192,3.4252966 L 9.7833001,4.2424049 C 10.613646,4.5580552 11.279173,5.2139955 11.570296,6.0560717 L 12.42786,5.2389641 z" style="color:#000;fill:#fff;fill-opacity:.40090093;fill-rule:evenodd;stroke:none;stroke-width:1;stroke-linecap:butt;stroke-linejoin:miter;marker:none;marker-start:none;marker-mid:none;marker-end:none;stroke-miterlimit:4;stroke-dasharray:none;stroke-dashoffset:0;stroke-opacity:1;visibility:visible;display:inline;overflow:visible;enable-background:accumulate"/><path style="color:#000;fill:#fff;fill-opacity:.40090093;fill-rule:evenodd;stroke:none;stroke-width:1;stroke-linecap:butt;stroke-linejoin:miter;marker:none;marker-start:none;marker-mid:none;marker-end:none;stroke-miterlimit:4;stroke-dasharray:none;stroke-dashoffset:0;stroke-opacity:1;visibility:visible;display:inline;overflow:visible;enable-background:accumulate" id="path6519" d="M 3.6594278,10.366277 C 4.1159736,11.138981 4.6179221,11.845704 5.4730952,12.179944 L 6.3039876,11.362836 C 5.4736415,11.047185 4.8081149,10.391245 4.5169913,9.5491691 L 3.6594278,10.366277 z"/><path id="path6521" d="M 10.265952,12.048937 C 11.038656,11.592391 11.745379,11.090442 12.079618,10.235269 L 11.262511,9.4043772 C 10.94686,10.234723 10.29092,10.90025 9.4488439,11.191374 L 10.265952,12.048937 z" style="color:#000;fill:#fff;fill-opacity:.40090093;fill-rule:evenodd;stroke:none;stroke-width:1;stroke-linecap:butt;stroke-linejoin:miter;marker:none;marker-start:none;marker-mid:none;marker-end:none;stroke-miterlimit:4;stroke-dasharray:none;stroke-dashoffset:0;stroke-opacity:1;visibility:visible;display:inline;overflow:visible;enable-background:accumulate"/><path style="color:#000;fill:#fff;fill-opacity:.40090093;fill-rule:evenodd;stroke:none;stroke-width:1;stroke-linecap:butt;stroke-linejoin:miter;marker:none;marker-start:none;marker-mid:none;marker-end:none;stroke-miterlimit:4;stroke-dasharray:none;stroke-dashoffset:0;stroke-opacity:1;visibility:visible;display:inline;overflow:visible;enable-background:accumulate" id="path6523" d="M 5.3095768,3.3780827 C 4.5368727,3.8346283 3.83015,4.3365773 3.4959094,5.1917502 L 4.3130178,6.0226426 C 4.6286683,5.1922966 5.2846085,4.5267701 6.1266842,4.2356462 L 5.3095768,3.3780827 z"/></g></svg>