<svg xmlns="http://www.w3.org/2000/svg" xmlns:cc="http://web.resource.org/cc/" xmlns:svg="http://www.w3.org/2000/svg" xmlns:xlink="http://www.w3.org/1999/xlink" id="svg2" width="16" height="16" version="1.0"><defs id="defs4"><linearGradient id="linearGradient5233"><stop style="stop-color:#eeeeec;stop-opacity:1" id="stop5235" offset="0"/><stop style="stop-color:#eeeeec;stop-opacity:0" id="stop5237" offset="1"/></linearGradient><linearGradient id="linearGradient5154"><stop style="stop-color:#eeeeec;stop-opacity:1" id="stop5156" offset="0"/><stop style="stop-color:#eeeeec;stop-opacity:0" id="stop5158" offset="1"/></linearGradient><linearGradient id="linearGradient5111"><stop style="stop-color:#eeeeec;stop-opacity:1" id="stop5113" offset="0"/><stop style="stop-color:#eeeeec;stop-opacity:0" id="stop5115" offset="1"/></linearGradient><linearGradient id="linearGradient30505"><stop style="stop-color:#000;stop-opacity:1" id="stop30507" offset="0"/><stop style="stop-color:#000;stop-opacity:0" id="stop30509" offset="1"/></linearGradient><radialGradient id="radialGradient30511" cx="25.375" cy="43.375" r="17.125" fx="25.375" fy="43.375" gradientTransform="matrix(1,0,0,0.343066,0,28.49453)" gradientUnits="userSpaceOnUse" xlink:href="#linearGradient30505"/><linearGradient id="linearGradient5137" x1="11.019" x2="11.019" y1="5.106" y2="14.599" gradientUnits="userSpaceOnUse" xlink:href="#linearGradient5111"/><linearGradient id="linearGradient5195" x1="17.3" x2="11.711" y1="15.908" y2="18.465" gradientUnits="userSpaceOnUse" xlink:href="#linearGradient5154"/><linearGradient id="linearGradient5197" x1="5.619" x2="13.501" y1="8.584" y2="7.97" gradientUnits="userSpaceOnUse" xlink:href="#linearGradient5154"/><linearGradient id="linearGradient5239" x1="10.519" x2="13.244" y1="10.034" y2="9.086" gradientUnits="userSpaceOnUse" xlink:href="#linearGradient5233"/><linearGradient id="linearGradient5243" x1="10.519" x2="13.413" y1="10.034" y2="9.027" gradientUnits="userSpaceOnUse" xlink:href="#linearGradient5233"/></defs><metadata id="metadata7"/><g id="layer1"><path style="fill:#d3d7cf;fill-opacity:1;stroke:#656863;stroke-width:1.28196156;stroke-miterlimit:4;stroke-opacity:1" id="path5275" d="M 12,2.5 C 6.7559981,2.5 2.5,6.755999 2.5,12 C 2.5,17.244001 6.755998,21.5 12,21.5 C 17.244002,21.5 21.5,17.244001 21.5,12 C 21.5,6.7559992 17.244002,2.4999999 12,2.5 z M 12,10.099701 C 12.987409,10.099701 13.818817,11.011879 13.818817,12 C 13.818817,12.828 13.067857,13.820239 12,13.820239 C 10.932887,13.820239 10.101479,12.828001 10.101479,12 C 10.101479,10.971849 11.012591,10.099701 12,10.099701 z" transform="matrix(0.79211,0,0,0.788592,-1.468259,-1.461318)"/><path style="opacity:1;fill:url(#linearGradient5137);fill-opacity:1;stroke:#fff;stroke-width:1.49775505;stroke-miterlimit:4;stroke-dasharray:none;stroke-opacity:1" id="path5277" d="M 12,3.5625 C 7.3445412,3.5625 3.5625,7.3445411 3.5625,12 C 3.5625,16.655459 7.3445415,20.437499 12,20.4375 C 16.655458,20.4375 20.437499,16.655458 20.4375,12 C 20.437501,7.3445418 16.655459,3.5624999 12,3.5625 z" transform="matrix(0.761998,0,0,0.761998,-1.143975,-1.143977)"/><path style="fill:url(#linearGradient5239);fill-opacity:1;stroke:none;stroke-width:1;stroke-miterlimit:4;stroke-opacity:1" id="path5230" d="M 20.831032,10.164464 C 16.98657,10.164464 12.657251,10.164464 7.9282284,10.164464 C 7.9282284,8.0191787 10.818456,6.2780776 14.37963,6.2780776 C 17.940804,6.2780776 20.831032,8.0191787 20.831032,10.164464 z" transform="matrix(0.770018,0.771642,-1.278231,1.280926,9.887654,-16.09403)"/><path style="fill:url(#linearGradient5243);fill-opacity:1;stroke:none;stroke-width:1;stroke-miterlimit:4;stroke-opacity:1" id="path5241" d="M 20.831032,10.164464 C 16.98657,10.164464 12.657251,10.164464 7.9282284,10.164464 C 7.9282284,8.0191787 10.818456,6.2780776 14.37963,6.2780776 C 17.940804,6.2780776 20.831032,8.0191787 20.831032,10.164464 z" transform="matrix(-0.780679,-0.770531,1.295928,-1.279082,6.016988,32.05214)"/><path style="opacity:1;fill:none;fill-opacity:1;stroke:#fff;stroke-width:.95679194;stroke-miterlimit:4;stroke-dasharray:none;stroke-opacity:1" id="path5481" d="M 10.827572 8.1239672 A 2.493814 2.2886269 0 1 1 5.8399444,8.1239672 A 2.493814 2.2886269 0 1 1 10.827572 8.1239672 z" transform="matrix(1,0,0,1.092358,-0.339944,-0.874281)"/></g></svg>