<svg xmlns="http://www.w3.org/2000/svg" xmlns:cc="http://web.resource.org/cc/" xmlns:svg="http://www.w3.org/2000/svg" xmlns:xlink="http://www.w3.org/1999/xlink" id="svg4899" width="16" height="16" version="1.0"><defs id="defs4901"><linearGradient id="linearGradient6268"><stop id="stop6270" offset="0" style="stop-color:#555753;stop-opacity:1"/><stop id="stop6272" offset="1" style="stop-color:#686a66;stop-opacity:1"/></linearGradient><linearGradient id="linearGradient6237"><stop style="stop-color:#60635e;stop-opacity:1" id="stop6239" offset="0"/><stop style="stop-color:#60635e;stop-opacity:0" id="stop6241" offset="1"/></linearGradient><linearGradient id="linearGradient6229"><stop style="stop-color:#60635e;stop-opacity:1" id="stop6231" offset="0"/><stop style="stop-color:#60635e;stop-opacity:0" id="stop6233" offset="1"/></linearGradient><linearGradient id="linearGradient6223"><stop id="stop6225" offset="0" style="stop-color:#3465a4;stop-opacity:1"/><stop id="stop6227" offset="1" style="stop-color:#729fcf;stop-opacity:1"/></linearGradient><linearGradient id="linearGradient5946"><stop style="stop-color:#fff;stop-opacity:1" id="stop5948" offset="0"/><stop style="stop-color:#fff;stop-opacity:0" id="stop5950" offset="1"/></linearGradient><linearGradient id="linearGradient5933"><stop style="stop-color:#3465a4;stop-opacity:1" id="stop5935" offset="0"/><stop style="stop-color:#729fcf;stop-opacity:1" id="stop5937" offset="1"/></linearGradient><linearGradient id="linearGradient5913"><stop style="stop-color:#fff;stop-opacity:1" id="stop5915" offset="0"/><stop style="stop-color:#fff;stop-opacity:0" id="stop5917" offset="1"/></linearGradient><linearGradient id="linearGradient6167" x1="9.798" x2="7.877" y1="10.485" y2="4.217" gradientUnits="userSpaceOnUse" xlink:href="#linearGradient5933"/><linearGradient id="linearGradient6170" x1="8.307" x2="8.307" y1="14" y2="11.367" gradientUnits="userSpaceOnUse" xlink:href="#linearGradient5913"/><linearGradient id="linearGradient6195" x1="7.5" x2="7.065" y1="8.582" y2="4.458" gradientTransform="matrix(1.5714286,0,0,2,-4.2857143,-6)" gradientUnits="userSpaceOnUse" xlink:href="#linearGradient5946"/><linearGradient id="linearGradient6217" x1="8.307" x2="8.307" y1="14" y2="11.367" gradientUnits="userSpaceOnUse" xlink:href="#linearGradient5913"/><linearGradient id="linearGradient6219" x1="9.798" x2="8.148" y1="10.485" y2="5.299" gradientUnits="userSpaceOnUse" xlink:href="#linearGradient6223"/><linearGradient id="linearGradient6221" x1="7.5" x2="6.85" y1="8.988" y2="4.559" gradientTransform="matrix(1.5714286,0,0,2,-4.2857143,-6)" gradientUnits="userSpaceOnUse" xlink:href="#linearGradient5946"/><linearGradient id="linearGradient6235" x1="2.541" x2="12.432" y1="11.5" y2="11.5" gradientUnits="userSpaceOnUse" xlink:href="#linearGradient6229"/><linearGradient id="linearGradient6243" x1="2.541" x2="12.432" y1="11.5" y2="11.5" gradientUnits="userSpaceOnUse" xlink:href="#linearGradient6237"/><linearGradient id="linearGradient6266" x1="7.5" x2="7.5" y1="12.567" y2="1.608" gradientUnits="userSpaceOnUse" xlink:href="#linearGradient6268"/><linearGradient id="linearGradient6292" x1="7.5" x2="7.5" y1="12.567" y2="1.608" gradientUnits="userSpaceOnUse" xlink:href="#linearGradient6268"/><linearGradient id="linearGradient6295" x1="2.541" x2="12.432" y1="11.5" y2="11.5" gradientTransform="matrix(0.881745,0,0,0.8824448,-0.6005831,-0.6481153)" gradientUnits="userSpaceOnUse" xlink:href="#linearGradient6237"/><linearGradient id="linearGradient6298" x1="7.5" x2="7.065" y1="8.582" y2="4.458" gradientTransform="matrix(1.3855994,0,0,1.7648896,-4.7216569,-6.0595583)" gradientUnits="userSpaceOnUse" xlink:href="#linearGradient5946"/><linearGradient id="linearGradient6301" x1="9.798" x2="7.877" y1="10.485" y2="4.217" gradientTransform="matrix(0.875,0,0,0.8333335,-0.5625001,-0.4166672)" gradientUnits="userSpaceOnUse" xlink:href="#linearGradient5933"/><linearGradient id="linearGradient6304" x1="8.307" x2="8.307" y1="14" y2="11.367" gradientTransform="matrix(0.9,0,0,0.8824448,-0.7500003,-0.4130048)" gradientUnits="userSpaceOnUse" xlink:href="#linearGradient5913"/><linearGradient id="linearGradient6309" x1="7.5" x2="7.5" y1="12.567" y2="1.608" gradientTransform="matrix(0.9166666,0,0,0.923077,-0.875,-0.8846155)" gradientUnits="userSpaceOnUse" xlink:href="#linearGradient6268"/><linearGradient id="linearGradient6334" x1="7.5" x2="7.5" y1="12.567" y2="1.608" gradientTransform="matrix(0.9166666,0,0,0.923077,-0.875,-0.8846155)" gradientUnits="userSpaceOnUse" xlink:href="#linearGradient6268"/><linearGradient id="linearGradient6336" x1="8.307" x2="8.307" y1="14" y2="11.367" gradientTransform="matrix(0.9,0,0,0.8824448,-0.7500003,-0.4130048)" gradientUnits="userSpaceOnUse" xlink:href="#linearGradient5913"/><linearGradient id="linearGradient6338" x1="9.798" x2="7.877" y1="10.485" y2="4.217" gradientTransform="matrix(0.875,0,0,0.8333335,-0.5625001,-0.4166672)" gradientUnits="userSpaceOnUse" xlink:href="#linearGradient5933"/><linearGradient id="linearGradient6340" x1="7.5" x2="7.065" y1="8.582" y2="4.458" gradientTransform="matrix(1.3855994,0,0,1.7648896,-4.7216569,-6.0595583)" gradientUnits="userSpaceOnUse" xlink:href="#linearGradient5946"/><linearGradient id="linearGradient6342" x1="2.541" x2="12.432" y1="11.5" y2="11.5" gradientTransform="matrix(0.881745,0,0,0.8824448,-0.6005831,-0.6481153)" gradientUnits="userSpaceOnUse" xlink:href="#linearGradient6237"/></defs><metadata id="metadata4904"/><g id="layer1"><g id="g6312"><path id="rect4935" d="M 1.9895833,0.50000001 C 1.1592463,0.50000001 0.49999993,1.1638562 0.49999993,2.0000001 L 0.49999993,8.2307696 C 0.49999993,9.066913 1.1592463,9.5205387 1.9895833,9.5205387 L 1.2447916,9.5205387 C 0.82625203,9.5205387 0.49999993,10.059303 0.49999993,10.480769 L 0.49999993,11.750001 C 0.49999993,12.171468 0.82625213,12.5 1.2447916,12.5 L 10.755208,12.5 C 11.173748,12.5 11.5,12.171468 11.5,11.750001 L 11.5,10.480769 C 11.5,10.059303 11.173748,9.5205387 10.755208,9.5205387 L 10.010417,9.5205387 C 10.840753,9.5205387 11.5,9.066913 11.5,8.2307696 L 11.5,2.0000001 C 11.5,1.1638562 10.840753,0.50000001 10.010417,0.50000001 L 1.9895833,0.50000001 z" style="color:#000;fill:#babdb6;fill-opacity:1;fill-rule:evenodd;stroke:url(#linearGradient6309);stroke-width:.99999982;stroke-linecap:round;stroke-linejoin:miter;marker:none;marker-start:none;marker-mid:none;marker-end:none;stroke-miterlimit:4;stroke-dasharray:none;stroke-dashoffset:0;stroke-opacity:1;visibility:visible;display:inline;overflow:visible;enable-background:accumulate"/><rect style="color:#000;fill:none;fill-opacity:.25675677;fill-rule:evenodd;stroke:#fff;stroke-width:.99999982;stroke-linecap:round;stroke-linejoin:miter;marker:none;marker-start:none;marker-mid:none;marker-end:none;stroke-miterlimit:4;stroke-dasharray:none;stroke-dashoffset:0;stroke-opacity:.79279288;visibility:visible;display:inline;overflow:visible;enable-background:accumulate" id="rect5908" width="9" height="7" x="1.5" y="1.5" rx=".621" ry=".621"/><rect id="rect5911" width="9" height="2.647" x="1.5" y="8.853" rx=".621" ry=".621" style="color:#000;fill:none;fill-opacity:.25675677;fill-rule:evenodd;stroke:url(#linearGradient6304);stroke-width:.99999982;stroke-linecap:round;stroke-linejoin:miter;marker:none;marker-start:none;marker-mid:none;marker-end:none;stroke-miterlimit:4;stroke-dasharray:none;stroke-dashoffset:0;stroke-opacity:1;visibility:visible;display:inline;overflow:visible;enable-background:accumulate"/><rect id="rect5921" width="7" height="5" x="2.5" y="2.5" rx=".396" ry=".396" style="color:#000;fill:url(#linearGradient6301);fill-opacity:1;fill-rule:evenodd;stroke:#204a87;stroke-width:.99999976;stroke-linecap:round;stroke-linejoin:miter;marker:none;marker-start:none;marker-mid:none;marker-end:none;stroke-miterlimit:4;stroke-dasharray:none;stroke-dashoffset:0;stroke-opacity:1;visibility:visible;display:inline;overflow:visible;enable-background:accumulate"/><path id="path5941" d="M 1.5784902,1 C 1.1610853,1 0.82074051,1.3963515 0.82074051,1.8824448 L 0.82074051,3.3826009 C 2.0380436,4.0929379 3.7478588,4.5297793 5.6703383,4.5297791 C 7.592818,4.5297791 9.3026332,4.0929379 10.519936,3.3826009 L 10.519936,1.8824448 C 10.519936,1.3963518 10.179591,1 9.7621864,1 L 1.5784902,1 z" style="color:#000;fill:url(#linearGradient6298);fill-opacity:1;fill-rule:evenodd;stroke:none;stroke-width:1;stroke-linecap:round;stroke-linejoin:miter;marker:none;marker-start:none;marker-mid:none;marker-end:none;stroke-miterlimit:4;stroke-dasharray:none;stroke-dashoffset:0;stroke-opacity:1;visibility:visible;display:inline;overflow:visible;enable-background:accumulate"/><path id="path6176" d="M 2.0804455,9.5 L 9.9205555,9.5" style="fill:none;fill-rule:evenodd;stroke:url(#linearGradient6295);stroke-width:1px;stroke-linecap:butt;stroke-linejoin:miter;stroke-opacity:1"/></g><g id="g6320" transform="translate(4,3)"><path style="color:#000;fill:#babdb6;fill-opacity:1;fill-rule:evenodd;stroke:url(#linearGradient6334);stroke-width:.99999982;stroke-linecap:round;stroke-linejoin:miter;marker:none;marker-start:none;marker-mid:none;marker-end:none;stroke-miterlimit:4;stroke-dasharray:none;stroke-dashoffset:0;stroke-opacity:1;visibility:visible;display:inline;overflow:visible;enable-background:accumulate" id="path6322" d="M 1.9895833,0.50000001 C 1.1592463,0.50000001 0.49999993,1.1638562 0.49999993,2.0000001 L 0.49999993,8.2307696 C 0.49999993,9.066913 1.1592463,9.5205387 1.9895833,9.5205387 L 1.2447916,9.5205387 C 0.82625203,9.5205387 0.49999993,10.059303 0.49999993,10.480769 L 0.49999993,11.750001 C 0.49999993,12.171468 0.82625213,12.5 1.2447916,12.5 L 10.755208,12.5 C 11.173748,12.5 11.5,12.171468 11.5,11.750001 L 11.5,10.480769 C 11.5,10.059303 11.173748,9.5205387 10.755208,9.5205387 L 10.010417,9.5205387 C 10.840753,9.5205387 11.5,9.066913 11.5,8.2307696 L 11.5,2.0000001 C 11.5,1.1638562 10.840753,0.50000001 10.010417,0.50000001 L 1.9895833,0.50000001 z"/><rect id="rect6324" width="9" height="7" x="1.5" y="1.5" rx=".621" ry=".621" style="color:#000;fill:none;fill-opacity:.25675677;fill-rule:evenodd;stroke:#fff;stroke-width:.99999982;stroke-linecap:round;stroke-linejoin:miter;marker:none;marker-start:none;marker-mid:none;marker-end:none;stroke-miterlimit:4;stroke-dasharray:none;stroke-dashoffset:0;stroke-opacity:.79279288;visibility:visible;display:inline;overflow:visible;enable-background:accumulate"/><rect style="color:#000;fill:none;fill-opacity:.25675677;fill-rule:evenodd;stroke:url(#linearGradient6336);stroke-width:.99999982;stroke-linecap:round;stroke-linejoin:miter;marker:none;marker-start:none;marker-mid:none;marker-end:none;stroke-miterlimit:4;stroke-dasharray:none;stroke-dashoffset:0;stroke-opacity:1;visibility:visible;display:inline;overflow:visible;enable-background:accumulate" id="rect6326" width="9" height="2.647" x="1.5" y="8.853" rx=".621" ry=".621"/><rect style="color:#000;fill:url(#linearGradient6338);fill-opacity:1;fill-rule:evenodd;stroke:#204a87;stroke-width:.99999976;stroke-linecap:round;stroke-linejoin:miter;marker:none;marker-start:none;marker-mid:none;marker-end:none;stroke-miterlimit:4;stroke-dasharray:none;stroke-dashoffset:0;stroke-opacity:1;visibility:visible;display:inline;overflow:visible;enable-background:accumulate" id="rect6328" width="7" height="5" x="2.5" y="2.5" rx=".396" ry=".396"/><path style="color:#000;fill:url(#linearGradient6340);fill-opacity:1;fill-rule:evenodd;stroke:none;stroke-width:1;stroke-linecap:round;stroke-linejoin:miter;marker:none;marker-start:none;marker-mid:none;marker-end:none;stroke-miterlimit:4;stroke-dasharray:none;stroke-dashoffset:0;stroke-opacity:1;visibility:visible;display:inline;overflow:visible;enable-background:accumulate" id="path6330" d="M 1.5784902,1 C 1.1610853,1 0.82074051,1.3963515 0.82074051,1.8824448 L 0.82074051,3.3826009 C 2.0380436,4.0929379 3.7478588,4.5297793 5.6703383,4.5297791 C 7.592818,4.5297791 9.3026332,4.0929379 10.519936,3.3826009 L 10.519936,1.8824448 C 10.519936,1.3963518 10.179591,1 9.7621864,1 L 1.5784902,1 z"/><path style="fill:none;fill-rule:evenodd;stroke:url(#linearGradient6342);stroke-width:1px;stroke-linecap:butt;stroke-linejoin:miter;stroke-opacity:1" id="path6332" d="M 2.0804455,9.5 L 9.9205555,9.5"/></g></g></svg>