<svg xmlns="http://www.w3.org/2000/svg" xmlns:svg="http://www.w3.org/2000/svg" xmlns:xlink="http://www.w3.org/1999/xlink" id="svg4908" width="16" height="16" version="1.0"><defs id="defs4910"><linearGradient id="linearGradient3441" x1="43.883" x2="39.987" y1="-42.862" y2="-42.862" gradientTransform="translate(0,4.0216698)" gradientUnits="userSpaceOnUse" xlink:href="#linearGradient7658"/><linearGradient id="linearGradient3456" x1="44.288" x2="36.8" y1="-39.952" y2="-39.952" gradientTransform="matrix(1,0,0,1.1101512,0,4.348586)" gradientUnits="userSpaceOnUse" xlink:href="#linearGradient3460"/><linearGradient id="linearGradient7658"><stop id="stop7660" offset="0" style="stop-color:#d3d7cf"/><stop id="stop7662" offset="1" style="stop-color:#eeeeec"/></linearGradient><linearGradient id="linearGradient3447" x1="43.883" x2="39.987" y1="-42.862" y2="-42.862" gradientUnits="userSpaceOnUse" xlink:href="#linearGradient7658"/><linearGradient id="linearGradient3460"><stop id="stop3462" offset="0" style="stop-color:#343533;stop-opacity:1"/><stop id="stop3464" offset="1" style="stop-color:#343533;stop-opacity:.5"/></linearGradient><linearGradient id="linearGradient3458" x1="44.288" x2="36.8" y1="-39.952" y2="-39.952" gradientTransform="matrix(1,0,0,1.1101512,0,4.7915781)" gradientUnits="userSpaceOnUse" xlink:href="#linearGradient3460"/><linearGradient id="linearGradient3061"><stop style="stop-color:black;stop-opacity:1" id="stop3063" offset="0"/><stop style="stop-color:black;stop-opacity:0" id="stop3065" offset="1"/></linearGradient><radialGradient id="radialGradient2559" cx="40.393" cy="41.614" r="6.099" fx="40.393" fy="41.614" gradientTransform="matrix(1,0,0,1.025362,0,-1.055427)" gradientUnits="userSpaceOnUse" xlink:href="#linearGradient3061"/><linearGradient id="linearGradient6093"><stop style="stop-color:#000;stop-opacity:1" id="stop6095" offset="0"/><stop style="stop-color:#000;stop-opacity:0" id="stop6097" offset="1"/></linearGradient><linearGradient id="linearGradient6056"><stop id="stop6058" offset="0" style="stop-color:#fff;stop-opacity:1"/><stop id="stop6060" offset="1" style="stop-color:#d3d7cf;stop-opacity:1"/></linearGradient><linearGradient id="linearGradient5966" x1="13.841" x2="4.476" y1="9.147" y2="-.641" gradientUnits="userSpaceOnUse" xlink:href="#linearGradient6056"/><linearGradient id="linearGradient6099" x1="11.563" x2="11.563" y1="11.125" y2="8.179" gradientTransform="matrix(1,0,0,0.5,0,6)" gradientUnits="userSpaceOnUse" xlink:href="#linearGradient6093"/><linearGradient id="linearGradient3683" x1="44.288" x2="36.8" y1="-39.952" y2="-39.952" gradientTransform="matrix(1,0,0,1.1101512,0,4.7915781)" gradientUnits="userSpaceOnUse" xlink:href="#linearGradient3460"/><linearGradient id="linearGradient3685" x1="43.883" x2="39.987" y1="-42.862" y2="-42.862" gradientUnits="userSpaceOnUse" xlink:href="#linearGradient7658"/><linearGradient id="linearGradient3687" x1="44.288" x2="36.8" y1="-39.952" y2="-39.952" gradientTransform="matrix(1,0,0,1.1101512,0,4.348586)" gradientUnits="userSpaceOnUse" xlink:href="#linearGradient3460"/><linearGradient id="linearGradient3689" x1="43.883" x2="39.987" y1="-42.862" y2="-42.862" gradientTransform="translate(0,4.0216698)" gradientUnits="userSpaceOnUse" xlink:href="#linearGradient7658"/><linearGradient id="linearGradient2586" x1="11.563" x2="11.563" y1="11.125" y2="8.179" gradientTransform="matrix(0.7142859,0,0,0.5,-0.5714286,1.9999993)" gradientUnits="userSpaceOnUse" xlink:href="#linearGradient6093"/><linearGradient id="linearGradient2584" x1="13.841" x2="4.476" y1="9.147" y2="-.641" gradientTransform="matrix(0.6923078,0,0,0.7231216,-0.3076923,-0.5846825)" gradientUnits="userSpaceOnUse" xlink:href="#linearGradient6056"/><linearGradient id="linearGradient2437" x1="44.288" x2="36.8" y1="-39.952" y2="-39.952" gradientTransform="matrix(1,0,0,1.1101512,0,4.7915781)" gradientUnits="userSpaceOnUse" xlink:href="#linearGradient3460"/><linearGradient id="linearGradient2439" x1="43.883" x2="39.987" y1="-42.862" y2="-42.862" gradientUnits="userSpaceOnUse" xlink:href="#linearGradient7658"/><linearGradient id="linearGradient2441" x1="44.288" x2="36.8" y1="-39.952" y2="-39.952" gradientTransform="matrix(1,0,0,1.1101512,0,4.348586)" gradientUnits="userSpaceOnUse" xlink:href="#linearGradient3460"/><linearGradient id="linearGradient2443" x1="43.883" x2="39.987" y1="-42.862" y2="-42.862" gradientTransform="translate(0,4.0216698)" gradientUnits="userSpaceOnUse" xlink:href="#linearGradient7658"/><linearGradient id="linearGradient2446" x1="43.883" x2="39.987" y1="-42.862" y2="-42.862" gradientTransform="matrix(0.6995928,0,0,0.9030326,-17.378453,29.075599)" gradientUnits="userSpaceOnUse" xlink:href="#linearGradient7658"/><linearGradient id="linearGradient2449" x1="44.288" x2="36.8" y1="-39.952" y2="-39.952" gradientTransform="matrix(0.6558683,0,0,0.728113,-15.618892,18.520083)" gradientUnits="userSpaceOnUse" xlink:href="#linearGradient3460"/><linearGradient id="linearGradient2452" x1="43.883" x2="39.987" y1="-42.862" y2="-42.862" gradientTransform="matrix(0.6558683,0,0,0.6558683,-15.618892,15.667983)" gradientUnits="userSpaceOnUse" xlink:href="#linearGradient7658"/><linearGradient id="linearGradient2455" x1="44.288" x2="36.8" y1="-39.952" y2="-39.952" gradientTransform="matrix(0.6558683,0,0,0.728113,-15.618892,18.810627)" gradientUnits="userSpaceOnUse" xlink:href="#linearGradient3460"/><linearGradient id="linearGradient2457" x1="43.883" x2="39.987" y1="-42.862" y2="-42.862" gradientTransform="matrix(0.7014147,0,0,0.9184803,-17.458402,27.116392)" gradientUnits="userSpaceOnUse" xlink:href="#linearGradient7658"/></defs><metadata id="metadata4913"/><g id="layer1"><g id="g2588" transform="translate(0,-3.124997e-2)"><path id="rect4923" d="M 2.6650374,7.5 L 13.334962,7.5 L 15.5,10.027675 L 15.5,14.821727 C 15.5,15.214803 15.178132,15.53125 14.77832,15.53125 L 1.2216791,15.53125 C 0.82186963,15.53125 0.49999997,15.214803 0.49999997,14.821727 L 0.49999997,10.027675 L 2.6650374,7.5 z" style="opacity:1;fill:#babdb6;fill-opacity:1;stroke:#555753;stroke-width:.99999994;stroke-linecap:round;stroke-linejoin:miter;stroke-miterlimit:4;stroke-dashoffset:0;stroke-opacity:1"/><path id="path5915" d="M 1.5,14.53125 L 1.5,10.424446 L 3.0764563,8.5 L 12.892294,8.5 L 14.5,10.424446 L 14.5,14.53125 L 1.5,14.53125 z" style="opacity:.49456524;fill:none;fill-rule:evenodd;stroke:#fff;stroke-width:.99999994px;stroke-linecap:butt;stroke-linejoin:miter;stroke-opacity:1"/><path id="rect5952" d="M 4.1994739,0.50000003 L 11.800527,0.50000003 C 12.188035,0.50000003 12.499999,0.82585053 12.499999,1.2306065 L 12.499999,8.4999998 L 3.5,8.4999998 L 3.5,1.2306065 C 3.5,0.82585053 3.8119654,0.50000003 4.1994739,0.50000003 z" style="opacity:1;fill:url(#linearGradient5966);fill-opacity:1;stroke:#797c76;stroke-width:.99999982;stroke-linecap:round;stroke-linejoin:miter;stroke-miterlimit:4;stroke-dashoffset:0;stroke-opacity:1"/><rect id="rect5968" width="7" height="7" x="4.5" y="1.5" rx=".316" ry=".316" style="opacity:1;fill:none;fill-opacity:1;stroke:#fff;stroke-width:.99999988;stroke-linecap:round;stroke-linejoin:miter;stroke-miterlimit:4;stroke-dasharray:none;stroke-dashoffset:0;stroke-opacity:1"/><rect id="rect5975" width="6" height="1" x="5" y="3" rx="0" ry="0" style="opacity:.26630435;fill:#000;fill-opacity:1;stroke:none;stroke-width:1;stroke-linecap:round;stroke-linejoin:miter;stroke-miterlimit:4;stroke-dasharray:none;stroke-dashoffset:0;stroke-opacity:1"/><rect id="rect5979" width="6" height="1" x="5" y="5" rx="0" ry="0" style="opacity:.26630435;fill:#000;fill-opacity:1;stroke:none;stroke-width:1;stroke-linecap:round;stroke-linejoin:miter;stroke-miterlimit:4;stroke-dasharray:none;stroke-dashoffset:0;stroke-opacity:1"/><rect id="rect6091" width="10" height="2" x="3" y="6" style="opacity:.19565214;fill:url(#linearGradient6099);fill-opacity:1;stroke:none;stroke-width:1;stroke-linecap:round;stroke-linejoin:miter;stroke-miterlimit:4;stroke-dasharray:none;stroke-dashoffset:0;stroke-opacity:1"/><path id="path5911" d="M 2,10.492194 L 14,10.492194" style="fill:none;fill-rule:evenodd;stroke:#fff;stroke-width:1px;stroke-linecap:butt;stroke-linejoin:miter;stroke-opacity:1"/><path id="path5913" d="M 3.016466,8.5 L 12.983534,8.5" style="fill:none;fill-rule:evenodd;stroke:#555753;stroke-width:1px;stroke-linecap:butt;stroke-linejoin:miter;stroke-opacity:1"/><path id="path4922" d="M 3.03125,12.5 L 13,12.5" style="fill:none;fill-rule:evenodd;stroke:#555753;stroke-width:1px;stroke-linecap:butt;stroke-linejoin:miter;stroke-opacity:1"/></g><g id="g2473"><path id="path2155" d="M 46.49227,41.613941 A 6.0987959,6.2534757 0 1 1 34.294679,41.613941 A 6.0987959,6.2534757 0 1 1 46.49227,41.613941 z" transform="matrix(0.6448281,0,0,0.6292846,-14.498837,-15.243863)" style="fill:#61635f;fill-opacity:1;stroke:#555753;stroke-width:1.02960598;stroke-linecap:butt;stroke-linejoin:miter;stroke-miterlimit:4;stroke-dasharray:none;stroke-dashoffset:1.20000057;stroke-opacity:1"/><path id="path3046" d="M 46.49227,41.613941 A 6.0987959,6.2534757 0 1 1 34.294679,41.613941 A 6.0987959,6.2534757 0 1 1 46.49227,41.613941 z" transform="matrix(0.5373509,0,0,0.5244034,-10.157457,-10.879337)" style="opacity:.11442787;fill:none;fill-opacity:1;stroke:#fff;stroke-width:1.23553479;stroke-linecap:butt;stroke-linejoin:miter;stroke-miterlimit:4;stroke-dasharray:none;stroke-dashoffset:1.20000057;stroke-opacity:1"/><path id="path3048" d="M 11.550546,7.3358741 C 9.5607277,7.3358741 7.9432692,8.9520274 7.9432699,10.94315 C 11.000296,13.818432 12.85442,8.9866238 15.157821,10.94315 C 15.157821,8.9520261 13.540364,7.3358754 11.550546,7.3358741 z" style="opacity:.1243781;fill:#fff;fill-opacity:1;stroke:none;stroke-width:1.23553479;stroke-linecap:butt;stroke-linejoin:miter;stroke-miterlimit:4;stroke-dasharray:none;stroke-dashoffset:1.20000057;stroke-opacity:1"/><g id="g2459"><rect style="opacity:.76119403;fill:url(#linearGradient2455);fill-opacity:1;stroke:none;stroke-width:1;stroke-linecap:butt;stroke-linejoin:miter;stroke-miterlimit:4;stroke-dasharray:none;stroke-dashoffset:1.20000057;stroke-opacity:1;display:inline" id="rect3406" width="4.904" height="2.337" x="8.52" y="-14.031" transform="matrix(0,1,-1,0,0,0)"/><rect style="fill:url(#linearGradient2457);fill-opacity:1;stroke:none;stroke-width:1;stroke-linecap:butt;stroke-linejoin:miter;stroke-miterlimit:4;stroke-dasharray:none;stroke-dashoffset:1.20000057;stroke-opacity:1;display:inline" id="rect3408" width="4.715" height="2.184" x="8.607" y="-13.952" transform="matrix(0,1,-1,0,0,0)"/><rect style="opacity:.76119403;fill:url(#linearGradient2449);fill-opacity:1;stroke:none;stroke-width:1;stroke-linecap:butt;stroke-linejoin:miter;stroke-miterlimit:4;stroke-dasharray:none;stroke-dashoffset:1.20000057;stroke-opacity:1;display:inline" id="rect3434" width="4.904" height="2.337" x="8.52" y="-11.393" transform="matrix(0,1,-1,0,0,0)"/><rect style="fill:url(#linearGradient2446);fill-opacity:1;stroke:none;stroke-width:1;stroke-linecap:butt;stroke-linejoin:miter;stroke-miterlimit:4;stroke-dasharray:none;stroke-dashoffset:1.20000057;stroke-opacity:1;display:inline" id="rect3436" width="4.703" height="2.148" x="8.619" y="-11.302" transform="matrix(0,1,-1,0,0,0)"/></g></g></g></svg>