<svg xmlns="http://www.w3.org/2000/svg" xmlns:svg="http://www.w3.org/2000/svg" xmlns:xlink="http://www.w3.org/1999/xlink" id="svg4908" width="16" height="16" version="1.0"><defs id="defs4910"><linearGradient id="linearGradient6093"><stop style="stop-color:#000;stop-opacity:1" id="stop6095" offset="0"/><stop style="stop-color:#000;stop-opacity:0" id="stop6097" offset="1"/></linearGradient><linearGradient id="linearGradient6056"><stop id="stop6058" offset="0" style="stop-color:#fff;stop-opacity:1"/><stop id="stop6060" offset="1" style="stop-color:#d3d7cf;stop-opacity:1"/></linearGradient><linearGradient id="linearGradient5966" x1="13.841" x2="4.476" y1="9.147" y2="-.641" gradientTransform="matrix(0.6923078,0,0,0.7231216,-0.3076923,-0.5846825)" gradientUnits="userSpaceOnUse" xlink:href="#linearGradient6056"/><linearGradient id="linearGradient6099" x1="11.563" x2="11.563" y1="11.125" y2="8.179" gradientTransform="matrix(0.7142859,0,0,0.5,-0.5714286,1.9999993)" gradientUnits="userSpaceOnUse" xlink:href="#linearGradient6093"/><radialGradient id="radialGradient5128" cx="7.961" cy="5.031" r="8.029" fx="7.961" fy="5.031" gradientTransform="matrix(1.1782061,0,0,1.1782061,-1.4186251,-0.8966007)" gradientUnits="userSpaceOnUse" xlink:href="#linearGradient5870"/><radialGradient id="radialGradient5881" cx="11.78" cy="20.024" r="10.739" fx="11.78" fy="20.024" gradientTransform="matrix(1,0,0,0.2802768,0,14.411618)" gradientUnits="userSpaceOnUse" xlink:href="#linearGradient5875"/><linearGradient id="linearGradient5870"><stop id="stop5872" offset="0" style="stop-color:#a9c4e2;stop-opacity:1"/><stop style="stop-opacity:1;stop-color:#578cc6" id="stop5138" offset=".693"/><stop id="stop5874" offset="1" style="stop-color:#729fcf;stop-opacity:1"/></linearGradient><linearGradient id="linearGradient5875"><stop id="stop5877" offset="0" style="stop-color:#000;stop-opacity:1"/><stop id="stop5879" offset="1" style="stop-color:#000;stop-opacity:0"/></linearGradient><radialGradient id="radialGradient7060" cx="7.961" cy="5.031" r="8.029" fx="7.961" fy="5.031" gradientTransform="matrix(1.1782061,0,0,1.1782061,-1.4186251,-0.8966007)" gradientUnits="userSpaceOnUse" xlink:href="#linearGradient5870"/><radialGradient id="radialGradient5437" cx="7.961" cy="5.031" r="8.029" fx="7.961" fy="5.031" gradientTransform="matrix(1.1782061,0,0,1.1782061,-1.4186251,-0.8966007)" gradientUnits="userSpaceOnUse" xlink:href="#linearGradient5870"/></defs><metadata id="metadata4913"/><g id="layer1"><path style="opacity:1;fill:#babdb6;fill-opacity:1;stroke:#555753;stroke-width:.99999994;stroke-linecap:round;stroke-linejoin:miter;stroke-miterlimit:4;stroke-dashoffset:0;stroke-opacity:1" id="rect4923" d="M 2.6650374,7.5 L 13.334962,7.5 L 15.5,10.027675 L 15.5,14.821727 C 15.5,15.214803 15.178132,15.53125 14.77832,15.53125 L 1.2216791,15.53125 C 0.82186963,15.53125 0.49999997,15.214803 0.49999997,14.821727 L 0.49999997,10.027675 L 2.6650374,7.5 z"/><path style="opacity:.49456524;fill:none;fill-rule:evenodd;stroke:#fff;stroke-width:.99999994px;stroke-linecap:butt;stroke-linejoin:miter;stroke-opacity:1" id="path5915" d="M 1.5,14.53125 L 1.5,10.424446 L 3.0764563,8.5 L 12.892294,8.5 L 14.5,10.424446 L 14.5,14.53125 L 1.5,14.53125 z"/><path style="opacity:1;fill:url(#linearGradient5966);fill-opacity:1;stroke:#797c76;stroke-width:.99999982;stroke-linecap:round;stroke-linejoin:miter;stroke-miterlimit:4;stroke-dashoffset:0;stroke-opacity:1" id="rect5952" d="M 4.1994739,0.50000003 L 11.800527,0.50000003 C 12.188035,0.50000003 12.499999,0.82585053 12.499999,1.2306065 L 12.499999,8.4999998 L 3.5,8.4999998 L 3.5,1.2306065 C 3.5,0.82585053 3.8119654,0.50000003 4.1994739,0.50000003 z"/><rect style="opacity:1;fill:none;fill-opacity:1;stroke:#fff;stroke-width:.99999988;stroke-linecap:round;stroke-linejoin:miter;stroke-miterlimit:4;stroke-dasharray:none;stroke-dashoffset:0;stroke-opacity:1" id="rect5968" width="7" height="7" x="4.5" y="1.5" rx=".316" ry=".316"/><rect style="opacity:.26630435;fill:#000;fill-opacity:1;stroke:none;stroke-width:1;stroke-linecap:round;stroke-linejoin:miter;stroke-miterlimit:4;stroke-dasharray:none;stroke-dashoffset:0;stroke-opacity:1" id="rect5975" width="6" height="1" x="5" y="3" rx="0" ry="0"/><rect style="opacity:.26630435;fill:#000;fill-opacity:1;stroke:none;stroke-width:1;stroke-linecap:round;stroke-linejoin:miter;stroke-miterlimit:4;stroke-dasharray:none;stroke-dashoffset:0;stroke-opacity:1" id="rect5979" width="6" height="1" x="5" y="5" rx="0" ry="0"/><rect style="opacity:.19565214;fill:url(#linearGradient6099);fill-opacity:1;stroke:none;stroke-width:1;stroke-linecap:round;stroke-linejoin:miter;stroke-miterlimit:4;stroke-dasharray:none;stroke-dashoffset:0;stroke-opacity:1" id="rect6091" width="10" height="2" x="3" y="6"/><path style="fill:none;fill-rule:evenodd;stroke:#fff;stroke-width:1px;stroke-linecap:butt;stroke-linejoin:miter;stroke-opacity:1" id="path5911" d="M 2,10.492194 L 14,10.492194"/><path style="fill:none;fill-rule:evenodd;stroke:#555753;stroke-width:1px;stroke-linecap:butt;stroke-linejoin:miter;stroke-opacity:1" id="path5913" d="M 3.016466,8.5 L 12.983534,8.5"/><path style="fill:none;fill-rule:evenodd;stroke:#555753;stroke-width:1px;stroke-linecap:butt;stroke-linejoin:miter;stroke-opacity:1" id="path4922" d="M 3.03125,12.5 L 13,12.5"/><path style="fill:url(#radialGradient5437);fill-opacity:1;fill-rule:evenodd;stroke:#3465a4;stroke-width:2.04354801;stroke-linecap:butt;stroke-linejoin:miter;marker:none;marker-start:none;marker-mid:none;marker-end:none;stroke-miterlimit:4;stroke-dasharray:none;stroke-dashoffset:0;stroke-opacity:1;visibility:visible;display:inline;overflow:visible;enable-background:accumulate" id="path4899" d="M 15.623893,8.0063801 A 7.6633048,7.6633048 0 1 1 0.29728317,8.0063801 A 7.6633048,7.6633048 0 1 1 15.623893,8.0063801 z" transform="matrix(0.489345,0,0,0.489345,7.6045259,7.5821182)"/><path style="font-size:13.58991337px;font-style:normal;font-variant:normal;font-weight:700;font-stretch:normal;text-align:start;line-height:125%;writing-mode:lr-tb;text-anchor:start;fill:#fff;fill-opacity:1;stroke:none;stroke-width:1px;stroke-linecap:butt;stroke-linejoin:miter;stroke-opacity:1;font-family:Bitstream Vera Serif" id="text5882" d="M 12.716654,14.033138 L 12.716654,14.322 L 10.256,14.322 L 10.256,14.033138 L 10.845281,13.850065 L 10.845281,11.051376 L 10.27461,11.051376 L 10.27461,10.695897 L 12.081148,10.42017 L 12.081148,13.870089"/><path style="fill:#fff;fill-opacity:1;fill-rule:evenodd;stroke:none;stroke-width:1;stroke-linecap:round;stroke-linejoin:round;marker:none;marker-start:none;marker-mid:none;marker-end:none;stroke-miterlimit:10;stroke-dasharray:none;stroke-dashoffset:0;stroke-opacity:1;visibility:visible;display:inline;overflow:visible;enable-background:accumulate" id="path5140" d="M 13,6.7855148 A 1.2144853,1.2144853 0 1 1 10.57103,6.7855148 A 1.2144853,1.2144853 0 1 1 13,6.7855148 z" transform="matrix(0.5209807,0,0,0.5209807,5.3111823,5.6196014)"/></g></svg>