<svg xmlns="http://www.w3.org/2000/svg" xmlns:cc="http://web.resource.org/cc/" xmlns:svg="http://www.w3.org/2000/svg" id="svg2" width="16" height="16" version="1.0"><metadata id="metadata7"/><g id="layer1"><rect style="opacity:1;fill:#eeeeec;fill-opacity:1;stroke:#888a85;stroke-width:.99999923;stroke-miterlimit:4;stroke-dasharray:none;stroke-opacity:1" id="rect4220" width="7" height="7" x="4.5" y="4.5" rx=".582" ry=".728"/><path style="fill:#729fcf;fill-opacity:1;stroke:#204a87;stroke-width:.99999928;stroke-miterlimit:4;stroke-opacity:1" id="rect4222" d="M 5.0383165,4.4999997 L 10.961684,4.4999997 C 11.259911,4.4999997 11.5,4.7581512 11.5,5.0788146 L 11.5,6.4999985 C 11.186307,6.4999985 11.259911,6.4798215 10.961684,6.4798215 L 5.0383165,6.4798215 C 4.7400891,6.4798215 5.0358999,6.4999985 4.4999998,6.4999985 L 4.4999998,5.0788146 C 4.4999998,4.7581512 4.7400891,4.4999997 5.0383165,4.4999997 z"/><path style="fill:#babdb6;fill-opacity:1;stroke:#555753;stroke-width:.99999923;stroke-miterlimit:4;stroke-opacity:1" id="rect4225" d="M 7.9928279,2.5000002 L 9.4999988,1.4999996 L 6.4999996,1.4999996 L 7.9928279,2.5000002 z"/><path style="fill:#babdb6;fill-opacity:1;stroke:#555753;stroke-width:.99999863;stroke-miterlimit:4;stroke-opacity:1" id="path4228" d="M 7.9928275,13.500003 L 9.4999985,14.500001 L 6.4999993,14.500001 L 7.9928275,13.500003 z"/><path style="fill:#babdb6;fill-opacity:1;stroke:#555753;stroke-width:1;stroke-miterlimit:4;stroke-opacity:1" id="path4230" d="M 13.5,7.992829 L 14.500003,9.5 L 14.500003,6.5000008 L 13.5,7.992829 z"/><path style="fill:#babdb6;fill-opacity:1;stroke:#555753;stroke-width:1.00000048;stroke-miterlimit:4;stroke-opacity:1" id="path4232" d="M 2.4999998,7.9928288 L 1.4999992,9.4999998 L 1.4999992,6.5000005 L 2.4999998,7.9928288 z"/><path style="opacity:.22270741;fill:none;fill-opacity:1;stroke:#fff;stroke-width:2.53877521;stroke-miterlimit:4;stroke-dasharray:none;stroke-opacity:1" id="path4236" d="M 7.03125,5.96875 C 7.0064491,6.010746 6.96875,6.0841683 6.96875,6.21875 L 6.96875,18.90625 C 6.96875,19.040832 7.0064492,19.114254 7.03125,19.15625 L 19.125,19.15625 C 19.153025,19.111982 19.1875,19.027661 19.1875,18.90625 L 19.1875,6.21875 C 19.1875,6.0973393 19.153025,6.0130178 19.125,5.96875 L 7.03125,5.96875 z" transform="matrix(0.4092072,0,0,0.3791472,2.6483371,3.2369652)"/></g></svg>