<svg xmlns="http://www.w3.org/2000/svg" xmlns:cc="http://web.resource.org/cc/" xmlns:svg="http://www.w3.org/2000/svg" xmlns:xlink="http://www.w3.org/1999/xlink" id="svg5030" width="16" height="16" version="1.0"><metadata id="metadata5035"/><defs id="defs5033"><linearGradient id="linearGradient6233"><stop style="stop-color:#fff;stop-opacity:1" id="stop6235" offset="0"/><stop style="stop-color:#fff;stop-opacity:0" id="stop6237" offset="1"/></linearGradient><linearGradient id="linearGradient6190"><stop style="stop-color:#729fcf;stop-opacity:1" id="stop6192" offset="0"/><stop style="stop-color:#3b73ba;stop-opacity:1" id="stop6194" offset="1"/></linearGradient><linearGradient id="linearGradient6047"><stop style="stop-color:#fff;stop-opacity:1" id="stop6049" offset="0"/><stop style="stop-color:#fff;stop-opacity:0" id="stop6051" offset="1"/></linearGradient><linearGradient id="linearGradient6196" x1="19.357" x2="7.248" y1="11.36" y2="6.057" gradientTransform="matrix(0.7633027,0,0,0.7777778,-1.1477062,-1.4444445)" gradientUnits="userSpaceOnUse" xlink:href="#linearGradient6190"/><linearGradient id="linearGradient6198" x1="9.281" x2="15.313" y1="1.125" y2="13.75" gradientTransform="matrix(0.7209159,0,0,0.7142858,-20.557861,-0.9999998)" gradientUnits="userSpaceOnUse" xlink:href="#linearGradient6047"/><linearGradient id="linearGradient6206" x1="13.269" x2="6.036" y1="12.85" y2="2.8" gradientTransform="matrix(-0.7209159,0,0,-0.7142858,-3.442139,16)" gradientUnits="userSpaceOnUse" xlink:href="#linearGradient6047"/><linearGradient id="linearGradient6239" x1="6.438" x2="17.344" y1="-.047" y2="10.938" gradientUnits="userSpaceOnUse" xlink:href="#linearGradient6233"/><linearGradient id="linearGradient6243" x1="10.938" x2="2.625" y1="6.688" y2="-3.797" gradientUnits="userSpaceOnUse" xlink:href="#linearGradient6233"/></defs><g id="layer1"><path style="opacity:1;fill:url(#linearGradient6196);fill-opacity:1;stroke:#204a87;stroke-width:.99999994;stroke-linecap:butt;stroke-linejoin:round;stroke-miterlimit:4;stroke-dasharray:none;stroke-dashoffset:0;stroke-opacity:1" id="path6012" d="M 7.2724766,0.49999998 C 4.2263096,0.49999998 0.5,2.4023431 0.5,6.5486111 C 0.9945932,4.66776 3.1173585,3.5104167 6.0091739,3.5104167 C 8.9009891,3.5104166 10.500293,5.3333333 10.500293,5.3333333 L 8.5047014,7.53125 L 15.5,7.5 L 15.5,0.4930555 C 14.072338,2.0251092 13.389955,2.46875 13.389955,2.46875 C 12.036411,1.089537 10.318644,0.49999998 7.2724766,0.49999998 z"/><use id="use6020" width="24" height="24" x="0" y="0" transform="matrix(-1,0,0,-1,16,15.993056)" xlink:href="#path6012"/><path style="opacity:.86021507;fill:none;fill-opacity:1;stroke:url(#linearGradient6198);stroke-width:.99999994;stroke-linecap:butt;stroke-linejoin:miter;stroke-miterlimit:4;stroke-dashoffset:0;stroke-opacity:1" id="path6045" d="M -12.834156,1.5000002 C -14.113404,1.5000002 -14.780225,1.8670548 -15.23027,2.1026788 C -15.23027,2.1026788 -16.312757,2.7955781 -16.5,3.261161 C -15.678542,2.7356273 -14.638275,2.6383931 -13.360869,2.6383931 C -11.821237,2.6383931 -10.159041,3.3520003 -9.493361,3.9553575 C -8.778293,4.5230389 -8.042499,5.6071432 -8.042499,5.6071432 L -8.891172,6.5000003 L -6.5,6.5000003 L -6.5,3.9866074 C -6.600241,4.0813789 -7.406564,4.8571431 -7.406564,4.8571431 C -7.406564,4.8571431 -9.164271,3.0223217 -9.164271,3.0223217 C -9.934583,2.3454611 -10.839565,1.5000002 -12.834156,1.5000002 z"/><path id="use6200" d="M -11.165844,13.5 C -9.886596,13.5 -9.219775,13.132945 -8.76973,12.897321 C -8.76973,12.897321 -7.687243,12.204422 -7.5,11.738839 C -8.321458,12.264373 -9.361725,12.361607 -10.639131,12.361607 C -12.178763,12.361607 -13.840959,11.648 -14.506639,11.044643 C -15.221707,10.476961 -15.957501,9.3928568 -15.957501,9.3928568 L -15.108828,8.4999997 L -17.5,8.4999997 L -17.5,11.013393 C -17.399759,10.918621 -16.593436,10.142857 -16.593436,10.142857 C -16.593436,10.142857 -14.835729,11.977678 -14.835729,11.977678 C -14.065417,12.654539 -13.160435,13.5 -11.165844,13.5 z" style="opacity:.53763446;fill:none;fill-opacity:1;stroke:url(#linearGradient6206);stroke-width:.99999994;stroke-linecap:butt;stroke-linejoin:miter;stroke-miterlimit:4;stroke-dashoffset:0;stroke-opacity:1"/><path style="opacity:.72043011;fill:none;fill-opacity:1;stroke:url(#linearGradient6239);stroke-width:1;stroke-linecap:butt;stroke-linejoin:miter;stroke-miterlimit:4;stroke-dasharray:none;stroke-dashoffset:0;stroke-opacity:1" id="path6229" d="M 7.28125,1.46875 C 5.9631501,1.46875 4.4559577,1.9061691 3.34375,2.75 C 3.2541136,2.8180071 3.209721,2.9274416 3.125,3 C 4.001898,2.7138082 4.9383156,2.53125 6,2.53125 C 9.30733,2.5312499 11.25,4.6875 11.25,4.6875 C 11.578572,5.0679684 11.565057,5.6356002 11.21875,6 L 10.71875,6.5625 L 14.53125,6.53125 L 14.53125,2.71875 C 14.409643,2.8102934 13.90625,3.3125 13.90625,3.3125 C 13.513934,3.5541027 13.00618,3.489006 12.6875,3.15625 C 11.522019,1.9686662 10.201289,1.46875 7.28125,1.46875 z"/><path id="path6241" d="M 7.28125,1.46875 C 5.9631501,1.46875 4.4559577,1.9061691 3.34375,2.75 C 3.2541136,2.8180071 3.209721,2.9274416 3.125,3 C 4.001898,2.7138082 4.9383156,2.53125 6,2.53125 C 9.30733,2.5312499 11.25,4.6875 11.25,4.6875 C 11.578572,5.0679684 11.565057,5.6356002 11.21875,6 L 10.71875,6.5625 L 14.53125,6.53125 L 14.53125,2.71875 C 14.409643,2.8102934 13.90625,3.3125 13.90625,3.3125 C 13.513934,3.5541027 13.00618,3.489006 12.6875,3.15625 C 11.522019,1.9686662 10.201289,1.46875 7.28125,1.46875 z" transform="matrix(-1,0,0,-1,16.03125,15.96875)" style="opacity:.56451613;fill:none;fill-opacity:1;stroke:url(#linearGradient6243);stroke-width:1;stroke-linecap:butt;stroke-linejoin:miter;stroke-miterlimit:4;stroke-dasharray:none;stroke-dashoffset:0;stroke-opacity:1"/></g></svg>