<svg xmlns="http://www.w3.org/2000/svg" xmlns:cc="http://web.resource.org/cc/" xmlns:svg="http://www.w3.org/2000/svg" id="svg2" width="16" height="16" version="1.0"><metadata id="metadata7"/><g id="layer1"><rect style="opacity:1;fill:#eeeeec;fill-opacity:1;stroke:#888a85;stroke-width:1.62508571;stroke-miterlimit:4;stroke-dasharray:none;stroke-opacity:1" id="rect4220" width="14.144" height="15.124" x="6" y="5" rx=".915" ry="1.223" transform="matrix(0.63633,0,0,0.595065,-0.31798,0.524673)"/><path style="fill:#729fcf;fill-opacity:1;stroke:#204a87;stroke-width:2.08500981;stroke-miterlimit:4;stroke-opacity:1" id="rect4222" d="M 5.2010062,4 L 18.416276,4 C 19.081633,4 19.617282,4.6467385 19.617282,5.4500862 L 19.617282,9.0105316 C 18.917421,9.0105316 19.081633,8.959983 18.416276,8.959983 L 5.2010062,8.959983 C 4.5356488,8.959983 5.1956147,9.0105316 4,9.0105316 L 4,5.4500862 C 4,4.6467385 4.5356488,4 5.2010062,4 z" transform="matrix(0.576285,0,0,0.399159,1.194859,1.903365)"/><path style="fill:#babdb6;fill-opacity:1;stroke:#555753;stroke-width:2.1024766;stroke-miterlimit:4;stroke-opacity:1" id="rect4225" d="M 11.521401,1 L 14.067027,3.6171653 L 9,3.6171653 L 11.521401,1 z" transform="matrix(0.592063,0,0,0.382093,1.17143,0.117907)"/><path style="fill:#babdb6;fill-opacity:1;stroke:#555753;stroke-width:2.10247803;stroke-miterlimit:4;stroke-opacity:1" id="path4228" d="M 11.521401,1 L 14.067027,3.6171653 L 9,3.6171653 L 11.521401,1 z" transform="matrix(0.592063,0,0,-0.382092,1.171431,15.88209)"/><path style="fill:#babdb6;fill-opacity:1;stroke:#555753;stroke-width:2.1024754;stroke-miterlimit:4;stroke-opacity:1" id="path4230" d="M 11.521401,1 L 14.067027,3.6171653 L 9,3.6171653 L 11.521401,1 z" transform="matrix(0,0.592063,-0.382094,0,15.88209,1.17144)"/><path style="fill:#babdb6;fill-opacity:1;stroke:#555753;stroke-width:2.10247922;stroke-miterlimit:4;stroke-opacity:1" id="path4232" d="M 11.521401,1 L 14.067027,3.6171653 L 9,3.6171653 L 11.521401,1 z" transform="matrix(0,0.592063,0.382093,0,0.117907,1.17144)"/><path style="opacity:.22270741;fill:none;fill-opacity:1;stroke:#fff;stroke-width:1.81341112;stroke-miterlimit:4;stroke-dasharray:none;stroke-opacity:1" id="path4236" d="M 7.03125,5.96875 C 7.0064491,6.010746 6.96875,6.0841683 6.96875,6.21875 L 6.96875,18.90625 C 6.96875,19.040832 7.0064492,19.114254 7.03125,19.15625 L 19.125,19.15625 C 19.153025,19.111982 19.1875,19.027661 19.1875,18.90625 L 19.1875,6.21875 C 19.1875,6.0973393 19.153025,6.0130178 19.125,5.96875 L 7.03125,5.96875 z" transform="matrix(0.57289,0,0,0.530806,0.507673,1.331751)"/></g></svg>