<svg xmlns="http://www.w3.org/2000/svg" xmlns:cc="http://web.resource.org/cc/" xmlns:svg="http://www.w3.org/2000/svg" xmlns:xlink="http://www.w3.org/1999/xlink" id="svg2" width="16" height="16" version="1.0"><defs id="defs3"><linearGradient id="linearGradient5148"><stop style="stop-color:#000;stop-opacity:1" id="stop5150" offset="0"/><stop style="stop-color:#000;stop-opacity:0" id="stop5152" offset="1"/></linearGradient><linearGradient id="linearGradient5911"><stop style="stop-color:#fff;stop-opacity:1" id="stop5913" offset="0"/><stop style="stop-color:#fff;stop-opacity:0" id="stop5915" offset="1"/></linearGradient><linearGradient id="linearGradient5954"><stop style="stop-color:#888a85;stop-opacity:1" id="stop5956" offset="0"/><stop style="stop-color:#555753;stop-opacity:1" id="stop5958" offset="1"/></linearGradient><linearGradient id="linearGradient5946"><stop style="stop-color:#fff;stop-opacity:1" id="stop5948" offset="0"/><stop style="stop-color:#fff;stop-opacity:.08108108" id="stop5950" offset="1"/></linearGradient><linearGradient id="linearGradient5952" x1="-5.351" x2="15.384" y1="5.048" y2="27.679" gradientTransform="matrix(0.7639512,-0.7639512,0.7634549,0.7634549,-29.789061,11.470298)" gradientUnits="userSpaceOnUse" xlink:href="#linearGradient5946"/><linearGradient id="linearGradient5960" x1="-4.849" x2="4.013" y1="5.773" y2="25.449" gradientTransform="matrix(0.7639512,-0.7639512,0.7634549,0.7634549,-29.784139,11.470299)" gradientUnits="userSpaceOnUse" xlink:href="#linearGradient5954"/><linearGradient id="linearGradient4919" x1="-4.849" x2="4.013" y1="5.773" y2="25.449" gradientTransform="matrix(0.5807401,-0.8473808,0.5803628,0.8468302,-20.42943,12.693351)" gradientUnits="userSpaceOnUse" xlink:href="#linearGradient5954"/><linearGradient id="linearGradient4923" x1="-4.849" x2="4.013" y1="5.773" y2="25.449" gradientTransform="matrix(0.5807401,-0.8473808,0.5803628,0.8468302,-20.429431,-11.306649)" gradientUnits="userSpaceOnUse" xlink:href="#linearGradient5954"/><linearGradient id="linearGradient5906" x1="-4.849" x2="4.013" y1="5.773" y2="25.449" gradientTransform="matrix(0.5807401,-0.8473808,0.5803628,0.8468302,-20.42943,12.693351)" gradientUnits="userSpaceOnUse" xlink:href="#linearGradient5954"/><linearGradient id="linearGradient5917" x1="15.593" x2="15.646" y1=".317" y2="34.769" gradientTransform="matrix(0.5989436,0,0,0.599606,0.7998062,0.7995311)" gradientUnits="userSpaceOnUse" xlink:href="#linearGradient5911"/><radialGradient id="radialGradient5142" cx="12.376" cy="6.733" r="10" fx="12.376" fy="6.733" gradientTransform="matrix(1.0812595,0,0,1.0824549,-5.1368659,-2.8938122)" gradientUnits="userSpaceOnUse" xlink:href="#linearGradient5954"/><radialGradient id="radialGradient5154" cx="12.25" cy="19.188" r="9" fx="12.25" fy="19.188" gradientTransform="matrix(1,0,0,0.4236111,0,11.059462)" gradientUnits="userSpaceOnUse" xlink:href="#linearGradient5148"/><filter id="filter5280" width="1.442" height="2.043" x="-.221" y="-.521"><feGaussianBlur id="feGaussianBlur5282" stdDeviation="1.657"/></filter></defs><metadata id="metadata6"/><g id="layer1"><path style="opacity:1;color:#000;fill:url(#radialGradient5142);fill-opacity:1;fill-rule:evenodd;stroke:#2e3436;stroke-width:.99999988px;stroke-linecap:butt;stroke-linejoin:miter;marker:none;marker-start:none;marker-mid:none;marker-end:none;stroke-miterlimit:4;stroke-dasharray:none;stroke-dashoffset:0;stroke-opacity:1;visibility:visible;display:inline;overflow:visible;enable-background:accumulate" id="rect4917" d="M 13.179286,1.8084745 C 12.768441,1.3971757 12.106937,1.3971757 11.696093,1.8084745 L 7.9881076,5.5205585 L 4.2801232,1.8084745 C 3.8692785,1.3971757 3.207774,1.3971757 2.7969294,1.8084745 L 1.8081334,2.7983636 C 1.3972888,3.2096624 1.3972888,3.8718983 1.8081334,4.2831971 L 5.5161181,7.9952811 L 1.8081334,11.707366 C 1.3972888,12.118665 1.3972888,12.780899 1.8081334,13.192198 L 2.7969294,14.182088 C 3.207774,14.593386 3.8692785,14.593386 4.2801232,14.182088 L 7.9881076,10.470004 L 11.696093,14.182088 C 12.106937,14.593386 12.768441,14.593386 13.179286,14.182088 L 14.168083,13.192198 C 14.578927,12.780899 14.578927,12.118665 14.168083,11.707366 L 10.460098,7.9952811 L 14.168083,4.2831971 C 14.578927,3.8718983 14.578927,3.2096624 14.168083,2.7983636 L 13.179286,1.8084745 z"/><path style="opacity:.41954023;color:#000;fill:none;fill-opacity:1;fill-rule:evenodd;stroke:url(#linearGradient5917);stroke-width:.99999988px;stroke-linecap:butt;stroke-linejoin:miter;marker:none;marker-start:none;marker-mid:none;marker-end:none;stroke-miterlimit:4;stroke-dasharray:none;stroke-dashoffset:0;stroke-opacity:1;visibility:visible;display:inline;overflow:visible;enable-background:accumulate" id="rect4927" d="M 12.584404,2.5750795 C 12.426421,2.4169241 12.261699,2.6378948 12.103719,2.7960503 L 7.9836392,6.9715741 L 3.690164,2.6191625 C 3.484578,2.4133493 3.4292506,2.6681775 3.2236647,2.8739906 L 2.7429806,3.3553037 C 2.5373944,3.561117 2.4384535,3.5550022 2.7464713,3.8633605 L 6.9178366,7.9948013 L 2.7465821,12.126131 C 2.5886017,12.284286 2.5444075,12.394758 2.7023879,12.552913 L 3.4340524,13.285386 C 3.5920331,13.443542 3.878866,13.130739 4.0368469,12.972582 L 7.9871304,8.9772795 L 12.110811,13.112165 C 12.316397,13.31798 12.415919,13.450563 12.621504,13.244748 L 13.102189,12.763433 C 13.307775,12.557621 13.307775,12.236776 13.102189,12.030961 L 9.0971278,7.9506071 L 13.179994,3.8738086 C 13.337976,3.7156533 13.429856,3.5540965 13.271871,3.3959409 L 12.584404,2.5750795 z"/><path style="opacity:.41954023;color:#000;fill:url(#radialGradient5154);fill-opacity:1;fill-rule:evenodd;stroke:none;stroke-width:1;stroke-linecap:butt;stroke-linejoin:miter;marker:none;marker-start:none;marker-mid:none;marker-end:none;stroke-miterlimit:10;stroke-dasharray:none;stroke-dashoffset:0;stroke-opacity:1;visibility:visible;display:inline;overflow:visible;filter:url(#filter5280);enable-background:accumulate" id="path5146" d="M 21.25,19.1875 A 9,3.8125 0 1 1 3.25,19.1875 A 9,3.8125 0 1 1 21.25,19.1875 z" transform="matrix(0.6829588,0,0,0.4595453,-0.207397,4.9465899)"/></g></svg>