<svg xmlns="http://www.w3.org/2000/svg" xmlns:cc="http://web.resource.org/cc/" xmlns:svg="http://www.w3.org/2000/svg" xmlns:xlink="http://www.w3.org/1999/xlink" id="svg4686" width="48" height="48" version="1.0"><defs id="defs4688"><linearGradient id="linearGradient6227"><stop style="stop-color:#000;stop-opacity:1" id="stop6229" offset="0"/><stop style="stop-color:#000;stop-opacity:0" id="stop6231" offset="1"/></linearGradient><linearGradient id="linearGradient6215"><stop id="stop6217" offset="0" style="stop-color:#ead200;stop-opacity:1"/><stop style="stop-color:#fff16a;stop-opacity:1" id="stop6219" offset=".101"/><stop id="stop6221" offset=".888" style="stop-color:#b5a300;stop-opacity:1"/><stop id="stop6223" offset="1" style="stop-color:#e8d000;stop-opacity:1"/></linearGradient><linearGradient id="linearGradient6089"><stop style="stop-color:#000;stop-opacity:1" id="stop6091" offset="0"/><stop id="stop6097" offset=".5" style="stop-color:#000;stop-opacity:.17171717"/><stop style="stop-color:#000;stop-opacity:1" id="stop6093" offset="1"/></linearGradient><linearGradient id="linearGradient6075"><stop style="stop-color:#000;stop-opacity:1" id="stop6077" offset="0"/><stop style="stop-color:#000;stop-opacity:0" id="stop6079" offset="1"/></linearGradient><linearGradient id="linearGradient6057"><stop style="stop-color:#fff;stop-opacity:1" id="stop6059" offset="0"/><stop style="stop-color:#fff;stop-opacity:0" id="stop6061" offset="1"/></linearGradient><linearGradient id="linearGradient5881"><stop id="stop5883" offset="0" style="stop-color:#fffac7;stop-opacity:1"/><stop style="stop-color:#fff8b2;stop-opacity:1" id="stop5885" offset="1"/></linearGradient><linearGradient id="linearGradient1575" x1="10.907" x2="30.875" y1="25.002" y2="36.127" gradientTransform="matrix(0.968931,0,0,1.1176137,2.2618798,-4.0950107)" gradientUnits="userSpaceOnUse" xlink:href="#linearGradient9845"/><linearGradient id="linearGradient1591" x1="24.875" x2="24.75" y1="21" y2="17" gradientTransform="matrix(0.9706798,0,0,1.5,2.2052414,-7.499999)" gradientUnits="userSpaceOnUse" xlink:href="#linearGradient5881"/><linearGradient id="linearGradient9845"><stop id="stop9847" offset="0" style="stop-color:#fff;stop-opacity:1"/><stop id="stop9849" offset="1" style="stop-color:#fff;stop-opacity:.49484536"/></linearGradient><linearGradient id="linearGradient10591"><stop id="stop10593" offset="0" style="stop-color:#cad0c6;stop-opacity:1"/><stop style="stop-color:#eaece9;stop-opacity:1" id="stop10599" offset=".5"/><stop id="stop10595" offset="1" style="stop-color:#c5cbc0;stop-opacity:1"/></linearGradient><linearGradient id="linearGradient1392" x1="10.651" x2="27.192" y1="2.914" y2="17.47" gradientTransform="translate(0,-1.926279)" gradientUnits="userSpaceOnUse" xlink:href="#linearGradient10591"/><linearGradient id="linearGradient12071"><stop id="stop12073" offset="0" style="stop-color:#fff;stop-opacity:1"/><stop id="stop12075" offset="1" style="stop-color:#fff;stop-opacity:0"/></linearGradient><linearGradient id="linearGradient1387" x1="21.942" x2="21.942" y1="21.551" y2="18.038" gradientTransform="matrix(0.9697914,0,0,0.951923,2.2265652,4.033825)" gradientUnits="userSpaceOnUse" xlink:href="#linearGradient12071"/><filter id="filter6051" width="1.15" height="1.944" x="-.075" y="-.472"><feGaussianBlur id="feGaussianBlur6053" stdDeviation="1.415"/></filter><radialGradient id="radialGradient6071" cx="18.031" cy="6.281" r="3.182" fx="18.031" fy="6.281" gradientUnits="userSpaceOnUse" xlink:href="#linearGradient6057"/><radialGradient id="radialGradient6081" cx="15.938" cy="20.313" r="3.313" fx="15.938" fy="20.313" gradientTransform="matrix(1,0,0,0.5849057,0,8.4316038)" gradientUnits="userSpaceOnUse" xlink:href="#linearGradient6075"/><radialGradient id="radialGradient6085" cx="15.938" cy="20.313" r="3.313" fx="15.938" fy="20.313" gradientTransform="matrix(1,0,0,0.5849057,0,8.4316038)" gradientUnits="userSpaceOnUse" xlink:href="#linearGradient6075"/><linearGradient id="linearGradient6095" x1="17.188" x2="34" y1="20.094" y2="20.094" gradientTransform="translate(0,-0.5)" gradientUnits="userSpaceOnUse" xlink:href="#linearGradient6089"/><filter id="filter6171" width="1.283" height="4.044" x="-.141" y="-1.522"><feGaussianBlur id="feGaussianBlur6173" stdDeviation="1.189"/></filter><linearGradient id="linearGradient6225" x1="6.727" x2="42.012" y1="32.162" y2="32.162" gradientTransform="matrix(0.9715125,0,0,1.1298556,2.1851685,-5.9391361)" gradientUnits="userSpaceOnUse" xlink:href="#linearGradient6215"/><linearGradient id="linearGradient6233" x1="35.005" x2="33.004" y1="14.85" y2="14.85" gradientTransform="translate(1.6824037,1.125)" gradientUnits="userSpaceOnUse" xlink:href="#linearGradient6227"/><filter id="filter6251" width="1.485" height="1.095" x="-.242" y="-.048"><feGaussianBlur id="feGaussianBlur6253" stdDeviation=".244"/></filter><filter id="filter6328" width="1.17" height="1.827" x="-.085" y="-.414"><feGaussianBlur id="feGaussianBlur6330" stdDeviation=".425"/></filter><linearGradient id="linearGradient6334" x1="32.128" x2="35.021" y1="13.789" y2="13.789" gradientTransform="translate(-19.532826,1.7437184)" gradientUnits="userSpaceOnUse" xlink:href="#linearGradient6227"/><filter id="filter5745"><feGaussianBlur id="feGaussianBlur5747" stdDeviation=".836"/></filter></defs><metadata id="metadata4691"/><g id="layer1"><rect style="opacity:.45882353;color:#000;fill:#000;fill-opacity:1;fill-rule:evenodd;stroke:none;stroke-width:1;stroke-linecap:round;stroke-linejoin:miter;marker:none;marker-start:none;marker-mid:none;marker-end:none;stroke-miterlimit:4;stroke-dasharray:none;stroke-dashoffset:0;stroke-opacity:1;visibility:visible;display:inline;overflow:visible;filter:url(#filter6051);enable-background:accumulate" id="rect5961" width="37.75" height="6" x="6.25" y="39.75" rx="3.171" ry="1.975" transform="matrix(1.0264901,0,0,1,-0.1655629,0)"/><path style="stroke-opacity:1;stroke-dashoffset:0;stroke-miterlimit:4;stroke-linejoin:round;stroke-linecap:round;stroke-width:.99999952000000003;stroke:#c4a000;fill-rule:evenodd;fill-opacity:1;fill:url(#linearGradient6225)" id="rect1314" d="M 10.671306,17.5 C 10.671306,17.5 40.325581,17.5 40.325581,17.5 C 41.528485,17.5 42.496887,18.54357 42.496887,19.839844 L 42.371887,41.035156 C 42.371887,44.393783 40.606985,45.5 36.950581,45.5 C 36.950581,45.5 12.796306,45.5 12.796306,45.5 C 10.526641,45.5 9.2358762,44.656483 8.5,41.910156 L 8.5,19.839844 C 8.5,18.54357 9.4684025,17.5 10.671306,17.5 z"/><path style="fill:none;fill-opacity:1;fill-rule:evenodd;stroke:url(#linearGradient1575);stroke-width:1.00000024;stroke-linecap:round;stroke-linejoin:round;stroke-miterlimit:4;stroke-dashoffset:0;stroke-opacity:.60109289" id="rect6903" d="M 10.749588,18.995361 L 40.254433,18.995361 C 40.946704,18.995361 41.504021,19.581476 41.504021,20.30952 L 41.504021,41.560841 C 41.504021,43.554621 40.023021,44.5 37.754433,44.5 C 37.754433,44.5 12.249588,44.5 12.249588,44.5 C 10.552706,44.5 9.5,43.413885 9.5,41.560841 L 9.5,20.30952 C 9.5,19.581476 10.057316,18.995361 10.749588,18.995361 z"/><path style="color:#000;fill:url(#linearGradient1591);fill-opacity:1;fill-rule:evenodd;stroke:none;stroke-width:2;stroke-linecap:round;stroke-linejoin:round;stroke-miterlimit:4;stroke-dashoffset:0;stroke-opacity:1;marker:none;marker-start:none;marker-mid:none;marker-end:none;visibility:visible;display:inline;overflow:visible" id="rect1460" d="M 10.607725,18 C 10.607725,18 40.395387,18 40.395387,18 C 41.286067,18 42.003113,18.717046 42.003113,19.607725 L 42.003113,22.392275 C 42.003113,23.282954 41.286067,24 40.395387,24 C 40.395387,24 10.607725,24 10.607725,24 C 9.7170455,24 9,23.282954 9,22.392275 L 9,19.607725 C 9,18.717046 9.7170455,18 10.607725,18 z"/><path style="opacity:.36470588;color:#000;fill:url(#radialGradient6081);fill-opacity:1;fill-rule:evenodd;stroke:none;stroke-width:1;stroke-linecap:round;stroke-linejoin:miter;marker:none;marker-start:none;marker-mid:none;marker-end:none;stroke-miterlimit:4;stroke-dasharray:none;stroke-dashoffset:0;stroke-opacity:1;visibility:visible;display:inline;overflow:visible;enable-background:accumulate" id="path6073" d="M 19.25,20.3125 A 3.3125,1.9375 0 1 1 12.625,20.3125 A 3.3125,1.9375 0 1 1 19.25,20.3125 z" transform="matrix(1.3870968,0,0,1.3870968,-6.6693548,-7.8629032)"/><path id="path6083" d="M 19.25,20.3125 A 3.3125,1.9375 0 1 1 12.625,20.3125 A 3.3125,1.9375 0 1 1 19.25,20.3125 z" transform="matrix(1.3870968,0,0,1.3870968,13.580645,-7.8629032)" style="opacity:.34705882;color:#000;fill:url(#radialGradient6085);fill-opacity:1;fill-rule:evenodd;stroke:none;stroke-width:1;stroke-linecap:round;stroke-linejoin:miter;marker:none;marker-start:none;marker-mid:none;marker-end:none;stroke-miterlimit:4;stroke-dasharray:none;stroke-dashoffset:0;stroke-opacity:1;visibility:visible;display:inline;overflow:visible;enable-background:accumulate"/><rect style="opacity:.48235294;color:#000;fill:url(#linearGradient6095);fill-opacity:1;fill-rule:evenodd;stroke:none;stroke-width:1;stroke-linecap:round;stroke-linejoin:miter;marker:none;marker-start:none;marker-mid:none;marker-end:none;stroke-miterlimit:4;stroke-dasharray:none;stroke-dashoffset:0;stroke-opacity:1;visibility:visible;display:inline;overflow:visible;filter:url(#filter6171);enable-background:accumulate" id="rect6087" width="16.813" height="1.563" x="17.188" y="18.813" rx=".781" ry=".781"/><g id="g1387" transform="matrix(0.8915815,0,0,1,4.0426602,-0.492043)"><path id="path2086" d="M 9.4484974,20.172346 L 9.4484974,14.4375 C 9.4484974,6.5673666 17.14309,2.8895822 24.020027,2.9892921 C 30.798728,3.0875777 38.691703,6.5372782 38.691703,14.5 L 38.691703,20.484846 C 38.691703,22.439075 32.011363,22.599409 32.011363,20.396458 L 32.011363,16.411612 C 32.011363,14.411612 30.793293,9.0888072 24.077241,9.0888072 C 17.162915,9.0888072 16.060754,14.388997 16.093445,16.341138 L 16.093445,20.117636 C 16.093445,22.472256 9.4484974,22.550633 9.4484974,20.172346 z" style="fill:url(#linearGradient1392);fill-opacity:1;fill-rule:evenodd;stroke:#888a85;stroke-width:1.05905688;stroke-linecap:butt;stroke-linejoin:miter;stroke-miterlimit:4;stroke-dasharray:none;stroke-opacity:1"/><path style="opacity:.18235294;fill:url(#linearGradient6233);fill-opacity:1;fill-rule:evenodd;stroke:none;stroke-width:1;stroke-linecap:round;stroke-linejoin:round;stroke-miterlimit:4;stroke-dashoffset:0;stroke-opacity:1;filter:url(#filter6251)" id="rect1345" d="M 34.687087,10.837069 L 35.951035,10.962069 C 36.878274,13.784802 36.687087,20.472482 36.687087,20.472482 C 36.624587,21.597482 34.655837,21.003732 34.687087,20.472482 L 34.687087,10.837069 z"/><path id="path6332" d="M 12.926606,11.544175 L 13.298325,11.71337 C 15.018656,12.768336 15.471857,21.0912 15.471857,21.0912 C 15.409357,22.2162 13.440607,21.62245 13.471857,21.0912 C 13.471857,21.0912 13.850077,14.22056 12.926606,11.544175 z" transform="matrix(-1,0,0,1,29.702795,-1.052132)" style="opacity:.14117647;fill:url(#linearGradient6334);fill-opacity:1;fill-rule:evenodd;stroke:none;stroke-width:1;stroke-linecap:round;stroke-linejoin:round;stroke-miterlimit:4;stroke-dashoffset:0;stroke-opacity:1;filter:url(#filter6251)"/></g><path style="opacity:.62352941;color:#000;fill:none;fill-opacity:1;fill-rule:evenodd;stroke:#fff;stroke-width:2;stroke-linecap:round;stroke-linejoin:miter;marker:none;marker-start:none;marker-mid:none;marker-end:none;stroke-miterlimit:4;stroke-dasharray:none;stroke-dashoffset:0;stroke-opacity:1;visibility:visible;display:inline;overflow:visible;enable-background:accumulate;filter:url(#filter5745)" id="path5675" d="M 15.375,19.625 L 15.5,12.125 C 15.5,2.2486269 34.1875,1.4485997 34.1875,13 L 34.1875,19.875"/><path style="color:#000;fill:none;fill-opacity:1;fill-rule:evenodd;stroke:url(#linearGradient1387);stroke-width:1;stroke-linecap:round;stroke-linejoin:round;stroke-miterlimit:4;stroke-dashoffset:0;stroke-opacity:1;marker:none;marker-start:none;marker-mid:none;marker-end:none;visibility:visible;display:inline;overflow:visible" id="rect1593" d="M 10.663938,20.69248 L 27.875,20.69248 L 40.339179,20.69248 C 40.984,20.69248 41.503117,21.181674 41.503117,21.789328 L 41.503117,22.451402 C 41.503117,23.059056 40.984,23.54825 40.339179,23.54825 C 40.339179,23.54825 10.663938,23.54825 10.663938,23.54825 C 10.019116,23.54825 9.5,23.059056 9.5,22.451402 L 9.5,21.789328 C 9.5,21.181674 10.019116,20.69248 10.663938,20.69248 z"/><g id="g6067" transform="translate(0.7867961,0.5373197)"><path id="path6055" d="M 21.213204,6.2806997 A 3.1819806,3.1819806 0 1 1 14.849243,6.2806997 A 3.1819806,3.1819806 0 1 1 21.213204,6.2806997 z" style="opacity:1;color:#000;fill:url(#radialGradient6071);fill-opacity:1;fill-rule:evenodd;stroke:none;stroke-width:1;stroke-linecap:round;stroke-linejoin:miter;marker:none;marker-start:none;marker-mid:none;marker-end:none;stroke-miterlimit:4;stroke-dasharray:none;stroke-dashoffset:0;stroke-opacity:1;visibility:visible;display:inline;overflow:visible;enable-background:accumulate"/><path style="opacity:1;color:#000;fill:#fff;fill-opacity:1;fill-rule:evenodd;stroke:none;stroke-width:1;stroke-linecap:round;stroke-linejoin:miter;marker:none;marker-start:none;marker-mid:none;marker-end:none;stroke-miterlimit:4;stroke-dasharray:none;stroke-dashoffset:0;stroke-opacity:1;visibility:visible;display:inline;overflow:visible;enable-background:accumulate" id="path6065" d="M 21.213204,6.2806997 A 3.1819806,3.1819806 0 1 1 14.849243,6.2806997 A 3.1819806,3.1819806 0 1 1 21.213204,6.2806997 z" transform="matrix(0.4343344,0,0,0.4343344,10.199642,3.5527756)"/></g><path style="opacity:1;color:#000;fill:#fff;fill-opacity:1;fill-rule:evenodd;stroke:none;stroke-width:1;stroke-linecap:round;stroke-linejoin:miter;marker:none;marker-start:none;marker-mid:none;marker-end:none;stroke-miterlimit:4;stroke-dashoffset:0;stroke-opacity:1;visibility:visible;display:inline;overflow:visible;enable-background:accumulate;filter:url(#filter6328)" id="rect6257" d="M 21.715689,3.956218 C 24.168434,3.365924 26.768804,3.3279915 29.328581,3.956218 C 31.01633,4.3704294 30.56197,5.8453552 29.328581,5.4997159 C 26.795999,4.7899971 24.232097,4.9797662 21.715689,5.4997159 C 19.936529,5.8673328 20.076197,4.350789 21.715689,3.956218 z"/></g></svg>