<svg xmlns="http://www.w3.org/2000/svg" xmlns:cc="http://web.resource.org/cc/" xmlns:svg="http://www.w3.org/2000/svg" xmlns:xlink="http://www.w3.org/1999/xlink" id="svg4686" width="48" height="48" version="1.0"><defs id="defs4688"><linearGradient id="linearGradient6833"><stop style="stop-color:#000;stop-opacity:1" id="stop6835" offset="0"/><stop style="stop-color:#000;stop-opacity:0" id="stop6837" offset="1"/></linearGradient><linearGradient id="linearGradient6823"><stop style="stop-color:#fff;stop-opacity:1" id="stop6825" offset="0"/><stop style="stop-color:#fff;stop-opacity:0" id="stop6827" offset="1"/></linearGradient><linearGradient id="linearGradient6215"><stop id="stop6217" offset="0" style="stop-color:#ead200;stop-opacity:1"/><stop style="stop-color:#fff16a;stop-opacity:1" id="stop6219" offset=".101"/><stop id="stop6221" offset=".888" style="stop-color:#b5a300;stop-opacity:1"/><stop id="stop6223" offset="1" style="stop-color:#e8d000;stop-opacity:1"/></linearGradient><linearGradient id="linearGradient6089"><stop style="stop-color:#000;stop-opacity:1" id="stop6091" offset="0"/><stop id="stop6097" offset=".5" style="stop-color:#000;stop-opacity:.17171717"/><stop style="stop-color:#000;stop-opacity:1" id="stop6093" offset="1"/></linearGradient><linearGradient id="linearGradient5881"><stop id="stop5883" offset="0" style="stop-color:#fffac7;stop-opacity:1"/><stop style="stop-color:#fff8b2;stop-opacity:1" id="stop5885" offset="1"/></linearGradient><linearGradient id="linearGradient9845"><stop id="stop9847" offset="0" style="stop-color:#fff;stop-opacity:1"/><stop id="stop9849" offset="1" style="stop-color:#fff;stop-opacity:.49484536"/></linearGradient><linearGradient id="linearGradient10591"><stop id="stop10593" offset="0" style="stop-color:#cad0c6;stop-opacity:1"/><stop style="stop-color:#eaece9;stop-opacity:1" id="stop10599" offset=".5"/><stop id="stop10595" offset="1" style="stop-color:#c5cbc0;stop-opacity:1"/></linearGradient><filter id="filter5921" width="1.182" height="1.714" x="-.091" y="-.357"><feGaussianBlur id="feGaussianBlur5923" stdDeviation="1.968"/></filter><filter id="filter5841" width="1.294" height="1.195" x="-.147" y="-.097"><feGaussianBlur id="feGaussianBlur5843" stdDeviation="6.742"/></filter><filter id="filter5793" width="1.283" height="1.269" x="-.142" y="-.134"><feGaussianBlur id="feGaussianBlur5795" stdDeviation="4.368"/></filter><filter id="filter5747" width="1.276" height="1.414" x="-.138" y="-.207"><feGaussianBlur id="feGaussianBlur5749" stdDeviation="4.138"/></filter><filter id="filter5707"><feGaussianBlur id="feGaussianBlur5709" stdDeviation=".616"/></filter><filter id="filter5641"><feGaussianBlur id="feGaussianBlur5643" stdDeviation=".282"/></filter><filter id="filter5567"><feGaussianBlur id="feGaussianBlur5569" stdDeviation=".724"/></filter><filter id="filter5443" width="1.3" height="1.736" x="-.15" y="-.368"><feGaussianBlur id="feGaussianBlur5445" stdDeviation="1.152"/></filter><filter id="filter5435" width="1.46" height="2.128" x="-.23" y="-.564"><feGaussianBlur id="feGaussianBlur5437" stdDeviation="1.764"/></filter><linearGradient id="linearGradient20210"><stop id="stop20212" offset="0" style="stop-color:#000;stop-opacity:.51546389"/><stop style="stop-color:#000;stop-opacity:.14432989" id="stop20218" offset=".552"/><stop id="stop20214" offset="1" style="stop-color:#000;stop-opacity:0"/></linearGradient><linearGradient id="linearGradient4694"><stop id="stop4696" offset="0" style="stop-color:#e9f1f8;stop-opacity:1"/><stop id="stop4698" offset="1" style="stop-color:#376ba3;stop-opacity:.8392157"/></linearGradient><linearGradient id="linearGradient4712"><stop id="stop4714" offset="0" style="stop-color:#5b8ccb;stop-opacity:1"/><stop id="stop4716" offset="1" style="stop-color:#3465a4;stop-opacity:1"/></linearGradient><linearGradient id="linearGradient2990"><stop id="stop2992" offset="0" style="stop-color:#3465a4;stop-opacity:1"/><stop id="stop2994" offset="1" style="stop-color:#3465a4;stop-opacity:0"/></linearGradient><linearGradient id="linearGradient5190"><stop style="stop-color:#7b866c;stop-opacity:1" id="stop5194" offset="0"/><stop style="stop-color:#3c3c3c;stop-opacity:1" id="stop5192" offset="1"/></linearGradient><linearGradient id="linearGradient5219"><stop id="stop5221" offset="0" style="stop-color:#707b5d;stop-opacity:1"/><stop style="stop-color:#a2ac90;stop-opacity:1" id="stop5227" offset=".409"/><stop id="stop5223" offset="1" style="stop-color:#303427;stop-opacity:1"/></linearGradient><linearGradient id="linearGradient5459"><stop id="stop5461" offset="0" style="stop-color:#fff;stop-opacity:1"/><stop id="stop5463" offset="1" style="stop-color:#fff;stop-opacity:0"/></linearGradient><linearGradient id="linearGradient5543"><stop id="stop5545" offset="0" style="stop-color:#000;stop-opacity:1"/><stop id="stop5547" offset="1" style="stop-color:#000;stop-opacity:0"/></linearGradient><linearGradient id="linearGradient5607"><stop id="stop5609" offset="0" style="stop-color:#9ea399;stop-opacity:1"/><stop id="stop5611" offset="1" style="stop-color:#cccfca;stop-opacity:1"/></linearGradient><linearGradient id="linearGradient5617"><stop id="stop5619" offset="0" style="stop-color:#000;stop-opacity:1"/><stop id="stop5621" offset="1" style="stop-color:#000;stop-opacity:0"/></linearGradient><linearGradient id="linearGradient5651"><stop id="stop5653" offset="0" style="stop-color:#fff;stop-opacity:1"/><stop id="stop5655" offset="1" style="stop-color:#fff;stop-opacity:0"/></linearGradient><linearGradient id="linearGradient5659"><stop id="stop5661" offset="0" style="stop-color:#000;stop-opacity:1"/><stop id="stop5663" offset="1" style="stop-color:#000;stop-opacity:0"/></linearGradient><linearGradient id="linearGradient5711"><stop style="stop-color:#999;stop-opacity:1" id="stop5713" offset="0"/><stop style="stop-color:#757575;stop-opacity:.40952381" id="stop5715" offset="1"/></linearGradient><linearGradient id="linearGradient5721"><stop id="stop5723" offset="0" style="stop-color:#fff;stop-opacity:1"/><stop id="stop5725" offset="1" style="stop-color:#fff;stop-opacity:0"/></linearGradient><linearGradient id="linearGradient5753"><stop id="stop5755" offset="0" style="stop-color:#fff;stop-opacity:.23809524"/><stop style="stop-color:#fff;stop-opacity:1" id="stop6070" offset=".566"/><stop id="stop5757" offset="1" style="stop-color:#fff;stop-opacity:.44761905"/></linearGradient><linearGradient id="linearGradient5939"><stop id="stop5941" offset="0" style="stop-color:#fce94f;stop-opacity:1"/><stop style="stop-color:#fce94f;stop-opacity:0" id="stop5947" offset=".5"/><stop id="stop5943" offset="1" style="stop-color:#fce94f;stop-opacity:1"/></linearGradient><linearGradient id="linearGradient5951"><stop id="stop5953" offset="0" style="stop-color:#fff;stop-opacity:1"/><stop id="stop5955" offset="1" style="stop-color:#fff;stop-opacity:0"/></linearGradient><radialGradient id="radialGradient5802" cx="128" cy="215.811" r="23" fx="128" fy="215.811" gradientTransform="matrix(0.222318,0,0,3.439715e-2,-3.311714,33.961751)" gradientUnits="userSpaceOnUse" xlink:href="#linearGradient5190"/><radialGradient id="radialGradient5805" cx="128" cy="215.811" r="23" fx="128" fy="215.811" gradientTransform="matrix(0.222318,0,0,3.439715e-2,-3.3392378,29.783163)" gradientUnits="userSpaceOnUse" xlink:href="#linearGradient5190"/><radialGradient id="radialGradient5811" cx="128" cy="215.811" r="23" fx="128" fy="215.811" gradientTransform="matrix(0.222318,0,0,3.439715e-2,-3.288027,31.8257)" gradientUnits="userSpaceOnUse" xlink:href="#linearGradient5190"/><linearGradient id="linearGradient6392" x1="79.955" x2="94.478" y1="87" y2="86" gradientUnits="userSpaceOnUse" xlink:href="#linearGradient5951"/><linearGradient id="linearGradient6394" x1="79.955" x2="94.478" y1="87" y2="86" gradientUnits="userSpaceOnUse" xlink:href="#linearGradient5951"/><linearGradient id="linearGradient6396" x1="109.5" x2="161.5" y1="100.112" y2="100.112" gradientUnits="userSpaceOnUse" xlink:href="#linearGradient5939"/><linearGradient id="linearGradient6398" x1="153" x2="107" y1="148" y2="150" gradientTransform="translate(0,12)" gradientUnits="userSpaceOnUse" xlink:href="#linearGradient5753"/><linearGradient id="linearGradient6400" x1="133" x2="133" y1="168" y2="155" gradientUnits="userSpaceOnUse" xlink:href="#linearGradient5651"/><linearGradient id="linearGradient6402" x1="133" x2="133" y1="141.404" y2="155" gradientUnits="userSpaceOnUse" xlink:href="#linearGradient5659"/><linearGradient id="linearGradient6404" x1="119" x2="137" y1="158" y2="177.5" gradientUnits="userSpaceOnUse" xlink:href="#linearGradient5543"/><linearGradient id="linearGradient6406" x1="138.5" x2="138.5" y1="164" y2="192.5" gradientUnits="userSpaceOnUse" xlink:href="#linearGradient5617"/><linearGradient id="linearGradient6408" x1="-57" x2="-44" y1="50" y2="88" gradientUnits="userSpaceOnUse" xlink:href="#linearGradient5721"/><linearGradient id="linearGradient6414" x1="125" x2="127.25" y1="155.25" y2="169.25" gradientTransform="matrix(0.1809405,0,0,0.1809405,1.944008,1.3933086)" gradientUnits="userSpaceOnUse" xlink:href="#linearGradient5459"/><linearGradient id="linearGradient6416" x1="125" x2="127.25" y1="155.25" y2="169.25" gradientTransform="matrix(0.1809405,0,0,0.1809405,1.944008,1.3933086)" gradientUnits="userSpaceOnUse" xlink:href="#linearGradient5543"/><linearGradient id="linearGradient6418" x1="134" x2="137" y1="165.376" y2="177.5" gradientTransform="matrix(0.1595528,0,0,0.2028014,4.4443653,-2.1485277)" gradientUnits="userSpaceOnUse" xlink:href="#linearGradient5711"/><linearGradient id="linearGradient6420" x1="134" x2="137" y1="165.376" y2="177.5" gradientTransform="matrix(0.1595528,0,0,0.2028014,4.4443653,-2.1485277)" gradientUnits="userSpaceOnUse" xlink:href="#linearGradient5543"/><linearGradient id="linearGradient6422" x1="105" x2="154.5" y1="212.25" y2="212.25" gradientTransform="matrix(0.1915001,0,0,0.1976038,0.598361,-2.46196)" gradientUnits="userSpaceOnUse" xlink:href="#linearGradient5219"/><radialGradient id="radialGradient6815" cx="170.004" cy="101.742" r="54.507" fx="170.004" fy="101.742" gradientTransform="matrix(0.2020949,0,0,0.3059212,-0.8387929,-14.759428)" gradientUnits="userSpaceOnUse" xlink:href="#linearGradient5607"/><linearGradient id="linearGradient6817" x1="119" x2="125.75" y1="158" y2="188.75" gradientTransform="matrix(0.2020949,0,0,0.2020949,-0.8387929,-3.2356902)" gradientUnits="userSpaceOnUse" xlink:href="#linearGradient5543"/><linearGradient id="linearGradient6829" x1="25.641" x2="25.641" y1="19.95" y2="33.717" gradientUnits="userSpaceOnUse" xlink:href="#linearGradient6823"/><radialGradient id="radialGradient6839" cx="25.102" cy="43.05" r="14.496" fx="25.102" fy="43.05" gradientTransform="matrix(1,0,0,0.2926829,0,30.450178)" gradientUnits="userSpaceOnUse" xlink:href="#linearGradient6833"/><filter id="filter6889" width="1.276" height="1.944" x="-.138" y="-.472"><feGaussianBlur id="feGaussianBlur6891" stdDeviation="1.669"/></filter><filter id="filter5330" width="1.414" height="1.414" x="-.207" y="-.207"><feGaussianBlur id="feGaussianBlur5332" stdDeviation="2.177"/></filter></defs><metadata id="metadata4691"/><g id="layer1"><path style="opacity:.47701153;color:#000;fill:url(#radialGradient6839);fill-opacity:1;fill-rule:evenodd;stroke:none;stroke-width:1;stroke-linecap:square;stroke-linejoin:round;marker:none;marker-start:none;marker-mid:none;marker-end:none;stroke-miterlimit:10;stroke-dasharray:none;stroke-dashoffset:0;stroke-opacity:1;visibility:visible;display:inline;overflow:visible;filter:url(#filter6889);enable-background:accumulate" id="path6831" d="M 39.59798,43.050251 A 14.495689,4.2426405 0 1 1 10.606602,43.050251 A 14.495689,4.2426405 0 1 1 39.59798,43.050251 z" transform="matrix(0.6780997,0,0,0.6780997,8.1027442,14.9307)"/><path style="color:#000;fill:#030000;fill-opacity:1;fill-rule:nonzero;stroke:none;stroke-width:2;stroke-linecap:butt;stroke-linejoin:miter;marker:none;marker-start:none;marker-mid:none;marker-end:none;stroke-miterlimit:10;stroke-dasharray:none;stroke-dashoffset:0;stroke-opacity:1;visibility:visible;display:block;overflow:visible;enable-background:accumulate" id="path4607" d="M 28.161819,42.841937 C 27.490917,46.416069 23.571073,46.752527 23.146682,42.939003 L 28.161819,42.841937 z"/><rect style="opacity:.52873565;color:#000;fill:url(#linearGradient6418);fill-opacity:1;fill-rule:nonzero;stroke:url(#linearGradient6420);stroke-width:1.00000012;stroke-linecap:round;stroke-linejoin:miter;marker:none;marker-start:none;marker-mid:none;marker-end:none;stroke-miterlimit:10;stroke-dasharray:none;stroke-dashoffset:0;stroke-opacity:1;visibility:visible;display:block;overflow:visible;enable-background:accumulate" id="rect5449" width="3.829" height="7.504" x="23.591" y="30.097" rx="1.279" ry="1.699"/><path style="color:#000;fill:url(#linearGradient6422);fill-opacity:1;fill-rule:nonzero;stroke:#2e3436;stroke-width:1.00000012;stroke-linecap:round;stroke-linejoin:round;marker:none;marker-start:none;marker-mid:none;marker-end:none;stroke-miterlimit:10;stroke-dasharray:none;stroke-dashoffset:0;stroke-opacity:1;visibility:visible;display:block;overflow:visible;enable-background:accumulate" id="path5214" d="M 20.705878,40.714473 L 21.041004,40.022859 L 20.658004,39.281845 L 21.041004,38.293824 L 20.705878,37.454008 L 21.136754,36.762397 L 20.705878,35.675576 L 30.185137,35.576773 L 29.562761,36.762397 L 29.084013,37.404608 L 29.706389,38.195025 L 29.275511,39.084241 L 29.706389,39.825255 L 29.084013,40.763873 L 29.610637,41.603688 L 27.695636,43.332722 L 23.427394,43.426318 L 21.717095,42.589067 L 20.705878,40.714473 z"/><path style="color:#000;fill:#1f2c13;fill-opacity:1;fill-rule:nonzero;stroke:url(#radialGradient5811);stroke-width:1;stroke-linecap:round;stroke-linejoin:miter;marker:none;marker-start:none;marker-mid:none;marker-end:none;stroke-miterlimit:10;stroke-dasharray:none;stroke-dashoffset:0;stroke-opacity:1;visibility:visible;display:block;overflow:visible;enable-background:accumulate" id="path5188" d="M 20.5,38.873007 C 23.791741,39.617358 26.83888,39.67658 29.837356,39.599496"/><path style="color:#000;fill:#1f2c13;fill-opacity:1;fill-rule:nonzero;stroke:url(#radialGradient5805);stroke-width:1;stroke-linecap:round;stroke-linejoin:miter;marker:none;marker-start:none;marker-mid:none;marker-end:none;stroke-miterlimit:10;stroke-dasharray:none;stroke-dashoffset:0;stroke-opacity:1;visibility:visible;display:block;overflow:visible;enable-background:accumulate" id="path5206" d="M 20.448789,36.830468 C 23.74053,37.574821 26.787669,37.63404 29.786145,37.556957"/><path id="path5210" d="M 20.476313,41.009057 C 23.768054,41.753408 26.815193,41.812631 29.813669,41.735548" style="color:#000;fill:none;fill-opacity:1;fill-rule:nonzero;stroke:url(#radialGradient5802);stroke-width:1;stroke-linecap:round;stroke-linejoin:miter;marker:none;marker-start:none;marker-mid:none;marker-end:none;stroke-miterlimit:10;stroke-dasharray:none;stroke-dashoffset:0;stroke-opacity:1;visibility:visible;display:block;overflow:visible;enable-background:accumulate"/><path style="color:#000;fill:#555753;fill-opacity:1;fill-rule:nonzero;stroke:none;stroke-width:4;stroke-linecap:round;stroke-linejoin:miter;marker:none;marker-start:none;marker-mid:none;marker-end:none;stroke-miterlimit:10;stroke-dasharray:none;stroke-dashoffset:0;stroke-opacity:1;visibility:visible;display:block;overflow:visible;enable-background:accumulate" id="path5217" d="M 155,191 A 25.5,3 0 1 1 104,191 A 25.5,3 0 1 1 155,191 z" transform="matrix(0.2020949,0,0,0.2020949,-0.8387929,-3.2356903)"/><rect style="color:#000;fill:#fefff1;fill-opacity:1;fill-rule:nonzero;stroke:none;stroke-width:4;stroke-linecap:round;stroke-linejoin:miter;marker:none;marker-start:none;marker-mid:none;marker-end:none;stroke-miterlimit:10;stroke-dasharray:none;stroke-dashoffset:0;stroke-opacity:1;visibility:visible;display:block;overflow:visible;filter:url(#filter5443);enable-background:accumulate" id="rect5229" width="18.5" height="5.5" x="326" y="215.5" rx="2.873" ry="2.873" transform="matrix(0.1676344,1.7402137e-2,-1.3555399e-2,0.1138277,-29.043063,8.7699838)"/><rect style="color:#000;fill:#fefff1;fill-opacity:1;fill-rule:nonzero;stroke:none;stroke-width:4;stroke-linecap:round;stroke-linejoin:miter;marker:none;marker-start:none;marker-mid:none;marker-end:none;stroke-miterlimit:10;stroke-dasharray:none;stroke-dashoffset:0;stroke-opacity:1;visibility:visible;display:block;overflow:visible;filter:url(#filter5435);enable-background:accumulate" id="rect5289" width="18.5" height="5.5" x="326" y="215.5" rx="2.399" ry="2.86" transform="matrix(0.1312259,1.1361825e-2,-1.0611298e-2,7.4317897e-2,-17.462586,21.442709)"/><rect id="rect5447" width="29" height="7" x="322" y="215" rx="2.873" ry="2.75" transform="matrix(0.1094483,1.1361825e-2,-8.8502966e-3,7.4317897e-2,-10.906833,17.238763)" style="color:#000;fill:#fefff1;fill-opacity:1;fill-rule:nonzero;stroke:none;stroke-width:4;stroke-linecap:round;stroke-linejoin:miter;marker:none;marker-start:none;marker-mid:none;marker-end:none;stroke-miterlimit:10;stroke-dasharray:none;stroke-dashoffset:0;stroke-opacity:1;visibility:visible;display:block;overflow:visible;filter:url(#filter5435);enable-background:accumulate"/><path style="opacity:.22413791;color:#000;fill:url(#linearGradient6414);fill-opacity:1;fill-rule:nonzero;stroke:url(#linearGradient6416);stroke-width:.99999982;stroke-linecap:round;stroke-linejoin:miter;marker:none;marker-start:none;marker-mid:none;marker-end:none;stroke-miterlimit:10;stroke-dasharray:none;stroke-dashoffset:0;stroke-opacity:1;visibility:visible;display:block;overflow:visible;enable-background:accumulate" id="path5571" d="M 24.19969,32.515075 L 22.390284,29.981908 C 22.329268,29.128299 22.515009,28.486197 23.294987,28.353443 L 28.361321,28.353443 C 29.116402,28.689144 29.164697,29.226783 29.085083,29.800967 L 27.094738,32.876956 L 24.19969,32.515075 z"/><path style="opacity:.28735633;color:#000;fill:url(#radialGradient6815);fill-opacity:1;fill-rule:nonzero;stroke:url(#linearGradient6817);stroke-width:.99999994;stroke-linecap:round;stroke-linejoin:miter;marker:none;marker-start:none;marker-mid:none;marker-end:none;stroke-miterlimit:10;stroke-dasharray:none;stroke-dashoffset:0;stroke-opacity:1;visibility:visible;display:block;overflow:visible;enable-background:accumulate" id="path5577" d="M 20.583261,35.768616 C 20.583261,35.768616 20.886403,32.989812 19.370692,26.876442 C 17.85498,20.763074 14.671987,19.803123 14.722511,13.133993 C 14.770145,6.846254 20.532738,2.4734894 26.039822,2.6250605 C 31.546907,2.7766316 36.451127,7.0322704 36.548755,13.133993 C 36.649802,19.449457 33.062619,21.116739 31.496383,27.078538 C 29.930148,33.040336 30.283815,35.768616 30.283815,35.768616 L 20.583261,35.768616 z"/><path style="opacity:.72413791;color:#000;fill:url(#linearGradient6408);fill-opacity:1;fill-rule:nonzero;stroke:none;stroke-width:1;stroke-linecap:round;stroke-linejoin:miter;marker:none;marker-start:none;marker-mid:none;marker-end:none;stroke-miterlimit:10;stroke-dasharray:none;stroke-dashoffset:0;stroke-opacity:1;visibility:visible;display:block;overflow:visible;filter:url(#filter5747);enable-background:accumulate" id="path5579" d="M -16,64 A 36,24 0 1 1 -88,64 A 36,24 0 1 1 -16,64 z" transform="matrix(0.2020949,0,0,0.2020949,36.144566,-3.2356903)"/><path style="opacity:.53448277;color:#000;fill:none;fill-opacity:1;fill-rule:nonzero;stroke:url(#linearGradient6406);stroke-width:1.0445857;stroke-linecap:round;stroke-linejoin:miter;marker:none;marker-start:none;marker-mid:none;marker-end:none;stroke-miterlimit:10;stroke-dasharray:none;stroke-dashoffset:0;stroke-opacity:1;visibility:visible;display:block;overflow:visible;filter:url(#filter5641);enable-background:accumulate" id="path5615" d="M 127,191 L 127,156 L 138,156 L 136,192" transform="matrix(0.2020949,0,0,0.2020949,-0.8387929,-3.2356903)"/><path id="path5797" d="M 106,193 C 106,193 107.5,179.25 100,149 C 92.5,118.75 76.75,114 77,81 C 77.235703,49.88719 105.75,28.25 133,29 C 160.25,29.75 184.51692,50.807631 185,81 C 185.5,112.25 167.75,120.5 160,150 C 152.25,179.5 154,193 154,193 L 106,193 z" transform="matrix(0.1777489,0,0,0.1777489,2.3506238,-1.1397986)" style="opacity:.48850576;color:#000;fill:none;fill-opacity:1;fill-rule:nonzero;stroke:url(#linearGradient6404);stroke-width:2.08917141;stroke-linecap:round;stroke-linejoin:miter;marker:none;marker-start:none;marker-mid:none;marker-end:none;stroke-miterlimit:10;stroke-dasharray:none;stroke-dashoffset:0;stroke-opacity:1;visibility:visible;display:block;overflow:visible;filter:url(#filter5841);enable-background:accumulate"/><path style="color:#000;fill:url(#linearGradient6400);fill-opacity:1;fill-rule:nonzero;stroke:url(#linearGradient6402);stroke-width:1.0445857;stroke-linecap:round;stroke-linejoin:miter;marker:none;marker-start:none;marker-mid:none;marker-end:none;stroke-miterlimit:10;stroke-dasharray:none;stroke-dashoffset:0;stroke-opacity:1;visibility:visible;display:block;overflow:visible;filter:url(#filter5707);enable-background:accumulate" id="path5645" d="M 143,155 A 10,13 0 1 1 123,155 A 10,13 0 1 1 143,155 z" transform="matrix(6.3259813e-2,0,0,4.4515859e-2,17.59054,20.75019)"/><path style="color:#000;fill:#fff;fill-opacity:1;fill-rule:nonzero;stroke:none;stroke-width:1;stroke-linecap:round;stroke-linejoin:miter;marker:none;marker-start:none;marker-mid:none;marker-end:none;stroke-miterlimit:10;stroke-dasharray:none;stroke-dashoffset:0;stroke-opacity:1;visibility:visible;display:block;overflow:visible;enable-background:accumulate" id="path5719" d="M 20.987451,6.0606731 L 22.20002,9.6983805 C 23.811349,8.1272666 25.920591,8.5478018 28.060771,9.0920959 L 27.858677,5.0501988 C 25.746026,4.8537501 23.626751,4.6771709 20.987451,6.0606731 z"/><path style="opacity:.72413791;color:#000;fill:url(#linearGradient6398);fill-opacity:1;fill-rule:nonzero;stroke:none;stroke-width:1;stroke-linecap:round;stroke-linejoin:miter;marker:none;marker-start:none;marker-mid:none;marker-end:none;stroke-miterlimit:10;stroke-dasharray:none;stroke-dashoffset:0;stroke-opacity:1;visibility:visible;display:block;overflow:visible;filter:url(#filter5793);enable-background:accumulate" id="path5751" d="M 98,117 L 117,188 C 117,188 130.38128,187.57307 145,188 L 172,110 C 153.42703,131.27032 120.22234,137.22343 98,117 z" transform="matrix(0.2020949,0,0,0.2020949,-0.8387929,-3.2356903)"/><path style="opacity:.21264367;color:#000;fill:none;fill-opacity:1;fill-rule:nonzero;stroke:#000;stroke-width:.99999994;stroke-linecap:round;stroke-linejoin:miter;marker:none;marker-start:none;marker-mid:none;marker-end:none;stroke-miterlimit:10;stroke-dasharray:none;stroke-dashoffset:0;stroke-opacity:1;visibility:visible;display:block;overflow:visible;enable-background:accumulate" id="path5845" d="M 27.050296,28.897391 C 27.050296,28.897391 26.646107,28.291107 27.050296,26.674348 C 27.454486,25.057589 31.900573,15.761226 31.900573,15.761226 L 31.294288,15.761226 L 31.294288,17.17589"/><path id="path5851" d="M 24.445518,28.897391 C 24.445518,28.897391 24.849708,28.291107 24.445518,26.674348 C 24.041329,25.057589 21.009906,15.761226 21.009906,15.761226 L 21.61619,15.761226 L 21.61619,17.17589" style="opacity:.21264367;color:#000;fill:none;fill-opacity:1;fill-rule:nonzero;stroke:#000;stroke-width:.99999994;stroke-linecap:round;stroke-linejoin:miter;marker:none;marker-start:none;marker-mid:none;marker-end:none;stroke-miterlimit:10;stroke-dasharray:none;stroke-dashoffset:0;stroke-opacity:1;visibility:visible;display:block;overflow:visible;enable-background:accumulate"/><path id="path5855" d="M 111,95 C 111,95 123,107 137,105 C 151,103 155,95 160,95" transform="matrix(0.2020949,0,0,0.2020949,-0.8387929,-3.2356903)" style="color:#000;fill:none;fill-opacity:1;fill-rule:nonzero;stroke:url(#linearGradient6396);stroke-width:24.74085617;stroke-linecap:round;stroke-linejoin:miter;marker:none;marker-start:none;marker-mid:none;marker-end:none;stroke-miterlimit:10;stroke-dasharray:none;stroke-dashoffset:0;stroke-opacity:1;visibility:visible;display:block;overflow:visible;filter:url(#filter5921);enable-background:accumulate"/><path style="color:#000;fill:none;fill-opacity:1;fill-rule:nonzero;stroke:#fff;stroke-width:.99999994;stroke-linecap:round;stroke-linejoin:miter;marker:none;marker-start:none;marker-mid:none;marker-end:none;stroke-miterlimit:10;stroke-dasharray:none;stroke-dashoffset:0;stroke-opacity:1;visibility:visible;display:block;overflow:visible;enable-background:accumulate" id="path5853" d="M 21.593735,15.963321 C 21.593735,15.963321 24.018874,18.388458 26.848202,17.98427 C 29.677529,17.58008 30.485909,15.963321 31.496383,15.963321"/><path style="color:#000;fill:url(#linearGradient6394);fill-opacity:1;fill-rule:nonzero;stroke:none;stroke-width:3;stroke-linecap:round;stroke-linejoin:miter;marker:none;marker-start:none;marker-mid:none;marker-end:none;stroke-miterlimit:10;stroke-dasharray:none;stroke-dashoffset:0;stroke-opacity:1;visibility:visible;display:block;overflow:visible;filter:url(#filter5567);enable-background:accumulate" id="path5949" d="M 104,44 C 104,44 78.75,52.5 80,88 C 81.25,123.5 100,107 109,188 C 104.11398,107.94203 88.25,123.5 87,88 C 85.75,52.5 104,44 104,44 z" transform="matrix(0.2020949,0,0,0.2020949,-0.4157147,-3.2356903)"/><path id="path5959" d="M 104,44 C 104,44 78.75,52.5 80,88 C 81.25,123.5 100,107 109,188 C 104.11398,107.94203 88.25,123.5 87,88 C 85.75,52.5 104,44 104,44 z" transform="matrix(-0.2020949,0,0,0.2020949,50.0275,-3.7433842)" style="opacity:1;color:#000;fill:url(#linearGradient6392);fill-opacity:1;fill-rule:nonzero;stroke:none;stroke-width:3;stroke-linecap:round;stroke-linejoin:miter;marker:none;marker-start:none;marker-mid:none;marker-end:none;stroke-miterlimit:10;stroke-dasharray:none;stroke-dashoffset:0;stroke-opacity:1;visibility:visible;display:block;overflow:visible;filter:url(#filter5567);enable-background:accumulate"/><path style="enable-background:accumulate;overflow:visible;display:block;visibility:visible;stroke-opacity:1;stroke-dashoffset:0;stroke-dasharray:none;stroke-miterlimit:10;marker-end:none;marker-mid:none;marker-start:none;marker:none;stroke-linejoin:miter;stroke-linecap:round;stroke-width:1;stroke:url(#linearGradient6829);fill-rule:nonzero;fill-opacity:1;fill:none;color:#000;opacity:.89655172000000005" id="path6813" d="M 26.03125,2.875 C 20.941266,2.7349087 15.512941,6.7917566 15.46875,12.625 C 15.44382,15.915734 16.142877,17.591114 17.125,19.4375 C 18.107123,21.283886 19.445621,23.317134 20.28125,26.6875 C 21.444371,31.378758 21.538011,33.758915 21.53125,35.0625 L 29.3125,35.0625 C 29.30409,34.652376 29.262112,34.666304 29.3125,33.96875 C 29.426234,32.39427 29.726909,30.055638 30.5625,26.875 C 31.431313,23.567906 32.875517,21.441746 33.96875,19.46875 C 35.061983,17.495754 35.861578,15.72353 35.8125,12.65625 C 35.720741,6.9213695 31.181338,3.0167456 26.03125,2.875 z" xlink:href="#path5577"/><path style="opacity:.62643678;color:#000;fill:#fff;fill-opacity:1;fill-rule:evenodd;stroke:none;stroke-width:1;stroke-linecap:square;stroke-linejoin:round;marker:none;marker-start:none;marker-mid:none;marker-end:none;stroke-miterlimit:10;stroke-dasharray:none;stroke-dashoffset:0;stroke-opacity:1;visibility:visible;display:inline;overflow:visible;filter:url(#filter5330);enable-background:accumulate" id="path4691" d="M 38.25,15.375 A 12.625,12.625 0 1 1 13,15.375 A 12.625,12.625 0 1 1 38.25,15.375 z" transform="matrix(0.9573173,0,0,0.9573173,1.0937436,9.1451101e-2)"/><path style="opacity:.62643678;color:#000;fill:#fff;fill-opacity:1;fill-rule:evenodd;stroke:none;stroke-width:1;stroke-linecap:square;stroke-linejoin:round;marker:none;marker-start:none;marker-mid:none;marker-end:none;stroke-miterlimit:10;stroke-dasharray:none;stroke-dashoffset:0;stroke-opacity:1;visibility:visible;display:inline;overflow:visible;enable-background:accumulate" id="path5334" d="M 29.21235,37.658562 A 0.59662133,0.57452428 0 1 1 28.019107,37.658562 A 0.59662133,0.57452428 0 1 1 29.21235,37.658562 z" transform="matrix(0.8220398,0,0,0.7971487,4.9862861,7.522545)"/><path id="path5336" d="M 29.21235,37.658562 A 0.59662133,0.57452428 0 1 1 28.019107,37.658562 A 0.59662133,0.57452428 0 1 1 29.21235,37.658562 z" transform="matrix(0.8220398,0,0,0.7971487,4.9862859,9.4606049)" style="opacity:.62643678;color:#000;fill:#fff;fill-opacity:1;fill-rule:evenodd;stroke:none;stroke-width:1;stroke-linecap:square;stroke-linejoin:round;marker:none;marker-start:none;marker-mid:none;marker-end:none;stroke-miterlimit:10;stroke-dasharray:none;stroke-dashoffset:0;stroke-opacity:1;visibility:visible;display:inline;overflow:visible;enable-background:accumulate"/><path style="opacity:.62643678;color:#000;fill:#fff;fill-opacity:1;fill-rule:evenodd;stroke:none;stroke-width:1;stroke-linecap:square;stroke-linejoin:round;marker:none;marker-start:none;marker-mid:none;marker-end:none;stroke-miterlimit:10;stroke-dasharray:none;stroke-dashoffset:0;stroke-opacity:1;visibility:visible;display:inline;overflow:visible;enable-background:accumulate" id="path5338" d="M 29.21235,37.658562 A 0.59662133,0.57452428 0 1 1 28.019107,37.658562 A 0.59662133,0.57452428 0 1 1 29.21235,37.658562 z" transform="matrix(0.8220398,0,0,0.7971487,4.9862859,11.460605)"/><path id="path5340" d="M 29.21235,37.658562 A 0.59662133,0.57452428 0 1 1 28.019107,37.658562 A 0.59662133,0.57452428 0 1 1 29.21235,37.658562 z" transform="matrix(0.8220398,0,0,0.7971487,-2.032821,6.584485)" style="opacity:1;color:#000;fill:#fff;fill-opacity:1;fill-rule:evenodd;stroke:none;stroke-width:1;stroke-linecap:square;stroke-linejoin:round;marker:none;marker-start:none;marker-mid:none;marker-end:none;stroke-miterlimit:10;stroke-dasharray:none;stroke-dashoffset:0;stroke-opacity:1;visibility:visible;display:inline;overflow:visible;enable-background:accumulate"/><path style="opacity:1;color:#000;fill:#fff;fill-opacity:1;fill-rule:evenodd;stroke:none;stroke-width:1;stroke-linecap:square;stroke-linejoin:round;marker:none;marker-start:none;marker-mid:none;marker-end:none;stroke-miterlimit:10;stroke-dasharray:none;stroke-dashoffset:0;stroke-opacity:1;visibility:visible;display:inline;overflow:visible;enable-background:accumulate" id="path5342" d="M 29.21235,37.658562 A 0.59662133,0.57452428 0 1 1 28.019107,37.658562 A 0.59662133,0.57452428 0 1 1 29.21235,37.658562 z" transform="matrix(0.8220398,0,0,0.7971487,-2.0328212,8.5225449)"/><path id="path5344" d="M 29.21235,37.658562 A 0.59662133,0.57452428 0 1 1 28.019107,37.658562 A 0.59662133,0.57452428 0 1 1 29.21235,37.658562 z" transform="matrix(0.8220398,0,0,0.7971487,-2.0328212,10.522545)" style="opacity:1;color:#000;fill:#fff;fill-opacity:1;fill-rule:evenodd;stroke:none;stroke-width:1;stroke-linecap:square;stroke-linejoin:round;marker:none;marker-start:none;marker-mid:none;marker-end:none;stroke-miterlimit:10;stroke-dasharray:none;stroke-dashoffset:0;stroke-opacity:1;visibility:visible;display:inline;overflow:visible;enable-background:accumulate"/><path style="opacity:1;color:#000;fill:#fff;fill-opacity:1;fill-rule:evenodd;stroke:none;stroke-width:1;stroke-linecap:square;stroke-linejoin:round;marker:none;marker-start:none;marker-mid:none;marker-end:none;stroke-miterlimit:10;stroke-dasharray:none;stroke-dashoffset:0;stroke-opacity:1;visibility:visible;display:inline;overflow:visible;enable-background:accumulate" id="path5346" d="M 29.21235,37.658562 A 0.59662133,0.57452428 0 1 1 28.019107,37.658562 A 0.59662133,0.57452428 0 1 1 29.21235,37.658562 z" transform="matrix(0.8220398,0,0,0.7971487,-2.0328212,12.438508)"/></g></svg>