<svg xmlns="http://www.w3.org/2000/svg" xmlns:cc="http://web.resource.org/cc/" xmlns:svg="http://www.w3.org/2000/svg" xmlns:xlink="http://www.w3.org/1999/xlink" id="svg2" width="32" height="32" version="1.0"><defs id="defs3"><linearGradient id="linearGradient4952"><stop style="stop-color:#3465a4;stop-opacity:1" id="stop4954" offset="0"/><stop style="stop-color:#729fcf;stop-opacity:0" id="stop4956" offset="1"/></linearGradient><linearGradient id="linearGradient4916"><stop style="stop-color:#888a85;stop-opacity:1" id="stop4918" offset="0"/><stop style="stop-color:#5d5f5b;stop-opacity:0" id="stop4920" offset="1"/></linearGradient><linearGradient id="linearGradient6108"><stop style="stop-color:#000;stop-opacity:1" id="stop6110" offset="0"/><stop style="stop-color:#000;stop-opacity:0" id="stop6112" offset="1"/></linearGradient><linearGradient id="linearGradient6076"><stop style="stop-color:#fff;stop-opacity:1" id="stop6078" offset="0"/><stop style="stop-color:#cbcbcb;stop-opacity:1" id="stop6080" offset="1"/></linearGradient><linearGradient id="linearGradient6056"><stop style="stop-color:#fff;stop-opacity:1" id="stop6058" offset="0"/><stop style="stop-color:#d3d7cf;stop-opacity:1" id="stop6060" offset="1"/></linearGradient><linearGradient id="linearGradient4958" x1="22.419" x2="22.419" y1="10.069" y2="4.027" gradientUnits="userSpaceOnUse" xlink:href="#linearGradient4952"/><linearGradient id="linearGradient4988" x1="17.688" x2="18.562" y1="4.528" y2="3.749" gradientTransform="matrix(1.9323507,0,0,1.8671706,-11.372788,-1.705568)" gradientUnits="userSpaceOnUse" xlink:href="#linearGradient6076"/><linearGradient id="linearGradient4990" x1="18.964" x2="14.047" y1="6.505" y2="3.673" gradientTransform="matrix(1.4342503,0,0,1.3979761,-1.7198831,0.4021562)" gradientUnits="userSpaceOnUse" xlink:href="#linearGradient4916"/><linearGradient id="linearGradient4993" x1="16.552" x2="16.552" y1="2.963" y2="7.836" gradientTransform="matrix(1.3725468,0,0,1.4841922,0.4170448,-0.8787716)" gradientUnits="userSpaceOnUse" xlink:href="#linearGradient6108"/><linearGradient id="linearGradient4997" x1="9.71" x2="24.286" y1="14.717" y2="-5.954" gradientTransform="matrix(1.5875676,0,0,1.5494763,-3.0460149,-1.824216)" gradientUnits="userSpaceOnUse" xlink:href="#linearGradient6056"/><linearGradient id="linearGradient5144" x1="9.71" x2="24.286" y1="14.717" y2="-5.954" gradientTransform="matrix(1.5875676,0,0,1.5494763,-3.0460149,-1.824216)" gradientUnits="userSpaceOnUse" xlink:href="#linearGradient6056"/><linearGradient id="linearGradient5146" x1="16.552" x2="16.552" y1="2.963" y2="7.836" gradientTransform="matrix(1.3725468,0,0,1.4841922,0.4170448,-0.8787716)" gradientUnits="userSpaceOnUse" xlink:href="#linearGradient6108"/><linearGradient id="linearGradient5148" x1="17.688" x2="18.562" y1="4.528" y2="3.749" gradientTransform="matrix(1.9323507,0,0,1.8671706,-11.372788,-1.705568)" gradientUnits="userSpaceOnUse" xlink:href="#linearGradient6076"/><linearGradient id="linearGradient5150" x1="18.964" x2="14.047" y1="6.505" y2="3.673" gradientTransform="matrix(1.4342503,0,0,1.3979761,-1.7198831,0.4021562)" gradientUnits="userSpaceOnUse" xlink:href="#linearGradient4916"/><linearGradient id="linearGradient5152" x1="22.419" x2="22.419" y1="10.069" y2="4.027" gradientUnits="userSpaceOnUse" xlink:href="#linearGradient4952"/><linearGradient id="linearGradient5186" x1="17.688" x2="18.562" y1="4.528" y2="3.749" gradientTransform="matrix(1.2163875,0,0,1.178548,-6.2288437,9.5474344)" gradientUnits="userSpaceOnUse" xlink:href="#linearGradient6076"/><linearGradient id="linearGradient5188" x1="18.964" x2="14.047" y1="6.505" y2="3.673" gradientTransform="matrix(0.9028403,0,0,0.882395,-0.1524762,10.877819)" gradientUnits="userSpaceOnUse" xlink:href="#linearGradient4916"/><linearGradient id="linearGradient5191" x1="16.552" x2="16.552" y1="2.963" y2="7.836" gradientTransform="matrix(0.8639989,0,0,0.9368141,1.19269,10.069304)" gradientUnits="userSpaceOnUse" xlink:href="#linearGradient6108"/><linearGradient id="linearGradient5195" x1="7.038" x2="14.821" y1="20.421" y2="5.341" gradientTransform="matrix(0.9993514,0,0,0.9499999,-0.9872574,10.074999)" gradientUnits="userSpaceOnUse" xlink:href="#linearGradient6056"/><linearGradient id="linearGradient4618" x1="7.038" x2="14.821" y1="20.421" y2="5.341" gradientTransform="matrix(0.9999673,0,0,1,5.0001142,2.9999988)" gradientUnits="userSpaceOnUse" xlink:href="#linearGradient6056"/><linearGradient id="linearGradient4620" x1="16.552" x2="16.552" y1="2.963" y2="7.836" gradientTransform="matrix(0.8639989,0,0,0.9368141,6.94269,3.8797268)" gradientUnits="userSpaceOnUse" xlink:href="#linearGradient6108"/><linearGradient id="linearGradient4622" x1="17.688" x2="18.562" y1="4.528" y2="3.749" gradientTransform="matrix(1.2163875,0,0,1.178548,-0.5401047,3.4223764)" gradientUnits="userSpaceOnUse" xlink:href="#linearGradient6076"/><linearGradient id="linearGradient4624" x1="18.964" x2="14.047" y1="6.505" y2="3.673" gradientTransform="matrix(0.9028403,0,0,0.882395,5.5362628,4.752761)" gradientUnits="userSpaceOnUse" xlink:href="#linearGradient4916"/><linearGradient id="linearGradient4684" x1="16.552" x2="16.552" y1="2.963" y2="7.836" gradientTransform="matrix(0.8639989,0,0,0.9368141,1.19269,10.069304)" gradientUnits="userSpaceOnUse" xlink:href="#linearGradient6108"/><linearGradient id="linearGradient4686" x1="17.688" x2="18.562" y1="4.528" y2="3.749" gradientTransform="matrix(1.2163875,0,0,1.178548,-6.2288437,9.5474344)" gradientUnits="userSpaceOnUse" xlink:href="#linearGradient6076"/><linearGradient id="linearGradient4688" x1="18.964" x2="14.047" y1="6.505" y2="3.673" gradientTransform="matrix(0.9028403,0,0,0.882395,-0.1524762,10.877819)" gradientUnits="userSpaceOnUse" xlink:href="#linearGradient4916"/><linearGradient id="linearGradient4690" x1="7.038" x2="14.821" y1="20.421" y2="5.341" gradientTransform="matrix(0.9999673,0,0,1,5.0001142,2.9999988)" gradientUnits="userSpaceOnUse" xlink:href="#linearGradient6056"/><linearGradient id="linearGradient4692" x1="16.552" x2="16.552" y1="2.963" y2="7.836" gradientTransform="matrix(0.8639989,0,0,0.9368141,6.94269,3.8797268)" gradientUnits="userSpaceOnUse" xlink:href="#linearGradient6108"/><linearGradient id="linearGradient4694" x1="17.688" x2="18.562" y1="4.528" y2="3.749" gradientTransform="matrix(1.2163875,0,0,1.178548,-0.5401047,3.4223764)" gradientUnits="userSpaceOnUse" xlink:href="#linearGradient6076"/><linearGradient id="linearGradient4696" x1="18.964" x2="14.047" y1="6.505" y2="3.673" gradientTransform="matrix(0.9028403,0,0,0.882395,5.5362628,4.752761)" gradientUnits="userSpaceOnUse" xlink:href="#linearGradient4916"/><linearGradient id="linearGradient4702" x1="7.038" x2="14.821" y1="20.421" y2="5.341" gradientTransform="matrix(0.9993514,0,0,0.9499999,-0.9872574,10.074999)" gradientUnits="userSpaceOnUse" xlink:href="#linearGradient6056"/><linearGradient id="linearGradient4710" x1="7.038" x2="14.821" y1="20.421" y2="5.341" gradientTransform="matrix(0.9993514,0,0,0.9499999,-0.9872574,10.074999)" gradientUnits="userSpaceOnUse" xlink:href="#linearGradient6056"/></defs><metadata id="metadata6"/><g id="layer1"><g id="g4704" transform="translate(2,0)"><path style="color:#000;fill:url(#linearGradient4710);fill-opacity:1;fill-rule:evenodd;stroke:#888a85;stroke-width:.99999988;stroke-linecap:butt;stroke-linejoin:miter;marker:none;marker-start:none;marker-mid:none;marker-end:none;stroke-miterlimit:4;stroke-dasharray:none;stroke-dashoffset:0;stroke-opacity:1;visibility:visible;display:inline;overflow:visible;enable-background:accumulate" id="path4706" d="M 3.751042,11.5 L 14.39968,11.5 L 19.122837,16.101293 C 19.374973,16.41174 19.50978,16.722186 19.499447,17.032632 L 19.499447,29.253248 C 19.499447,30.113779 19.164113,30.499999 18.258879,30.499999 L 3.751042,30.499999 C 2.845807,30.499999 2.510472,30.113779 2.510472,29.253248 L 2.510472,12.746749 C 2.510472,11.886219 2.845807,11.5 3.751042,11.5 z"/><path id="path4708" d="M 4.01459,12.5 L 13.99553,12.518272 C 13.99553,12.518272 18.490772,16.691495 18.490772,17.240027 L 18.477601,28.827806 C 18.477601,29.24757 18.330684,29.473283 17.852244,29.473283 L 4.0752326,29.473283 C 3.7821625,29.473283 3.4764231,28.934252 3.4764231,28.621057 L 3.4764231,13.077575 C 3.4764231,12.711778 3.6421328,12.5 4.01459,12.5 z" style="color:#000;fill:none;fill-opacity:1;fill-rule:evenodd;stroke:#fff;stroke-width:1;stroke-linecap:butt;stroke-linejoin:miter;marker:none;marker-start:none;marker-mid:none;marker-end:none;stroke-miterlimit:4;stroke-dasharray:none;stroke-dashoffset:0;stroke-opacity:1;visibility:visible;display:inline;overflow:visible;enable-background:accumulate"/></g><g id="g4698" transform="translate(6,-4)"><path id="rect4899" d="M 3.751042,11.5 L 14.39968,11.5 L 19.122837,16.101293 C 19.374973,16.41174 19.50978,16.722186 19.499447,17.032632 L 19.499447,29.253248 C 19.499447,30.113779 19.164113,30.499999 18.258879,30.499999 L 3.751042,30.499999 C 2.845807,30.499999 2.510472,30.113779 2.510472,29.253248 L 2.510472,12.746749 C 2.510472,11.886219 2.845807,11.5 3.751042,11.5 z" style="color:#000;fill:url(#linearGradient4702);fill-opacity:1;fill-rule:evenodd;stroke:#888a85;stroke-width:.99999988;stroke-linecap:butt;stroke-linejoin:miter;marker:none;marker-start:none;marker-mid:none;marker-end:none;stroke-miterlimit:4;stroke-dasharray:none;stroke-dashoffset:0;stroke-opacity:1;visibility:visible;display:inline;overflow:visible;enable-background:accumulate"/><path style="color:#000;fill:none;fill-opacity:1;fill-rule:evenodd;stroke:#fff;stroke-width:1;stroke-linecap:butt;stroke-linejoin:miter;marker:none;marker-start:none;marker-mid:none;marker-end:none;stroke-miterlimit:4;stroke-dasharray:none;stroke-dashoffset:0;stroke-opacity:1;visibility:visible;display:inline;overflow:visible;enable-background:accumulate" id="path6084" d="M 4.01459,12.5 L 13.99553,12.518272 C 13.99553,12.518272 18.490772,16.691495 18.490772,17.240027 L 18.477601,28.827806 C 18.477601,29.24757 18.330684,29.473283 17.852244,29.473283 L 4.0752326,29.473283 C 3.7821625,29.473283 3.4764231,28.934252 3.4764231,28.621057 L 3.4764231,13.077575 C 3.4764231,12.711778 3.6421328,12.5 4.01459,12.5 z"/></g><g id="g4662" transform="translate(4,-2)"><path style="fill:url(#linearGradient4684);fill-opacity:1;fill-rule:evenodd;stroke:none;stroke-width:1;stroke-linecap:butt;stroke-linejoin:miter;stroke-miterlimit:4;stroke-dasharray:none;stroke-opacity:1" id="path6104" d="M 14.152675,12.514259 L 18.543166,16.643532 L 18.559068,17.563815 L 14.184602,17.563815 L 14.152675,12.514259 z"/><path id="path6074" d="M 18.811261,16.613386 L 13.874595,16.613386 L 13.841551,11.625058" style="fill:url(#linearGradient4686);fill-opacity:1;fill-rule:evenodd;stroke:url(#linearGradient4688);stroke-width:.99999994;stroke-linecap:butt;stroke-linejoin:miter;stroke-miterlimit:4;stroke-dasharray:none;stroke-opacity:1"/><path style="color:#000;fill:url(#linearGradient4690);fill-opacity:1;fill-rule:evenodd;stroke:#888a85;stroke-width:.99999994;stroke-linecap:butt;stroke-linejoin:miter;marker:none;marker-start:none;marker-mid:none;marker-end:none;stroke-miterlimit:4;stroke-dasharray:none;stroke-dashoffset:0;stroke-opacity:1;visibility:visible;display:inline;overflow:visible;enable-background:accumulate" id="path4610" d="M 9.7413341,4.4999998 L 20.396536,4.4999998 L 25.122604,9.3434666 C 25.374895,9.670253 25.509785,9.9970384 25.499446,10.323824 L 25.499446,23.18763 C 25.499446,24.093452 25.163906,24.5 24.258113,24.5 L 9.7413341,24.5 C 8.8355412,24.5 8.4999995,24.093452 8.4999995,23.18763 L 8.4999995,5.812368 C 8.4999995,4.9065462 8.8355412,4.4999998 9.7413341,4.4999998 z"/><path id="path4612" d="M 10.037652,5.4999999 L 20.009054,5.5193798 C 20.009054,5.5193798 24.500001,9.9450405 24.500001,10.526752 L 24.486843,22.81548 C 24.486843,23.260634 24.340064,23.500001 23.862083,23.500001 L 10.098237,23.500001 C 9.8054474,23.500001 9.5000002,22.928365 9.5000002,22.596223 L 9.5000002,6.1125124 C 9.5000002,5.7245895 9.6655515,5.4999999 10.037652,5.4999999 z" style="color:#000;fill:none;fill-opacity:1;fill-rule:evenodd;stroke:#fff;stroke-width:1;stroke-linecap:butt;stroke-linejoin:miter;marker:none;marker-start:none;marker-mid:none;marker-end:none;stroke-miterlimit:4;stroke-dasharray:none;stroke-dashoffset:0;stroke-opacity:1;visibility:visible;display:inline;overflow:visible;enable-background:accumulate"/><path id="path4614" d="M 19.902675,6.324682 L 24.293166,10.453955 L 24.309068,11.374238 L 19.934602,11.374238 L 19.902675,6.324682 z" style="fill:url(#linearGradient4692);fill-opacity:1;fill-rule:evenodd;stroke:none;stroke-width:1;stroke-linecap:butt;stroke-linejoin:miter;stroke-miterlimit:4;stroke-dasharray:none;stroke-opacity:1"/><path style="fill:url(#linearGradient4694);fill-opacity:1;fill-rule:evenodd;stroke:url(#linearGradient4696);stroke-width:.99999994;stroke-linecap:butt;stroke-linejoin:miter;stroke-miterlimit:4;stroke-dasharray:none;stroke-opacity:1" id="path4616" d="M 25.052427,10.488328 L 19.563334,10.488328 L 19.552387,4.7928932"/><g id="g5209" transform="translate(-2.0052356,0.973986)"><g id="g4892" transform="translate(-0.9947644,8.994764)"><rect id="rect4880" width="7" height="7.969" x="18.5" y="3.531" rx=".727" ry=".727" style="opacity:1;fill:#729fcf;fill-opacity:1;stroke:#3465a4;stroke-width:1;stroke-linecap:round;stroke-linejoin:round;stroke-miterlimit:4;stroke-dasharray:none;stroke-opacity:1"/><rect style="opacity:.5;fill:none;fill-opacity:1;stroke:#eeeeec;stroke-width:1;stroke-linecap:round;stroke-linejoin:round;stroke-miterlimit:4;stroke-dasharray:none;stroke-opacity:1" id="rect4890" width="4.985" height="5.969" x="19.5" y="4.516" rx="0" ry="0"/></g><path style="fill:#eeeeec;fill-opacity:1;stroke:none;stroke-width:1;stroke-linecap:round;stroke-linejoin:round;stroke-miterlimit:4;stroke-dasharray:none;stroke-opacity:1" id="path4960" d="M 21.005236,14.994764 C 20.453236,14.994764 20.005235,15.440245 20.005236,15.994764 C 20.005236,16.346195 20.201673,16.627722 20.473986,16.807264 L 19.005236,18.994764 L 23.005236,18.994764 L 21.536486,16.807264 C 21.808799,16.627722 22.005235,16.346195 22.005236,15.994764 C 22.005236,15.440245 21.557235,14.994764 21.005236,14.994764 z"/></g><g style="fill:none;stroke:#babdb6;stroke-width:2.03123236;stroke-linecap:round;stroke-opacity:1" id="g5063" transform="matrix(-0.2423711,0,0,-1,15.189877,25.011224)"><path style="fill:none;fill-rule:evenodd;stroke:#babdb6;stroke-width:2.03123236px;stroke-linecap:round;stroke-linejoin:miter;stroke-opacity:1" id="path5065" d="M 6.9722718,4.5112238 L 14.950602,4.5112238"/><path style="fill:none;fill-rule:evenodd;stroke:#babdb6;stroke-width:2.03123236px;stroke-linecap:round;stroke-linejoin:miter;stroke-opacity:1" id="path5069" d="M 7.0078062,6.5 L 14.96875,6.5"/></g><g id="g4644" transform="matrix(-0.2423711,0,0,-1,15.189877,21.011224)" style="fill:none;stroke:#babdb6;stroke-width:2.03123236;stroke-linecap:round;stroke-opacity:1"><path id="path4646" d="M 6.9722718,4.5112238 L 14.950602,4.5112238" style="fill:none;fill-rule:evenodd;stroke:#babdb6;stroke-width:2.03123236px;stroke-linecap:round;stroke-linejoin:miter;stroke-opacity:1"/><path id="path4648" d="M 7.0078062,6.5 L 14.96875,6.5" style="fill:none;fill-rule:evenodd;stroke:#babdb6;stroke-width:2.03123236px;stroke-linecap:round;stroke-linejoin:miter;stroke-opacity:1"/></g><path id="path4652" d="M 13.5,12.5 L 11.566283,12.5" style="fill:none;fill-rule:evenodd;stroke:#babdb6;stroke-width:1px;stroke-linecap:round;stroke-linejoin:miter;stroke-opacity:1"/><path style="fill:none;fill-rule:evenodd;stroke:#babdb6;stroke-width:.99999994px;stroke-linecap:round;stroke-linejoin:miter;stroke-opacity:1" id="path5051" d="M 17.645333,10.5 L 11.354666,10.5"/><path id="path4658" d="M 17.645333,8.5 L 11.354666,8.5" style="fill:none;fill-rule:evenodd;stroke:#babdb6;stroke-width:.99999994px;stroke-linecap:round;stroke-linejoin:miter;stroke-opacity:1"/></g></g></svg>