<svg xmlns="http://www.w3.org/2000/svg" xmlns:cc="http://web.resource.org/cc/" xmlns:svg="http://www.w3.org/2000/svg" xmlns:xlink="http://www.w3.org/1999/xlink" id="svg2" width="20" height="20" version="1.0"><defs id="defs3"><linearGradient id="linearGradient5148"><stop style="stop-color:#000;stop-opacity:1" id="stop5150" offset="0"/><stop style="stop-color:#000;stop-opacity:0" id="stop5152" offset="1"/></linearGradient><linearGradient id="linearGradient5911"><stop style="stop-color:#fff;stop-opacity:1" id="stop5913" offset="0"/><stop style="stop-color:#fff;stop-opacity:0" id="stop5915" offset="1"/></linearGradient><linearGradient id="linearGradient5954"><stop style="stop-color:#888a85;stop-opacity:1" id="stop5956" offset="0"/><stop style="stop-color:#555753;stop-opacity:1" id="stop5958" offset="1"/></linearGradient><linearGradient id="linearGradient5946"><stop style="stop-color:#fff;stop-opacity:1" id="stop5948" offset="0"/><stop style="stop-color:#fff;stop-opacity:.08108108" id="stop5950" offset="1"/></linearGradient><linearGradient id="linearGradient5952" x1="-5.351" x2="15.384" y1="5.048" y2="27.679" gradientTransform="matrix(0.7639512,-0.7639512,0.7634549,0.7634549,-29.789061,11.470298)" gradientUnits="userSpaceOnUse" xlink:href="#linearGradient5946"/><linearGradient id="linearGradient5960" x1="-4.849" x2="4.013" y1="5.773" y2="25.449" gradientTransform="matrix(0.7639512,-0.7639512,0.7634549,0.7634549,-29.784139,11.470299)" gradientUnits="userSpaceOnUse" xlink:href="#linearGradient5954"/><linearGradient id="linearGradient4919" x1="-4.849" x2="4.013" y1="5.773" y2="25.449" gradientTransform="matrix(0.5807401,-0.8473808,0.5803628,0.8468302,-20.42943,12.693351)" gradientUnits="userSpaceOnUse" xlink:href="#linearGradient5954"/><linearGradient id="linearGradient4923" x1="-4.849" x2="4.013" y1="5.773" y2="25.449" gradientTransform="matrix(0.5807401,-0.8473808,0.5803628,0.8468302,-20.429431,-11.306649)" gradientUnits="userSpaceOnUse" xlink:href="#linearGradient5954"/><linearGradient id="linearGradient5906" x1="-4.849" x2="4.013" y1="5.773" y2="25.449" gradientTransform="matrix(0.5807401,-0.8473808,0.5803628,0.8468302,-20.42943,12.693351)" gradientUnits="userSpaceOnUse" xlink:href="#linearGradient5954"/><linearGradient id="linearGradient5917" x1="15.593" x2="15.646" y1=".317" y2="34.769" gradientTransform="matrix(0.8188157,0,0,0.8190719,0.1042719,0.1038357)" gradientUnits="userSpaceOnUse" xlink:href="#linearGradient5911"/><radialGradient id="radialGradient5142" cx="12.376" cy="6.733" r="10" fx="12.376" fy="6.733" gradientTransform="matrix(1.4048905,0,0,1.40533,-7.1233413,-4.2044006)" gradientUnits="userSpaceOnUse" xlink:href="#linearGradient5954"/><radialGradient id="radialGradient5154" cx="12.25" cy="19.188" r="9" fx="12.25" fy="19.188" gradientTransform="matrix(1,0,0,0.4236111,0,11.059462)" gradientUnits="userSpaceOnUse" xlink:href="#linearGradient5148"/><filter id="filter5280" width="1.442" height="2.043" x="-.221" y="-.521"><feGaussianBlur id="feGaussianBlur5282" stdDeviation="1.657"/></filter></defs><metadata id="metadata6"/><g id="layer1"><path style="opacity:1;color:#000;fill:url(#radialGradient5142);fill-opacity:1;fill-rule:evenodd;stroke:#2e3436;stroke-width:.99999988px;stroke-linecap:butt;stroke-linejoin:miter;marker:none;marker-start:none;marker-mid:none;marker-end:none;stroke-miterlimit:4;stroke-dasharray:none;stroke-dashoffset:0;stroke-opacity:1;visibility:visible;display:inline;overflow:visible;enable-background:accumulate" id="rect4917" d="M 16.675005,1.9004863 C 16.14119,1.3665051 15.281692,1.3665051 14.747878,1.9004863 L 9.9300585,6.7198124 L 5.1122399,1.9004863 C 4.5784256,1.3665051 3.7189266,1.3665051 3.1851124,1.9004863 L 1.9003606,3.18564 C 1.3665464,3.7196212 1.3665464,4.5793891 1.9003606,5.1133703 L 6.7181795,9.9326964 L 1.9003606,14.752023 C 1.3665464,15.286005 1.3665464,16.145771 1.9003606,16.679752 L 3.1851124,17.964907 C 3.7189266,18.498887 4.5784256,18.498887 5.1122399,17.964907 L 9.9300585,13.145581 L 14.747878,17.964907 C 15.281692,18.498887 16.14119,18.498887 16.675005,17.964907 L 17.959758,16.679752 C 18.493571,16.145771 18.493571,15.286005 17.959758,14.752023 L 13.141939,9.9326964 L 17.959758,5.1133703 C 18.493571,4.5793891 18.493571,3.7196212 17.959758,3.18564 L 16.675005,1.9004863 z"/><path style="opacity:.41954023;color:#000;fill:none;fill-opacity:1;fill-rule:evenodd;stroke:url(#linearGradient5917);stroke-width:.99999976px;stroke-linecap:butt;stroke-linejoin:miter;marker:none;marker-start:none;marker-mid:none;marker-end:none;stroke-miterlimit:4;stroke-dasharray:none;stroke-dashoffset:0;stroke-opacity:1;visibility:visible;display:inline;overflow:visible;enable-background:accumulate" id="rect4927" d="M 16.15457,2.650005 C 15.938594,2.4339622 15.592567,2.433962 15.376591,2.650005 L 9.9857042,7.9312516 L 4.5390214,2.6498534 C 4.2579647,2.3687088 3.8198195,2.5356985 3.5387633,2.8168426 L 2.7607848,3.5950646 C 2.4797279,3.8762092 2.2840479,4.2300759 2.7051391,4.6512987 L 7.9848855,9.9326974 L 2.7052906,15.213944 C 2.4893153,15.429986 2.4893153,15.943112 2.7052906,16.159155 L 3.7055486,17.159725 C 3.921524,17.375771 4.4344886,17.431434 4.6504644,17.215389 L 9.9300594,11.878479 L 15.26545,17.104215 C 15.546508,17.385359 15.984654,17.385359 16.265709,17.104215 L 17.043689,16.325991 C 17.324745,16.044847 17.324745,15.606566 17.043689,15.32542 L 11.930879,9.9326974 L 17.210473,4.4844611 C 17.426451,4.2684183 17.370805,3.8666189 17.154828,3.6505759 L 16.15457,2.650005 z"/><path style="opacity:.41954023;color:#000;fill:url(#radialGradient5154);fill-opacity:1;fill-rule:evenodd;stroke:none;stroke-width:1;stroke-linecap:butt;stroke-linejoin:miter;marker:none;marker-start:none;marker-mid:none;marker-end:none;stroke-miterlimit:10;stroke-dasharray:none;stroke-dashoffset:0;stroke-opacity:1;visibility:visible;display:inline;overflow:visible;filter:url(#filter5280);enable-background:accumulate" id="path5146" d="M 21.25,19.1875 A 9,3.8125 0 1 1 3.25,19.1875 A 9,3.8125 0 1 1 21.25,19.1875 z" transform="matrix(0.8873747,0,0,0.5966187,-0.7184367,5.9746406)"/></g></svg>