<svg xmlns="http://www.w3.org/2000/svg" xmlns:cc="http://web.resource.org/cc/" xmlns:svg="http://www.w3.org/2000/svg" xmlns:xlink="http://www.w3.org/1999/xlink" id="svg4908" width="24" height="24" version="1.0"><defs id="defs4910"><linearGradient id="linearGradient5964"><stop style="stop-color:#000;stop-opacity:1" id="stop5966" offset="0"/><stop style="stop-color:#000;stop-opacity:0" id="stop5968" offset="1"/></linearGradient><linearGradient id="linearGradient5950"><stop style="stop-color:#e0e1de;stop-opacity:1" id="stop5952" offset="0"/><stop style="stop-color:#777c70;stop-opacity:1" id="stop5954" offset="1"/></linearGradient><linearGradient id="linearGradient5940"><stop style="stop-color:#346703;stop-opacity:1" id="stop5942" offset="0"/><stop style="stop-color:#fff;stop-opacity:1" id="stop5944" offset="1"/></linearGradient><linearGradient id="linearGradient5186" x1="-.198" x2="-.198" y1="-1.342" y2="8.926" gradientTransform="matrix(0.9064327,0,0,0.9064327,0.1685912,1.187142)" gradientUnits="userSpaceOnUse" xlink:href="#linearGradient6128"/><linearGradient id="linearGradient5184" x1="6.689" x2="7.5" y1="6.14" y2="11.645" gradientUnits="userSpaceOnUse" xlink:href="#linearGradient5033"/><linearGradient id="linearGradient6134" x1="-.198" x2="-.198" y1="-1.342" y2="8.926" gradientTransform="matrix(0.9064327,0,0,0.9064327,0.1685912,1.187142)" gradientUnits="userSpaceOnUse" xlink:href="#linearGradient6128"/><linearGradient id="linearGradient6128"><stop id="stop6130" offset="0" style="stop-color:#fff;stop-opacity:1"/><stop id="stop6132" offset="1" style="stop-color:#fff;stop-opacity:0"/></linearGradient><linearGradient id="linearGradient4926" x1="6.689" x2="7.5" y1="6.14" y2="11.645" gradientUnits="userSpaceOnUse" xlink:href="#linearGradient5033"/><linearGradient id="linearGradient5033"><stop style="stop-color:#8ae234;stop-opacity:1" id="stop5035" offset="0"/><stop style="stop-color:#4e9a06;stop-opacity:1" id="stop5037" offset="1"/></linearGradient><linearGradient id="linearGradient5934" x1="-.198" x2="-.198" y1="-1.342" y2="8.926" gradientTransform="matrix(-0.9064327,0,0,0.9064327,15.831409,1.187142)" gradientUnits="userSpaceOnUse" xlink:href="#linearGradient6128"/><linearGradient id="linearGradient5946" x1="32.9" x2="32.9" y1="20.085" y2="9.282" gradientTransform="translate(-17,0)" gradientUnits="userSpaceOnUse" xlink:href="#linearGradient5940"/><linearGradient id="linearGradient5956" x1="8.462" x2="15.305" y1="13.076" y2="13.076" gradientUnits="userSpaceOnUse" xlink:href="#linearGradient5950"/><linearGradient id="linearGradient5970" x1="12.191" x2="12.191" y1="1.723" y2="6.279" gradientUnits="userSpaceOnUse" xlink:href="#linearGradient5964"/></defs><metadata id="metadata4913"/><g id="layer1"><rect style="opacity:1;fill:url(#linearGradient5946);fill-opacity:1;stroke:#2e3436;stroke-width:1.00000012;stroke-linecap:round;stroke-linejoin:miter;stroke-miterlimit:4;stroke-dasharray:none;stroke-dashoffset:0;stroke-opacity:1" id="rect4923" width="15" height="21" x="7.5" y="1.5" rx="0" ry="0"/><path style="fill:url(#linearGradient5956);fill-opacity:1;fill-rule:evenodd;stroke:none;stroke-width:1px;stroke-linecap:butt;stroke-linejoin:miter;stroke-opacity:1" id="path5948" d="M 9.0000001,22 L 17,18 L 17,1.9999999 L 8.0000001,1.9999999 L 8.0000001,22 L 9.0000001,22 z"/><rect style="opacity:.20108696;fill:none;fill-opacity:1;stroke:#fff;stroke-width:.99999994;stroke-linecap:round;stroke-linejoin:miter;stroke-miterlimit:4;stroke-dasharray:none;stroke-dashoffset:0;stroke-opacity:1" id="rect4937" width="13.063" height="19" x="8.438" y="2.5"/><g id="g5927" transform="translate(-3,3.96875)"><path id="path4911" d="M 8.434912,1.625 L 14.466162,7.65625 L 8.434912,13.53125 L 8.434912,10.59375 L 3.5,10.59375 L 3.5,4.59375 L 8.434912,4.59375 L 8.434912,1.625 z" style="fill:#c00;fill-opacity:1;fill-rule:evenodd;stroke:#820000;stroke-width:1px;stroke-linecap:butt;stroke-linejoin:miter;stroke-opacity:1"/><path style="fill:none;fill-opacity:1;fill-rule:evenodd;stroke:#fff;stroke-width:1px;stroke-linecap:butt;stroke-linejoin:miter;stroke-opacity:.36486487" id="path6121" d="M 6.53125,3.918572 L 2.9459251,7.5625 L 6.53125,11.149272 L 6.53125,9.5631469 L 11.466162,9.5631469 L 11.466162,5.5631469 L 6.53125,5.5631469 L 6.53125,3.918572 z" transform="matrix(-1,0,0,1,16,0)"/><path id="path6123" d="M 2.970521,6.852347 C 4.0432459,7.28188 5.2947036,7.978097 6.9668368,7.978097 C 9.4060473,7.978097 11.33867,8.037335 11.837111,7.028253 L 12.013017,5.0135023 L 6.9951628,5.0135023 L 6.9951628,2.8737141 L 2.970521,6.852347 z" transform="matrix(-1,0,0,1,16,0)" style="color:#000;fill:url(#linearGradient5934);fill-opacity:1;fill-rule:nonzero;stroke:none;stroke-width:1;stroke-linecap:butt;stroke-linejoin:miter;marker:none;marker-start:none;marker-mid:none;marker-end:none;stroke-miterlimit:4;stroke-dasharray:none;stroke-dashoffset:0;stroke-opacity:.36486487;visibility:visible;display:inline;overflow:visible;enable-background:accumulate"/></g><path style="opacity:1;fill:#2e3436;fill-opacity:1;stroke:none;stroke-width:1;stroke-linecap:round;stroke-linejoin:miter;stroke-miterlimit:4;stroke-dasharray:none;stroke-dashoffset:0;stroke-opacity:1" id="path5960" d="M 15.786731 10.833866 A 1.0103508 1.4208058 0 1 1 13.76603,10.833866 A 1.0103508 1.4208058 0 1 1 15.786731 10.833866 z" transform="matrix(1.4846326,0,0,1.0557388,-7.4374962,-0.9377326)"/><rect style="opacity:.39673913;fill:url(#linearGradient5970);fill-opacity:1;stroke:none;stroke-width:1;stroke-linecap:round;stroke-linejoin:miter;stroke-miterlimit:4;stroke-dasharray:none;stroke-dashoffset:0;stroke-opacity:1" id="rect5962" width="9" height="5" x="8" y="2"/><path style="fill:none;fill-rule:evenodd;stroke:#2e3436;stroke-width:1px;stroke-linecap:butt;stroke-linejoin:miter;stroke-opacity:1" id="path5972" d="M 7.875,22 L 17.5,17.226294 L 17.5,1.5"/></g></svg>