<svg xmlns="http://www.w3.org/2000/svg" xmlns:cc="http://web.resource.org/cc/" xmlns:svg="http://www.w3.org/2000/svg" xmlns:xlink="http://www.w3.org/1999/xlink" id="svg2" width="24" height="24" version="1.0"><defs id="defs3"><linearGradient id="linearGradient5875"><stop style="stop-color:#000;stop-opacity:1" id="stop5877" offset="0"/><stop style="stop-color:#000;stop-opacity:0" id="stop5879" offset="1"/></linearGradient><linearGradient id="linearGradient5870"><stop style="stop-color:#a9c4e2;stop-opacity:1" id="stop5872" offset="0"/><stop id="stop5138" offset=".693" style="stop-opacity:1;stop-color:#578cc6"/><stop style="stop-color:#729fcf;stop-opacity:1" id="stop5874" offset="1"/></linearGradient><radialGradient id="radialGradient5881" cx="11.78" cy="20.024" r="10.739" fx="11.78" fy="20.024" gradientTransform="matrix(1,0,0,0.2802768,0,14.411618)" gradientUnits="userSpaceOnUse" xlink:href="#linearGradient5875"/><radialGradient id="radialGradient5128" cx="7.961" cy="5.031" r="8.029" fx="7.961" fy="5.031" gradientTransform="matrix(1.1782061,0,0,1.1782061,-1.4186251,-0.8966007)" gradientUnits="userSpaceOnUse" xlink:href="#linearGradient5870"/></defs><metadata id="metadata6"/><g id="layer1"><path style="opacity:.59825328;color:#000;fill:url(#radialGradient5881);fill-opacity:1;fill-rule:evenodd;stroke:none;stroke-width:.99999982px;stroke-linecap:butt;stroke-linejoin:miter;marker:none;marker-start:none;marker-mid:none;marker-end:none;stroke-miterlimit:4;stroke-dasharray:none;stroke-dashoffset:0;stroke-opacity:.27927928;visibility:visible;display:inline;overflow:visible;enable-background:accumulate" id="path4904" d="M 22.519216 20.023834 A 10.739362 3.009994 0 1 1 1.0404921,20.023834 A 10.739362 3.009994 0 1 1 22.519216 20.023834 z" transform="matrix(1.0242694,0,0,1.162793,-6.5744212e-2,-2.7835742)"/><path style="opacity:1;color:#000;fill:url(#radialGradient5128);fill-opacity:1;fill-rule:evenodd;stroke:#3465a4;stroke-width:.73173153000000002px;stroke-linecap:butt;stroke-linejoin:miter;marker:none;marker-start:none;marker-mid:none;marker-end:none;stroke-miterlimit:4;stroke-dasharray:none;stroke-dashoffset:0;stroke-opacity:1;visibility:visible;display:inline;overflow:visible;enable-background:accumulate" id="path4899" d="M 15.623893 8.0063801 A 7.6633048 7.6633048 0 1 1 0.29728317,8.0063801 A 7.6633048 7.6633048 0 1 1 15.623893 8.0063801 z" transform="matrix(1.366621,0,0,1.366621,1.1342183,1.0716378)"/><path id="path5878" d="M 15.623893 8.0063801 A 7.6633048 7.6633048 0 1 1 0.29728317,8.0063801 A 7.6633048 7.6633048 0 1 1 15.623893 8.0063801 z" transform="matrix(1.2379353,0,0,1.2379353,2.1586324,2.1019447)" style="opacity:1;color:#000;fill:none;fill-opacity:1;fill-rule:evenodd;stroke:#fff;stroke-width:.80779648px;stroke-linecap:butt;stroke-linejoin:miter;marker:none;marker-start:none;marker-mid:none;marker-end:none;stroke-miterlimit:4;stroke-dasharray:none;stroke-dashoffset:0;stroke-opacity:.27927928;visibility:visible;display:inline;overflow:visible;enable-background:accumulate"/><path style="font-size:13.58991337px;font-style:normal;font-variant:normal;font-weight:700;font-stretch:normal;text-align:start;line-height:125%;writing-mode:lr-tb;text-anchor:start;fill:#fff;fill-opacity:1;stroke:none;stroke-width:1px;stroke-linecap:butt;stroke-linejoin:miter;stroke-opacity:1;font-family:Bitstream Vera Serif" id="text5882" d="M 14.067935,18.362499 L 14.067935,19 L 10.033814,19 L 10.033814,18.362499 L 10.99991,17.95847 L 10.99991,10.979699 L 10.064324,10.979699 L 10.064324,10.07176 L 13.026054,9.0312681 L 13.026054,18.002664"/><path style="opacity:1;color:#000;fill:#fff;fill-opacity:1;fill-rule:evenodd;stroke:none;stroke-width:1;stroke-linecap:round;stroke-linejoin:round;marker:none;marker-start:none;marker-mid:none;marker-end:none;stroke-miterlimit:10;stroke-dasharray:none;stroke-dashoffset:0;stroke-opacity:1;visibility:visible;display:inline;overflow:visible;enable-background:accumulate" id="path5140" d="M 13,6.7855148 A 1.2144853,1.2144853 0 1 1 10.57103,6.7855148 A 1.2144853,1.2144853 0 1 1 13,6.7855148 z" transform="matrix(0.8233942,0,0,0.8233942,2.2958754,1.4128465)"/></g></svg>