<svg xmlns="http://www.w3.org/2000/svg" xmlns:cc="http://web.resource.org/cc/" xmlns:svg="http://www.w3.org/2000/svg" xmlns:xlink="http://www.w3.org/1999/xlink" id="svg2" width="24" height="24" version="1.0"><defs id="defs4"><linearGradient id="linearGradient8286"><stop style="stop-color:#000;stop-opacity:1" id="stop8288" offset="0"/><stop style="stop-color:#000;stop-opacity:0" id="stop8290" offset="1"/></linearGradient><linearGradient id="linearGradient3695"><stop style="stop-color:#c8cec3;stop-opacity:1" id="stop3697" offset="0"/><stop style="stop-color:white;stop-opacity:1" id="stop3699" offset="1"/></linearGradient><linearGradient id="linearGradient2826"><stop style="stop-color:#2e3436;stop-opacity:1" id="stop2828" offset="0"/><stop style="stop-color:#555753;stop-opacity:1" id="stop2830" offset="1"/></linearGradient><linearGradient id="linearGradient2792"><stop style="stop-color:white;stop-opacity:1" id="stop2794" offset="0"/><stop style="stop-color:#d3d7cf;stop-opacity:1" id="stop2796" offset="1"/></linearGradient><linearGradient id="linearGradient2778"><stop style="stop-color:#d3d7cf;stop-opacity:1" id="stop2780" offset="0"/><stop style="stop-color:#555753;stop-opacity:1" id="stop2782" offset="1"/></linearGradient><linearGradient id="linearGradient2842"><stop id="stop2844" offset="0" style="stop-color:#2e3436;stop-opacity:1"/><stop id="stop2846" offset="1" style="stop-color:#555753;stop-opacity:1"/></linearGradient><radialGradient id="radialGradient6025" cx="11.535" cy="19.658" r="11.004" fx="11.535" fy="19.658" gradientTransform="matrix(1,0,0,0.2610442,0,14.526179)" gradientUnits="userSpaceOnUse" xlink:href="#linearGradient8286"/><radialGradient id="radialGradient6027" cx="7.731" cy="6.922" r="13.979" fx="7.731" fy="6.922" gradientTransform="matrix(2.751922,0,-2.346071e-6,2.195752,-13.95005,-8.420339)" gradientUnits="userSpaceOnUse" xlink:href="#linearGradient2778"/><linearGradient id="linearGradient6029" x1="1.335" x2="1.105" y1="21.247" y2="9.273" gradientUnits="userSpaceOnUse" xlink:href="#linearGradient2826"/><radialGradient id="radialGradient6031" cx="16.962" cy="23.891" r="14.065" fx="16.962" fy="23.891" gradientTransform="matrix(2.57113,1.6738e-6,0,2.461325,-24.47562,-35.11938)" gradientUnits="userSpaceOnUse" xlink:href="#linearGradient2792"/><linearGradient id="linearGradient6033" x1="6.764" x2="31.357" y1="6.689" y2="40.582" gradientUnits="userSpaceOnUse" xlink:href="#linearGradient2842"/><linearGradient id="linearGradient6035" x1="12.41" x2="13.173" y1="6.938" y2="14.292" gradientUnits="userSpaceOnUse" xlink:href="#linearGradient3695"/></defs><metadata id="metadata7"/><g id="layer1"><g id="g6010" transform="translate(1,1)"><path id="path8284" d="M 22.539029 19.657709 A 11.00435 2.8726213 0 1 1 0.5303297,19.657709 A 11.00435 2.8726213 0 1 1 22.539029 19.657709 z" transform="matrix(0.9541682,0,0,1.2183991,0.4939762,-5.4509352)" style="opacity:.6;fill:url(#radialGradient6025);fill-opacity:1;fill-rule:evenodd;stroke:none;stroke-width:1;stroke-linecap:round;stroke-linejoin:miter;stroke-miterlimit:4;stroke-dasharray:none;stroke-dashoffset:.69999992;stroke-opacity:1"/><path id="path7121" d="M 29.256543 17.018175 A 13.479223 13.479223 0 1 1 2.2980967,17.018175 A 13.479223 13.479223 0 1 1 29.256543 17.018175 z" transform="matrix(0.741882,0,0,0.741882,-0.20492,-2.12547)" style="fill:url(#radialGradient6027);fill-opacity:1;stroke:url(#linearGradient6029);stroke-width:1.34792328;stroke-linecap:round;stroke-linejoin:miter;stroke-miterlimit:4;stroke-dasharray:none;stroke-opacity:1"/><path id="path7123" d="M 29.256543 17.018175 A 13.479223 13.479223 0 1 1 2.2980967,17.018175 A 13.479223 13.479223 0 1 1 29.256543 17.018175 z" transform="matrix(0.591114,0,0,0.593506,2.14156,0.399624)" style="fill:url(#radialGradient6031);fill-opacity:1;stroke:url(#linearGradient6033);stroke-width:1.6883086;stroke-linecap:round;stroke-linejoin:miter;stroke-miterlimit:4;stroke-dasharray:none;stroke-opacity:1"/><path id="path7125" d="M 17.5625 10.75 A 3.5625 4.3125 0 1 1 10.4375,10.75 A 3.5625 4.3125 0 1 1 17.5625 10.75 z" transform="matrix(1.964913,0,0,1.623188,-16.008783,-6.949255)" style="fill:none;fill-opacity:1;stroke:url(#linearGradient6035);stroke-width:.55994314;stroke-linecap:round;stroke-linejoin:miter;stroke-miterlimit:4;stroke-dasharray:none;stroke-opacity:1"/><path id="path2793" d="M 16.999997,6.000015 L 11.437497,10.625015 L 8.999997,9.000015 L 10.656247,11.500015 L 8.999997,14.000015 L 11.468747,12.343765 L 14.999997,15.000015 L 12.406247,11.531265 L 16.999997,6.000015 z" style="opacity:.2;fill:#000;fill-opacity:1;fill-rule:evenodd;stroke:none;stroke-width:1px;stroke-linecap:butt;stroke-linejoin:miter;stroke-opacity:1"/><path id="path2800" d="M 10.999997,10.000015 L 16.98983,4.9870381 L 11.999997,11.000015 L 8.999997,13.000015 L 10.999997,10.000015 z" style="fill:#000;fill-opacity:1;fill-rule:evenodd;stroke:none;stroke-width:1px;stroke-linecap:butt;stroke-linejoin:miter;stroke-opacity:1"/><path id="path2802" d="M 10.999997,11.000015 L 15.006065,14.006504 L 11.999997,10.000015 L 8.999997,8.000015 L 10.999997,11.000015 z" style="fill:#000;fill-opacity:1;fill-rule:evenodd;stroke:none;stroke-width:1px;stroke-linecap:butt;stroke-linejoin:miter;stroke-opacity:1"/><rect id="rect7130" width="1" height="1" x="11" y="10" style="fill:#fff;fill-opacity:1;stroke:none;stroke-width:3;stroke-linecap:round;stroke-linejoin:round;stroke-miterlimit:4;stroke-dasharray:none;stroke-dashoffset:1.20000057;stroke-opacity:1"/><g id="g7298" transform="translate(0,1)"><path style="fill:#8ae234;fill-opacity:1;fill-rule:evenodd;stroke:#4e9a06;stroke-width:1;stroke-linecap:butt;stroke-linejoin:round;stroke-miterlimit:4;stroke-dasharray:none;stroke-opacity:1" id="path7245" d="M 8.5,5.5 C 10,5.5 10,3.5 8.5,3.5 C 6,3.5 3,4.5 2.5,8.5 L 0.5,8.5 L 0.5,9.5 L 4.5,13.5 L 8.5,9.5 L 8.5,8.5 L 6.5,8.5 C 6.5,6 7,5.5 8.5,5.5 z"/><g id="g7247" transform="translate(0,-1)" style="opacity:.6"><path id="path7249" d="M 8.5,5.5 C 7.3817747,5.5 6.2125908,5.7124394 5.3125,6.3125 C 4.4124092,6.9125606 3.6898326,7.8563396 3.46875,9.625 C 3.411765,10.118753 2.9969865,10.493392 2.5,10.5 L 1.875,10.5 L 4.5,13.125 L 7.125,10.5 L 6.5,10.5 C 6.2338333,10.50314 5.977651,10.398792 5.7894296,10.21057 C 5.6012083,10.022349 5.4968601,9.7661667 5.5,9.5 C 5.5,8.1841126 5.5744422,7.2707809 6.125,6.5 C 6.4002789,6.1146095 6.8330807,5.8264731 7.25,5.6875 C 7.6669193,5.5485269 8.0700939,5.5 8.5,5.5 z" style="fill:none;fill-opacity:1;fill-rule:evenodd;stroke:#fff;stroke-width:1;stroke-linecap:round;stroke-linejoin:miter;stroke-miterlimit:4;stroke-dasharray:none;stroke-opacity:1"/><path id="path7251" d="M 9 5.5 A 0.5 0.5 0 1 1 8,5.5 A 0.5 0.5 0 1 1 9 5.5 z" transform="matrix(1.1436311,0,0,1,-1.1490485,0)" style="opacity:1;fill:#fff;fill-opacity:1;fill-rule:evenodd;stroke:none;stroke-width:1;stroke-linecap:round;stroke-linejoin:miter;stroke-miterlimit:4;stroke-dasharray:none;stroke-dashoffset:.69999992;stroke-opacity:1"/></g></g></g></g></svg>