<svg xmlns="http://www.w3.org/2000/svg" xmlns:cc="http://web.resource.org/cc/" xmlns:svg="http://www.w3.org/2000/svg" xmlns:xlink="http://www.w3.org/1999/xlink" id="svg2" width="24" height="24" version="1.0"><defs id="defs3"><linearGradient id="linearGradient5207"><stop id="stop5211" offset="0" style="stop-color:#000;stop-opacity:0"/><stop style="stop-color:#000;stop-opacity:0" id="stop5219" offset=".656"/><stop id="stop5209" offset="1" style="stop-color:#000;stop-opacity:1"/></linearGradient><linearGradient id="linearGradient7236"><stop id="stop7238" offset="0" style="stop-color:#555753;stop-opacity:1"/><stop id="stop7240" offset="1" style="stop-color:#babdb6;stop-opacity:1"/></linearGradient><linearGradient id="linearGradient7228"><stop style="stop-color:#2e3436;stop-opacity:1" id="stop7230" offset="0"/><stop style="stop-color:#2e3436;stop-opacity:1" id="stop7232" offset="1"/></linearGradient><linearGradient id="linearGradient7215"><stop style="stop-color:#000;stop-opacity:1" id="stop7217" offset="0"/><stop style="stop-color:#000;stop-opacity:0" id="stop7219" offset="1"/></linearGradient><linearGradient id="linearGradient7052"><stop id="stop7056" offset="0" style="stop-color:#eeeeec;stop-opacity:1"/><stop id="stop7054" offset="1" style="stop-color:#fff;stop-opacity:1"/></linearGradient><linearGradient id="linearGradient7044"><stop style="stop-color:#fff;stop-opacity:1" id="stop7046" offset="0"/><stop style="stop-color:#fff;stop-opacity:0" id="stop7048" offset="1"/></linearGradient><linearGradient id="linearGradient7036"><stop style="stop-color:#729fcf;stop-opacity:1" id="stop7038" offset="0"/><stop style="stop-color:#d3d7cf;stop-opacity:0" id="stop7040" offset="1"/></linearGradient><radialGradient id="radialGradient7221" cx="11.314" cy="19.348" r="8.706" fx="11.314" fy="19.348" gradientTransform="matrix(1,0,0,0.2639594,0,14.24117)" gradientUnits="userSpaceOnUse" xlink:href="#linearGradient7215"/><radialGradient id="radialGradient7225" cx="11.314" cy="19.348" r="8.706" fx="11.314" fy="19.348" gradientTransform="matrix(1,0,0,0.2639594,0,14.24117)" gradientUnits="userSpaceOnUse" xlink:href="#linearGradient7215"/><linearGradient id="linearGradient6078" x1="16.064" x2="17.143" y1="16.454" y2="15.375" gradientTransform="translate(0,2)" gradientUnits="userSpaceOnUse" xlink:href="#linearGradient7236"/><linearGradient id="linearGradient6080" x1="17.813" x2="12.125" y1="20.031" y2="14.031" gradientTransform="translate(0,1)" gradientUnits="userSpaceOnUse" xlink:href="#linearGradient7228"/><linearGradient id="linearGradient6091" x1="5.984" x2="5.567" y1="3.534" y2="6.12" gradientTransform="matrix(1.1797838,-0.6811485,0.736651,1.275917,-2.7197891,5.7695159)" gradientUnits="userSpaceOnUse" xlink:href="#linearGradient7044"/><linearGradient id="linearGradient6094" x1="9.318" x2="10.858" y1="1.035" y2="14.251" gradientUnits="userSpaceOnUse" xlink:href="#linearGradient7036"/><linearGradient id="linearGradient6096" x1="11.856" x2="5.777" y1="10.625" y2="2.975" gradientUnits="userSpaceOnUse" xlink:href="#linearGradient7052"/><radialGradient id="radialGradient5213" cx="8.641" cy="7.734" r="4.925" fx="8.641" fy="7.734" gradientUnits="userSpaceOnUse" xlink:href="#linearGradient5207"/><radialGradient id="radialGradient5613" cx="11.314" cy="19.348" r="8.706" fx="11.314" fy="19.348" gradientTransform="matrix(1,0,0,0.2639594,0,14.24117)" gradientUnits="userSpaceOnUse" xlink:href="#linearGradient7215"/></defs><metadata id="metadata6"/><g id="layer1"><path style="opacity:.09638554;fill:url(#radialGradient7225);fill-opacity:1;stroke:none;stroke-width:1;stroke-linecap:round;stroke-linejoin:round;stroke-miterlimit:4;stroke-dasharray:none;stroke-opacity:1" id="path7223" d="M 20.01996,19.348349 A 8.7062521,2.2980971 0 1 1 2.6074562,19.348349 A 8.7062521,2.2980971 0 1 1 20.01996,19.348349 z" transform="matrix(1.1665468,0,0,1.3091037,-0.85422,-4.8381486)"/><path style="fill:#babdb6;fill-opacity:1;fill-rule:evenodd;stroke:#888a85;stroke-width:2;stroke-linecap:round;stroke-linejoin:miter;stroke-miterlimit:4;stroke-dasharray:none;stroke-opacity:1" id="path7002" d="M 14,15 L 13,14"/><path style="opacity:.09638554;fill:url(#radialGradient7221);fill-opacity:1;stroke:none;stroke-width:1;stroke-linecap:round;stroke-linejoin:round;stroke-miterlimit:4;stroke-dasharray:none;stroke-opacity:1" id="path7195" d="M 20.01996,19.348349 A 8.7062521,2.2980971 0 1 1 2.6074562,19.348349 A 8.7062521,2.2980971 0 1 1 20.01996,19.348349 z" transform="matrix(0.5922469,0,0,0.73032,10.643242,7.2353608)"/><path style="fill:none;fill-opacity:1;stroke:#888a85;stroke-width:.69546968;stroke-linecap:round;stroke-linejoin:round;stroke-miterlimit:4;stroke-dasharray:none;stroke-opacity:1" id="path6025" d="M 13.15625,7.734375 A 4.515625,4.515625 0 1 1 4.125,7.734375 A 4.515625,4.515625 0 1 1 13.15625,7.734375 z" transform="matrix(1.4400755,0,0,1.4356823,-4.4459933,-2.1211024)"/><path style="fill:#d3d7cf;fill-rule:evenodd;stroke:#eeeeec;stroke-width:1px;stroke-linecap:round;stroke-linejoin:miter;stroke-opacity:1" id="path7004" d="M 13,14 L 14,15"/><path style="fill:url(#linearGradient6078);fill-opacity:1;fill-rule:evenodd;stroke:url(#linearGradient6080);stroke-width:1;stroke-linecap:round;stroke-linejoin:miter;stroke-miterlimit:4;stroke-dasharray:none;stroke-opacity:1" id="path6996" d="M 14.637323,14.533466 C 14.120841,14.62747 13.701774,15.006431 13.555149,15.512077 C 13.408525,16.017724 13.559566,16.563071 13.945189,16.920351 L 18.097994,21.086552 C 18.647487,21.637816 19.538388,21.637816 20.08788,21.086552 C 20.637373,20.535287 20.637373,19.641512 20.08788,19.090247 L 15.935075,14.924047 C 15.599889,14.575877 15.108195,14.427892 14.637323,14.533466 L 14.637323,14.533466 z"/><path style="fill:url(#linearGradient6094);fill-opacity:1;stroke:url(#linearGradient6096);stroke-width:.81935549;stroke-linecap:round;stroke-linejoin:round;stroke-miterlimit:4;stroke-dasharray:none;stroke-opacity:1" id="path7006" d="M 13.15625,7.734375 A 4.515625,4.515625 0 1 1 4.125,7.734375 A 4.515625,4.515625 0 1 1 13.15625,7.734375 z" transform="matrix(1.2190258,0,0,1.2219189,-2.5359864,-0.4330514)"/><path style="fill:url(#linearGradient6091);fill-opacity:1;stroke:none;stroke-width:2;stroke-linecap:round;stroke-linejoin:round;stroke-miterlimit:4;stroke-opacity:1" id="path7008" d="M 10.480148,6.4951521 C 11.159985,7.672664 10.062871,6.5569962 7.4412165,8.0706092 C 4.8197588,9.5841085 5.224198,11.099692 4.5443611,9.9221804 C 3.8645244,8.7446686 4.6423891,7.0213524 6.2806665,6.0754925 C 7.9189438,5.1296327 9.8003115,5.3176403 10.480148,6.4951521 z"/><path id="path4626" d="M 13.15625,7.734375 A 4.515625,4.515625 0 1 1 4.125,7.734375 A 4.515625,4.515625 0 1 1 13.15625,7.734375 z" transform="matrix(1.2190258,0,0,1.2219189,-2.5359864,-0.4330514)" style="fill:url(#radialGradient5213);fill-opacity:1;stroke:url(#linearGradient6096);stroke-width:.81935548999999985;stroke-linecap:round;stroke-linejoin:round;stroke-miterlimit:4;stroke-dasharray:none;stroke-opacity:1"/><path style="opacity:.49397589;color:#000;fill:#fff;fill-opacity:1;fill-rule:nonzero;stroke:none;stroke-width:1;stroke-linecap:round;stroke-linejoin:round;marker:none;marker-start:none;marker-mid:none;marker-end:none;stroke-miterlimit:4;stroke-dasharray:none;stroke-dashoffset:0;stroke-opacity:1;visibility:visible;display:inline;overflow:visible;enable-background:accumulate" id="path5221" d="M 15 14.96875 C 14.439375 14.96875 13.96875 15.439375 13.96875 16 C 13.96875 16.560625 14.439375 17 15 17 C 15.312294 17 15.563647 16.846984 15.75 16.625 L 19.71875 19.5 L 15.90625 15.625 C 15.758651 15.24632 15.430705 14.96875 15 14.96875 z"/><path id="path5611" d="M 20.01996,19.348349 A 8.7062521,2.2980971 0 1 1 2.6074562,19.348349 A 8.7062521,2.2980971 0 1 1 20.01996,19.348349 z" transform="matrix(0.8937544,0,0,0.73032,4.6070745,7.2353608)" style="opacity:.09638554;fill:url(#radialGradient5613);fill-opacity:1;stroke:none;stroke-width:1;stroke-linecap:round;stroke-linejoin:round;stroke-miterlimit:4;stroke-dasharray:none;stroke-opacity:1"/></g></svg>