<svg xmlns="http://www.w3.org/2000/svg" xmlns:cc="http://web.resource.org/cc/" xmlns:svg="http://www.w3.org/2000/svg" xmlns:xlink="http://www.w3.org/1999/xlink" id="svg2" width="24" height="24" version="1.0"><defs id="defs4"><linearGradient id="linearGradient5574"><stop style="stop-color:#fff;stop-opacity:1" id="stop5576" offset="0"/><stop style="stop-color:#fff;stop-opacity:0" id="stop5578" offset="1"/></linearGradient><linearGradient id="linearGradient5556"><stop style="stop-color:#fff;stop-opacity:1" id="stop5558" offset="0"/><stop style="stop-color:#fff;stop-opacity:0" id="stop5560" offset="1"/></linearGradient><linearGradient id="linearGradient5546"><stop style="stop-color:#fff;stop-opacity:1" id="stop5548" offset="0"/><stop style="stop-color:#fff;stop-opacity:0" id="stop5550" offset="1"/></linearGradient><linearGradient id="linearGradient5538"><stop style="stop-color:#fff;stop-opacity:1" id="stop5540" offset="0"/><stop style="stop-color:#fff;stop-opacity:0" id="stop5542" offset="1"/></linearGradient><linearGradient id="linearGradient5400"><stop style="stop-color:#000;stop-opacity:1" id="stop5402" offset="0"/><stop style="stop-color:#fff;stop-opacity:1" id="stop5404" offset="1"/></linearGradient><linearGradient id="linearGradient5336"><stop style="stop-color:#000;stop-opacity:1" id="stop5338" offset="0"/><stop style="stop-color:#000;stop-opacity:0" id="stop5340" offset="1"/></linearGradient><linearGradient id="linearGradient5326"><stop style="stop-color:#cdcdcb;stop-opacity:1" id="stop5328" offset="0"/><stop style="stop-color:#888a85;stop-opacity:1" id="stop5330" offset="1"/></linearGradient><linearGradient id="linearGradient5172"><stop style="stop-color:#2e3436;stop-opacity:1" id="stop5174" offset="0"/><stop style="stop-color:#2e3436;stop-opacity:0" id="stop5176" offset="1"/></linearGradient><linearGradient id="linearGradient5154"><stop style="stop-color:#555753;stop-opacity:1" id="stop5156" offset="0"/><stop id="stop5162" offset=".217" style="stop-color:#afb1ad;stop-opacity:1"/><stop style="stop-color:#b4b6b2;stop-opacity:1" id="stop5166" offset=".404"/><stop style="stop-color:#5b5d59;stop-opacity:1" id="stop5164" offset=".823"/><stop style="stop-color:#90938e;stop-opacity:1" id="stop5158" offset="1"/></linearGradient><linearGradient id="linearGradient5160" x1="3" x2="20" y1="16.764" y2="16.764" gradientTransform="translate(0,-0.999999)" gradientUnits="userSpaceOnUse" xlink:href="#linearGradient5154"/><linearGradient id="linearGradient5170" x1="3" x2="20" y1="16.764" y2="16.764" gradientUnits="userSpaceOnUse" xlink:href="#linearGradient5154"/><linearGradient id="linearGradient5178" x1="36" x2="36" y1="2.25" y2="3.25" gradientUnits="userSpaceOnUse" xlink:href="#linearGradient5172"/><filter id="filter5310" width="1.477" height="1.707" x="-.238" y="-.353"><feGaussianBlur id="feGaussianBlur5312" stdDeviation="1.067"/></filter><linearGradient id="linearGradient5322" x1="3" x2="20" y1="16.764" y2="16.764" gradientUnits="userSpaceOnUse" xlink:href="#linearGradient5154"/><linearGradient id="linearGradient5324" x1="36" x2="36" y1="2.25" y2="3.25" gradientUnits="userSpaceOnUse" xlink:href="#linearGradient5172"/><radialGradient id="radialGradient5332" cx="30.144" cy="6.405" r="9.125" fx="30.144" fy="6.405" gradientTransform="matrix(1,0,0,0.4863014,0,1.958476)" gradientUnits="userSpaceOnUse" xlink:href="#linearGradient5326"/><radialGradient id="radialGradient5342" cx="14.094" cy="16.569" r="7.969" fx="14.094" fy="16.569" gradientTransform="matrix(1.3843137,0,0,0.4413571,-5.4164216,6.4777168)" gradientUnits="userSpaceOnUse" xlink:href="#linearGradient5336"/><filter id="filter5372" width="1.127" height="1.399" x="-.064" y="-.2"><feGaussianBlur id="feGaussianBlur5374" stdDeviation=".423"/></filter><linearGradient id="linearGradient5436" x1="7" x2="11.336" y1="16.813" y2="16.813" gradientTransform="matrix(0.4705882,0,0,1,14.705882,-2.5)" gradientUnits="userSpaceOnUse" xlink:href="#linearGradient5400"/><linearGradient id="linearGradient5438" x1="7" x2="9.875" y1="16.813" y2="16.813" gradientTransform="translate(5.875,-0.3125)" gradientUnits="userSpaceOnUse" xlink:href="#linearGradient5400"/><linearGradient id="linearGradient5440" x1="7" x2="9.125" y1="16.813" y2="16.813" gradientTransform="translate(-0.125,-0.625)" gradientUnits="userSpaceOnUse" xlink:href="#linearGradient5400"/><linearGradient id="linearGradient5500" x1="3" x2="20" y1="16.764" y2="16.764" gradientTransform="matrix(1,0,0,0.958423,0,-0.4387105)" gradientUnits="userSpaceOnUse" xlink:href="#linearGradient5154"/><linearGradient id="linearGradient5502" x1="7" x2="9.125" y1="16.813" y2="16.813" gradientTransform="translate(3,0)" gradientUnits="userSpaceOnUse" xlink:href="#linearGradient5400"/><linearGradient id="linearGradient5504" x1="7" x2="11.336" y1="16.813" y2="16.813" gradientTransform="matrix(0.4705882,0,0,1,12.705882,-1)" gradientUnits="userSpaceOnUse" xlink:href="#linearGradient5400"/><linearGradient id="linearGradient5506" x1="4.875" x2="9.125" y1="16.813" y2="16.813" gradientTransform="matrix(0.4705882,0,0,1,1.705882,-2)" gradientUnits="userSpaceOnUse" xlink:href="#linearGradient5400"/><filter id="filter5532" width="1.182" height="1.45" x="-.091" y="-.225"><feGaussianBlur id="feGaussianBlur5534" stdDeviation=".82"/></filter><radialGradient id="radialGradient5544" cx="10.243" cy=".878" r="3.811" fx="10.243" fy=".878" gradientTransform="matrix(1,0,0,0.4235933,0,1.9496042)" gradientUnits="userSpaceOnUse" xlink:href="#linearGradient5538"/><radialGradient id="radialGradient5552" cx="9.289" cy="15.768" r="8.55" fx="9.289" fy="15.768" gradientTransform="matrix(1.5583793,0,0,0.4157955,-4.793319,2.5688701)" gradientUnits="userSpaceOnUse" xlink:href="#linearGradient5546"/><radialGradient id="radialGradient5562" cx="11.5" cy="23.032" r="8.5" fx="11.5" fy="23.032" gradientTransform="matrix(2.3363698,0,0,1.9889752,-15.368253,-24.711801)" gradientUnits="userSpaceOnUse" xlink:href="#linearGradient5556"/><linearGradient id="linearGradient5580" x1="12" x2="12.125" y1="12.561" y2="5.561" gradientTransform="matrix(0.8947368,0,0,0.7500001,1.2105262,1.750807)" gradientUnits="userSpaceOnUse" xlink:href="#linearGradient5574"/></defs><metadata id="metadata7"/><g id="layer1"><path style="opacity:.49425288;color:#000;fill:#000;fill-opacity:1;fill-rule:evenodd;stroke:none;stroke-width:.99999994;stroke-linecap:round;stroke-linejoin:miter;marker:none;marker-start:none;marker-mid:none;marker-end:none;stroke-miterlimit:10;stroke-dasharray:none;stroke-dashoffset:0;stroke-opacity:1;visibility:visible;display:inline;overflow:visible;filter:url(#filter5532);enable-background:accumulate" id="path5442" d="M 22.375,20.625 A 10.8125,4.375 0 1 1 0.75,20.625 A 10.8125,4.375 0 1 1 22.375,20.625 z" transform="matrix(0.8959537,0,0,0.9479769,1.2030345,-0.6994219)"/><path style="opacity:1;color:#000;fill:url(#linearGradient5160);fill-opacity:1;fill-rule:evenodd;stroke:#2e3436;stroke-width:.99999994;stroke-linecap:round;stroke-linejoin:miter;marker:none;marker-start:none;marker-mid:none;marker-end:none;stroke-miterlimit:10;stroke-dasharray:none;stroke-dashoffset:0;stroke-opacity:1;visibility:visible;display:inline;overflow:visible;enable-background:accumulate" id="path5141" d="M 3.5000001,9.027729 L 3.5000001,18.608011 C 3.5000001,20.746708 7.0839999,22.499999 11.5,22.5 C 15.916,22.5 19.500001,20.746708 19.5,18.608011 L 19.5,9.027729 L 3.5000001,9.027729 z"/><path style="opacity:.3218391;color:#000;fill:url(#radialGradient5342);fill-opacity:1;fill-rule:evenodd;stroke:none;stroke-width:.99999994;stroke-linecap:round;stroke-linejoin:miter;marker:none;marker-start:none;marker-mid:none;marker-end:none;stroke-miterlimit:10;stroke-dasharray:none;stroke-dashoffset:0;stroke-opacity:1;visibility:visible;display:inline;overflow:visible;filter:url(#filter5372);enable-background:accumulate" id="path5334" d="M 3.8125,8.500001 C 9.6370847,10.762149 14.714911,10.250624 19.375,8.187501 L 19.4375,12.500001 C 14.512251,17.004915 7.5977319,15.102639 3.5,12.437501 L 3.8125,8.500001 z"/><path id="path5554" d="M 4.4411764,9.6952152 L 4.4411764,18.148405 C 4.4411764,20.03549 7.6035291,21.582512 11.5,21.582513 C 15.39647,21.582513 18.558824,20.03549 18.558823,18.148405 L 18.558823,9.6952152 L 4.4411764,9.6952152 z" style="opacity:.33908046;color:#000;fill:none;fill-opacity:1;fill-rule:evenodd;stroke:url(#radialGradient5562);stroke-width:.99999994;stroke-linecap:round;stroke-linejoin:miter;marker:none;marker-start:none;marker-mid:none;marker-end:none;stroke-miterlimit:10;stroke-dasharray:none;stroke-dashoffset:0;stroke-opacity:1;visibility:visible;display:inline;overflow:visible;enable-background:accumulate"/><g id="g5428" transform="translate(0,-0.999999)"><rect id="rect5398" width="2.125" height="10.375" x="6.875" y="11" rx="1.063" ry="1.063" style="opacity:.3218391;color:#000;fill:url(#linearGradient5440);fill-opacity:1;fill-rule:evenodd;stroke:none;stroke-width:.99999994;stroke-linecap:round;stroke-linejoin:miter;marker:none;marker-start:none;marker-mid:none;marker-end:none;stroke-miterlimit:10;stroke-dasharray:none;stroke-dashoffset:0;stroke-opacity:1;visibility:visible;display:inline;overflow:visible;enable-background:accumulate"/><rect style="opacity:.3218391;color:#000;fill:url(#linearGradient5502);fill-opacity:1;fill-rule:evenodd;stroke:none;stroke-width:.99999994;stroke-linecap:round;stroke-linejoin:miter;marker:none;marker-start:none;marker-mid:none;marker-end:none;stroke-miterlimit:10;stroke-dasharray:none;stroke-dashoffset:0;stroke-opacity:1;visibility:visible;display:inline;overflow:visible;enable-background:accumulate" id="rect5408" width="2.125" height="10.375" x="10" y="11.625" rx="1.063" ry="1.063"/><rect style="opacity:.3218391;color:#000;fill:url(#linearGradient5438);fill-opacity:1;fill-rule:evenodd;stroke:none;stroke-width:.99999994;stroke-linecap:round;stroke-linejoin:miter;marker:none;marker-start:none;marker-mid:none;marker-end:none;stroke-miterlimit:10;stroke-dasharray:none;stroke-dashoffset:0;stroke-opacity:1;visibility:visible;display:inline;overflow:visible;enable-background:accumulate" id="rect5412" width="2.125" height="10.375" x="12.875" y="11.313" rx="1.063" ry="1.063"/><rect id="rect5416" width="1" height="10.375" x="16" y="10.625" rx=".5" ry=".5" style="opacity:.3218391;color:#000;fill:url(#linearGradient5504);fill-opacity:1;fill-rule:evenodd;stroke:none;stroke-width:.99999994;stroke-linecap:round;stroke-linejoin:miter;marker:none;marker-start:none;marker-mid:none;marker-end:none;stroke-miterlimit:10;stroke-dasharray:none;stroke-dashoffset:0;stroke-opacity:1;visibility:visible;display:inline;overflow:visible;enable-background:accumulate"/><rect style="opacity:.3218391;color:#000;fill:url(#linearGradient5436);fill-opacity:1;fill-rule:evenodd;stroke:none;stroke-width:.99999994;stroke-linecap:round;stroke-linejoin:miter;marker:none;marker-start:none;marker-mid:none;marker-end:none;stroke-miterlimit:10;stroke-dasharray:none;stroke-dashoffset:0;stroke-opacity:1;visibility:visible;display:inline;overflow:visible;enable-background:accumulate" id="rect5420" width="1" height="10.375" x="18" y="9.125" rx=".5" ry=".5"/><rect style="opacity:.3218391;color:#000;fill:url(#linearGradient5506);fill-opacity:1;fill-rule:evenodd;stroke:none;stroke-width:.99999994;stroke-linecap:round;stroke-linejoin:miter;marker:none;marker-start:none;marker-mid:none;marker-end:none;stroke-miterlimit:10;stroke-dasharray:none;stroke-dashoffset:0;stroke-opacity:1;visibility:visible;display:inline;overflow:visible;enable-background:accumulate" id="rect5424" width="1" height="10.375" x="5" y="9.625" rx=".5" ry=".5"/></g><path style="opacity:1;color:#000;fill:url(#linearGradient5500);fill-opacity:1;fill-rule:evenodd;stroke:#2e3436;stroke-width:.99999988;stroke-linecap:round;stroke-linejoin:miter;marker:none;marker-start:none;marker-mid:none;marker-end:none;stroke-miterlimit:10;stroke-dasharray:none;stroke-dashoffset:0;stroke-opacity:1;visibility:visible;display:inline;overflow:visible;enable-background:accumulate" id="path4552" d="M 11.5,0.99892397 C 6.5319993,0.99892397 2.4999989,2.9243254 2.4999989,5.2966949 C 2.4999989,5.2966949 2.4999989,8.20223 2.4999989,8.20223 C 2.4999989,10.574599 6.531999,12.499999 11.5,12.5 C 16.468001,12.500001 20.5,10.574599 20.5,8.20223 C 20.5,8.20223 20.5,5.2966949 20.5,5.2966949 C 20.5,2.9243254 16.468001,0.99892397 11.5,0.99892397 z"/><path id="path4556" d="M 41.25,3.8125 A 9.125,4.4375 0 1 1 23,3.8125 A 9.125,4.4375 0 1 1 41.25,3.8125 z" transform="matrix(0.9369864,0,0,0.8551509,-18.600688,1.945005)" style="opacity:1;color:#000;fill:url(#radialGradient5332);fill-opacity:1;fill-rule:evenodd;stroke:none;stroke-width:1;stroke-linecap:round;stroke-linejoin:miter;marker:none;marker-start:none;marker-mid:none;marker-end:none;stroke-miterlimit:10;stroke-dasharray:none;stroke-dashoffset:0;stroke-opacity:1;visibility:visible;display:inline;overflow:visible;enable-background:accumulate"/><path style="opacity:1;color:#000;fill:url(#radialGradient5552);fill-opacity:1;fill-rule:evenodd;stroke:none;stroke-width:1;stroke-linecap:round;stroke-linejoin:miter;marker:none;marker-start:none;marker-mid:none;marker-end:none;stroke-miterlimit:10;stroke-dasharray:none;stroke-dashoffset:0;stroke-opacity:1;visibility:visible;display:inline;overflow:visible;enable-background:accumulate" id="path5136" d="M 2.984373,4.5625 C 2.9390177,4.7311083 2.899998,4.9193441 2.899998,5.09375 C 2.899998,7.3261452 6.7303982,9.125 11.449999,9.125 C 16.169599,9.125 20.000001,7.3261452 20,5.09375 C 20,4.9193441 19.96098,4.7311083 19.915625,4.5625 C 19.360585,6.5417518 15.785335,8.0625 11.449999,8.0625 C 7.114663,8.0625 3.5394135,6.5417518 2.984373,4.5625 z"/><g id="g5317" transform="matrix(0.9929572,0.1184735,-0.1184735,0.9929572,0.3460344,-0.4632752)"><path id="path5168" d="M 41.375,3.25 C 41.375,5.251 38.092,5.25 36,3.75 C 33.033,3.75 30.625,4.382917 30.625,3.25 C 30.625,1.249 33.033,-0.375 36,-0.375 C 38.967,-0.375 41.375,1.249 41.375,3.25 z" transform="translate(-24.25,0)" style="color:#000;fill:url(#linearGradient5322);fill-opacity:1;fill-rule:evenodd;stroke:url(#linearGradient5324);stroke-width:.99999994;stroke-linecap:round;stroke-linejoin:miter;marker:none;marker-start:none;marker-mid:none;marker-end:none;stroke-miterlimit:10;stroke-dashoffset:0;stroke-opacity:1;visibility:visible;display:inline;overflow:visible;enable-background:accumulate"/><path style="opacity:1;color:#000;fill:#1c1d1c;fill-opacity:1;fill-rule:evenodd;stroke:none;stroke-width:2.55515075;stroke-linecap:round;stroke-linejoin:miter;marker:none;marker-start:none;marker-mid:none;marker-end:none;stroke-miterlimit:10;stroke-dasharray:none;stroke-dashoffset:0;stroke-opacity:1;visibility:visible;display:inline;overflow:visible;filter:url(#filter5310);enable-background:accumulate" id="path5180" d="M 41.375,3.25 A 5.375,3.625 0 1 1 30.625,3.25 A 5.375,3.625 0 1 1 41.375,3.25 z" transform="matrix(0.6712474,0,0,0.3793103,-13.102405,2.1422414)"/><path id="path5315" d="M 41.375,3.25 A 5.375,3.625 0 1 1 30.625,3.25 A 5.375,3.625 0 1 1 41.375,3.25 z" transform="matrix(0.5549683,0,0,0.2578679,-8.5413583,0.2869291)" style="opacity:.31609198;color:#000;fill:#fff;fill-opacity:1;fill-rule:evenodd;stroke:none;stroke-width:2.55515075;stroke-linecap:round;stroke-linejoin:miter;marker:none;marker-start:none;marker-mid:none;marker-end:none;stroke-miterlimit:10;stroke-dasharray:none;stroke-dashoffset:0;stroke-opacity:1;visibility:visible;display:inline;overflow:visible;filter:url(#filter5310);enable-background:accumulate"/></g><path style="opacity:1;color:#000;fill:url(#radialGradient5544);fill-opacity:1;fill-rule:evenodd;stroke:none;stroke-width:.99999994;stroke-linecap:round;stroke-linejoin:miter;marker:none;marker-start:none;marker-mid:none;marker-end:none;stroke-miterlimit:10;stroke-dasharray:none;stroke-dashoffset:0;stroke-opacity:1;visibility:visible;display:inline;overflow:visible;enable-background:accumulate" id="path5536" d="M 7.1594562,4.2010101 C 8.9272232,2.5216315 11.932427,2.0796897 14.760854,4.9965052 C 11.844038,-0.74873742 6.7827996,2.6046706 7.1594562,4.2010101 z"/><path id="path5564" d="M 11.499999,2.5 C 7.0549464,2.5 3.4473672,4.0066951 3.4473672,5.8631587 C 3.4473672,5.8631587 3.4473672,8.1368433 3.4473672,8.1368433 C 3.4473672,9.9933062 7.0549461,11.500001 11.499999,11.500001 C 15.945053,11.500001 19.552631,9.9933062 19.552631,8.1368433 C 19.552631,8.1368433 19.552631,5.8631587 19.552631,5.8631587 C 19.552631,4.0066951 15.945053,2.5 11.499999,2.5 z" style="opacity:.20689655;color:#000;fill:none;fill-opacity:1;fill-rule:evenodd;stroke:url(#linearGradient5580);stroke-width:.99999976;stroke-linecap:round;stroke-linejoin:miter;marker:none;marker-start:none;marker-mid:none;marker-end:none;stroke-miterlimit:10;stroke-dasharray:none;stroke-dashoffset:0;stroke-opacity:1;visibility:visible;display:inline;overflow:visible;enable-background:accumulate"/></g></svg>