<svg xmlns="http://www.w3.org/2000/svg" xmlns:cc="http://web.resource.org/cc/" xmlns:svg="http://www.w3.org/2000/svg" xmlns:xlink="http://www.w3.org/1999/xlink" id="svg2" width="24" height="24" version="1.0"><defs id="defs5040"><linearGradient id="linearGradient5033"><stop id="stop5035" offset="0" style="stop-color:#8ae234;stop-opacity:1"/><stop id="stop5037" offset="1" style="stop-color:#4e9a06;stop-opacity:1"/></linearGradient><linearGradient id="linearGradient6128"><stop style="stop-color:#fff;stop-opacity:1" id="stop6130" offset="0"/><stop style="stop-color:#fff;stop-opacity:0" id="stop6132" offset="1"/></linearGradient><linearGradient id="linearGradient4913" x1="6.689" x2="7.5" y1="6.14" y2="11.645" gradientTransform="matrix(1.5864089,0,0,1.586764,0.1203868,0.1015176)" gradientUnits="userSpaceOnUse" xlink:href="#linearGradient5033"/><linearGradient id="linearGradient4915" x1="-.198" x2="-.198" y1="-1.342" y2="8.926" gradientTransform="matrix(1.4379729,0,0,1.4382948,0.5873653,2.1234221)" gradientUnits="userSpaceOnUse" xlink:href="#linearGradient6128"/><linearGradient id="linearGradient6228" x1="6.689" x2="7.542" y1="6.14" y2="11.206" gradientTransform="matrix(1.9026362,0,0,1.5175529,1.4870713,19.114287)" gradientUnits="userSpaceOnUse" xlink:href="#linearGradient4920"/><linearGradient id="linearGradient6226" x1="-.198" x2="-.198" y1="-1.342" y2="8.926" gradientTransform="matrix(1.281865,0,0,1.2822053,2.4981107,21.982693)" gradientUnits="userSpaceOnUse" xlink:href="#linearGradient6128"/><linearGradient id="linearGradient6224" x1="6.689" x2="7.542" y1="6.14" y2="11.206" gradientTransform="matrix(1.4245573,0,0,1.4376817,2.2441353,20.239851)" gradientUnits="userSpaceOnUse" xlink:href="#linearGradient4920"/><linearGradient id="linearGradient6200" x1="6.689" x2="7.542" y1="6.14" y2="11.206" gradientTransform="matrix(1.4342365,0,0,1.1181969,1.228808,-1.2578938)" gradientUnits="userSpaceOnUse" xlink:href="#linearGradient4920"/><linearGradient id="linearGradient6190" x1="6.689" x2="7.542" y1="6.14" y2="11.206" gradientTransform="matrix(1.9026362,0,0,1.5175529,1.4870713,19.114287)" gradientUnits="userSpaceOnUse" xlink:href="#linearGradient4920"/><linearGradient id="linearGradient6188" x1="6.689" x2="7.542" y1="6.14" y2="11.206" gradientTransform="matrix(1.4245573,0,0,1.4376817,2.2441353,20.239851)" gradientUnits="userSpaceOnUse" xlink:href="#linearGradient4920"/><linearGradient id="linearGradient6184" x1="-.198" x2="-.198" y1="-1.342" y2="8.926" gradientTransform="matrix(1.281865,0,0,1.2822053,2.4981107,21.982693)" gradientUnits="userSpaceOnUse" xlink:href="#linearGradient6128"/><linearGradient id="linearGradient4916" x1="-.198" x2="-.198" y1="-1.342" y2="8.926" gradientTransform="matrix(1.281865,0,0,1.2822053,0.4981107,1.9826928)" gradientUnits="userSpaceOnUse" xlink:href="#linearGradient6128"/><linearGradient id="linearGradient4914" x1="6.689" x2="7.542" y1="6.14" y2="11.206" gradientTransform="matrix(1.4245573,0,0,1.4376817,0.2441353,0.2398512)" gradientUnits="userSpaceOnUse" xlink:href="#linearGradient4920"/><linearGradient id="linearGradient6134" x1="-.198" x2="-.198" y1="-1.342" y2="8.926" gradientTransform="matrix(0.9064327,0,0,0.9064327,2.1685912,1.187142)" gradientUnits="userSpaceOnUse" xlink:href="#linearGradient6128"/><linearGradient id="linearGradient4926" x1="6.689" x2="7.5" y1="6.14" y2="11.645" gradientTransform="translate(2,0)" gradientUnits="userSpaceOnUse" xlink:href="#linearGradient5033"/><linearGradient id="linearGradient4920"><stop id="stop4922" offset="0" style="stop-color:#8ae234;stop-opacity:1"/><stop id="stop4924" offset="1" style="stop-color:#4e9a06;stop-opacity:1"/></linearGradient><linearGradient id="linearGradient4996" x1="6.689" x2="7.542" y1="6.14" y2="11.206" gradientTransform="matrix(1.9123153,0,0,1.517553,-22.528255,0.114286)" gradientUnits="userSpaceOnUse" xlink:href="#linearGradient4920"/></defs><metadata id="metadata5043"/><g id="layer1"><g id="g4908" transform="matrix(0,-1,1,0,4.09989e-2,22.995908)"><path id="path4911" d="M 12.48918,2.53125 L 2.5000002,12.101421 L 12.48918,21.423659 L 12.48918,16.498288 L 20.297525,16.498288 C 20.994255,16.498288 21.536907,15.955515 21.536907,15.258629 L 21.536907,8.7458671 C 21.536907,8.0489809 20.994255,7.5062077 20.297525,7.5062077 L 12.48918,7.5062077 L 12.48918,2.53125 z" style="fill:url(#linearGradient4913);fill-opacity:1;fill-rule:evenodd;stroke:#4e9a06;stroke-width:1px;stroke-linecap:butt;stroke-linejoin:miter;stroke-opacity:1"/><path style="fill:none;fill-opacity:1;fill-rule:evenodd;stroke:#fff;stroke-width:1px;stroke-linecap:butt;stroke-linejoin:miter;stroke-opacity:.36486487" id="path6121" d="M 11.48162,4.9320443 L 3.9424703,12.101421 L 11.48162,18.932368 L 11.531167,15.522606 L 19.322198,15.522606 C 20.018928,15.522606 20.56158,14.979834 20.56158,14.282948 L 20.512033,9.7710956 C 20.512033,9.0742096 19.969381,8.5314364 19.272651,8.5314364 L 11.48162,8.5314364 L 11.48162,4.9320443 z"/><path id="path6123" d="M 11.867634,4.405446 C 11.637093,4.405446 11.419957,4.4440884 11.193585,4.4503926 L 4.6316641,11.112765 C 6.3334444,11.794333 8.7194753,12.899065 11.372162,12.899065 C 15.241747,12.899065 20.24976,10.995705 21.040492,9.3945304 L 21.040492,9.1248503 C 21.040492,8.4931707 20.548614,8.0011834 19.917074,8.0011834 L 11.912571,8.0011834 L 11.912571,4.405446 C 11.649531,4.108134 11.882955,4.405446 11.867634,4.405446 z" style="opacity:1;color:#000;fill:url(#linearGradient4915);fill-opacity:1;fill-rule:nonzero;stroke:none;stroke-width:1;stroke-linecap:butt;stroke-linejoin:miter;marker:none;marker-start:none;marker-mid:none;marker-end:none;stroke-miterlimit:4;stroke-dasharray:none;stroke-dashoffset:0;stroke-opacity:.36486487;visibility:visible;display:inline;overflow:visible;enable-background:accumulate"/></g><rect id="rect6196" width="4" height="19" x="-23.5" y="2.5" rx=".941" ry=".941" transform="matrix(0,-1,1,0,0,0)" style="color:#000;fill:url(#linearGradient4996);fill-opacity:1;fill-rule:evenodd;stroke:#4e9a06;stroke-width:.99999988px;stroke-linecap:butt;stroke-linejoin:miter;marker:none;marker-start:none;marker-mid:none;marker-end:none;stroke-miterlimit:4;stroke-dasharray:none;stroke-dashoffset:0;stroke-opacity:1;visibility:visible;display:inline;overflow:visible;enable-background:accumulate"/><rect style="opacity:1;color:#000;fill:none;fill-opacity:1;fill-rule:evenodd;stroke:#fff;stroke-width:.99999982px;stroke-linecap:butt;stroke-linejoin:miter;marker:none;marker-start:none;marker-mid:none;marker-end:none;stroke-miterlimit:4;stroke-dasharray:none;stroke-dashoffset:0;stroke-opacity:.36486487;visibility:visible;display:inline;overflow:visible;enable-background:accumulate" id="rect5057" width="2" height="17" x="-22.5" y="-20.5" rx=".347" ry=".347" transform="matrix(0,-1,-1,0,0,0)"/></g></svg>