<svg xmlns="http://www.w3.org/2000/svg" xmlns:cc="http://web.resource.org/cc/" xmlns:svg="http://www.w3.org/2000/svg" xmlns:xlink="http://www.w3.org/1999/xlink" id="svg4220" width="24" height="24" version="1.0"><defs id="defs4222"><linearGradient id="linearGradient5198"><stop style="stop-color:#eeeeec;stop-opacity:1" id="stop5200" offset="0"/><stop style="stop-color:#eeeeec;stop-opacity:0" id="stop5202" offset="1"/></linearGradient><linearGradient id="linearGradient5165"><stop style="stop-color:#2e3436;stop-opacity:1" id="stop5167" offset="0"/><stop style="stop-color:#2e3436;stop-opacity:0" id="stop5169" offset="1"/></linearGradient><linearGradient id="linearGradient5149"><stop style="stop-color:#819e07;stop-opacity:1" id="stop5151" offset="0"/><stop style="stop-color:#819e07;stop-opacity:0" id="stop5153" offset="1"/></linearGradient><linearGradient id="linearGradient5206"><stop style="stop-color:#eeeeec;stop-opacity:1" id="stop5208" offset="0"/><stop style="stop-color:#eeeeec;stop-opacity:0" id="stop5210" offset="1"/></linearGradient><linearGradient id="linearGradient5212" x1="9.352" x2="9.352" y1="15.12" y2="19.327" gradientUnits="userSpaceOnUse" xlink:href="#linearGradient5206"/><linearGradient id="linearGradient5155" x1="1.205" x2=".08" y1="12.231" y2="12.231" gradientUnits="userSpaceOnUse" xlink:href="#linearGradient5149"/><linearGradient id="linearGradient5159" x1="1.205" x2=".08" y1="12.231" y2="12.231" gradientUnits="userSpaceOnUse" xlink:href="#linearGradient5149"/><linearGradient id="linearGradient5171" x1="13.014" x2="13.014" y1="12.605" y2="13.58" gradientUnits="userSpaceOnUse" xlink:href="#linearGradient5165"/><linearGradient id="linearGradient5191" x1="9.352" x2="9.352" y1="15.12" y2="19.327" gradientUnits="userSpaceOnUse" xlink:href="#linearGradient5206"/><linearGradient id="linearGradient5204" x1="12.633" x2="12.633" y1="18.377" y2="19.845" gradientUnits="userSpaceOnUse" xlink:href="#linearGradient5198"/></defs><metadata id="metadata4225"/><g id="layer1"><rect style="opacity:1;fill:#cc4000;fill-opacity:1;stroke:#a43500;stroke-width:.73538005;stroke-miterlimit:4;stroke-dasharray:none;stroke-opacity:1" id="rect5161" width="2.246" height="4.334" x="0" y="3" transform="matrix(1.335572,0,0,1.384551,6.499999,-1.653653)"/><rect style="opacity:.37991267;fill:#c00;fill-opacity:1;stroke:url(#linearGradient5191);stroke-width:2.7048378;stroke-miterlimit:4;stroke-dasharray:none;stroke-opacity:1" id="rect5189" width="2.703" height="5.413" x="8" y="14" transform="matrix(0.36993,0,0,0.369486,4.540563,-1.672806)"/><path style="fill:#eeeeec;fill-opacity:1;stroke:#888a85;stroke-width:.85530144;stroke-miterlimit:4;stroke-opacity:1" id="rect4228" d="M 5.2308439,11.726053 L 7.2489807,11.740999 L 7.2834303,21.5 L 18.796069,21.5 L 18.747132,11.694156 L 20.796623,11.693674 L 13.334495,3.7097642 C 10.726959,6.4899913 8.3579145,8.391883 5.2308439,11.726053 z" transform="matrix(1.215943,0,0,1.124212,-3.275226,-2.670562)"/><rect style="opacity:1;fill:#cdd2c8;fill-opacity:1;stroke:none;stroke-width:1;stroke-miterlimit:4;stroke-dasharray:none;stroke-opacity:1" id="rect5183" width="9.811" height="1.529" x="-8.473" y="-3.459" rx="0" ry="0" transform="matrix(1.325005,0,0,0.654008,17.22727,15.26211)"/><rect style="opacity:1;fill:#cdd2c8;fill-opacity:1;stroke:none;stroke-width:1;stroke-miterlimit:4;stroke-dasharray:none;stroke-opacity:1" id="rect5181" width="9.811" height="1.529" x="-8.473" y="-3.459" rx="0" ry="0" transform="matrix(1.325005,0,0,0.654008,17.22727,17.26211)"/><rect style="opacity:1;fill:#cdd2c8;fill-opacity:1;stroke:none;stroke-width:1;stroke-miterlimit:4;stroke-dasharray:none;stroke-opacity:1" id="rect5179" width="9.811" height="1.529" x="-8.473" y="-3.459" rx="0" ry="0" transform="matrix(1.325005,0,0,0.654008,17.22727,19.26211)"/><path style="opacity:.82096073;fill:none;fill-opacity:1;stroke:#eeeeec;stroke-width:.71978343;stroke-miterlimit:4;stroke-opacity:1" id="path5128" d="M 8,10 L 12.379208,5.2539501 L 16.758416,10 L 16.758416,18.458911 L 8,18.458911 L 8,10 z" transform="matrix(1.484288,0,0,1.300404,-41.37432,1.667742)"/><rect style="opacity:1;fill:#cdd2c8;fill-opacity:1;stroke:none;stroke-width:1;stroke-miterlimit:4;stroke-dasharray:none;stroke-opacity:1" id="rect5177" width="9.811" height="1.529" x="-8.473" y="-3.459" rx="0" ry="0" transform="matrix(1.325005,0,0,0.654008,17.22727,21.26211)"/><rect style="opacity:1;fill:#cc4d00;fill-opacity:1;stroke:#a43500;stroke-width:.67620844;stroke-miterlimit:4;stroke-dasharray:none;stroke-opacity:1" id="rect5176" width="2.703" height="5.413" x="8" y="14" transform="matrix(1.479719,0,0,1.477949,-4.337752,-7.191285)"/><rect style="opacity:1;fill:#888a85;fill-opacity:1;stroke:#555753;stroke-width:.8472665;stroke-miterlimit:4;stroke-dasharray:none;stroke-opacity:1" id="rect5178" width="3.759" height="3.056" x="13.443" y="14" rx=".435" ry=".362" transform="matrix(1.06415,0,0,1.309053,-0.805072,-4.82675)"/><rect style="opacity:1;fill:#cdd2c8;fill-opacity:1;stroke:none;stroke-width:1;stroke-miterlimit:4;stroke-dasharray:none;stroke-opacity:1" id="rect5180" width="9.811" height="1.529" x="-8.473" y="-3.459" transform="matrix(1.325005,0,0,0.654008,17.22727,13.26211)"/><rect style="opacity:1;fill:#cdd2c8;fill-opacity:1;stroke:none;stroke-width:1;stroke-miterlimit:4;stroke-dasharray:none;stroke-opacity:1" id="rect5182" width="9.811" height="1.529" x="-8.473" y="-3.459" rx="0" ry="0" transform="matrix(0,-0.815388,0.654008,0,13.26212,4.09091)"/><rect style="opacity:1;fill:#cdd2c8;fill-opacity:1;stroke:none;stroke-width:1;stroke-miterlimit:4;stroke-dasharray:none;stroke-opacity:1" id="rect5184" width="9.811" height="1.529" x="-8.473" y="-3.459" rx="0" ry="0" transform="matrix(0,-0.917311,0.654008,0,15.26211,3.227273)"/><rect style="opacity:1;fill:#cdd2c8;fill-opacity:1;stroke:none;stroke-width:1;stroke-miterlimit:4;stroke-dasharray:none;stroke-opacity:1" id="rect5186" width="9.811" height="1.529" x="-8.473" y="-3.459" rx="0" ry="0" transform="matrix(0,-0.713465,0.654008,0,17.26211,4.954546)"/><rect style="opacity:1;fill:#cdd2c8;fill-opacity:1;stroke:none;stroke-width:1;stroke-miterlimit:4;stroke-dasharray:none;stroke-opacity:1" id="rect5188" width="9.811" height="1.529" x="-8.473" y="-3.459" rx="0" ry="0" transform="matrix(0,-0.611541,0.654005,0,11.26211,5.818182)"/><rect style="opacity:1;fill:#cdd2c8;fill-opacity:1;stroke:none;stroke-width:1;stroke-miterlimit:4;stroke-dasharray:none;stroke-opacity:1" id="rect5190" width="9.811" height="1.529" x="-8.473" y="-3.459" rx="0" ry="0" transform="matrix(0,-0.509617,0.654008,0,19.26211,6.681818)"/><rect style="opacity:1;fill:#cdd2c8;fill-opacity:1;stroke:none;stroke-width:1;stroke-miterlimit:4;stroke-dasharray:none;stroke-opacity:1" id="rect5192" width="9.811" height="1.529" x="-8.473" y="-3.459" rx="0" ry="0" transform="matrix(0,-0.407694,0.654008,0,9.262115,7.545454)"/><rect style="opacity:.16593886;fill:#c00;fill-opacity:1;stroke:url(#linearGradient5212);stroke-width:1.10424232;stroke-miterlimit:4;stroke-dasharray:none;stroke-opacity:1" id="rect5204" width="2.703" height="5.413" x="8" y="14" transform="matrix(0.739861,0,0,1.108463,2.581112,-1.018485)"/><rect style="opacity:1;fill:#a40000;fill-opacity:1;stroke:none;stroke-width:1;stroke-miterlimit:4;stroke-dasharray:none;stroke-opacity:1" id="rect5214" width="3.504" height="2.574" x="-3.568" y="-1" rx="1.287" ry="1.287" transform="matrix(0.285385,0,0,0.388467,11.01818,17.38847)"/><rect style="opacity:1;fill:url(#linearGradient5155);fill-opacity:1;stroke:none;stroke-width:1;stroke-miterlimit:4;stroke-dasharray:none;stroke-opacity:1" id="rect5145" width="3.189" height="2.462" x="0" y="11" transform="matrix(3.449259,0,0,0.406152,2,16.53233)"/><path style="opacity:.37991267;fill:#eeeeec;fill-opacity:1;stroke:none;stroke-width:1;stroke-miterlimit:4;stroke-opacity:1" id="rect5173" d="M 14,14.559375 L 17.01508,14.559375 C 17.01508,14.559375 14.681949,14.892305 14,16.754869 L 14,14.559375 z" transform="matrix(1,0,0,1.366432,0,-5.894395)"/><rect style="opacity:1;fill:url(#linearGradient5159);fill-opacity:1;stroke:none;stroke-width:1;stroke-miterlimit:4;stroke-dasharray:none;stroke-opacity:1" id="rect5157" width="3.189" height="2.462" x="0" y="11" transform="matrix(-3.13569,0,0,0.406152,23,16.53233)"/><path style="fill:none;fill-opacity:1;stroke:url(#linearGradient5171);stroke-width:.85530138;stroke-miterlimit:4;stroke-opacity:1" id="path5163" d="M 5.2308439,11.726053 L 7.2489807,11.740999 L 7.2834303,21.5 L 18.796069,21.5 L 18.747132,11.661608 L 20.796623,11.661126 L 13.334495,3.7097642 C 10.726959,6.4899913 8.3579145,8.391883 5.2308439,11.726053 z" transform="matrix(1.215943,0,0,1.124212,-3.275228,-2.670562)"/><path style="fill:none;fill-opacity:1;stroke:url(#linearGradient5204);stroke-width:.85530138;stroke-miterlimit:4;stroke-opacity:1;opacity:.88646288" id="path5196" d="M 13.3125,4.9375 C 11.374712,6.9318031 9.4336793,8.7583991 7.3125,10.875 C 7.7727184,10.904631 8.129494,11.288851 8.125,11.75 L 8.15625,20.625 L 17.90625,20.625 L 17.875,11.65625 C 17.873207,11.423641 17.964818,11.200038 18.129303,11.035553 C 18.293788,10.871068 18.517391,10.779457 18.75,10.78125 L 13.3125,4.9375 z" transform="matrix(1.215943,0,0,1.124212,-3.275228,-2.670562)"/></g></svg>