<svg xmlns="http://www.w3.org/2000/svg" xmlns:cc="http://web.resource.org/cc/" xmlns:svg="http://www.w3.org/2000/svg" xmlns:xlink="http://www.w3.org/1999/xlink" id="svg2" width="24" height="24" version="1.0"><defs id="defs5040"><linearGradient id="linearGradient5154"><stop style="stop-color:#000;stop-opacity:1" id="stop5156" offset="0"/><stop style="stop-color:#000;stop-opacity:0" id="stop5158" offset="1"/></linearGradient><linearGradient id="linearGradient5144"><stop style="stop-color:#fff;stop-opacity:1" id="stop5146" offset="0"/><stop style="stop-color:#fff;stop-opacity:0" id="stop5148" offset="1"/></linearGradient><linearGradient id="linearGradient5130"><stop style="stop-color:#fff69b;stop-opacity:1" id="stop5132" offset="0"/><stop id="stop5140" offset=".377" style="stop-color:#ffec49;stop-opacity:1"/><stop id="stop5138" offset=".735" style="stop-color:#b19e00;stop-opacity:1"/><stop style="stop-color:#dbc400;stop-opacity:1" id="stop5134" offset="1"/></linearGradient><radialGradient id="radialGradient5136" cx="15.5" cy="9.245" r="6.964" fx="15.5" fy="9.245" gradientTransform="matrix(1.1702328,0,0,1.1702328,-2.6386075,-1.5738629)" gradientUnits="userSpaceOnUse" xlink:href="#linearGradient5130"/><linearGradient id="linearGradient5150" x1="14.455" x2="14.455" y1="9.946" y2="27.736" gradientUnits="userSpaceOnUse" xlink:href="#linearGradient5144"/><radialGradient id="radialGradient5160" cx="15.375" cy="17.813" r="5.625" fx="15.375" fy="17.813" gradientTransform="matrix(1,0,0,0.5,0,8.90625)" gradientUnits="userSpaceOnUse" xlink:href="#linearGradient5154"/><filter id="filter5238" width="1.414" height="1.828" x="-.207" y="-.414"><feGaussianBlur id="feGaussianBlur5240" stdDeviation=".97"/></filter><linearGradient id="linearGradient5186" x1="-.198" x2="-.198" y1="-1.342" y2="8.926" gradientTransform="matrix(0.9064327,0,0,0.9064327,0.1685912,1.187142)" gradientUnits="userSpaceOnUse" xlink:href="#linearGradient6128"/><linearGradient id="linearGradient5184" x1="6.689" x2="7.5" y1="6.14" y2="11.645" gradientUnits="userSpaceOnUse" xlink:href="#linearGradient5033"/><linearGradient id="linearGradient6134" x1="-.198" x2="-.198" y1="-1.342" y2="8.926" gradientTransform="matrix(0.9064327,0,0,0.9064327,0.1685912,1.187142)" gradientUnits="userSpaceOnUse" xlink:href="#linearGradient6128"/><linearGradient id="linearGradient6128"><stop id="stop6130" offset="0" style="stop-color:#fff;stop-opacity:1"/><stop id="stop6132" offset="1" style="stop-color:#fff;stop-opacity:0"/></linearGradient><linearGradient id="linearGradient4926" x1="6.689" x2="7.5" y1="6.14" y2="11.645" gradientUnits="userSpaceOnUse" xlink:href="#linearGradient5033"/><linearGradient id="linearGradient5033"><stop style="stop-color:#8ae234;stop-opacity:1" id="stop5035" offset="0"/><stop style="stop-color:#4e9a06;stop-opacity:1" id="stop5037" offset="1"/></linearGradient></defs><metadata id="metadata5043"/><g id="layer1"><path style="opacity:.60919542;color:#000;fill:url(#radialGradient5160);fill-opacity:1;fill-rule:evenodd;stroke:none;stroke-width:1;stroke-linecap:square;stroke-linejoin:miter;marker:none;marker-start:none;marker-mid:none;marker-end:none;stroke-miterlimit:2.25;stroke-dasharray:none;stroke-dashoffset:0;stroke-opacity:1;visibility:visible;display:inline;overflow:visible;filter:url(#filter5238);enable-background:accumulate" id="path5152" d="M 21,17.8125 A 5.625,2.8125 0 1 1 9.75,17.8125 A 5.625,2.8125 0 1 1 21,17.8125 z" transform="matrix(1.2666667,0,0,1.2666667,-4.1,-5.125)"/><path style="opacity:1;color:#000;fill:url(#radialGradient5136);fill-opacity:1;fill-rule:evenodd;stroke:#c4a000;stroke-width:.92857146000000002;stroke-linecap:square;stroke-linejoin:miter;marker:none;marker-start:none;marker-mid:none;marker-end:none;stroke-miterlimit:2.25;stroke-dasharray:none;stroke-dashoffset:0;stroke-opacity:1;visibility:visible;display:inline;overflow:visible;enable-background:accumulate" id="path4551" d="M 22,12.5 A 6.5,6.5 0 1 1 9,12.5 A 6.5,6.5 0 1 1 22,12.5 z" transform="matrix(1.076923,0,0,1.076923,-1.1923068,-1.961538)"/><path id="path5142" d="M 22,12.5 A 6.5,6.5 0 1 1 9,12.5 A 6.5,6.5 0 1 1 22,12.5 z" transform="matrix(0.9333333,0,0,0.9333333,1.0333342,-0.1666662)" style="opacity:.29310345;color:#000;fill:none;fill-opacity:1;fill-rule:evenodd;stroke:url(#linearGradient5150);stroke-width:1.07142866000000003;stroke-linecap:square;stroke-linejoin:miter;marker:none;marker-start:none;marker-mid:none;marker-end:none;stroke-miterlimit:2.25;stroke-dasharray:none;stroke-dashoffset:0;stroke-opacity:1;visibility:visible;display:inline;overflow:visible;enable-background:accumulate"/><g id="g5271" transform="translate(-2,4.0625)"><g id="g5179" transform="matrix(-1,0,0,1,16,0)"><path style="fill:url(#linearGradient5184);fill-opacity:1;fill-rule:evenodd;stroke:#3c7804;stroke-width:1px;stroke-linecap:butt;stroke-linejoin:miter;stroke-opacity:1" id="path4911" d="M 7.53125,1.53125 L 1.5,7.5625 L 7.53125,13.4375 L 7.53125,10.5 L 12.84375,10.5 C 13.282937,10.5 13.5,10.345437 13.5,9.90625 L 13.5,5.09375 C 13.5,4.654563 13.345437,4.5 12.90625,4.5 L 7.53125,4.5 L 7.53125,1.53125 z"/><path id="path6121" d="M 6.53125,3.918572 L 2.9459251,7.5625 L 6.53125,11.149272 L 6.53125,9.5 C 6.53125,9.5 12.5,9.53125 12.5,9.53125 L 12.5,5.53125 L 6.53125,5.5 L 6.53125,3.918572 z" style="fill:none;fill-opacity:1;fill-rule:evenodd;stroke:#fff;stroke-width:1px;stroke-linecap:butt;stroke-linejoin:miter;stroke-opacity:.36486487"/><path style="opacity:1;color:#000;fill:url(#linearGradient5186);fill-opacity:1;fill-rule:nonzero;stroke:none;stroke-width:1;stroke-linecap:butt;stroke-linejoin:miter;marker:none;marker-start:none;marker-mid:none;marker-end:none;stroke-miterlimit:4;stroke-dasharray:none;stroke-dashoffset:0;stroke-opacity:.36486487;visibility:visible;display:inline;overflow:visible;enable-background:accumulate" id="path6123" d="M 6.9668368,3.000008 C 6.8215143,3.000008 6.6846414,3.024361 6.5419465,3.028334 L 2.7179333,6.852347 C 3.7906582,7.28188 5.2947036,7.978097 6.9668368,7.978097 C 9.4060473,7.978097 11.906992,7.153278 12.405433,6.144196 L 12.405433,5.97424 C 12.405433,5.576147 12.095376,5.26609 11.697282,5.26609 L 6.9951628,5.26609 L 6.9951628,3.000008 C 6.9855162,2.99999 6.9764943,3.000008 6.9668368,3.000008 z"/></g></g></g></svg>