<svg xmlns="http://www.w3.org/2000/svg" xmlns:cc="http://web.resource.org/cc/" xmlns:svg="http://www.w3.org/2000/svg" xmlns:xlink="http://www.w3.org/1999/xlink" id="svg2" width="24" height="24" version="1.0"><defs id="defs3"><linearGradient id="linearGradient4927"><stop style="stop-color:#888a85;stop-opacity:1" id="stop4929" offset="0"/><stop style="stop-color:#888a85;stop-opacity:0" id="stop4931" offset="1"/></linearGradient><linearGradient id="linearGradient6108"><stop style="stop-color:#000;stop-opacity:1" id="stop6110" offset="0"/><stop style="stop-color:#000;stop-opacity:0" id="stop6112" offset="1"/></linearGradient><linearGradient id="linearGradient6076"><stop style="stop-color:#fff;stop-opacity:1" id="stop6078" offset="0"/><stop style="stop-color:#cbcbcb;stop-opacity:1" id="stop6080" offset="1"/></linearGradient><linearGradient id="linearGradient6056"><stop style="stop-color:#fff;stop-opacity:1" id="stop6058" offset="0"/><stop style="stop-color:#eeeeec;stop-opacity:1" id="stop6060" offset="1"/></linearGradient><filter id="filter6052" width="1.283" height="2.415" x="-.141" y="-.707"><feGaussianBlur id="feGaussianBlur6054" stdDeviation="1.179"/></filter><linearGradient id="linearGradient6062" x1="4.856" x2="21.892" y1="3.636" y2="21.275" gradientUnits="userSpaceOnUse" xlink:href="#linearGradient6056"/><linearGradient id="linearGradient6082" x1="17.688" x2="18.562" y1="4.528" y2="3.749" gradientTransform="translate(-1,0.4954723)" gradientUnits="userSpaceOnUse" xlink:href="#linearGradient6076"/><linearGradient id="linearGradient6114" x1="16.552" x2="16.552" y1="2.963" y2="7.836" gradientUnits="userSpaceOnUse" xlink:href="#linearGradient6108"/><linearGradient id="linearGradient6129" x1="4.856" x2="21.892" y1="3.636" y2="21.275" gradientUnits="userSpaceOnUse" xlink:href="#linearGradient6056"/><linearGradient id="linearGradient6131" x1="16.552" x2="16.552" y1="2.963" y2="7.836" gradientUnits="userSpaceOnUse" xlink:href="#linearGradient6108"/><linearGradient id="linearGradient6133" x1="17.688" x2="18.562" y1="4.528" y2="3.749" gradientTransform="translate(-1,0.4954723)" gradientUnits="userSpaceOnUse" xlink:href="#linearGradient6076"/><linearGradient id="linearGradient6136" x1="17.835" x2="19.256" y1="4.469" y2="2.978" gradientTransform="matrix(0,-1.1227415,-1.1130202,0,24.173082,27.025234)" gradientUnits="userSpaceOnUse" xlink:href="#linearGradient6076"/><linearGradient id="linearGradient6139" x1="16.552" x2="16.552" y1="2.963" y2="7.836" gradientTransform="matrix(0,-1.0962567,-1.0952381,0,25.142857,25.15508)" gradientUnits="userSpaceOnUse" xlink:href="#linearGradient6108"/><linearGradient id="linearGradient6146" x1="4.856" x2="21.892" y1="3.636" y2="21.275" gradientTransform="matrix(0,-1.1176469,-1.0952381,0,24.047619,25.411764)" gradientUnits="userSpaceOnUse" xlink:href="#linearGradient6056"/><linearGradient id="linearGradient6150" x1="16.552" x2="16.552" y1="4.21" y2="8.01" gradientTransform="matrix(0.9925304,0,0,1.0962567,3.1120437,1.0374326)" gradientUnits="userSpaceOnUse" xlink:href="#linearGradient6108"/><linearGradient id="linearGradient4933" x1="21.04" x2="15.839" y1="8.583" y2="5.538" gradientUnits="userSpaceOnUse" xlink:href="#linearGradient4927"/></defs><metadata id="metadata6"/><g id="layer1"><rect id="rect5870" width="20" height="4" x="2" y="19" rx="1.363" ry="1.635" transform="matrix(1.2000002,0,0,1,-2.4000027,0)" style="opacity:.12663754;color:#000;fill:#000;fill-opacity:1;fill-rule:evenodd;stroke:none;stroke-width:.9999997px;stroke-linecap:butt;stroke-linejoin:miter;marker:none;marker-start:none;marker-mid:none;marker-end:none;stroke-miterlimit:4;stroke-dasharray:none;stroke-dashoffset:0;stroke-opacity:1;visibility:visible;display:inline;overflow:visible;filter:url(#filter6052);enable-background:accumulate"/><path style="color:#000;fill:url(#linearGradient6146);fill-opacity:1;fill-rule:evenodd;stroke:#888a85;stroke-width:.99999976px;stroke-linecap:butt;stroke-linejoin:miter;marker:none;marker-start:none;marker-mid:none;marker-end:none;stroke-miterlimit:4;stroke-dashoffset:0;stroke-opacity:1;visibility:visible;display:inline;overflow:visible;enable-background:accumulate" id="rect4899" d="M 23.5,19.672582 L 23.5,8.2034383 L 17.823742,2.4999998 L 2.2907788,2.4999998 C 1.2986869,2.4999998 0.49999985,3.3150281 0.49999985,4.3274173 L 0.49999985,19.672582 C 0.49999985,20.684971 1.2986869,21.499999 2.2907788,21.499999 L 21.709222,21.499999 C 22.701313,21.499999 23.5,20.684971 23.5,19.672582 z"/><g id="g6116" transform="matrix(-1.0962567,0,0,1.0872215,25.012576,-0.6507115)"><path id="path6068" d="m 15.55783,10.027681 c 0,1.8334 -1.486264,3.319665 -3.319664,3.319665 -1.8334,0 -3.3196644,-1.486265 -3.3196644,-3.319665 0,-1.8333996 1.4862644,-3.3196639 3.3196644,-3.3196639 1.8334,0 3.319664,1.4862643 3.319664,3.3196639 z" transform="matrix(0.9037057,0,0,0.9156483,0.9402993,-0.6929702)" style="color:#000;fill:#555753;fill-opacity:1;fill-rule:evenodd;stroke:none;stroke-width:.99999982px;marker:none;visibility:visible;display:inline;overflow:visible;enable-background:accumulate"/><path id="path6070" d="m 17,16 c 0,2.760001 -2.239999,2.000002 -5,2.000002 -2.7600007,0 -5.0000007,0.759999 -5.0000007,-2.000002 0,-2.76 2.24,-5 5.0000007,-5 2.760001,0 5,2.24 5,5 z" style="color:#000;fill:#555753;fill-opacity:1;fill-rule:evenodd;stroke:none;stroke-width:.99999982px;marker:none;visibility:visible;display:inline;overflow:visible;enable-background:accumulate"/></g><path id="path6084" d="M 22.500001,18.651007 L 22.500001,8.7788769 L 16.782898,3.5000001 L 14.179931,3.5373541 L 3.3071705,3.5373541 C 2.3059977,3.5373541 1.5,4.3620055 1.5,5.3863479 L 1.5,18.651007 C 1.5,19.67535 2.3059977,20.500001 3.3071705,20.500001 L 20.692831,20.500001 C 21.694004,20.500001 22.500001,19.67535 22.500001,18.651007 z" style="color:#000;fill:none;fill-opacity:1;fill-rule:evenodd;stroke:#fff;stroke-width:.99999982px;stroke-linecap:butt;stroke-linejoin:miter;marker:none;marker-start:none;marker-mid:none;marker-end:none;stroke-miterlimit:4;stroke-dashoffset:0;stroke-opacity:1;visibility:visible;display:inline;overflow:visible;enable-background:accumulate"/><path id="path6104" d="M 23.073761,8.71123 L 17.456864,3.1404986 L 16.380952,3.1203209 L 16.380952,8.6707189 L 23.073761,8.71123 z" style="fill:url(#linearGradient6139);fill-opacity:1;fill-rule:evenodd;stroke:none;stroke-width:1px;stroke-linecap:butt;stroke-linejoin:miter;stroke-opacity:1"/><path style="fill:url(#linearGradient6150);fill-opacity:1;fill-rule:evenodd;stroke:none;stroke-width:1px;stroke-linecap:butt;stroke-linejoin:miter;stroke-opacity:1" id="path6148" d="M 18,3.4057373 L 23.043636,8.7305746 L 23.061905,9.8074867 L 18.036678,9.8074867 L 18,3.4057373 z"/><path style="fill:url(#linearGradient6136);fill-opacity:1;fill-rule:evenodd;stroke:url(#linearGradient4933);stroke-width:1px;stroke-linecap:butt;stroke-linejoin:miter;stroke-opacity:1" id="path6074" d="M 17.5,2.9054334 L 17.5,8.4915208 L 23.061535,8.5000003"/></g></svg>