<svg xmlns="http://www.w3.org/2000/svg" xmlns:cc="http://web.resource.org/cc/" xmlns:svg="http://www.w3.org/2000/svg" xmlns:xlink="http://www.w3.org/1999/xlink" id="svg2" width="24" height="24" version="1.0"><defs id="defs3"><linearGradient id="linearGradient4919"><stop style="stop-color:#888a85;stop-opacity:1" id="stop4921" offset="0"/><stop style="stop-color:#888a85;stop-opacity:0" id="stop4923" offset="1"/></linearGradient><linearGradient id="linearGradient6108"><stop style="stop-color:#000;stop-opacity:1" id="stop6110" offset="0"/><stop style="stop-color:#000;stop-opacity:0" id="stop6112" offset="1"/></linearGradient><linearGradient id="linearGradient6076"><stop style="stop-color:#fff;stop-opacity:1" id="stop6078" offset="0"/><stop style="stop-color:#cbcbcb;stop-opacity:1" id="stop6080" offset="1"/></linearGradient><linearGradient id="linearGradient6056"><stop style="stop-color:#fff;stop-opacity:1" id="stop6058" offset="0"/><stop style="stop-color:#eeeeec;stop-opacity:1" id="stop6060" offset="1"/></linearGradient><filter id="filter6052" width="1.283" height="2.415" x="-.141" y="-.707"><feGaussianBlur id="feGaussianBlur6054" stdDeviation="1.179"/></filter><linearGradient id="linearGradient6062" x1="4.856" x2="21.892" y1="3.636" y2="21.275" gradientTransform="matrix(1.117647,0,0,1.1,-1.4117645,-1.15)" gradientUnits="userSpaceOnUse" xlink:href="#linearGradient6056"/><linearGradient id="linearGradient6082" x1="17.688" x2="18.562" y1="4.528" y2="3.749" gradientTransform="matrix(1.3472897,0,0,1.3356241,-6.7302791,-1.5076969)" gradientUnits="userSpaceOnUse" xlink:href="#linearGradient6076"/><linearGradient id="linearGradient6114" x1="16.552" x2="16.552" y1="2.963" y2="7.836" gradientTransform="matrix(0.9803921,0,0,1.1,1.2941182,-0.8000001)" gradientUnits="userSpaceOnUse" xlink:href="#linearGradient6108"/><linearGradient id="linearGradient4925" x1="18.977" x2="14.121" y1="6.559" y2="2.942" gradientUnits="userSpaceOnUse" xlink:href="#linearGradient4919"/></defs><metadata id="metadata6"/><g id="layer1"><rect id="rect5870" width="20" height="4" x="2" y="19" rx="1.635" ry="1.635" style="opacity:.12663755;color:#000;fill:#000;fill-opacity:1;fill-rule:evenodd;stroke:none;stroke-width:.9999997px;stroke-linecap:butt;stroke-linejoin:miter;marker:none;marker-start:none;marker-mid:none;marker-end:none;stroke-miterlimit:4;stroke-dasharray:none;stroke-dashoffset:0;stroke-opacity:1;visibility:visible;display:inline;overflow:visible;enable-background:accumulate;filter:url(#filter6052)"/><path style="color:#000;fill:url(#linearGradient6062);fill-opacity:1;fill-rule:evenodd;stroke:#888a85;stroke-width:.9999997px;stroke-linecap:butt;stroke-linejoin:miter;marker:none;marker-start:none;marker-mid:none;marker-end:none;stroke-miterlimit:4;stroke-dashoffset:0;stroke-opacity:1;visibility:visible;display:inline;overflow:visible;enable-background:accumulate" id="rect4899" d="M 4.3274179,0.49999959 L 15.796562,0.49999959 L 21.5,6.2526387 L 21.5,20.701435 C 21.5,21.69784 20.684972,22.5 19.672582,22.5 L 4.3274179,22.5 C 3.3150284,22.5 2.4999999,21.69784 2.4999999,20.701435 L 2.4999999,2.2985637 C 2.4999999,1.3021592 3.3150284,0.49999959 4.3274179,0.49999959 z"/><g id="g6116" transform="matrix(1,0,0,-1,0,23.76277)"><path id="path6068" d="M 15.55783 10.027681 A 3.3196642 3.3196642 0 1 1 8.9185016,10.027681 A 3.3196642 3.3196642 0 1 1 15.55783 10.027681 z" transform="matrix(0.9948357,0,0,1.0050216,-0.1749648,-1.8830157)" style="opacity:1;color:#000;fill:#555753;fill-opacity:1;fill-rule:evenodd;stroke:none;stroke-width:.99999982px;stroke-linecap:butt;stroke-linejoin:miter;marker:none;marker-start:none;marker-mid:none;marker-end:none;stroke-miterlimit:4;stroke-dasharray:none;stroke-dashoffset:0;stroke-opacity:1;visibility:visible;display:inline;overflow:visible;enable-background:accumulate"/><path id="path6070" d="M 17.504202,16.45 C 17.504202,19.486001 15.03832,18.650002 12,18.650002 C 8.9616798,18.650002 6.4957974,19.486001 6.4957974,16.45 C 6.4957974,13.414 8.9616798,10.95 12,10.95 C 15.03832,10.95 17.504202,13.414 17.504202,16.45 z" style="color:#000;fill:#555753;fill-opacity:1;fill-rule:evenodd;stroke:none;stroke-width:.99999982px;stroke-linecap:butt;stroke-linejoin:miter;marker:none;marker-start:none;marker-mid:none;marker-end:none;stroke-miterlimit:4;stroke-dashoffset:0;stroke-opacity:1;visibility:visible;display:inline;overflow:visible;enable-background:accumulate"/></g><path id="path6084" d="M 5.3489939,1.4999999 L 15.221123,1.4999999 L 20.5,7.2473524 L 20.462646,19.683268 C 20.462646,20.689737 19.637994,21.499999 18.613652,21.499999 L 5.3489939,21.499999 C 4.3246511,21.499999 3.4999997,20.689737 3.4999997,19.683268 L 3.4999997,3.3167312 C 3.4999997,2.310262 4.3246511,1.4999999 5.3489939,1.4999999 z" style="color:#000;fill:none;fill-opacity:1;fill-rule:evenodd;stroke:#fff;stroke-width:.99999964px;stroke-linecap:butt;stroke-linejoin:miter;marker:none;marker-start:none;marker-mid:none;marker-end:none;stroke-miterlimit:4;stroke-dashoffset:0;stroke-opacity:1;visibility:visible;display:inline;overflow:visible;enable-background:accumulate"/><path id="path6104" d="M 16,2.0708482 L 20.981955,6.91941 L 21,8 L 16.036229,7.9999999 L 16,2.0708482 z" style="fill:url(#linearGradient6114);fill-opacity:1;fill-rule:evenodd;stroke:none;stroke-width:1px;stroke-linecap:butt;stroke-linejoin:miter;stroke-opacity:1"/><path style="fill:url(#linearGradient6082);fill-opacity:1;fill-rule:evenodd;stroke:url(#linearGradient4925);stroke-width:1px;stroke-linecap:butt;stroke-linejoin:miter;stroke-opacity:1" id="path6074" d="M 21.004529,6.5000002 L 15.536602,6.5 L 15.500001,0.84683065"/></g></svg>