<svg xmlns="http://www.w3.org/2000/svg" xmlns:cc="http://web.resource.org/cc/" xmlns:svg="http://www.w3.org/2000/svg" xmlns:xlink="http://www.w3.org/1999/xlink" id="svg6064" width="16" height="16" version="1.0"><defs id="defs6066"><linearGradient id="linearGradient5239"><stop style="stop-color:#2c67bd;stop-opacity:1" id="stop5241" offset="0"/><stop style="stop-color:#173662;stop-opacity:1" id="stop5243" offset="1"/></linearGradient><linearGradient id="linearGradient5163"><stop style="stop-color:#000;stop-opacity:1" id="stop5165" offset="0"/><stop style="stop-color:#000;stop-opacity:0" id="stop5167" offset="1"/></linearGradient><linearGradient id="linearGradient5153"><stop style="stop-color:#888b85;stop-opacity:1" id="stop5155" offset="0"/><stop style="stop-color:#555753;stop-opacity:1" id="stop5157" offset="1"/></linearGradient><linearGradient id="linearGradient5143"><stop style="stop-color:#84abd5;stop-opacity:1" id="stop5145" offset="0"/><stop id="stop5151" offset=".5" style="stop-color:#d0dfef;stop-opacity:1"/><stop style="stop-color:#84abd5;stop-opacity:1" id="stop5147" offset="1"/></linearGradient><linearGradient id="linearGradient5916"><stop style="stop-color:#eeeeec;stop-opacity:1" id="stop5918" offset="0"/><stop style="stop-color:#eeeeec;stop-opacity:0" id="stop5920" offset="1"/></linearGradient><linearGradient id="linearGradient6108"><stop style="stop-color:#000;stop-opacity:1" id="stop6110" offset="0"/><stop style="stop-color:#000;stop-opacity:0" id="stop6112" offset="1"/></linearGradient><linearGradient id="linearGradient6057" x1="16.552" x2="16.552" y1="2.963" y2="7.836" gradientTransform="matrix(0.9803921,0,0,1.1,-0.2357019,-3.9732306)" gradientUnits="userSpaceOnUse" xlink:href="#linearGradient6108"/><linearGradient id="linearGradient4916"><stop style="stop-color:#888a85;stop-opacity:1" id="stop4918" offset="0"/><stop style="stop-color:#5d5f5b;stop-opacity:0" id="stop4920" offset="1"/></linearGradient><linearGradient id="linearGradient6053" x1="18.964" x2="14.047" y1="6.505" y2="3.673" gradientTransform="translate(-1.5298199,-3.1732306)" gradientUnits="userSpaceOnUse" xlink:href="#linearGradient4916"/><linearGradient id="linearGradient6076"><stop style="stop-color:#fff;stop-opacity:1" id="stop6078" offset="0"/><stop style="stop-color:#cbcbcb;stop-opacity:1" id="stop6080" offset="1"/></linearGradient><linearGradient id="linearGradient6051" x1="17.688" x2="18.562" y1="4.528" y2="3.749" gradientTransform="matrix(1.3472897,0,0,1.3356241,-8.2600989,-4.6809276)" gradientUnits="userSpaceOnUse" xlink:href="#linearGradient6076"/><radialGradient id="radialGradient5922" cx="17.563" cy="3.495" r="2.219" fx="17.563" fy="3.495" gradientTransform="matrix(-0.7687899,0.7206648,-0.8929582,-0.95259,35.055209,-5.9451539)" gradientUnits="userSpaceOnUse" xlink:href="#linearGradient5916"/><radialGradient id="radialGradient5926" cx="17.654" cy="3.602" r="2.219" fx="17.654" fy="3.602" gradientTransform="matrix(-0.3081039,0.4850653,-0.8033197,-0.510253,15.173091,-4.5605093)" gradientUnits="userSpaceOnUse" xlink:href="#linearGradient5916"/><linearGradient id="linearGradient5149" x1="4.36" x2="5.871" y1="17.388" y2="18.979" gradientUnits="userSpaceOnUse" xlink:href="#linearGradient5143"/><linearGradient id="linearGradient5159" x1="1" x2="23" y1="12" y2="12" gradientUnits="userSpaceOnUse" xlink:href="#linearGradient5153"/><radialGradient id="radialGradient5169" cx="11.906" cy="20.156" r="9.219" fx="11.906" fy="20.156" gradientTransform="matrix(1,0,0,0.2881356,0,14.348517)" gradientUnits="userSpaceOnUse" xlink:href="#linearGradient5163"/><filter id="filter5223" width="1.293" height="2.017" x="-.147" y="-.509"><feGaussianBlur id="feGaussianBlur5225" stdDeviation="1.126"/></filter><linearGradient id="linearGradient5245" x1="4.877" x2="8.216" y1="16.336" y2="20.755" gradientUnits="userSpaceOnUse" xlink:href="#linearGradient5239"/></defs><metadata id="metadata6069"/><g id="layer1"><path style="fill:#d3d7cf;fill-opacity:1;fill-rule:evenodd;stroke:url(#linearGradient5159);stroke-width:1px;stroke-linecap:butt;stroke-linejoin:miter;stroke-opacity:1" id="path5215" d="M 1.5,6.7723402 L 2.8404256,9.3638294 C 3.8126975,11.396761 5.820583,10.267256 7.5319146,9.7659573 L 14.256383,16.490425 C 13.58111,18.325838 12.581385,19.944478 14.658511,21.181915 L 17.22766,22.5 L 18.746809,20.980851 L 17.294681,19.573404 L 17.27234,18.165958 L 18.031915,17.406383 L 19.417021,17.317022 L 20.913829,18.81383 L 22.499999,17.227659 L 21.092553,14.747873 C 19.89931,12.759135 18.17364,13.797621 16.378723,14.323404 L 9.6989358,7.6436169 C 10.551681,5.8432144 10.865458,4.0346416 9.2744677,2.9297872 L 6.7723401,1.5 L 5.1861699,3.0861703 L 6.7053189,4.6053191 L 6.6159571,5.9904254 L 5.8563828,6.7499999 L 4.4489359,6.7276595 L 3.0191487,5.2531914 L 1.5,6.7723402 z"/><path style="opacity:1;fill:#fff;fill-opacity:1;fill-rule:evenodd;stroke:none;stroke-width:1px;stroke-linecap:butt;stroke-linejoin:miter;stroke-opacity:1" id="path5221" d="M 6.4194737,2.6779497 L 8.3477265,3.8819448 L 8.972086,4.5828733 L 8.9782941,5.3178453 L 8.0345915,8.2417835 L 11.017699,10.871337 L 11.548028,10.252618 L 9.0965924,7.8895708 C 10.066037,5.4054495 10.18115,4.2227949 8.9879069,3.3831056 L 6.8672482,2.0960222 L 6.4194737,2.6779497 z"/><path style="opacity:1;fill:#fff;fill-opacity:1;fill-rule:evenodd;stroke:none;stroke-width:1px;stroke-linecap:butt;stroke-linejoin:miter;stroke-opacity:1" id="path6286" d="M 3.5197974,6.6646408 L 2.5196068,7.6804563 L 2.171875,6.8635146 L 3.0557585,5.9796311 L 3.4756032,6.4878641 L 3.5197974,6.6646408 z"/><path style="opacity:.27976194;fill:#2e3436;fill-rule:evenodd;stroke:none;stroke-width:1px;stroke-linecap:butt;stroke-linejoin:miter;stroke-opacity:1" id="path5928" d="M 12.90625,14.46875 L 14.40625,13.0625 L 13.5,12.1875 L 12.0625,13.75 L 12.90625,14.46875 z"/><path id="path6295" d="M 18.511556,2.6767767 L 15.909088,4.8749091 L 16.116116,6.260951 L 5.7797581,16.621498 L 7.3176857,18.109715 L 17.687611,7.8301805 L 19.082607,8.0354465 L 21.343751,5.5598412 L 18.511556,2.6767767 z" style="fill:#d3d7cf;fill-opacity:1;fill-rule:evenodd;stroke:#888a85;stroke-width:.99999994px;stroke-linecap:butt;stroke-linejoin:miter;stroke-opacity:1"/><path style="fill:#d4e2f1;fill-opacity:1;fill-rule:evenodd;stroke:url(#linearGradient5245);stroke-width:.99999982px;stroke-linecap:butt;stroke-linejoin:miter;stroke-opacity:1" id="path5217" d="M 8.4598996,13.455806 L 2.4451979,17.687674 C 2.4451979,17.687674 1.7418453,18.736059 2.6926977,19.689537 L 4.3255945,21.326944 C 5.0212223,22.024493 6.3796423,21.502887 6.3796423,21.502887 L 10.632583,15.657011 L 8.4598996,13.455806 z"/><path id="path5910" d="M 8.3511356,14.532639 L 3.5017016,18.372183 C 3.0502659,19.418602 4.9087429,20.858327 5.7218903,20.217737 L 9.6275708,15.721377 L 8.3511356,14.532639 z" style="fill:url(#linearGradient5149);fill-opacity:1;fill-rule:evenodd;stroke:none;stroke-width:.99999994px;stroke-linecap:butt;stroke-linejoin:miter;stroke-opacity:1"/><path style="opacity:1;fill:#fff;fill-opacity:1;fill-rule:evenodd;stroke:none;stroke-width:1px;stroke-linecap:butt;stroke-linejoin:miter;stroke-opacity:1" id="path5912" d="M 18.951718,3.8474567 L 17.204478,5.3241703 L 17.391978,6.6522163 L 9.951272,13.954978 L 9.5459416,13.525981 L 16.661988,6.4255586 L 16.483316,5.0692686 L 18.392819,3.2573074 L 18.951718,3.8474567 z"/><path style="fill:url(#radialGradient5922);fill-opacity:1;fill-rule:evenodd;stroke:none;stroke-width:1px;stroke-linecap:butt;stroke-linejoin:miter;stroke-opacity:1" id="path5914" d="M 18.46875,3.1953124 L 20.65782,5.5651808 L 18.84375,7.5625 L 16.458812,5.0670765 L 18.46875,3.1953124 z"/><path id="path5924" d="M 6.869313,2.0937499 L 8.947438,3.34375 L 7.244313,4.5 L 5.9375,3.1139515 L 6.869313,2.0937499 z" style="fill:url(#radialGradient5926);fill-opacity:1;fill-rule:evenodd;stroke:none;stroke-width:1px;stroke-linecap:butt;stroke-linejoin:miter;stroke-opacity:1"/><path style="opacity:1;color:#000;fill:#fff;fill-opacity:1;fill-rule:evenodd;stroke:none;stroke-width:1;stroke-linecap:round;stroke-linejoin:miter;marker:none;marker-start:none;marker-mid:none;marker-end:none;stroke-miterlimit:10;stroke-dasharray:none;stroke-dashoffset:0;stroke-opacity:1;visibility:visible;display:inline;overflow:visible;enable-background:accumulate" id="path5227" d="M 13.75,12.4375 L 16.3125,14.9375 C 16.3125,14.9375 18.8125,13.6875 19.75,14.1875 C 20.6875,14.6875 21.8125,17.125 21.8125,17.125 C 21.8125,17.125 20.625,15.0625 19.75,14.8125 C 18.875,14.5625 16.1875,15.75 16.1875,15.75 L 13.3125,12.9375 L 13.75,12.4375 z"/><path style="opacity:1;color:#000;fill:#fff;fill-opacity:1;fill-rule:evenodd;stroke:none;stroke-width:1;stroke-linecap:round;stroke-linejoin:miter;marker:none;marker-start:none;marker-mid:none;marker-end:none;stroke-miterlimit:10;stroke-dasharray:none;stroke-dashoffset:0;stroke-opacity:1;visibility:visible;display:inline;overflow:visible;enable-background:accumulate" id="path5229" d="M 17.854446,16.840544 L 15.998291,17.989592 L 15.909903,19.934136 L 17.500893,21.525126 L 18.031223,20.994796 L 16.705398,19.757359 L 16.793786,18.077981 L 17.854446,16.840544 z"/></g></svg>