<svg xmlns="http://www.w3.org/2000/svg" xmlns:cc="http://web.resource.org/cc/" xmlns:svg="http://www.w3.org/2000/svg" xmlns:xlink="http://www.w3.org/1999/xlink" id="svg2" width="24" height="24" version="1.0"><metadata id="metadata7"/><defs id="defs5"><linearGradient id="linearGradient4482"><stop style="stop-color:#000;stop-opacity:0" id="stop4484" offset="0"/><stop id="stop4490" offset=".5" style="stop-color:#000;stop-opacity:1"/><stop style="stop-color:#000;stop-opacity:0" id="stop4486" offset="1"/></linearGradient><linearGradient id="linearGradient4433"><stop style="stop-color:#000;stop-opacity:1" id="stop4435" offset="0"/><stop style="stop-color:#000;stop-opacity:0" id="stop4437" offset="1"/></linearGradient><linearGradient id="linearGradient4392"><stop id="stop4394" offset="0" style="stop-color:#fff;stop-opacity:1"/><stop id="stop4396" offset="1" style="stop-color:#d3d7cf;stop-opacity:1"/></linearGradient><linearGradient id="linearGradient3331"><stop style="stop-color:#eeeeec;stop-opacity:1" id="stop3333" offset="0"/><stop id="stop3339" offset=".422" style="stop-color:#fff;stop-opacity:1"/><stop style="stop-color:#eeeeec;stop-opacity:1" id="stop3335" offset="1"/></linearGradient><linearGradient id="linearGradient3283"><stop style="stop-color:#f4dbb3;stop-opacity:1" id="stop3285" offset="0"/><stop style="stop-color:#e9b96e;stop-opacity:1" id="stop3287" offset="1"/></linearGradient><linearGradient id="linearGradient3269"><stop style="stop-color:#fff;stop-opacity:1" id="stop3271" offset="0"/><stop style="stop-color:#fff;stop-opacity:0" id="stop3273" offset="1"/></linearGradient><linearGradient id="linearGradient3261"><stop style="stop-color:#fff;stop-opacity:1" id="stop3263" offset="0"/><stop style="stop-color:#fff;stop-opacity:0" id="stop3265" offset="1"/></linearGradient><linearGradient id="linearGradient3253"><stop style="stop-color:#fff;stop-opacity:1" id="stop3255" offset="0"/><stop style="stop-color:#fff;stop-opacity:0" id="stop3257" offset="1"/></linearGradient><linearGradient id="linearGradient3208"><stop style="stop-color:#c17d11;stop-opacity:1" id="stop3210" offset="0"/><stop style="stop-color:#c17d11;stop-opacity:0" id="stop3212" offset="1"/></linearGradient><linearGradient id="linearGradient3214" x1="42.656" x2="42.656" y1="12.531" y2="14.543" gradientUnits="userSpaceOnUse" xlink:href="#linearGradient3208"/><radialGradient id="radialGradient3305" cx="42.938" cy="13" r="5.5" fx="42.938" fy="13" gradientTransform="matrix(1,0,0,0.8750102,0,1.6248744)" gradientUnits="userSpaceOnUse" xlink:href="#linearGradient3283"/><linearGradient id="linearGradient3307" x1="42.656" x2="42.656" y1="12.818" y2="15.543" gradientUnits="userSpaceOnUse" xlink:href="#linearGradient3208"/><linearGradient id="linearGradient3309" x1="42.656" x2="42.656" y1="12.531" y2="14.543" gradientUnits="userSpaceOnUse" xlink:href="#linearGradient3208"/><linearGradient id="linearGradient3311" x1="42.656" x2="42.656" y1="12.531" y2="14.543" gradientUnits="userSpaceOnUse" xlink:href="#linearGradient3208"/><linearGradient id="linearGradient3315" x1="41.406" x2="41.406" y1="10.063" y2="13.72" gradientUnits="userSpaceOnUse" xlink:href="#linearGradient3269"/><linearGradient id="linearGradient3317" x1="43.406" x2="43.406" y1="12.154" y2="13.879" gradientUnits="userSpaceOnUse" xlink:href="#linearGradient3253"/><linearGradient id="linearGradient3319" x1="45.469" x2="45.469" y1="12.094" y2="13.782" gradientUnits="userSpaceOnUse" xlink:href="#linearGradient3261"/><linearGradient id="linearGradient3337" x1="32.933" x2="40.789" y1="21.188" y2="21.188" gradientTransform="translate(-20,-1)" gradientUnits="userSpaceOnUse" xlink:href="#linearGradient3331"/><linearGradient id="linearGradient4338" x1="42.656" x2="42.656" y1="13.499" y2="15.57" gradientUnits="userSpaceOnUse" xlink:href="#linearGradient3208"/><linearGradient id="linearGradient4366" x1="-48.438" x2="-48.438" y1="2.654" y2="4.112" gradientUnits="userSpaceOnUse" xlink:href="#linearGradient4392"/><linearGradient id="linearGradient4421" x1="-48.438" x2="-48.438" y1="2.654" y2="4.112" gradientUnits="userSpaceOnUse" xlink:href="#linearGradient4392"/><radialGradient id="radialGradient4439" cx="2" cy="17.75" r="2" fx="2" fy="17.75" gradientTransform="matrix(2,0,0,1.375,-10,-42.15625)" gradientUnits="userSpaceOnUse" xlink:href="#linearGradient4433"/><linearGradient id="linearGradient4460" x1="32.933" x2="40.789" y1="21.188" y2="21.188" gradientTransform="translate(-20,-1)" gradientUnits="userSpaceOnUse" xlink:href="#linearGradient3331"/><radialGradient id="radialGradient4462" cx="42.938" cy="13" r="5.5" fx="42.938" fy="13" gradientTransform="matrix(1,0,0,0.8750102,0,1.6248744)" gradientUnits="userSpaceOnUse" xlink:href="#linearGradient3283"/><linearGradient id="linearGradient4464" x1="42.656" x2="42.656" y1="12.818" y2="15.543" gradientUnits="userSpaceOnUse" xlink:href="#linearGradient3208"/><linearGradient id="linearGradient4466" x1="42.656" x2="42.656" y1="12.531" y2="14.543" gradientUnits="userSpaceOnUse" xlink:href="#linearGradient3208"/><linearGradient id="linearGradient4468" x1="42.656" x2="42.656" y1="12.531" y2="14.543" gradientUnits="userSpaceOnUse" xlink:href="#linearGradient3208"/><linearGradient id="linearGradient4470" x1="42.656" x2="42.656" y1="13.499" y2="15.57" gradientUnits="userSpaceOnUse" xlink:href="#linearGradient3208"/><linearGradient id="linearGradient4472" x1="41.406" x2="41.406" y1="10.063" y2="13.72" gradientUnits="userSpaceOnUse" xlink:href="#linearGradient3269"/><linearGradient id="linearGradient4474" x1="43.406" x2="43.406" y1="12.154" y2="13.879" gradientUnits="userSpaceOnUse" xlink:href="#linearGradient3253"/><linearGradient id="linearGradient4476" x1="45.469" x2="45.469" y1="12.094" y2="13.782" gradientUnits="userSpaceOnUse" xlink:href="#linearGradient3261"/><radialGradient id="radialGradient4478" cx="2" cy="17.75" r="2" fx="2" fy="17.75" gradientTransform="matrix(2,0,0,1.375,14,-6.65625)" gradientUnits="userSpaceOnUse" xlink:href="#linearGradient4433"/><linearGradient id="linearGradient4488" x1="9.969" x2="9.969" y1="15" y2="20.501" gradientUnits="userSpaceOnUse" xlink:href="#linearGradient4482"/><radialGradient id="radialGradient4497" cx="2" cy="17.75" r="2" fx="2" fy="17.75" gradientTransform="matrix(2,0,0,1.375,-10,-42.15625)" gradientUnits="userSpaceOnUse" xlink:href="#linearGradient4433"/><radialGradient id="radialGradient4499" cx="2" cy="17.75" r="2" fx="2" fy="17.75" gradientTransform="matrix(2,0,0,1.375,14,-6.65625)" gradientUnits="userSpaceOnUse" xlink:href="#linearGradient4433"/><linearGradient id="linearGradient4501" x1="9.969" x2="9.969" y1="15" y2="20.501" gradientUnits="userSpaceOnUse" xlink:href="#linearGradient4482"/><linearGradient id="linearGradient4504" x1="9.969" x2="9.969" y1="15" y2="20.501" gradientUnits="userSpaceOnUse" xlink:href="#linearGradient4482"/><radialGradient id="radialGradient4507" cx="2" cy="17.75" r="2" fx="2" fy="17.75" gradientTransform="matrix(2,0,0,1.375,14,-6.65625)" gradientUnits="userSpaceOnUse" xlink:href="#linearGradient4433"/><radialGradient id="radialGradient4510" cx="2" cy="17.75" r="2" fx="2" fy="17.75" gradientTransform="matrix(2,0,0,1.375,-10,-42.15625)" gradientUnits="userSpaceOnUse" xlink:href="#linearGradient4433"/><radialGradient id="radialGradient4517" cx="2" cy="17.75" r="2" fx="2" fy="17.75" gradientTransform="matrix(2,0,0,1.375,-10,-42.15625)" gradientUnits="userSpaceOnUse" xlink:href="#linearGradient4433"/><radialGradient id="radialGradient4519" cx="2" cy="17.75" r="2" fx="2" fy="17.75" gradientTransform="matrix(2,0,0,1.375,14,-6.65625)" gradientUnits="userSpaceOnUse" xlink:href="#linearGradient4433"/><linearGradient id="linearGradient4521" x1="9.969" x2="9.969" y1="15" y2="20.501" gradientUnits="userSpaceOnUse" xlink:href="#linearGradient4482"/><linearGradient id="linearGradient4525" x1="-48.438" x2="-48.438" y1="2.654" y2="4.112" gradientTransform="translate(0,3)" gradientUnits="userSpaceOnUse" xlink:href="#linearGradient4392"/><linearGradient id="linearGradient4529" x1="-48.438" x2="-48.438" y1="2.654" y2="4.112" gradientTransform="translate(0,6)" gradientUnits="userSpaceOnUse" xlink:href="#linearGradient4392"/><linearGradient id="linearGradient4533" x1="-48.438" x2="-48.438" y1="2.654" y2="4.112" gradientTransform="translate(0,9)" gradientUnits="userSpaceOnUse" xlink:href="#linearGradient4392"/><linearGradient id="linearGradient4537" x1="-48.438" x2="-48.438" y1="2.654" y2="4.112" gradientTransform="translate(0,12)" gradientUnits="userSpaceOnUse" xlink:href="#linearGradient4392"/><linearGradient id="linearGradient4553" x1="32.933" x2="40.789" y1="21.188" y2="21.188" gradientTransform="translate(-20,-1)" gradientUnits="userSpaceOnUse" xlink:href="#linearGradient3331"/></defs><g id="g4512" transform="matrix(1.075,0,0,1.0909091,-1.15,-1.3636364)" style="opacity:.23754789"><rect id="rect4423" width="4" height="5.5" x="-6" y="-20.5" transform="scale(-1,-1)" style="opacity:1;fill:url(#radialGradient4517);fill-opacity:1;stroke:none;stroke-width:1;stroke-linecap:square;stroke-linejoin:round;stroke-miterlimit:4;stroke-dasharray:none;stroke-dashoffset:0;stroke-opacity:1"/><rect id="rect4441" width="4" height="5.5" x="18" y="15" style="opacity:1;fill:url(#radialGradient4519);fill-opacity:1;stroke:none;stroke-width:1;stroke-linecap:square;stroke-linejoin:round;stroke-miterlimit:4;stroke-dasharray:none;stroke-dashoffset:0;stroke-opacity:1"/><rect id="rect4480" width="12" height="5.5" x="6" y="15" style="opacity:1;fill:url(#linearGradient4521);fill-opacity:1;stroke:none;stroke-width:1;stroke-linecap:square;stroke-linejoin:round;stroke-miterlimit:4;stroke-dasharray:none;stroke-dashoffset:0;stroke-opacity:1"/></g><g id="g4412" transform="translate(60,0)"><rect id="rect4398" width="17" height="17" x="-56.5" y="1.5" rx="2.122" ry="2.122" style="opacity:1;fill:#d3d7cf;fill-opacity:1;stroke:#888a85;stroke-width:1;stroke-linecap:round;stroke-linejoin:round;stroke-miterlimit:4;stroke-dasharray:none;stroke-dashoffset:0;stroke-opacity:1"/><rect id="rect4400" width="16" height="3" x="-56" y="2" rx="1.5" ry="1.5" style="opacity:.98999999;fill:url(#linearGradient4421);fill-opacity:1;stroke:none;stroke-width:1;stroke-linecap:square;stroke-linejoin:round;stroke-miterlimit:4;stroke-dasharray:none;stroke-dashoffset:0;stroke-opacity:1"/><rect id="use4402" width="16" height="3" x="-56" y="5" rx="1.5" ry="1.5" style="opacity:.98999999;fill:url(#linearGradient4525);fill-opacity:1;stroke:none;stroke-width:1;stroke-linecap:square;stroke-linejoin:round;stroke-miterlimit:4;stroke-dasharray:none;stroke-dashoffset:0;stroke-opacity:1"/><rect id="use4404" width="16" height="3" x="-56" y="8" rx="1.5" ry="1.5" style="opacity:.98999999;fill:url(#linearGradient4529);fill-opacity:1;stroke:none;stroke-width:1;stroke-linecap:square;stroke-linejoin:round;stroke-miterlimit:4;stroke-dasharray:none;stroke-dashoffset:0;stroke-opacity:1"/><rect id="use4406" width="16" height="3" x="-56" y="11" rx="1.5" ry="1.5" style="opacity:.98999999;fill:url(#linearGradient4533);fill-opacity:1;stroke:none;stroke-width:1;stroke-linecap:square;stroke-linejoin:round;stroke-miterlimit:4;stroke-dasharray:none;stroke-dashoffset:0;stroke-opacity:1"/><rect id="use4408" width="16" height="3" x="-56" y="14" rx="1.5" ry="1.5" style="opacity:.98999999;fill:url(#linearGradient4537);fill-opacity:1;stroke:none;stroke-width:1;stroke-linecap:square;stroke-linejoin:round;stroke-miterlimit:4;stroke-dasharray:none;stroke-dashoffset:0;stroke-opacity:1"/><path id="path4410" d="M -54.375,2.53125 C -55.00376,2.53125 -55.46875,2.99624 -55.46875,3.625 L -55.46875,16.375 C -55.46875,17.00376 -55.003761,17.46875 -54.375,17.46875 L -41.625,17.46875 C -40.99624,17.46875 -40.53125,17.003761 -40.53125,16.375 L -40.53125,3.625 C -40.53125,2.9962394 -40.996239,2.53125 -41.625,2.53125 L -54.375,2.53125 z" style="opacity:1;fill:none;fill-opacity:1;stroke:#fff;stroke-width:1;stroke-linecap:round;stroke-linejoin:round;stroke-miterlimit:4;stroke-dasharray:none;stroke-dashoffset:0;stroke-opacity:1"/></g><path style="opacity:1;fill:#fff;fill-opacity:1;stroke:#fff;stroke-width:.99999994;stroke-linecap:round;stroke-linejoin:round;stroke-miterlimit:4;stroke-dasharray:none;stroke-dashoffset:0;stroke-opacity:1" id="path4330" d="M 14.5 5.5 C 13.409297 5.5 12.5 6.4092972 12.5 7.5 L 12.5 10.5 C 11.409297 10.5 10.5 11.409297 10.5 12.5 L 10.5 15.5 C 10.5 16.230579 10.685204 16.90693 10.96875 17.5 L 19.5 17.5 L 19.5 9.84375 C 19.223499 9.635162 18.882615 9.5 18.5 9.5 C 18.110071 9.5 17.8103 9.738328 17.5 9.9375 C 17.1897 9.738328 16.889929 9.5 16.5 9.5 L 16.5 7.5 C 16.5 6.4092972 15.590703 5.5 14.5 5.5 z"/><rect style="fill:url(#linearGradient4553);fill-opacity:1;stroke:#729fcf;stroke-width:1.00000012;stroke-linecap:round;stroke-linejoin:round;stroke-miterlimit:4;stroke-dasharray:none;stroke-dashoffset:0;stroke-opacity:1" id="rect3329" width="7" height="3" x="13.5" y="18.5"/><g id="g3291" transform="translate(-27,0)"><path id="path3185" d="M 41.5,6.5 C 40.946,6.5 40.5,6.946 40.5,7.5 L 40.5,12.5 C 40.5,11.946 40.054,11.5 39.5,11.5 C 38.946,11.5 38.5,11.946 38.5,12.5 L 38.5,15.5 C 38.5,17.968706 40.855226,19.515283 42.564721,19.5 L 45.65625,19.5 C 47.176529,19.5 48.5,17.555583 48.5,16.5 L 48.5,12.5 C 48.5,11.946 48.054,11.5 47.5,11.5 C 46.946,11.5 46.5,11.946 46.5,12.5 L 46.5,11.5 C 46.5,10.946 46.054,10.5 45.5,10.5 C 44.946,10.5 44.5,10.946 44.5,11.5 C 44.5,10.946 44.054,10.5 43.5,10.5 C 42.946,10.5 42.5,10.946 42.5,11.5 L 42.5,7.5 C 42.5,6.946 42.054,6.5 41.5,6.5 z" style="opacity:1;fill:url(#radialGradient4462);fill-opacity:1;stroke:#c17d11;stroke-width:.99999994;stroke-linecap:round;stroke-linejoin:round;stroke-miterlimit:4;stroke-dasharray:none;stroke-dashoffset:0;stroke-opacity:1"/><path id="path3238" d="M 39.53125,12.5 L 39.46875,15.5 C 39.46875,16.423456 39.903717,17.144961 40.53125,17.6875 C 41.158783,18.230039 42.006829,18.536218 42.5625,18.53125 L 45.65625,18.53125 C 45.999204,18.53125 46.505158,18.225897 46.90625,17.75 C 47.307342,17.274103 47.53125,16.618827 47.53125,16.5 L 47.53125,12.5" style="opacity:.54406128;fill:none;fill-opacity:1;stroke:#fff;stroke-width:.99999994;stroke-linecap:round;stroke-linejoin:round;stroke-miterlimit:4;stroke-dashoffset:0;stroke-opacity:1"/><path id="path3194" d="M 46.5,11.991767 L 46.5,15.494369" style="fill:#c17d11;fill-opacity:1;fill-rule:evenodd;stroke:url(#linearGradient4464);stroke-width:1px;stroke-linecap:round;stroke-linejoin:miter;stroke-opacity:1"/><path id="path3196" d="M 44.5,10.903379 L 44.5,14.5" style="fill:#c17d11;fill-opacity:1;fill-rule:evenodd;stroke:url(#linearGradient4466);stroke-width:1px;stroke-linecap:round;stroke-linejoin:miter;stroke-opacity:1"/><path id="path3198" d="M 42.5,10.5 L 42.5,14.5" style="fill:#c17d11;fill-opacity:1;fill-rule:evenodd;stroke:url(#linearGradient4468);stroke-width:1px;stroke-linecap:round;stroke-linejoin:miter;stroke-opacity:1"/><path id="path3200" d="M 40.5,11.5 L 40.5,15.5" style="fill:#c17d11;fill-opacity:1;fill-rule:evenodd;stroke:url(#linearGradient4470);stroke-width:1px;stroke-linecap:round;stroke-linejoin:miter;stroke-opacity:1"/><path id="path3247" d="M 41.5,7.5 L 41.5,14.5" style="opacity:.51724135;fill:none;fill-opacity:1;fill-rule:evenodd;stroke:url(#linearGradient4472);stroke-width:1px;stroke-linecap:round;stroke-linejoin:miter;stroke-opacity:1"/><path id="path3249" d="M 43.5,11.5 L 43.5,14.5" style="opacity:.57088126;fill:none;fill-opacity:1;fill-rule:evenodd;stroke:url(#linearGradient4474);stroke-width:1px;stroke-linecap:round;stroke-linejoin:miter;stroke-opacity:1"/><path id="path3251" d="M 45.5,11.5 L 45.5,14.5" style="opacity:.57088126;fill:none;fill-opacity:1;fill-rule:evenodd;stroke:url(#linearGradient4476);stroke-width:1px;stroke-linecap:round;stroke-linejoin:miter;stroke-opacity:1"/><path id="path3277" d="M 41.90625 14.5 A 0.421875 0.46875 0 1 1 41.0625,14.5 A 0.421875 0.46875 0 1 1 41.90625 14.5 z" transform="matrix(1.1851846,0,0,1.0666671,-7.666644,-0.9666736)" style="opacity:1;fill:#fff;fill-opacity:1;stroke:none;stroke-width:1;stroke-linecap:round;stroke-linejoin:round;stroke-miterlimit:4;stroke-dasharray:none;stroke-dashoffset:0;stroke-opacity:1"/><path id="path3279" d="M 41.90625 14.5 A 0.421875 0.46875 0 1 1 41.0625,14.5 A 0.421875 0.46875 0 1 1 41.90625 14.5 z" transform="matrix(1.1851846,0,0,1.0666671,-5.666644,-0.9666736)" style="opacity:1;fill:#fff;fill-opacity:1;stroke:none;stroke-width:1;stroke-linecap:round;stroke-linejoin:round;stroke-miterlimit:4;stroke-dasharray:none;stroke-dashoffset:0;stroke-opacity:1"/><path id="path3281" d="M 41.90625 14.5 A 0.421875 0.46875 0 1 1 41.0625,14.5 A 0.421875 0.46875 0 1 1 41.90625 14.5 z" transform="matrix(1.1851846,0,0,1.0666671,-3.666644,-0.9666736)" style="opacity:1;fill:#fff;fill-opacity:1;stroke:none;stroke-width:1;stroke-linecap:round;stroke-linejoin:round;stroke-miterlimit:4;stroke-dasharray:none;stroke-dashoffset:0;stroke-opacity:1"/></g></svg>