<svg xmlns="http://www.w3.org/2000/svg" xmlns:cc="http://web.resource.org/cc/" xmlns:svg="http://www.w3.org/2000/svg" xmlns:xlink="http://www.w3.org/1999/xlink" id="svg2" width="24" height="24" version="1.0"><defs id="defs3"><linearGradient id="linearGradient5875"><stop style="stop-color:#000;stop-opacity:1" id="stop5877" offset="0"/><stop style="stop-color:#000;stop-opacity:0" id="stop5879" offset="1"/></linearGradient><radialGradient id="radialGradient5881" cx="11.78" cy="20.024" r="10.739" fx="11.78" fy="20.024" gradientTransform="matrix(1,0,0,0.2802768,0,14.411618)" gradientUnits="userSpaceOnUse" xlink:href="#linearGradient5875"/><linearGradient id="linearGradient6262"><stop style="stop-color:#000;stop-opacity:1" id="stop6264" offset="0"/><stop style="stop-color:#000;stop-opacity:0" id="stop6266" offset="1"/></linearGradient><linearGradient id="linearGradient6254"><stop style="stop-color:#000;stop-opacity:1" id="stop6256" offset="0"/><stop style="stop-color:#000;stop-opacity:0" id="stop6258" offset="1"/></linearGradient><linearGradient id="linearGradient6234"><stop id="stop6236" offset="0" style="stop-color:#fd0000;stop-opacity:1"/><stop style="stop-color:#fd0000;stop-opacity:1" id="stop6238" offset="0"/><stop style="stop-color:#bc0000;stop-opacity:1" id="stop6240" offset=".5"/><stop id="stop6242" offset="1" style="stop-color:#fd0000;stop-opacity:1"/><stop id="stop6244" offset="1" style="stop-color:#fd0000;stop-opacity:1"/></linearGradient><linearGradient id="linearGradient6004"><stop style="stop-color:#fd0000;stop-opacity:1" id="stop6006" offset="0"/><stop id="stop6024" offset=".147" style="stop-color:#fd0000;stop-opacity:1"/><stop id="stop6018" offset=".5" style="stop-color:#bc0000;stop-opacity:1"/><stop style="stop-color:#fd0000;stop-opacity:1" id="stop6022" offset=".888"/><stop style="stop-color:#fd0000;stop-opacity:1" id="stop6008" offset="1"/></linearGradient><linearGradient id="linearGradient4917"><stop style="stop-color:#fff;stop-opacity:1" id="stop4919" offset="0"/><stop style="stop-color:#d8d8d4;stop-opacity:1" id="stop4921" offset="1"/></linearGradient><linearGradient id="linearGradient5531"><stop id="stop5533" offset="0" style="stop-color:#fff;stop-opacity:1"/><stop id="stop5535" offset="1" style="stop-color:#fff;stop-opacity:0"/></linearGradient><linearGradient id="linearGradient5519"><stop style="stop-color:#000;stop-opacity:1" id="stop5521" offset="0"/><stop style="stop-color:#000;stop-opacity:0" id="stop5523" offset="1"/></linearGradient><linearGradient id="linearGradient5505"><stop style="stop-color:#2e3436;stop-opacity:1" id="stop5507" offset="0"/><stop style="stop-color:#2e3436;stop-opacity:0" id="stop5509" offset="1"/></linearGradient><linearGradient id="linearGradient5525" x1="18" x2="10" y1="16.562" y2="10" gradientTransform="matrix(1.1910261,0,0,1.1910261,2.9446414,3.208533)" gradientUnits="userSpaceOnUse" xlink:href="#linearGradient5519"/><linearGradient id="linearGradient5529" x1="18" x2="10" y1="16.562" y2="10" gradientTransform="matrix(-1.3963778,0,0,-1.3963778,23.376126,23.277032)" gradientUnits="userSpaceOnUse" xlink:href="#linearGradient5531"/><linearGradient id="linearGradient4923" x1="10.441" x2="12.805" y1="10.306" y2="15.184" gradientTransform="matrix(1.3963779,0,0,1.3963779,0.801811,0.801811)" gradientUnits="userSpaceOnUse" xlink:href="#linearGradient4917"/><linearGradient id="linearGradient5948" x1="6.573" x2="13.444" y1="6.19" y2="15.042" gradientUnits="userSpaceOnUse" xlink:href="#linearGradient4917"/><linearGradient id="linearGradient5950" x1="8.526" x2="13" y1="8" y2="13" gradientTransform="matrix(0,-0.9313719,-0.9313719,0,15.762427,15.841447)" gradientUnits="userSpaceOnUse" xlink:href="#linearGradient5505"/><linearGradient id="linearGradient5952" x1="18" x2="10" y1="16.562" y2="10" gradientTransform="matrix(-1,0,0,-1,15.999111,16.34375)" gradientUnits="userSpaceOnUse" xlink:href="#linearGradient5531"/><linearGradient id="linearGradient5954" x1="18" x2="10" y1="16.562" y2="10" gradientTransform="matrix(0.8529397,0,0,0.8529397,1.4559031,1.4010577)" gradientUnits="userSpaceOnUse" xlink:href="#linearGradient5519"/><linearGradient id="linearGradient5978" x1="6.573" x2="13.444" y1="6.19" y2="15.042" gradientTransform="translate(-20,0)" gradientUnits="userSpaceOnUse" xlink:href="#linearGradient4917"/><linearGradient id="linearGradient5980" x1="8.526" x2="13" y1="8" y2="13" gradientTransform="matrix(0,-0.9313719,-0.9313719,0,-4.237573,15.841447)" gradientUnits="userSpaceOnUse" xlink:href="#linearGradient5505"/><linearGradient id="linearGradient5982" x1="18" x2="10" y1="16.562" y2="10" gradientTransform="matrix(-1,0,0,-1,-3.65625,16.34375)" gradientUnits="userSpaceOnUse" xlink:href="#linearGradient5531"/><linearGradient id="linearGradient5984" x1="18" x2="10" y1="16.562" y2="10" gradientTransform="matrix(0.8529397,0,0,0.8529397,-17.999077,2.000923)" gradientUnits="userSpaceOnUse" xlink:href="#linearGradient5519"/><radialGradient id="radialGradient5992" cx="9.146" cy="10.09" r="5.197" fx="9.146" fy="10.09" gradientTransform="matrix(1.362303,0,0,1.3548289,-2.2464087,-2.411548)" gradientUnits="userSpaceOnUse" xlink:href="#linearGradient5505"/><linearGradient id="linearGradient6010" x1="3.815" x2="17.837" y1="17.888" y2="4.361" gradientTransform="translate(1,1)" gradientUnits="userSpaceOnUse" xlink:href="#linearGradient6004"/><linearGradient id="linearGradient6042" x1="10.192" x2="12.663" y1="10.377" y2="15.149" gradientTransform="matrix(1.3963779,0,0,1.3963779,-26.198189,29.801811)" gradientUnits="userSpaceOnUse" xlink:href="#linearGradient4917"/><linearGradient id="linearGradient6044" x1="3.716" x2="17.837" y1="17.987" y2="4.361" gradientTransform="translate(-26,30)" gradientUnits="userSpaceOnUse" xlink:href="#linearGradient6004"/><linearGradient id="linearGradient6046" x1="18" x2="10" y1="16.562" y2="10" gradientTransform="matrix(-1.3963778,0,0,-1.3963778,-3.623874,52.277032)" gradientUnits="userSpaceOnUse" xlink:href="#linearGradient5531"/><linearGradient id="linearGradient6048" x1="18" x2="10" y1="16.562" y2="10" gradientTransform="matrix(1.1910261,0,0,1.1910261,-24.055359,32.208533)" gradientUnits="userSpaceOnUse" xlink:href="#linearGradient5519"/><radialGradient id="radialGradient6050" cx="9.146" cy="10.09" r="5.197" fx="9.146" fy="10.09" gradientTransform="matrix(1.362303,0,0,1.3548289,-29.246409,26.588452)" gradientUnits="userSpaceOnUse" xlink:href="#linearGradient5505"/><linearGradient id="linearGradient6190" x1="10.192" x2="12.663" y1="10.377" y2="15.149" gradientTransform="matrix(2.0597774,0,0,2.0597772,-0.5292324,62.470882)" gradientUnits="userSpaceOnUse" xlink:href="#linearGradient4917"/><linearGradient id="linearGradient6192" x1="3.716" x2="17.837" y1="17.987" y2="4.361" gradientTransform="matrix(1.4971349,0,0,1.4971349,-0.4789645,62.521428)" gradientUnits="userSpaceOnUse" xlink:href="#linearGradient6234"/><linearGradient id="linearGradient6194" x1="18" x2="10" y1="16.562" y2="10" gradientTransform="matrix(-2.0597774,0,0,-2.0597771,32.769824,95.62376)" gradientUnits="userSpaceOnUse" xlink:href="#linearGradient5531"/><linearGradient id="linearGradient6196" x1="18" x2="10" y1="16.562" y2="10" gradientTransform="matrix(1.7568659,0,0,1.7568657,2.6316267,66.021003)" gradientUnits="userSpaceOnUse" xlink:href="#linearGradient5519"/><radialGradient id="radialGradient6198" cx="9.146" cy="10.09" r="5.197" fx="9.146" fy="10.09" gradientTransform="matrix(2.0095141,0,0,1.9984889,-5.0256187,57.730901)" gradientUnits="userSpaceOnUse" xlink:href="#linearGradient5505"/><linearGradient id="linearGradient6320" x1="10.192" x2="12.663" y1="10.377" y2="15.149" gradientTransform="matrix(2.0597774,0,0,2.0597772,-36.529232,62.470882)" gradientUnits="userSpaceOnUse" xlink:href="#linearGradient4917"/><linearGradient id="linearGradient6322" x1="3.716" x2="17.837" y1="17.987" y2="4.361" gradientTransform="matrix(1.4971349,0,0,1.4971349,-36.478965,62.521428)" gradientUnits="userSpaceOnUse" xlink:href="#linearGradient6234"/><linearGradient id="linearGradient6324" x1="18" x2="10" y1="16.562" y2="10" gradientTransform="matrix(-2.0597774,0,0,-2.0597771,-3.230176,95.62376)" gradientUnits="userSpaceOnUse" xlink:href="#linearGradient5531"/><linearGradient id="linearGradient6326" x1="18" x2="10" y1="16.562" y2="10" gradientTransform="matrix(1.7568659,0,0,1.7568657,-33.368373,66.021003)" gradientUnits="userSpaceOnUse" xlink:href="#linearGradient5519"/><linearGradient id="linearGradient6330" x1="32.899" x2="27.251" y1="4.997" y2="9.84" gradientTransform="translate(-36,63)" gradientUnits="userSpaceOnUse" xlink:href="#linearGradient6262"/><linearGradient id="linearGradient6334" x1="21.305" x2="26.458" y1="10.744" y2="6.075" gradientTransform="translate(-39.501708,66.603622)" gradientUnits="userSpaceOnUse" xlink:href="#linearGradient6262"/><linearGradient id="linearGradient6336" x1="21.305" x2="26.458" y1="10.744" y2="6.075" gradientTransform="matrix(-1,0,0,-1,-0.498292,91.39638)" gradientUnits="userSpaceOnUse" xlink:href="#linearGradient6262"/><linearGradient id="linearGradient6338" x1="21.305" x2="26.458" y1="10.744" y2="6.075" gradientTransform="matrix(0,-1,1,0,-32.445925,98.38573)" gradientUnits="userSpaceOnUse" xlink:href="#linearGradient6262"/><linearGradient id="linearGradient6438" x1="21.305" x2="26.458" y1="10.744" y2="6.075" gradientTransform="matrix(0,0.6634469,-0.6634469,0,-6.735745,28.013666)" gradientUnits="userSpaceOnUse" xlink:href="#linearGradient6262"/><linearGradient id="linearGradient6440" x1="21.305" x2="26.458" y1="10.744" y2="6.075" gradientTransform="matrix(0,0.6634469,0.6634469,0,-23.253316,28.145792)" gradientUnits="userSpaceOnUse" xlink:href="#linearGradient6262"/><linearGradient id="linearGradient6442" x1="21.305" x2="26.458" y1="10.744" y2="6.075" gradientTransform="matrix(0,-0.6634469,0.6634469,0,-23.253316,53.865142)" gradientUnits="userSpaceOnUse" xlink:href="#linearGradient6262"/><linearGradient id="linearGradient6444" x1="21.305" x2="26.458" y1="10.744" y2="6.075" gradientTransform="matrix(0.6634469,0,0,0.6634469,-27.909371,32.746683)" gradientUnits="userSpaceOnUse" xlink:href="#linearGradient6262"/><linearGradient id="linearGradient6446" x1="21.305" x2="26.458" y1="10.744" y2="6.075" gradientTransform="matrix(0,0.6634469,-0.6634469,0,20.264255,-0.986334)" gradientUnits="userSpaceOnUse" xlink:href="#linearGradient6262"/><linearGradient id="linearGradient6448" x1="21.305" x2="26.458" y1="10.744" y2="6.075" gradientTransform="matrix(0,0.6634469,0.6634469,0,3.746684,-0.854208)" gradientUnits="userSpaceOnUse" xlink:href="#linearGradient6262"/><linearGradient id="linearGradient6450" x1="21.305" x2="26.458" y1="10.744" y2="6.075" gradientTransform="matrix(0,-0.6634469,0.6634469,0,3.746684,24.865142)" gradientUnits="userSpaceOnUse" xlink:href="#linearGradient6262"/><linearGradient id="linearGradient6452" x1="21.305" x2="26.458" y1="10.744" y2="6.075" gradientTransform="matrix(0.6634469,0,0,0.6634469,-0.9093712,3.746683)" gradientUnits="userSpaceOnUse" xlink:href="#linearGradient6262"/><linearGradient id="linearGradient6454" x1="32.899" x2="27.251" y1="4.997" y2="9.84" gradientTransform="matrix(0,0.6704528,0.673966,0,-25.705272,30.362451)" gradientUnits="userSpaceOnUse" xlink:href="#linearGradient6262"/><linearGradient id="linearGradient6456" x1="32.899" x2="27.251" y1="4.997" y2="9.84" gradientTransform="matrix(0.6704528,0,0,0.673966,-25.776879,30.367986)" gradientUnits="userSpaceOnUse" xlink:href="#linearGradient6262"/><linearGradient id="linearGradient6458" x1="32.899" x2="27.251" y1="4.997" y2="9.84" gradientTransform="matrix(0,0.6704528,0.673966,0,1.2947279,1.362451)" gradientUnits="userSpaceOnUse" xlink:href="#linearGradient6262"/><linearGradient id="linearGradient6460" x1="32.899" x2="27.251" y1="4.997" y2="9.84" gradientTransform="matrix(0.6704528,0,0,0.673966,1.2231211,1.367986)" gradientUnits="userSpaceOnUse" xlink:href="#linearGradient6262"/><linearGradient id="linearGradient6462" x1="21.305" x2="26.458" y1="10.744" y2="6.075" gradientTransform="matrix(0,1,-1,0,-7.664764,59.498292)" gradientUnits="userSpaceOnUse" xlink:href="#linearGradient6262"/><linearGradient id="linearGradient6464" x1=".297" x2="10.504" y1="36.36" y2="26.698" gradientTransform="translate(-36,63)" gradientUnits="userSpaceOnUse" xlink:href="#linearGradient6254"/><radialGradient id="radialGradient6466" cx="9.146" cy="10.09" r="5.197" fx="9.146" fy="10.09" gradientTransform="matrix(2.0095141,0,0,1.9984889,-41.025619,57.730901)" gradientUnits="userSpaceOnUse" xlink:href="#linearGradient5505"/><linearGradient id="linearGradient6468" x1="21.305" x2="26.458" y1="10.744" y2="6.075" gradientTransform="matrix(0,1,-1,0,28.335236,59.498292)" gradientUnits="userSpaceOnUse" xlink:href="#linearGradient6262"/><linearGradient id="linearGradient6470" x1="21.305" x2="26.458" y1="10.744" y2="6.075" gradientTransform="matrix(0,-1,1,0,3.5540748,98.38573)" gradientUnits="userSpaceOnUse" xlink:href="#linearGradient6262"/><linearGradient id="linearGradient6472" x1="21.305" x2="26.458" y1="10.744" y2="6.075" gradientTransform="matrix(-1,0,0,-1,35.501708,91.39638)" gradientUnits="userSpaceOnUse" xlink:href="#linearGradient6262"/><linearGradient id="linearGradient6474" x1="21.305" x2="26.458" y1="10.744" y2="6.075" gradientTransform="translate(-3.501708,66.603622)" gradientUnits="userSpaceOnUse" xlink:href="#linearGradient6262"/><linearGradient id="linearGradient6476" x1=".297" x2="10.504" y1="36.36" y2="26.698" gradientTransform="translate(0,63)" gradientUnits="userSpaceOnUse" xlink:href="#linearGradient6254"/><linearGradient id="linearGradient6478" x1="32.899" x2="27.251" y1="4.997" y2="9.84" gradientTransform="translate(0,63)" gradientUnits="userSpaceOnUse" xlink:href="#linearGradient6262"/></defs><metadata id="metadata6"/><g id="layer1"><path style="opacity:.59825328;color:#000;fill:url(#radialGradient5881);fill-opacity:1;fill-rule:evenodd;stroke:none;stroke-width:.99999982px;stroke-linecap:butt;stroke-linejoin:miter;marker:none;marker-start:none;marker-mid:none;marker-end:none;stroke-miterlimit:4;stroke-dasharray:none;stroke-dashoffset:0;stroke-opacity:.27927928;visibility:visible;display:inline;overflow:visible;enable-background:accumulate" id="path4904" d="M 22.519216 20.023834 A 10.739362 3.009994 0 1 1 1.0404921,20.023834 A 10.739362 3.009994 0 1 1 22.519216 20.023834 z" transform="matrix(1.0242694,0,0,1.162793,-6.5744212e-2,-2.7835742)"/><path id="path6058" d="M 3.7812456 2.4405754 A 1.4855574 2.4672582 0 1 1 0.81013072,2.4405754 A 1.4855574 2.4672582 0 1 1 3.7812456 2.4405754 z" transform="matrix(1.3337426,-1.3337426,-0.9132214,-0.9132213,3.666929,24.790642)" style="opacity:1;color:#000;fill:none;fill-opacity:1;fill-rule:evenodd;stroke:#8f5902;stroke-width:.64070928;stroke-linecap:butt;stroke-linejoin:miter;marker:none;marker-start:none;marker-mid:none;marker-end:none;stroke-miterlimit:4;stroke-dasharray:none;stroke-dashoffset:0;stroke-opacity:1;visibility:visible;display:inline;overflow:visible;enable-background:accumulate"/><path style="opacity:1;color:#000;fill:none;fill-opacity:1;fill-rule:evenodd;stroke:#8f5902;stroke-width:.64070928;stroke-linecap:butt;stroke-linejoin:miter;marker:none;marker-start:none;marker-mid:none;marker-end:none;stroke-miterlimit:4;stroke-dasharray:none;stroke-dashoffset:0;stroke-opacity:1;visibility:visible;display:inline;overflow:visible;enable-background:accumulate" id="path6056" d="M 3.7812456 2.4405754 A 1.4855574 2.4672582 0 1 1 0.81013072,2.4405754 A 1.4855574 2.4672582 0 1 1 3.7812456 2.4405754 z" transform="matrix(1.3337426,1.3337426,-0.9132214,0.9132213,3.666929,-0.790643)"/><path id="path6054" d="M 3.7812456 2.4405754 A 1.4855574 2.4672582 0 1 1 0.81013072,2.4405754 A 1.4855574 2.4672582 0 1 1 3.7812456 2.4405754 z" transform="matrix(-1.3337426,1.3337426,0.9132214,0.9132213,20.333072,-0.790643)" style="opacity:1;color:#000;fill:none;fill-opacity:1;fill-rule:evenodd;stroke:#8f5902;stroke-width:.64070928;stroke-linecap:butt;stroke-linejoin:miter;marker:none;marker-start:none;marker-mid:none;marker-end:none;stroke-miterlimit:4;stroke-dasharray:none;stroke-dashoffset:0;stroke-opacity:1;visibility:visible;display:inline;overflow:visible;enable-background:accumulate"/><path style="opacity:1;color:#000;fill:none;fill-opacity:1;fill-rule:evenodd;stroke:#8f5902;stroke-width:.64070928;stroke-linecap:butt;stroke-linejoin:miter;marker:none;marker-start:none;marker-mid:none;marker-end:none;stroke-miterlimit:4;stroke-dasharray:none;stroke-dashoffset:0;stroke-opacity:1;visibility:visible;display:inline;overflow:visible;enable-background:accumulate" id="path6052" d="M 3.7812456 2.4405754 A 1.4855574 2.4672582 0 1 1 0.81013072,2.4405754 A 1.4855574 2.4672582 0 1 1 3.7812456 2.4405754 z" transform="matrix(-1.3337426,-1.3337426,0.9132214,-0.9132213,20.333072,24.790642)"/><path style="opacity:1;color:#000;fill:url(#linearGradient4923);fill-opacity:1;fill-rule:evenodd;stroke:#555753;stroke-width:1;stroke-linecap:butt;stroke-linejoin:miter;marker:none;marker-start:none;marker-mid:none;marker-end:none;stroke-miterlimit:4;stroke-dasharray:none;stroke-dashoffset:0;stroke-opacity:1;visibility:visible;display:inline;overflow:visible;enable-background:accumulate" id="path4889" d="M 11.972834,1.5 C 6.1918296,1.5 1.5,6.19183 1.5,11.972834 C 1.5,17.753839 6.1918296,22.445668 11.972834,22.445668 C 17.753839,22.445668 22.445668,17.753839 22.445668,11.972834 C 22.445668,6.19183 17.753839,1.5 11.972834,1.5 z M 11.929197,7.085511 C 14.646114,7.085511 16.860156,9.299554 16.860156,12.016472 C 16.860156,14.733388 14.646115,16.947429 11.929197,16.947429 C 9.2122799,16.947429 6.9982378,14.733388 6.9982378,12.016472 C 6.9982375,9.299554 9.2122801,7.085511 11.929197,7.085511 z"/><path style="opacity:1;color:#000;fill:#fd0000;fill-opacity:1;fill-rule:evenodd;stroke:none;stroke-width:1;stroke-linecap:butt;stroke-linejoin:miter;marker:none;marker-start:none;marker-mid:none;marker-end:none;stroke-miterlimit:4;stroke-dasharray:none;stroke-dashoffset:0;stroke-opacity:1;visibility:visible;display:inline;overflow:visible;enable-background:accumulate" id="rect5470" d="M 6.5618696,3.594567 C 5.3693181,4.43108 4.2980807,5.358578 3.5945668,6.56187 L 7.3473322,10.270998 C 7.8637623,8.912487 8.9369339,7.823633 10.314635,7.347332 L 6.5618696,3.594567 z M 16.598335,13.631032 C 16.122034,15.008734 15.03318,16.081905 13.674669,16.598335 L 17.427435,20.351101 C 18.76868,19.545345 19.747839,18.558545 20.351101,17.383798 L 16.598335,13.631032 z"/><path id="use5476" d="M 20.357423,6.555547 C 19.52091,5.362996 18.593412,4.291758 17.39012,3.588244 L 13.680992,7.34101 C 15.039503,7.85744 16.128357,8.930611 16.604658,10.308312 L 20.357423,6.555547 z M 10.320958,16.592013 C 8.943256,16.115712 7.870085,15.026858 7.353655,13.668347 L 3.600889,17.421113 C 4.406645,18.762358 5.393445,19.741517 6.568192,20.344779 L 10.320958,16.592013 z" style="color:#000;fill:url(#linearGradient6010);fill-opacity:1;fill-rule:evenodd;stroke:none;stroke-width:1;stroke-linecap:butt;stroke-linejoin:miter;marker:none;marker-start:none;marker-mid:none;marker-end:none;stroke-miterlimit:4;stroke-dasharray:none;stroke-dashoffset:0;stroke-opacity:1;visibility:visible;display:inline;overflow:visible;enable-background:accumulate"/><path id="path5527" d="M 4.1759297,20.004272 L 4.1948966,19.785881 C 0.33044748,15.312417 2.9571684,8.68902 5.8117401,5.843557 C 8.6663121,2.998094 15.426186,0.352042 19.931099,4.141928 L 20.103366,4.076836 C 14.63608,-0.522672 8.0348239,0.491797 4.2632032,4.251383 C 0.4915825,8.01097 -0.5090366,14.580984 4.1759297,20.004272 z" style="fill:url(#linearGradient5529);fill-opacity:1;fill-rule:evenodd;stroke:none;stroke-width:2;stroke-linecap:butt;stroke-linejoin:miter;stroke-miterlimit:4;stroke-dasharray:none;stroke-opacity:1"/><path id="path5537" d="M 15 7.5 A 7.5 7.5 0 1 1 0,7.5 A 7.5 7.5 0 1 1 15 7.5 z" transform="matrix(1.2630446,0,0,1.2630446,2.5,2.554331)" style="opacity:1;color:#000;fill:none;fill-opacity:1;fill-rule:evenodd;stroke:#fff;stroke-width:.79173774;stroke-linecap:butt;stroke-linejoin:miter;marker:none;marker-start:none;marker-mid:none;marker-end:none;stroke-miterlimit:4;stroke-dasharray:none;stroke-dashoffset:0;stroke-opacity:.54504502;visibility:visible;display:inline;overflow:visible;enable-background:accumulate"/><path style="opacity:.45414848;fill:url(#linearGradient5525);fill-opacity:1;fill-rule:evenodd;stroke:none;stroke-width:2;stroke-linecap:butt;stroke-linejoin:miter;stroke-miterlimit:4;stroke-dasharray:none;stroke-opacity:1" id="path5513" d="M 19.321249,6 L 19.305072,6.186274 C 22.601213,10.001869 20.36078,15.651226 17.926003,18.078236 C 15.491224,20.505244 9.7254615,22.762167 5.8830416,19.529622 L 5.7361088,19.585142 C 10.399373,23.508245 16.029846,22.642964 19.246811,19.436264 C 22.463775,16.229563 23.317245,10.625737 19.321249,6 z"/><path style="opacity:.69432313;color:#000;fill:url(#radialGradient5992);fill-opacity:1;fill-rule:evenodd;stroke:none;stroke-width:2.12778091;stroke-linecap:butt;stroke-linejoin:miter;marker:none;marker-start:none;marker-mid:none;marker-end:none;stroke-miterlimit:4;stroke-dasharray:none;stroke-dashoffset:0;stroke-opacity:1;visibility:visible;display:inline;overflow:visible;enable-background:accumulate" id="path5499" d="M 16,8.407321 C 15.005333,7.614148 14.21781,7.163951 12.855403,7.018541 C 9.4886436,6.659208 6.8546599,9.176785 7.0435815,12.83036 C 7.1047679,14.013619 7.7131809,14.863569 8.3220212,15.783333 C 7.0098226,14.715869 5.6986672,13.349916 5.6125917,11.529813 C 5.4431496,7.946912 8.3627661,4.982089 11.636139,5.506265 C 13.618851,5.823764 14.953724,6.859056 16,8.407321 z"/><path id="path6350" d="M 20.332176,6.651092 C 19.492519,5.447786 18.561534,4.366888 17.35372,3.65703 L 15.989206,5.005938 C 17.352823,5.527026 18.44577,6.609873 18.923861,8 L 20.332176,6.651092 z" style="color:#000;fill:url(#linearGradient6460);fill-opacity:1;fill-rule:evenodd;stroke:none;stroke-width:1;stroke-linecap:butt;stroke-linejoin:miter;marker:none;marker-start:none;marker-mid:none;marker-end:none;stroke-miterlimit:4;stroke-dasharray:none;stroke-dashoffset:0;stroke-opacity:1;visibility:visible;display:inline;overflow:visible;enable-background:accumulate"/><path id="path6362" d="M 6.577834,20.471504 C 5.374529,19.631847 4.29363,18.700862 3.583772,17.493048 L 4.932681,16.128534 C 5.453768,17.492151 6.536616,18.585098 7.926742,19.063189 L 6.577834,20.471504 z" style="color:#000;fill:url(#linearGradient6458);fill-opacity:1;fill-rule:evenodd;stroke:none;stroke-width:1;stroke-linecap:butt;stroke-linejoin:miter;marker:none;marker-start:none;marker-mid:none;marker-end:none;stroke-miterlimit:4;stroke-dasharray:none;stroke-dashoffset:0;stroke-opacity:1;visibility:visible;display:inline;overflow:visible;enable-background:accumulate"/><path style="opacity:.62882098;color:#000;fill:url(#linearGradient6452);fill-opacity:1;fill-rule:evenodd;stroke:none;stroke-width:1;stroke-linecap:butt;stroke-linejoin:miter;marker:none;marker-start:none;marker-mid:none;marker-end:none;stroke-miterlimit:4;stroke-dasharray:none;stroke-dashoffset:0;stroke-opacity:1;visibility:visible;display:inline;overflow:visible;enable-background:accumulate" id="path6378" d="M 18,8.947332 C 17.169118,7.762807 16.247862,6.698779 15.052669,6 L 13.702413,7.327855 C 15.051781,7.84081 16.133306,8.906757 16.606402,10.275186 L 18,8.947332 z"/><path id="path6382" d="M 8.947332,5.955768 C 7.762807,6.78665 6.698779,7.707906 6,8.903099 L 7.327855,10.253355 C 7.84081,8.903987 8.906757,7.822462 10.275187,7.349366 L 8.947332,5.955768 z" style="opacity:.62882098;color:#000;fill:url(#linearGradient6450);fill-opacity:1;fill-rule:evenodd;stroke:none;stroke-width:1;stroke-linecap:butt;stroke-linejoin:miter;marker:none;marker-start:none;marker-mid:none;marker-end:none;stroke-miterlimit:4;stroke-dasharray:none;stroke-dashoffset:0;stroke-opacity:1;visibility:visible;display:inline;overflow:visible;enable-background:accumulate"/><path style="opacity:.62882098;color:#000;fill:url(#linearGradient6448);fill-opacity:1;fill-rule:evenodd;stroke:none;stroke-width:1;stroke-linecap:butt;stroke-linejoin:miter;marker:none;marker-start:none;marker-mid:none;marker-end:none;stroke-miterlimit:4;stroke-dasharray:none;stroke-dashoffset:0;stroke-opacity:1;visibility:visible;display:inline;overflow:visible;enable-background:accumulate" id="path6386" d="M 8.947332,18.055169 C 7.762807,17.224287 6.698779,16.303031 6,15.107838 L 7.327855,13.757582 C 7.84081,15.10695 8.906757,16.188475 10.275187,16.661571 L 8.947332,18.055169 z"/><path id="path6390" d="M 15.063607,17.923045 C 16.248132,17.092163 17.31216,16.170907 18.010939,14.975714 L 16.683084,13.625458 C 16.170129,14.974826 15.104182,16.056351 13.735752,16.529447 L 15.063607,17.923045 z" style="opacity:.62882098;color:#000;fill:url(#linearGradient6446);fill-opacity:1;fill-rule:evenodd;stroke:none;stroke-width:1;stroke-linecap:butt;stroke-linejoin:miter;marker:none;marker-start:none;marker-mid:none;marker-end:none;stroke-miterlimit:4;stroke-dasharray:none;stroke-dashoffset:0;stroke-opacity:1;visibility:visible;display:inline;overflow:visible;enable-background:accumulate"/></g><g id="layer3"><path style="color:#000;fill:#fff;fill-opacity:.40090093;fill-rule:evenodd;stroke:none;stroke-width:1;stroke-linecap:butt;stroke-linejoin:miter;marker:none;marker-start:none;marker-mid:none;marker-end:none;stroke-miterlimit:4;stroke-dasharray:none;stroke-dashoffset:0;stroke-opacity:1;visibility:visible;display:inline;overflow:visible;enable-background:accumulate" id="path6501" d="M 18.991929,7.780635 C 18.273265,6.564295 17.48313,5.451818 16.136973,4.925679 L 14.829037,6.211917 C 16.136113,6.708793 17.183741,7.741331 17.642009,9.066872 L 18.991929,7.780635 z"/><path id="path6503" d="M 5.1892403,15.851713 C 5.9079046,17.068053 6.6980389,18.18053 8.0441961,18.706669 L 9.3521322,17.420431 C 8.045056,16.923554 6.9974279,15.891017 6.5391603,14.565476 L 5.1892403,15.851713 z" style="color:#000;fill:#fff;fill-opacity:.40090093;fill-rule:evenodd;stroke:none;stroke-width:1;stroke-linecap:butt;stroke-linejoin:miter;marker:none;marker-start:none;marker-mid:none;marker-end:none;stroke-miterlimit:4;stroke-dasharray:none;stroke-dashoffset:0;stroke-opacity:1;visibility:visible;display:inline;overflow:visible;enable-background:accumulate"/><path style="color:#000;fill:#fff;fill-opacity:.40090093;fill-rule:evenodd;stroke:none;stroke-width:1;stroke-linecap:butt;stroke-linejoin:miter;marker:none;marker-start:none;marker-mid:none;marker-end:none;stroke-miterlimit:4;stroke-dasharray:none;stroke-dashoffset:0;stroke-opacity:1;visibility:visible;display:inline;overflow:visible;enable-background:accumulate" id="path6505" d="M 15.588795,18.500446 C 16.805135,17.781781 17.917612,16.991647 18.44375,15.64549 L 17.157513,14.337554 C 16.660636,15.64463 15.628098,16.692258 14.302558,17.150526 L 15.588795,18.500446 z"/><path id="path6507" d="M 7.7867962,4.851358 C 6.5704562,5.570022 5.4579799,6.360157 4.9318404,7.706314 L 6.2180786,9.01425 C 6.7149548,7.707174 7.7474928,6.659546 9.0730329,6.201278 L 7.7867962,4.851358 z" style="color:#000;fill:#fff;fill-opacity:.40090093;fill-rule:evenodd;stroke:none;stroke-width:1;stroke-linecap:butt;stroke-linejoin:miter;marker:none;marker-start:none;marker-mid:none;marker-end:none;stroke-miterlimit:4;stroke-dasharray:none;stroke-dashoffset:0;stroke-opacity:1;visibility:visible;display:inline;overflow:visible;enable-background:accumulate"/></g></svg>