<svg xmlns="http://www.w3.org/2000/svg" xmlns:cc="http://web.resource.org/cc/" xmlns:svg="http://www.w3.org/2000/svg" xmlns:xlink="http://www.w3.org/1999/xlink" id="svg5345" width="24" height="24" version="1.0"><defs id="defs5347"><linearGradient id="linearGradient3164"><stop style="stop-color:#000;stop-opacity:1" id="stop3166" offset="0"/><stop style="stop-color:#000;stop-opacity:0" id="stop3168" offset="1"/></linearGradient><linearGradient id="linearGradient3248"><stop style="stop-color:#fff;stop-opacity:1" id="stop3250" offset="0"/><stop style="stop-color:#fff;stop-opacity:0" id="stop3252" offset="1"/></linearGradient><linearGradient id="linearGradient3230"><stop style="stop-color:#fdee74;stop-opacity:1" id="stop3232" offset="0"/><stop id="stop3238" offset=".711" style="stop-color:#f4de27;stop-opacity:1"/><stop style="stop-color:#edd400;stop-opacity:1" id="stop3234" offset="1"/></linearGradient><radialGradient id="radialGradient3236" cx="10.881" cy="11.268" r="9.317" fx="10.881" fy="11.268" gradientTransform="matrix(1.1178806,0,0,1.079904,-1.2826843,-0.8754928)" gradientUnits="userSpaceOnUse" xlink:href="#linearGradient3230"/><linearGradient id="linearGradient3254" x1="12.063" x2="22.274" y1="9.328" y2="36.64" gradientUnits="userSpaceOnUse" xlink:href="#linearGradient3248"/><radialGradient id="radialGradient3170" cx="11.358" cy="19.426" r="10.12" fx="11.358" fy="19.426" gradientTransform="matrix(1,0,0,0.430131,0,11.070221)" gradientUnits="userSpaceOnUse" xlink:href="#linearGradient3164"/></defs><metadata id="metadata5350"/><g id="layer1" style="opacity:1"><path style="opacity:.1570881;fill:url(#radialGradient3170);fill-opacity:1;stroke:none;stroke-width:1.10000002;stroke-linecap:round;stroke-linejoin:round;stroke-miterlimit:4;stroke-dasharray:none;stroke-dashoffset:0;stroke-opacity:1" id="path2191" d="M 21.478369 19.425903 A 10.120466 4.353126 0 1 1 1.2374363,19.425903 A 10.120466 4.353126 0 1 1 21.478369 19.425903 z" transform="matrix(1.0869064,0,0,1.0337399,-0.3449774,-1.5813314)"/><path style="opacity:1;fill:url(#radialGradient3236);fill-opacity:1;stroke:#c4a000;stroke-width:1.00000012;stroke-linecap:round;stroke-linejoin:round;stroke-miterlimit:4;stroke-dashoffset:0;stroke-opacity:1" id="path3212" d="M 11.914067,3.506698 C 11.596887,3.556141 11.335358,3.783464 11.240123,4.092493 L 9.543643,9.541427 L 4.035895,9.517996 C 3.678136,9.525755 3.364514,9.761147 3.254502,10.104478 C 3.14449,10.447808 3.262236,10.823719 3.547867,11.041063 L 8.00984,14.321517 L 6.290121,19.416897 C 6.191499,19.759694 6.316564,20.128044 6.602855,20.337979 C 6.889147,20.547914 7.275234,20.554389 7.568291,20.354169 L 12.007024,17.073716 L 16.468998,20.354169 C 16.762055,20.554389 17.148142,20.547914 17.434432,20.337979 C 17.720724,20.128044 17.845789,19.759694 17.747167,19.416897 L 16.027448,14.321517 L 20.512661,11.064495 C 20.798291,10.847151 20.916037,10.47124 20.806026,10.127909 C 20.696014,9.784579 20.382391,9.549187 20.024632,9.541427 L 14.516884,9.541427 L 12.820405,4.092493 C 12.698354,3.702076 12.316873,3.455512 11.914067,3.506698 L 11.914067,3.506698 z"/><path style="opacity:.9;fill:none;fill-opacity:1;stroke:url(#linearGradient3254);stroke-width:1;stroke-linecap:round;stroke-linejoin:round;stroke-miterlimit:4;stroke-dashoffset:0;stroke-opacity:1;stroke-dasharray:none" id="path3244" d="M 12.03125,4.875 L 10.46875,9.8125 C 10.34291,10.223941 9.9614897,10.503649 9.53125,10.5 L 4.5,10.5 L 8.5625,13.53125 C 8.9028596,13.782203 9.0418539,14.224458 8.90625,14.625 L 7.34375,19.28125 L 11.4375,16.28125 C 11.774375,16.042112 12.225625,16.042112 12.5625,16.28125 L 16.71875,19.3125 L 15.125,14.625 C 14.989396,14.224458 15.12839,13.782203 15.46875,13.53125 L 19.625,10.5 L 14.53125,10.5 C 14.10101,10.503649 13.71959,10.223941 13.59375,9.8125 L 12.03125,4.875 z"/></g></svg>