<svg xmlns="http://www.w3.org/2000/svg" xmlns:cc="http://web.resource.org/cc/" xmlns:svg="http://www.w3.org/2000/svg" xmlns:xlink="http://www.w3.org/1999/xlink" id="svg5345" width="24" height="24" version="1.0"><defs id="defs5347"><linearGradient id="linearGradient5892"><stop style="stop-color:#fff;stop-opacity:1" id="stop5894" offset="0"/><stop style="stop-color:#fff;stop-opacity:0" id="stop5896" offset="1"/></linearGradient><linearGradient id="linearGradient4905"><stop style="stop-color:#729fcf;stop-opacity:1" id="stop4907" offset="0"/><stop style="stop-color:#3465a4;stop-opacity:1" id="stop4909" offset="1"/></linearGradient><linearGradient id="linearGradient6326"><stop style="stop-color:#fce94f;stop-opacity:1" id="stop6328" offset="0"/><stop style="stop-color:#edd400;stop-opacity:1" id="stop6330" offset="1"/></linearGradient><radialGradient id="radialGradient6334" cx="4.346" cy="1.741" r="6.119" fx="4.346" fy="1.741" gradientTransform="matrix(0.7944273,1.1121982,-0.7772024,0.5551473,2.2462873,-3.9905851)" gradientUnits="userSpaceOnUse" xlink:href="#linearGradient6326"/><linearGradient id="linearGradient4911" x1="9.458" x2="22.23" y1="5.88" y2="23.735" gradientUnits="userSpaceOnUse" xlink:href="#linearGradient4905"/><linearGradient id="linearGradient5898" x1="2" x2="21.387" y1="2" y2="22.005" gradientUnits="userSpaceOnUse" xlink:href="#linearGradient5892"/></defs><metadata id="metadata5350"/><g id="layer1"><path style="opacity:1;fill:url(#linearGradient4911);fill-opacity:1;fill-rule:evenodd;stroke:#204a87;stroke-width:1;stroke-linecap:square;stroke-linejoin:miter;stroke-miterlimit:2.25;stroke-dasharray:none;stroke-dashoffset:0;stroke-opacity:1" id="rect6518" d="M 9.500364,1.5 L 9.500364,9.500364 L 1.5,9.500364 L 1.5,14.5245 L 9.500364,14.5245 L 9.500364,22.505222 L 14.517953,22.505222 L 14.517953,14.504858 L 22.505222,14.504858 L 22.505222,9.500364 L 14.517953,9.500364 L 14.517953,1.5 L 9.500364,1.5 z"/><path id="path5882" d="M 10.500364,2.5 L 10.500364,10.500364 L 2.5,10.500364 L 2.5,13.5245 L 10.500364,13.5245 L 10.500364,21.505222 L 13.517953,21.505222 L 13.517953,13.504858 L 21.505222,13.504858 L 21.505222,10.500364 L 13.517953,10.500364 L 13.517953,2.5 L 10.500364,2.5 z" style="opacity:.43231441;fill:none;fill-opacity:1;fill-rule:evenodd;stroke:url(#linearGradient5898);stroke-width:1;stroke-linecap:square;stroke-linejoin:miter;stroke-miterlimit:2.25;stroke-dasharray:none;stroke-dashoffset:0;stroke-opacity:1"/></g></svg>