<svg xmlns="http://www.w3.org/2000/svg" xmlns:cc="http://web.resource.org/cc/" xmlns:svg="http://www.w3.org/2000/svg" xmlns:xlink="http://www.w3.org/1999/xlink" id="svg2" width="24" height="24" version="1.0"><defs id="defs4"><linearGradient id="linearGradient5233"><stop style="stop-color:#eeeeec;stop-opacity:1" id="stop5235" offset="0"/><stop style="stop-color:#eeeeec;stop-opacity:0" id="stop5237" offset="1"/></linearGradient><linearGradient id="linearGradient5154"><stop style="stop-color:#eeeeec;stop-opacity:1" id="stop5156" offset="0"/><stop style="stop-color:#eeeeec;stop-opacity:0" id="stop5158" offset="1"/></linearGradient><linearGradient id="linearGradient5111"><stop style="stop-color:#eeeeec;stop-opacity:1" id="stop5113" offset="0"/><stop style="stop-color:#eeeeec;stop-opacity:0" id="stop5115" offset="1"/></linearGradient><linearGradient id="linearGradient30505"><stop style="stop-color:#000;stop-opacity:1" id="stop30507" offset="0"/><stop style="stop-color:#000;stop-opacity:0" id="stop30509" offset="1"/></linearGradient><radialGradient id="radialGradient30511" cx="25.375" cy="43.375" r="17.125" fx="25.375" fy="43.375" gradientTransform="matrix(1,0,0,0.343066,0,28.49453)" gradientUnits="userSpaceOnUse" xlink:href="#linearGradient30505"/><linearGradient id="linearGradient5137" x1="11.019" x2="11.019" y1="5.106" y2="14.599" gradientUnits="userSpaceOnUse" xlink:href="#linearGradient5111"/><linearGradient id="linearGradient5195" x1="17.3" x2="11.711" y1="15.908" y2="18.465" gradientUnits="userSpaceOnUse" xlink:href="#linearGradient5154"/><linearGradient id="linearGradient5197" x1="5.619" x2="13.501" y1="8.584" y2="7.97" gradientUnits="userSpaceOnUse" xlink:href="#linearGradient5154"/><linearGradient id="linearGradient5239" x1="10.519" x2="13.244" y1="10.034" y2="9.086" gradientUnits="userSpaceOnUse" xlink:href="#linearGradient5233"/><linearGradient id="linearGradient5243" x1="10.519" x2="13.413" y1="10.034" y2="9.027" gradientUnits="userSpaceOnUse" xlink:href="#linearGradient5233"/></defs><metadata id="metadata7"/><g id="layer1"><path style="opacity:.441048;color:#000;fill:url(#radialGradient30511);fill-opacity:1;fill-rule:nonzero;stroke:none;stroke-width:1;stroke-linecap:butt;stroke-linejoin:miter;marker:none;marker-start:none;marker-mid:none;marker-end:none;stroke-miterlimit:4;stroke-dashoffset:0;stroke-opacity:1;visibility:visible;display:block;overflow:visible" id="path30503" d="M 42.5 43.375 A 17.125 5.875 0 1 1 8.25,43.375 A 17.125 5.875 0 1 1 42.5 43.375 z" transform="matrix(-0.644431,0,0,0.340426,28.38832,7.234019)"/><path style="fill:#d3d7cf;fill-opacity:1;stroke:#656863;stroke-width:.91723877;stroke-miterlimit:4;stroke-opacity:1" id="path5275" d="M 12,2.5 C 6.7559981,2.5 2.5,6.755999 2.5,12 C 2.5,17.244001 6.755998,21.5 12,21.5 C 17.244002,21.5 21.5,17.244001 21.5,12 C 21.5,6.7559992 17.244002,2.4999999 12,2.5 z M 12,10.5 C 12.828,10.5 13.5,11.171999 13.5,12 C 13.5,12.828 12.828,13.5 12,13.5 C 11.172,13.5 10.5,12.828001 10.5,12 C 10.5,11.171999 11.172,10.5 12,10.5 z" transform="matrix(1.104568,0,0,1.104665,-1.254821,-1.256907)"/><path style="opacity:1;fill:url(#linearGradient5137);fill-opacity:1;stroke:#fff;stroke-width:1.03654289;stroke-miterlimit:4;stroke-dasharray:none;stroke-opacity:1" id="path5277" d="M 12,3.5625 C 7.3445412,3.5625 3.5625,7.3445411 3.5625,12 C 3.5625,16.655459 7.3445415,20.437499 12,20.4375 C 16.655458,20.4375 20.437499,16.655458 20.4375,12 C 20.437501,7.3445418 16.655459,3.5624999 12,3.5625 z M 12,9.5 C 13.380001,9.5000004 14.5,10.62 14.5,12 C 14.5,13.38 13.380001,14.5 12,14.5 C 10.619999,14.5 9.5,13.38 9.5,12 C 9.4999998,10.62 10.619999,9.5 12,9.5 z" transform="matrix(1.103586,0,0,1.09852,-1.232718,-1.241543)"/><path style="opacity:1;fill:none;fill-opacity:1;stroke:#eeeeec;stroke-width:.94066095;stroke-miterlimit:4;stroke-dasharray:none;stroke-opacity:1" id="path5141" d="M 14.419643 11.946428 A 2.5892856 2.5892856 0 1 1 9.2410719,11.946428 A 2.5892856 2.5892856 0 1 1 14.419643 11.946428 z" transform="matrix(1.065531,0,0,1.060639,-0.595298,-0.730156)"/><path style="fill:url(#linearGradient5239);fill-opacity:1;stroke:none;stroke-width:1;stroke-miterlimit:4;stroke-opacity:1" id="path5230" d="M 20.831032,10.164464 C 16.98657,10.164464 12.657251,10.164464 7.9282284,10.164464 C 7.9282284,8.0191787 10.818456,6.2780776 14.37963,6.2780776 C 17.940804,6.2780776 20.831032,8.0191787 20.831032,10.164464 z" transform="matrix(1.088628,1.08363,-1.807123,1.798827,14.72468,-21.92562)"/><path style="fill:url(#linearGradient5243);fill-opacity:1;stroke:none;stroke-width:1;stroke-miterlimit:4;stroke-opacity:1" id="path5241" d="M 20.831032,10.164464 C 16.98657,10.164464 12.657251,10.164464 7.9282284,10.164464 C 7.9282284,8.0191787 10.818456,6.2780776 14.37963,6.2780776 C 17.940804,6.2780776 20.831032,8.0191787 20.831032,10.164464 z" transform="matrix(-1.088628,-1.08363,1.807123,-1.798827,9.29596,45.80701)"/></g></svg>