<svg xmlns="http://www.w3.org/2000/svg" xmlns:cc="http://web.resource.org/cc/" xmlns:svg="http://www.w3.org/2000/svg" xmlns:xlink="http://www.w3.org/1999/xlink" id="svg4908" width="24" height="24" version="1.0"><defs id="defs4910"><linearGradient id="linearGradient5286"><stop style="stop-color:#fff;stop-opacity:.298" id="stop5288" offset="0"/><stop style="stop-color:#fff;stop-opacity:0" id="stop5290" offset="1"/></linearGradient><linearGradient id="linearGradient5208"><stop style="stop-color:#fff;stop-opacity:1" id="stop5210" offset="0"/><stop style="stop-color:#fff;stop-opacity:0" id="stop5212" offset="1"/></linearGradient><linearGradient id="linearGradient6351"><stop style="stop-color:#a40000;stop-opacity:1" id="stop6353" offset="0"/><stop style="stop-color:#ef2929;stop-opacity:1" id="stop6355" offset="1"/></linearGradient><linearGradient id="linearGradient6357" x1="7.632" x2="7.632" y1="2.374" y2="13.114" gradientUnits="userSpaceOnUse" xlink:href="#linearGradient6351"/><linearGradient id="linearGradient5214" x1="7.955" x2="7.955" y1="6.146" y2="10.271" gradientUnits="userSpaceOnUse" xlink:href="#linearGradient5208"/><filter id="filter5280" width="1.455" height="1.711" x="-.228" y="-.356"><feGaussianBlur id="feGaussianBlur5282" stdDeviation="1.048"/></filter><linearGradient id="linearGradient5292" x1="7.5" x2="7.5" y1="13.026" y2="1.616" gradientUnits="userSpaceOnUse" xlink:href="#linearGradient5286"/></defs><metadata id="metadata4913"/><g id="layer1"><path style="opacity:1;fill:url(#linearGradient6357);fill-opacity:1;fill-rule:evenodd;stroke:#a40000;stroke-width:.73552883;stroke-linecap:square;stroke-linejoin:miter;stroke-miterlimit:2.25;stroke-dasharray:none;stroke-dashoffset:0;stroke-opacity:1" id="path6347" d="M 13.016466 7.5 A 5.5164661 5.5164661 0 1 1 1.9835339,7.5 A 5.5164661 5.5164661 0 1 1 13.016466 7.5 z" transform="matrix(1.3595661,0,0,1.359566,1.8032547,0.8032547)"/><path style="opacity:.3;fill:none;fill-opacity:1;fill-rule:evenodd;stroke:#fff;stroke-width:.69836241;stroke-linecap:square;stroke-linejoin:miter;stroke-miterlimit:2.25;stroke-dasharray:none;stroke-dashoffset:0;stroke-opacity:1" id="path6349" d="M 12.044194 7.5 A 4.5441942 4.5441942 0 1 1 2.9558058,7.5 A 4.5441942 4.5441942 0 1 1 12.044194 7.5 z" transform="matrix(1.4303966,0,0,1.4334475,1.2720253,0.2352793)"/><path style="opacity:.25287356;color:#000;fill:url(#linearGradient5214);fill-opacity:1;fill-rule:evenodd;stroke:none;stroke-width:.5;stroke-linecap:round;stroke-linejoin:miter;marker:none;marker-start:none;marker-mid:none;marker-end:none;stroke-miterlimit:10;stroke-dasharray:none;stroke-dashoffset:0;stroke-opacity:1;visibility:visible;display:inline;overflow:visible;enable-background:accumulate;filter:url(#filter5280)" id="path4545" d="M 13.037282,6.4991074 A 5.524272,3.5355339 0 1 1 1.9887376,6.4991074 A 5.524272,3.5355339 0 1 1 13.037282,6.4991074 z" transform="matrix(0.8,0,0,1,6.0546017,2.3422912)"/><path id="path5284" d="M 13.016466,7.5 A 5.5164661,5.5164661 0 1 1 1.9835339,7.5 A 5.5164661,5.5164661 0 1 1 13.016466,7.5 z" transform="matrix(1.5295119,0,0,1.5295117,0.5286615,-0.4713384)" style="opacity:1;fill:none;fill-opacity:1;fill-rule:evenodd;stroke:url(#linearGradient5292);stroke-width:.65380341;stroke-linecap:square;stroke-linejoin:miter;stroke-miterlimit:2.25;stroke-dasharray:none;stroke-dashoffset:0;stroke-opacity:1"/></g></svg>