<svg xmlns="http://www.w3.org/2000/svg" xmlns:cc="http://web.resource.org/cc/" xmlns:svg="http://www.w3.org/2000/svg" xmlns:xlink="http://www.w3.org/1999/xlink" id="svg4908" width="24" height="24" version="1.0"><defs id="defs4910"><linearGradient id="linearGradient5139"><stop style="stop-color:#fff;stop-opacity:1" id="stop5141" offset="0"/><stop style="stop-color:#fff;stop-opacity:0" id="stop5143" offset="1"/></linearGradient><linearGradient id="linearGradient4925" x1="3.113" x2="10.19" y1="3.067" y2="8.726" gradientTransform="matrix(0.3333334,0,0,1.5555556,-61.076907,15.721895)" gradientUnits="userSpaceOnUse" xlink:href="#linearGradient6345"/><linearGradient id="linearGradient6345"><stop id="stop6347" offset="0" style="stop-color:#d3d7cf;stop-opacity:1"/><stop id="stop6349" offset="1" style="stop-color:#eeeeec;stop-opacity:1"/></linearGradient><radialGradient id="radialGradient6329" cx="6.187" cy="6.41" r="4" fx="6.187" fy="6.41" gradientTransform="matrix(1.5445057,0.8917208,-0.7500005,1.2990378,1.438232,-8.2291571)" gradientUnits="userSpaceOnUse" xlink:href="#linearGradient6345"/><linearGradient id="linearGradient5145" x1="60.671" x2="60.671" y1="35.45" y2="20.626" gradientUnits="userSpaceOnUse" xlink:href="#linearGradient5139"/><linearGradient id="linearGradient5147" x1="16.105" x2="16.105" y1="18.948" y2="3.79" gradientUnits="userSpaceOnUse" xlink:href="#linearGradient5139"/><linearGradient id="linearGradient5149" x1="62.315" x2="62.315" y1="35.614" y2="20.456" gradientUnits="userSpaceOnUse" xlink:href="#linearGradient5139"/><linearGradient id="linearGradient5151" x1="16.105" x2="16.105" y1="18.948" y2="3.79" gradientUnits="userSpaceOnUse" xlink:href="#linearGradient5139"/><linearGradient id="linearGradient5153" x1="16.105" x2="16.105" y1="18.948" y2="3.79" gradientUnits="userSpaceOnUse" xlink:href="#linearGradient5139"/><linearGradient id="linearGradient5223" x1="16.105" x2="16.105" y1="18.948" y2="3.79" gradientUnits="userSpaceOnUse" xlink:href="#linearGradient5139"/><linearGradient id="linearGradient5225" x1="16.105" x2="16.105" y1="18.948" y2="3.79" gradientUnits="userSpaceOnUse" xlink:href="#linearGradient5139"/><linearGradient id="linearGradient5241" x1="16.105" x2="16.105" y1="18.948" y2="3.79" gradientUnits="userSpaceOnUse" xlink:href="#linearGradient5139"/><linearGradient id="linearGradient5243" x1="16.105" x2="16.105" y1="18.948" y2="3.79" gradientUnits="userSpaceOnUse" xlink:href="#linearGradient5139"/><linearGradient id="linearGradient5245" x1="16.105" x2="16.105" y1="18.948" y2="3.79" gradientUnits="userSpaceOnUse" xlink:href="#linearGradient5139"/><radialGradient id="radialGradient5247" cx="6.187" cy="6.41" r="4" fx="6.187" fy="6.41" gradientTransform="matrix(1.5445057,0.8917208,-0.7500005,1.2990378,1.438232,-8.2291571)" gradientUnits="userSpaceOnUse" xlink:href="#linearGradient6345"/></defs><metadata id="metadata4913"/><g id="layer1"><g id="g4554" transform="matrix(1.1176485,0,0,1.1176485,-6.7344149,-1.3531723)" style="fill:none;stroke:url(#linearGradient5225);stroke-width:.89473569;stroke-opacity:1"><g id="g4556" transform="matrix(1.501385,0,0,1.454527,0.2444519,-0.1361145)" style="fill:none;stroke:url(#linearGradient5223);stroke-width:.89473569;stroke-opacity:1"><path id="path4558" d="M 5.3403418,1.7309258 L 5.3669515,12.813327 C 5.3886676,13.207066 5.8402413,13.85857 6.4374791,13.344894 L 12.191852,7.9725331 L 5.3403418,1.7309258 z" style="opacity:.3;fill:none;fill-opacity:1;fill-rule:evenodd;stroke:url(#linearGradient5151);stroke-width:.60546333;stroke-linecap:square;stroke-linejoin:round;stroke-miterlimit:2.25;stroke-dasharray:none;stroke-dashoffset:0;stroke-opacity:1"/></g></g><g id="g4967" transform="translate(-4.9689559,-2.0299382e-4)"><g id="g6325" transform="matrix(1.501385,0,0,1.454527,0.2444519,-0.1361145)"><path style="opacity:1;fill:url(#radialGradient6329);fill-opacity:1;fill-rule:evenodd;stroke:#888a85;stroke-width:.67669517;stroke-linecap:square;stroke-linejoin:round;stroke-miterlimit:2.25;stroke-dasharray:none;stroke-dashoffset:0;stroke-opacity:1" id="path5366" d="M 5.5,2.5 L 5.5,13.5 L 11.5,8 L 5.5,2.5 z"/><path style="opacity:.6;fill:none;fill-opacity:1;fill-rule:evenodd;stroke:#fff;stroke-width:.67669517;stroke-linecap:butt;stroke-linejoin:miter;stroke-miterlimit:2.25;stroke-dasharray:none;stroke-dashoffset:0;stroke-opacity:1" id="path5918" d="M 6.1646733,4.0437191 L 6.1646733,12.002189 L 10.498722,7.9999306 L 6.1646733,4.0437191 z"/></g></g><g style="fill:none;stroke:url(#linearGradient5245);stroke-width:.89473569;stroke-opacity:1" id="g5227" transform="matrix(1.1176485,0,0,1.1176485,2.2655847,-1.3531723)"><g style="fill:none;stroke:url(#linearGradient5243);stroke-width:.89473569;stroke-opacity:1" id="g5229" transform="matrix(1.501385,0,0,1.454527,0.2444519,-0.1361145)"><path style="opacity:.3;fill:none;fill-opacity:1;fill-rule:evenodd;stroke:url(#linearGradient5241);stroke-width:.60546333;stroke-linecap:square;stroke-linejoin:round;stroke-miterlimit:2.25;stroke-dasharray:none;stroke-dashoffset:0;stroke-opacity:1" id="path5231" d="M 5.3403418,1.7309258 L 5.3669515,12.813327 C 5.3886676,13.207066 5.8402413,13.85857 6.4374791,13.344894 L 12.191852,7.9725331 L 5.3403418,1.7309258 z"/></g></g><g id="g5233" transform="translate(4.0310437,-2.0299382e-4)"><g id="g5235" transform="matrix(1.501385,0,0,1.454527,0.2444519,-0.1361145)"><path id="path5237" d="M 5.5,2.5 L 5.5,13.5 L 11.5,8 L 5.5,2.5 z" style="opacity:1;fill:url(#radialGradient5247);fill-opacity:1;fill-rule:evenodd;stroke:#888a85;stroke-width:.67669517;stroke-linecap:square;stroke-linejoin:round;stroke-miterlimit:2.25;stroke-dasharray:none;stroke-dashoffset:0;stroke-opacity:1"/><path id="path5239" d="M 6.1646733,4.0437191 L 6.1646733,12.002189 L 10.498722,7.9999306 L 6.1646733,4.0437191 z" style="opacity:.6;fill:none;fill-opacity:1;fill-rule:evenodd;stroke:#fff;stroke-width:.67669517;stroke-linecap:butt;stroke-linejoin:miter;stroke-miterlimit:2.25;stroke-dasharray:none;stroke-dashoffset:0;stroke-opacity:1"/></g></g></g></svg>