<svg xmlns="http://www.w3.org/2000/svg" xmlns:cc="http://web.resource.org/cc/" xmlns:svg="http://www.w3.org/2000/svg" xmlns:xlink="http://www.w3.org/1999/xlink" id="svg4899" width="24" height="24" version="1.0"><defs id="defs4901"><linearGradient id="linearGradient6268"><stop id="stop6270" offset="0" style="stop-color:#555753;stop-opacity:1"/><stop id="stop6272" offset="1" style="stop-color:#686a66;stop-opacity:1"/></linearGradient><linearGradient id="linearGradient6237"><stop style="stop-color:#60635e;stop-opacity:1" id="stop6239" offset="0"/><stop style="stop-color:#60635e;stop-opacity:0" id="stop6241" offset="1"/></linearGradient><linearGradient id="linearGradient6229"><stop style="stop-color:#60635e;stop-opacity:1" id="stop6231" offset="0"/><stop style="stop-color:#60635e;stop-opacity:0" id="stop6233" offset="1"/></linearGradient><linearGradient id="linearGradient6223"><stop id="stop6225" offset="0" style="stop-color:#3465a4;stop-opacity:1"/><stop id="stop6227" offset="1" style="stop-color:#729fcf;stop-opacity:1"/></linearGradient><linearGradient id="linearGradient5946"><stop style="stop-color:#fff;stop-opacity:1" id="stop5948" offset="0"/><stop style="stop-color:#fff;stop-opacity:0" id="stop5950" offset="1"/></linearGradient><linearGradient id="linearGradient5933"><stop style="stop-color:#3465a4;stop-opacity:1" id="stop5935" offset="0"/><stop style="stop-color:#729fcf;stop-opacity:1" id="stop5937" offset="1"/></linearGradient><linearGradient id="linearGradient5913"><stop style="stop-color:#fff;stop-opacity:1" id="stop5915" offset="0"/><stop style="stop-color:#fff;stop-opacity:0" id="stop5917" offset="1"/></linearGradient><filter id="filter6128" width="1.303" height="2.314" x="-.152" y="-.657"><feGaussianBlur id="feGaussianBlur6130" stdDeviation=".821"/></filter><linearGradient id="linearGradient6167" x1="9.798" x2="7.877" y1="10.485" y2="4.217" gradientUnits="userSpaceOnUse" xlink:href="#linearGradient5933"/><linearGradient id="linearGradient6170" x1="8.307" x2="8.307" y1="14" y2="11.367" gradientUnits="userSpaceOnUse" xlink:href="#linearGradient5913"/><linearGradient id="linearGradient6195" x1="7.5" x2="7.065" y1="8.582" y2="4.458" gradientTransform="matrix(1.5714286,0,0,2,-4.2857143,-6)" gradientUnits="userSpaceOnUse" xlink:href="#linearGradient5946"/><linearGradient id="linearGradient6217" x1="8.307" x2="8.307" y1="14" y2="11.367" gradientUnits="userSpaceOnUse" xlink:href="#linearGradient5913"/><linearGradient id="linearGradient6219" x1="9.798" x2="8.148" y1="10.485" y2="5.299" gradientUnits="userSpaceOnUse" xlink:href="#linearGradient6223"/><linearGradient id="linearGradient6221" x1="7.5" x2="6.85" y1="8.988" y2="4.559" gradientTransform="matrix(1.5714286,0,0,2,-4.2857143,-6)" gradientUnits="userSpaceOnUse" xlink:href="#linearGradient5946"/><linearGradient id="linearGradient6235" x1="2.541" x2="12.432" y1="11.5" y2="11.5" gradientUnits="userSpaceOnUse" xlink:href="#linearGradient6229"/><linearGradient id="linearGradient6243" x1="2.541" x2="12.432" y1="11.5" y2="11.5" gradientUnits="userSpaceOnUse" xlink:href="#linearGradient6237"/><linearGradient id="linearGradient6266" x1="7.5" x2="7.5" y1="12.567" y2="1.608" gradientUnits="userSpaceOnUse" xlink:href="#linearGradient6268"/></defs><metadata id="metadata4904"/><g id="layer1"><path id="path6193" d="M 4.5,13.02599 L 4.5,20.5 L 11.986139,20.5" style="fill:none;fill-rule:evenodd;stroke:#80827d;stroke-width:3;stroke-linecap:butt;stroke-linejoin:round;stroke-miterlimit:4;stroke-dasharray:none;stroke-opacity:1"/><path style="fill:none;fill-rule:evenodd;stroke:#eeeeec;stroke-width:1px;stroke-linecap:butt;stroke-linejoin:round;stroke-opacity:1" id="path6191" d="M 4.5,13.02599 L 4.5,20.5 L 11.986139,20.5"/><g id="g6179"><rect style="opacity:.32751094;color:#000;fill:#000;fill-opacity:1;fill-rule:evenodd;stroke:none;stroke-width:1;stroke-linecap:round;stroke-linejoin:miter;marker:none;marker-start:none;marker-mid:none;marker-end:none;stroke-miterlimit:4;stroke-dasharray:none;stroke-dashoffset:0;stroke-opacity:1;visibility:visible;display:inline;overflow:visible;filter:url(#filter6128);enable-background:accumulate" id="rect5954" width="13" height="3" x="1" y="12" rx=".396" ry=".396"/><path id="rect4935" d="M 3.125,1.5 C 2.2191778,1.5 1.5,2.2191776 1.5,3.125 L 1.5,9.875 C 1.5,10.780822 2.2191778,11.5 3.125,11.5 L 2.3125,11.5 C 1.8559114,11.5 1.5,11.855911 1.5,12.3125 L 1.5,13.6875 C 1.5,14.144089 1.8559115,14.5 2.3125,14.5 L 12.6875,14.5 C 13.144089,14.5 13.5,14.144089 13.5,13.6875 L 13.5,12.3125 C 13.5,11.855911 13.144089,11.5 12.6875,11.5 L 11.875,11.5 C 12.780822,11.5 13.5,10.780822 13.5,9.875 L 13.5,3.125 C 13.5,2.2191776 12.780822,1.5 11.875,1.5 L 3.125,1.5 z" style="color:#000;fill:#babdb6;fill-opacity:1;fill-rule:evenodd;stroke:url(#linearGradient6266);stroke-width:.99999988;stroke-linecap:round;stroke-linejoin:miter;marker:none;marker-start:none;marker-mid:none;marker-end:none;stroke-miterlimit:4;stroke-dasharray:none;stroke-dashoffset:0;stroke-opacity:1;visibility:visible;display:inline;overflow:visible;enable-background:accumulate;opacity:1"/><rect style="color:#000;fill:none;fill-opacity:.25675677;fill-rule:evenodd;stroke:#fff;stroke-width:.99999982;stroke-linecap:round;stroke-linejoin:miter;marker:none;marker-start:none;marker-mid:none;marker-end:none;stroke-miterlimit:4;stroke-dasharray:none;stroke-dashoffset:0;stroke-opacity:.7927928;visibility:visible;display:inline;overflow:visible;enable-background:accumulate" id="rect5908" width="10" height="8" x="2.5" y="2.5" rx=".621" ry=".621"/><rect id="rect5923" width="9" height="3" x="3" y="11" rx=".396" ry=".396" style="color:#000;fill:#babdb6;fill-opacity:1;fill-rule:evenodd;stroke:none;stroke-width:1;stroke-linecap:round;stroke-linejoin:miter;marker:none;marker-start:none;marker-mid:none;marker-end:none;stroke-miterlimit:4;stroke-dasharray:none;stroke-dashoffset:0;stroke-opacity:1;visibility:visible;display:inline;overflow:visible;enable-background:accumulate"/><rect id="rect5911" width="10" height="3" x="2.5" y="10.5" rx=".621" ry=".621" style="color:#000;fill:none;fill-opacity:.25675677;fill-rule:evenodd;stroke:url(#linearGradient6170);stroke-width:.99999982;stroke-linecap:round;stroke-linejoin:miter;marker:none;marker-start:none;marker-mid:none;marker-end:none;stroke-miterlimit:4;stroke-dasharray:none;stroke-dashoffset:0;stroke-opacity:1;visibility:visible;display:inline;overflow:visible;enable-background:accumulate"/><rect id="rect5921" width="8" height="6" x="3.5" y="3.5" rx=".396" ry=".396" style="color:#000;fill:url(#linearGradient6167);fill-opacity:1;fill-rule:evenodd;stroke:#204a87;stroke-width:.99999988;stroke-linecap:round;stroke-linejoin:miter;marker:none;marker-start:none;marker-mid:none;marker-end:none;stroke-miterlimit:4;stroke-dasharray:none;stroke-dashoffset:0;stroke-opacity:1;visibility:visible;display:inline;overflow:visible;enable-background:accumulate"/><path id="path5941" d="M 2.859375,2 C 2.38599,2 2,2.4491516 2,3 L 2,4.7 C 3.3805613,5.5049648 5.3196878,6.0000002 7.5,6 C 9.6803124,6 11.619439,5.5049648 13,4.7 L 13,3 C 13,2.449152 12.61401,2 12.140625,2 L 2.859375,2 z" style="color:#000;fill:url(#linearGradient6195);fill-opacity:1;fill-rule:evenodd;stroke:none;stroke-width:1;stroke-linecap:round;stroke-linejoin:miter;marker:none;marker-start:none;marker-mid:none;marker-end:none;stroke-miterlimit:4;stroke-dasharray:none;stroke-dashoffset:0;stroke-opacity:1;visibility:visible;display:inline;overflow:visible;enable-background:accumulate"/><path id="path6176" d="M 3.0405941,11.5 L 11.932178,11.5" style="fill:none;fill-rule:evenodd;stroke:url(#linearGradient6243);stroke-width:1px;stroke-linecap:butt;stroke-linejoin:miter;stroke-opacity:1"/></g><g id="use6189" transform="translate(9,8)" style="stroke:#888a85"><rect id="rect6201" width="13" height="3" x="1" y="12" rx=".396" ry=".396" style="opacity:.32751094;color:#000;fill:#000;fill-opacity:1;fill-rule:evenodd;stroke:none;stroke-width:1;stroke-linecap:round;stroke-linejoin:miter;marker:none;marker-start:none;marker-mid:none;marker-end:none;stroke-miterlimit:4;stroke-dasharray:none;stroke-dashoffset:0;stroke-opacity:1;visibility:visible;display:inline;overflow:visible;filter:url(#filter6128);enable-background:accumulate"/><path style="color:#000;fill:#babdb6;fill-opacity:1;fill-rule:evenodd;stroke:url(#linearGradient6266);stroke-width:.99999988;stroke-linecap:round;stroke-linejoin:miter;marker:none;marker-start:none;marker-mid:none;marker-end:none;stroke-miterlimit:4;stroke-dasharray:none;stroke-dashoffset:0;stroke-opacity:1;visibility:visible;display:inline;overflow:visible;enable-background:accumulate" id="path6203" d="M 3.125,1.5 C 2.2191778,1.5 1.5,2.2191776 1.5,3.125 L 1.5,9.875 C 1.5,10.780822 2.2191778,11.5 3.125,11.5 L 2.3125,11.5 C 1.8559114,11.5 1.5,11.855911 1.5,12.3125 L 1.5,13.6875 C 1.5,14.144089 1.8559115,14.5 2.3125,14.5 L 12.6875,14.5 C 13.144089,14.5 13.5,14.144089 13.5,13.6875 L 13.5,12.3125 C 13.5,11.855911 13.144089,11.5 12.6875,11.5 L 11.875,11.5 C 12.780822,11.5 13.5,10.780822 13.5,9.875 L 13.5,3.125 C 13.5,2.2191776 12.780822,1.5 11.875,1.5 L 3.125,1.5 z"/><rect id="rect6205" width="10" height="8" x="2.5" y="2.5" rx=".621" ry=".621" style="color:#000;fill:none;fill-opacity:.25675677;fill-rule:evenodd;stroke:#fff;stroke-width:.99999982;stroke-linecap:round;stroke-linejoin:miter;marker:none;marker-start:none;marker-mid:none;marker-end:none;stroke-miterlimit:4;stroke-dasharray:none;stroke-dashoffset:0;stroke-opacity:.79279288;visibility:visible;display:inline;overflow:visible;enable-background:accumulate"/><rect style="color:#000;fill:#babdb6;fill-opacity:1;fill-rule:evenodd;stroke:none;stroke-width:1;stroke-linecap:round;stroke-linejoin:miter;marker:none;marker-start:none;marker-mid:none;marker-end:none;stroke-miterlimit:4;stroke-dasharray:none;stroke-dashoffset:0;stroke-opacity:1;visibility:visible;display:inline;overflow:visible;enable-background:accumulate" id="rect6207" width="9" height="3" x="3" y="11" rx=".396" ry=".396"/><rect style="color:#000;fill:none;fill-opacity:.25675677;fill-rule:evenodd;stroke:url(#linearGradient6217);stroke-width:.99999982;stroke-linecap:round;stroke-linejoin:miter;marker:none;marker-start:none;marker-mid:none;marker-end:none;stroke-miterlimit:4;stroke-dasharray:none;stroke-dashoffset:0;stroke-opacity:1;visibility:visible;display:inline;overflow:visible;enable-background:accumulate" id="rect6209" width="10" height="3" x="2.5" y="10.5" rx=".621" ry=".621"/><rect style="color:#000;fill:url(#linearGradient6219);fill-opacity:1;fill-rule:evenodd;stroke:#204a87;stroke-width:.99999988;stroke-linecap:round;stroke-linejoin:miter;marker:none;marker-start:none;marker-mid:none;marker-end:none;stroke-miterlimit:4;stroke-dasharray:none;stroke-dashoffset:0;stroke-opacity:1;visibility:visible;display:inline;overflow:visible;enable-background:accumulate" id="rect6211" width="8" height="6" x="3.5" y="3.5" rx=".396" ry=".396"/><path style="color:#000;fill:url(#linearGradient6221);fill-opacity:1;fill-rule:evenodd;stroke:none;stroke-width:1;stroke-linecap:round;stroke-linejoin:miter;marker:none;marker-start:none;marker-mid:none;marker-end:none;stroke-miterlimit:4;stroke-dasharray:none;stroke-dashoffset:0;stroke-opacity:1;visibility:visible;display:inline;overflow:visible;enable-background:accumulate" id="path6213" d="M 2.859375,2 C 2.38599,2 2,2.4491516 2,3 L 2,4.7 C 3.3805613,5.5049648 5.3196878,6.0000002 7.5,6 C 9.6803124,6 11.619439,5.5049648 13,4.7 L 13,3 C 13,2.449152 12.61401,2 12.140625,2 L 2.859375,2 z"/><path style="fill:none;fill-rule:evenodd;stroke:url(#linearGradient6235);stroke-width:1px;stroke-linecap:butt;stroke-linejoin:miter;stroke-opacity:1" id="path6215" d="M 3.0405941,11.5 L 11.932178,11.5"/></g><path style="fill:none;fill-rule:evenodd;stroke:#babdb6;stroke-width:1px;stroke-linecap:butt;stroke-linejoin:miter;stroke-opacity:1;opacity:1;color:#000;fill-opacity:1;marker:none;marker-start:none;marker-mid:none;marker-end:none;stroke-miterlimit:4;stroke-dasharray:none;stroke-dashoffset:0;visibility:visible;display:inline;overflow:visible;enable-background:accumulate" id="path6288" d="M 3.9643565,18.50396 L 5.0455446,18.50396"/><path id="path6290" d="M 6.5,19.950495 L 6.5,21.031683" style="fill:none;fill-rule:evenodd;stroke:#babdb6;stroke-width:1px;stroke-linecap:butt;stroke-linejoin:miter;stroke-opacity:1"/></g></svg>