<svg xmlns="http://www.w3.org/2000/svg" xmlns:svg="http://www.w3.org/2000/svg" xmlns:xlink="http://www.w3.org/1999/xlink" id="svg4908" width="24" height="24" version="1.0"><defs id="defs4910"><linearGradient id="linearGradient3441" x1="43.883" x2="39.987" y1="-42.862" y2="-42.862" gradientTransform="translate(0,4.0216698)" gradientUnits="userSpaceOnUse" xlink:href="#linearGradient7658"/><linearGradient id="linearGradient3456" x1="44.288" x2="36.8" y1="-39.952" y2="-39.952" gradientTransform="matrix(1,0,0,1.1101512,0,4.348586)" gradientUnits="userSpaceOnUse" xlink:href="#linearGradient3460"/><linearGradient id="linearGradient7658"><stop id="stop7660" offset="0" style="stop-color:#d3d7cf"/><stop id="stop7662" offset="1" style="stop-color:#eeeeec"/></linearGradient><linearGradient id="linearGradient3447" x1="43.883" x2="39.987" y1="-42.862" y2="-42.862" gradientUnits="userSpaceOnUse" xlink:href="#linearGradient7658"/><linearGradient id="linearGradient3460"><stop id="stop3462" offset="0" style="stop-color:#343533;stop-opacity:1"/><stop id="stop3464" offset="1" style="stop-color:#343533;stop-opacity:.5"/></linearGradient><linearGradient id="linearGradient3458" x1="44.288" x2="36.8" y1="-39.952" y2="-39.952" gradientTransform="matrix(1,0,0,1.1101512,0,4.7915781)" gradientUnits="userSpaceOnUse" xlink:href="#linearGradient3460"/><linearGradient id="linearGradient3061"><stop style="stop-color:black;stop-opacity:1" id="stop3063" offset="0"/><stop style="stop-color:black;stop-opacity:0" id="stop3065" offset="1"/></linearGradient><radialGradient id="radialGradient2559" cx="40.393" cy="41.614" r="6.099" fx="40.393" fy="41.614" gradientTransform="matrix(1,0,0,1.025362,0,-1.055427)" gradientUnits="userSpaceOnUse" xlink:href="#linearGradient3061"/><linearGradient id="linearGradient6093"><stop style="stop-color:#000;stop-opacity:1" id="stop6095" offset="0"/><stop style="stop-color:#000;stop-opacity:0" id="stop6097" offset="1"/></linearGradient><linearGradient id="linearGradient6057"><stop style="stop-color:#000;stop-opacity:1" id="stop6059" offset="0"/><stop style="stop-color:#737373;stop-opacity:1" id="stop6061" offset="1"/></linearGradient><linearGradient id="linearGradient6009"><stop style="stop-color:#edeeec;stop-opacity:1" id="stop6011" offset="0"/><stop style="stop-color:#d4d7d2;stop-opacity:1" id="stop6013" offset="1"/></linearGradient><linearGradient id="linearGradient6056"><stop id="stop6058" offset="0" style="stop-color:#fff;stop-opacity:1"/><stop id="stop6060" offset="1" style="stop-color:#d3d7cf;stop-opacity:1"/></linearGradient><linearGradient id="linearGradient5966" x1="13.841" x2="4.476" y1="9.147" y2="-.641" gradientUnits="userSpaceOnUse" xlink:href="#linearGradient6056"/><linearGradient id="linearGradient6015" x1="19.959" x2="20.004" y1="14.043" y2="17.972" gradientUnits="userSpaceOnUse" xlink:href="#linearGradient6009"/><filter id="filter6053" width="1.123" height="1.54" x="-.061" y="-.27"><feGaussianBlur id="feGaussianBlur6055" stdDeviation=".675"/></filter><linearGradient id="linearGradient6063" x1="21.028" x2="21.028" y1="15.601" y2="18.951" gradientUnits="userSpaceOnUse" xlink:href="#linearGradient6057"/><linearGradient id="linearGradient6099" x1="11.563" x2="11.563" y1="11.125" y2="8.179" gradientTransform="matrix(1,0,0,0.5,0,6)" gradientUnits="userSpaceOnUse" xlink:href="#linearGradient6093"/><linearGradient id="linearGradient3683" x1="44.288" x2="36.8" y1="-39.952" y2="-39.952" gradientTransform="matrix(1,0,0,1.1101512,0,4.7915781)" gradientUnits="userSpaceOnUse" xlink:href="#linearGradient3460"/><linearGradient id="linearGradient3685" x1="43.883" x2="39.987" y1="-42.862" y2="-42.862" gradientUnits="userSpaceOnUse" xlink:href="#linearGradient7658"/><linearGradient id="linearGradient3687" x1="44.288" x2="36.8" y1="-39.952" y2="-39.952" gradientTransform="matrix(1,0,0,1.1101512,0,4.348586)" gradientUnits="userSpaceOnUse" xlink:href="#linearGradient3460"/><linearGradient id="linearGradient3689" x1="43.883" x2="39.987" y1="-42.862" y2="-42.862" gradientTransform="translate(0,4.0216698)" gradientUnits="userSpaceOnUse" xlink:href="#linearGradient7658"/></defs><metadata id="metadata4913"/><g id="layer1"><g id="g3632"><rect id="rect6019" width="22" height="5" x="1" y="19" rx="1.46" ry="1.46" style="opacity:.23913042;fill:#000;fill-opacity:1;stroke:none;stroke-width:1;stroke-linecap:round;stroke-linejoin:miter;stroke-miterlimit:4;stroke-dasharray:none;stroke-dashoffset:0;stroke-opacity:1;filter:url(#filter6053)"/><rect id="rect5895" width="18.907" height="2.92" x="2.5" y="19.58" rx="1.46" ry="1.46" style="opacity:1;fill:#babdb6;fill-opacity:1;stroke:#555753;stroke-width:1;stroke-linecap:round;stroke-linejoin:miter;stroke-miterlimit:4;stroke-dasharray:none;stroke-dashoffset:0;stroke-opacity:1"/><path id="rect4923" d="M 4.5310526,10.532094 L 19.468949,10.532094 L 22.500002,14.131469 L 22.500002,19.489649 C 22.500002,20.049384 22.049386,20.5 21.489651,20.5 L 2.5103509,20.5 C 1.9506166,20.5 1.5000001,20.049384 1.5000001,19.489649 L 1.5000001,14.131469 L 4.5310526,10.532094 z" style="fill:url(#linearGradient6015);fill-opacity:1;stroke:#555753;stroke-width:.99999994;stroke-linecap:round;stroke-linejoin:miter;stroke-miterlimit:4;stroke-dashoffset:0;stroke-opacity:1;opacity:1"/><rect id="rect5972" width="20" height="6" x="2" y="14" rx=".316" ry=".316" style="opacity:.23913043;fill:url(#linearGradient6063);fill-opacity:1;stroke:none;stroke-width:1;stroke-linecap:round;stroke-linejoin:miter;stroke-miterlimit:4;stroke-dasharray:none;stroke-dashoffset:0;stroke-opacity:1"/><path id="path6071" d="M 2.5,14.446516 L 2.5,19.534838 L 21.522081,19.534838 L 21.522081,14.446516 L 18.988038,11.477919 L 4.9216374,11.477919 L 2.5,14.446516 z" style="fill:none;fill-rule:evenodd;stroke:#fff;stroke-width:1px;stroke-linecap:butt;stroke-linejoin:miter;stroke-opacity:1;opacity:.3423913"/><path id="path5970" d="M 3.5310529,14.5 L 20.5,14.5" style="opacity:.38586957;fill:none;fill-rule:evenodd;stroke:#fff;stroke-width:1px;stroke-linecap:round;stroke-linejoin:miter;stroke-opacity:1"/><rect id="rect6065" width="15" height="2" x="4.5" y="16.5" style="opacity:1;fill:#eeeeec;fill-opacity:1;stroke:#888a85;stroke-width:1;stroke-linecap:round;stroke-linejoin:miter;stroke-miterlimit:4;stroke-dasharray:none;stroke-dashoffset:0;stroke-opacity:1"/><path id="rect5952" d="M 6.5103508,1.5 L 17.48965,1.5 C 18.049384,1.5 18.500001,1.9506165 18.500001,2.5103509 L 18.500001,12.563146 L 5.5,12.563146 L 5.5,2.5103509 C 5.5,1.9506165 5.9506165,1.5 6.5103508,1.5 z" style="fill:url(#linearGradient5966);fill-opacity:1;stroke:#888a85;stroke-width:.99999994;stroke-linecap:round;stroke-linejoin:miter;stroke-miterlimit:4;stroke-dashoffset:0;stroke-opacity:1;opacity:1"/><rect id="rect5968" width="11" height="10" x="6.5" y="2.5" rx=".316" ry=".316" style="opacity:1;fill:none;fill-opacity:1;stroke:#fff;stroke-width:.99999982;stroke-linecap:round;stroke-linejoin:miter;stroke-miterlimit:4;stroke-dasharray:none;stroke-dashoffset:0;stroke-opacity:1"/><rect id="rect5975" width="8" height="1" x="8" y="4" rx="0" ry="0" style="opacity:.26630435;fill:#000;fill-opacity:1;stroke:none;stroke-width:1;stroke-linecap:round;stroke-linejoin:miter;stroke-miterlimit:4;stroke-dasharray:none;stroke-dashoffset:0;stroke-opacity:1"/><rect id="rect5979" width="8" height="1" x="8" y="6" rx="0" ry="0" style="opacity:.26630435;fill:#000;fill-opacity:1;stroke:none;stroke-width:1;stroke-linecap:round;stroke-linejoin:miter;stroke-miterlimit:4;stroke-dasharray:none;stroke-dashoffset:0;stroke-opacity:1"/><rect id="rect5987" width="8" height="1" x="8" y="8" rx="0" ry="0" style="opacity:.26630435;fill:#000;fill-opacity:1;stroke:none;stroke-width:1;stroke-linecap:round;stroke-linejoin:miter;stroke-miterlimit:4;stroke-dasharray:none;stroke-dashoffset:0;stroke-opacity:1"/><path id="path6069" d="M 4.541708,12.5 L 19.5,12.5" style="fill:none;fill-rule:evenodd;stroke:#888a85;stroke-width:1px;stroke-linecap:round;stroke-linejoin:miter;stroke-opacity:1"/><rect id="rect6091" width="14" height="2" x="5" y="10" style="opacity:.19565214;fill:url(#linearGradient6099);fill-opacity:1;stroke:none;stroke-width:1;stroke-linecap:round;stroke-linejoin:miter;stroke-miterlimit:4;stroke-dasharray:none;stroke-dashoffset:0;stroke-opacity:1"/></g><g id="g3472" transform="matrix(0.9567392,0,0,0.9567392,-22.044959,-21.966195)"><path id="path2155" d="M 46.49227,41.613941 A 6.0987959,6.2534757 0 1 1 34.294679,41.613941 A 6.0987959,6.2534757 0 1 1 46.49227,41.613941 z" transform="matrix(0.983167,0,0,0.959468,1.7825924,0.5718055)" style="fill:#61635f;fill-opacity:1;stroke:#555753;stroke-width:1.02960597999999992;stroke-linecap:butt;stroke-linejoin:miter;stroke-miterlimit:4;stroke-dasharray:none;stroke-dashoffset:1.20000057000000004;stroke-opacity:1"/><path id="path3046" d="M 46.49227,41.613941 A 6.0987959,6.2534757 0 1 1 34.294679,41.613941 A 6.0987959,6.2534757 0 1 1 46.49227,41.613941 z" transform="matrix(0.819297,0,0,0.799556,8.4018784,7.2263815)" style="opacity:.11442786;fill:none;fill-opacity:1;stroke:#fff;stroke-width:1.23553479000000022;stroke-linecap:butt;stroke-linejoin:miter;stroke-miterlimit:4;stroke-dasharray:none;stroke-dashoffset:1.20000057000000004;stroke-opacity:1"/><path id="path3048" d="M 41.499991,34.999048 C 38.466123,34.999048 35.99999,37.463191 35.999991,40.499048 C 40.661027,44.88298 43.488004,37.51594 46.999991,40.499048 C 46.999991,37.463189 44.53386,34.99905 41.499991,34.999048 z" style="opacity:.12437811;fill:#fff;fill-opacity:1;stroke:none;stroke-width:1.23553479000000022;stroke-linecap:butt;stroke-linejoin:miter;stroke-miterlimit:4;stroke-dasharray:none;stroke-dashoffset:1.20000057000000004;stroke-opacity:1"/><g id="g3466"><rect style="opacity:.76119403;fill:url(#linearGradient3683);fill-opacity:1;stroke:none;stroke-width:1;stroke-linecap:butt;stroke-linejoin:miter;stroke-miterlimit:4;stroke-dasharray:none;stroke-dashoffset:1.20000057;stroke-opacity:1;display:inline" id="rect3406" width="7.477" height="3.563" x="36.805" y="-45.282" transform="matrix(0,1,-1,0,0,0)"/><rect style="fill:url(#linearGradient3685);fill-opacity:1;stroke:none;stroke-width:1;stroke-linecap:butt;stroke-linejoin:miter;stroke-miterlimit:4;stroke-dasharray:none;stroke-dashoffset:1.20000057;stroke-opacity:1;display:inline" id="rect3408" width="6.722" height="2.378" x="37.161" y="-44.714" transform="matrix(0,1,-1,0,0,0)"/><rect style="opacity:.76119403;fill:url(#linearGradient3687);fill-opacity:1;stroke:none;stroke-width:1;stroke-linecap:butt;stroke-linejoin:miter;stroke-miterlimit:4;stroke-dasharray:none;stroke-dashoffset:1.20000057;stroke-opacity:1;display:inline" id="rect3434" width="7.477" height="3.563" x="36.805" y="-41.26" transform="matrix(0,1,-1,0,0,0)"/><rect style="fill:url(#linearGradient3689);fill-opacity:1;stroke:none;stroke-width:1;stroke-linecap:butt;stroke-linejoin:miter;stroke-miterlimit:4;stroke-dasharray:none;stroke-dashoffset:1.20000057;stroke-opacity:1;display:inline" id="rect3436" width="6.722" height="2.378" x="37.161" y="-40.692" transform="matrix(0,1,-1,0,0,0)"/></g></g></g></svg>