<svg xmlns="http://www.w3.org/2000/svg" xmlns:cc="http://web.resource.org/cc/" xmlns:svg="http://www.w3.org/2000/svg" xmlns:xlink="http://www.w3.org/1999/xlink" id="svg2" width="24" height="24" version="1.0"><defs id="defs4"><linearGradient id="linearGradient7810"><stop style="stop-color:#eeeeec;stop-opacity:1" id="stop7812" offset="0"/><stop style="stop-color:#eeeeec;stop-opacity:0" id="stop7814" offset="1"/></linearGradient><linearGradient id="linearGradient5111"><stop style="stop-color:#eeeeec;stop-opacity:1" id="stop5113" offset="0"/><stop style="stop-color:#eeeeec;stop-opacity:0" id="stop5115" offset="1"/></linearGradient><linearGradient id="linearGradient30505"><stop style="stop-color:#000;stop-opacity:1" id="stop30507" offset="0"/><stop style="stop-color:#000;stop-opacity:0" id="stop30509" offset="1"/></linearGradient><radialGradient id="radialGradient30511" cx="25.375" cy="47.35" r="17.125" fx="25.375" fy="47.35" gradientTransform="matrix(1,0,0,0.343066,0,28.49453)" gradientUnits="userSpaceOnUse" xlink:href="#linearGradient30505"/><linearGradient id="linearGradient5117" x1="11.019" x2="11.019" y1="5.106" y2="14.599" gradientUnits="userSpaceOnUse" xlink:href="#linearGradient5111"/><linearGradient id="linearGradient7816" x1="12.272" x2="12.272" y1=".439" y2="17.853" gradientUnits="userSpaceOnUse" xlink:href="#linearGradient7810"/><linearGradient id="linearGradient8777" x1="12.272" x2="12.272" y1=".439" y2="17.853" gradientUnits="userSpaceOnUse" xlink:href="#linearGradient7810"/></defs><metadata id="metadata7"/><g id="layer1"><path style="opacity:.4;color:#000;fill:url(#radialGradient30511);fill-opacity:1;fill-rule:nonzero;stroke:none;stroke-width:1;stroke-linecap:butt;stroke-linejoin:miter;marker:none;marker-start:none;marker-mid:none;marker-end:none;stroke-miterlimit:4;stroke-dashoffset:0;stroke-opacity:1;visibility:visible;display:block;overflow:visible" id="path30503" d="M 42.5 43.375 A 17.125 5.875 0 1 1 8.25,43.375 A 17.125 5.875 0 1 1 42.5 43.375 z" transform="matrix(-0.583942,0,0,0.425533,26.81752,2.042521)"/><path style="fill:#ef4e29;fill-opacity:1;stroke:#a02b00;stroke-width:1;stroke-miterlimit:4;stroke-dasharray:none;stroke-opacity:1" id="rect6915" d="M 7.5,2.5 L 2.5,7.5 L 2.5,16.5 L 7.5,21.5 L 16.5,21.5 L 21.5,16.5 L 21.5,7.5 L 16.5,2.5 L 7.5,2.5 z" transform="translate(-7e-6,0)"/><path style="opacity:.4;fill:url(#linearGradient7816);fill-opacity:1;stroke:#eeeeec;stroke-width:1;stroke-miterlimit:4;stroke-dasharray:none;stroke-opacity:1" id="path7808" d="M 7.90625,3.53125 L 3.53125,7.90625 L 3.53125,16.09375 L 7.90625,20.46875 L 16.09375,20.46875 L 20.46875,16.09375 L 20.46875,7.90625 L 16.09375,3.53125 L 7.90625,3.53125 z" transform="translate(-7e-6,0)"/><path style="opacity:1;fill:#eeeeec;fill-opacity:1;stroke:#c00;stroke-width:1;stroke-miterlimit:4;stroke-dasharray:none;stroke-opacity:1" id="rect5279" d="M 10.5,5.5 L 10.5,10.5 L 5.5,10.5 L 5.5,13.5 L 10.5,13.5 L 10.5,18.5 L 13.5,18.5 L 13.5,13.5 L 18.5,13.5 L 18.5,10.5 L 13.5,10.5 L 13.5,5.5 L 10.5,5.5 z" transform="matrix(0.707107,0.707107,-0.707107,0.707107,11.99998,-4.970563)"/></g></svg>