<svg xmlns="http://www.w3.org/2000/svg" xmlns:cc="http://web.resource.org/cc/" xmlns:svg="http://www.w3.org/2000/svg" id="svg2" width="24" height="24" version="1.0"><metadata id="metadata7"/><g id="layer1"><rect style="opacity:1;fill:#eeeeec;fill-opacity:1;stroke:#888a85;stroke-width:.99999964;stroke-miterlimit:4;stroke-dasharray:none;stroke-opacity:1" id="rect4220" width="9" height="9" x="7.5" y="7.5" rx=".97" ry="1.213"/><path style="fill:#729fcf;fill-opacity:1;stroke:#204a87;stroke-width:1;stroke-miterlimit:4;stroke-opacity:1" id="rect4222" d="M 8.1921297,7.5 L 15.80788,7.5 C 16.191314,7.5 16.5,7.8872275 16.5,8.3682232 L 16.5,10.5 C 16.096681,10.5 16.191314,10.469735 15.80788,10.469735 L 8.1921297,10.469735 C 7.8086948,10.469735 8.1890226,10.5 7.5000089,10.5 L 7.5000089,8.3682232 C 7.5000089,7.8872275 7.8086948,7.5 8.1921297,7.5 z"/><path style="fill:#babdb6;fill-opacity:1;stroke:#555753;stroke-width:.99999923;stroke-miterlimit:4;stroke-opacity:1" id="rect4225" d="M 11.988045,19.500002 L 14.499995,21.5 L 9.4999996,21.5 L 11.988045,19.500002 z"/><path style="fill:#babdb6;fill-opacity:1;stroke:#555753;stroke-width:.99999923;stroke-miterlimit:4;stroke-opacity:1" id="path4228" d="M 11.988045,4.4999981 L 14.499995,2.4999996 L 9.4999996,2.4999996 L 11.988045,4.4999981 z"/><path style="fill:#babdb6;fill-opacity:1;stroke:#555753;stroke-width:.99999923;stroke-miterlimit:4;stroke-opacity:1" id="path4230" d="M 19.500002,11.988045 L 21.5,14.499995 L 21.5,9.4999996 L 19.500002,11.988045 z"/><path style="fill:#babdb6;fill-opacity:1;stroke:#555753;stroke-width:.99999923;stroke-miterlimit:4;stroke-opacity:1" id="path4232" d="M 4.4999981,11.988045 L 2.4999996,14.499995 L 2.4999996,9.4999996 L 4.4999981,11.988045 z"/><path style="opacity:.22270741;fill:none;fill-opacity:1;stroke:#fff;stroke-width:1.80108821;stroke-miterlimit:4;stroke-dasharray:none;stroke-opacity:1" id="path4236" d="M 7.03125,5.96875 C 7.0064491,6.010746 6.96875,6.0841683 6.96875,6.21875 L 6.96875,18.90625 C 6.96875,19.040832 7.0064492,19.114254 7.03125,19.15625 L 19.125,19.15625 C 19.153025,19.111982 19.1875,19.027661 19.1875,18.90625 L 19.1875,6.21875 C 19.1875,6.0973393 19.153025,6.0130178 19.125,5.96875 L 7.03125,5.96875 z" transform="matrix(0.5739873,0,0,0.5370659,4.5000259,5.2534161)"/></g></svg>