<svg xmlns="http://www.w3.org/2000/svg" xmlns:cc="http://web.resource.org/cc/" xmlns:svg="http://www.w3.org/2000/svg" xmlns:xlink="http://www.w3.org/1999/xlink" id="svg2" width="24" height="24" version="1.0"><defs id="defs3"><linearGradient id="linearGradient5148"><stop style="stop-color:#000;stop-opacity:1" id="stop5150" offset="0"/><stop style="stop-color:#000;stop-opacity:0" id="stop5152" offset="1"/></linearGradient><linearGradient id="linearGradient5911"><stop style="stop-color:#fff;stop-opacity:1" id="stop5913" offset="0"/><stop style="stop-color:#fff;stop-opacity:0" id="stop5915" offset="1"/></linearGradient><linearGradient id="linearGradient5954"><stop style="stop-color:#888a85;stop-opacity:1" id="stop5956" offset="0"/><stop style="stop-color:#555753;stop-opacity:1" id="stop5958" offset="1"/></linearGradient><linearGradient id="linearGradient5946"><stop style="stop-color:#fff;stop-opacity:1" id="stop5948" offset="0"/><stop style="stop-color:#fff;stop-opacity:.08108108" id="stop5950" offset="1"/></linearGradient><linearGradient id="linearGradient5952" x1="-5.351" x2="15.384" y1="5.048" y2="27.679" gradientTransform="matrix(0.7639512,-0.7639512,0.7634549,0.7634549,-29.789061,11.470298)" gradientUnits="userSpaceOnUse" xlink:href="#linearGradient5946"/><linearGradient id="linearGradient5960" x1="-4.849" x2="4.013" y1="5.773" y2="25.449" gradientTransform="matrix(0.7639512,-0.7639512,0.7634549,0.7634549,-29.784139,11.470299)" gradientUnits="userSpaceOnUse" xlink:href="#linearGradient5954"/><linearGradient id="linearGradient4919" x1="-4.849" x2="4.013" y1="5.773" y2="25.449" gradientTransform="matrix(0.5807401,-0.8473808,0.5803628,0.8468302,-20.42943,12.693351)" gradientUnits="userSpaceOnUse" xlink:href="#linearGradient5954"/><linearGradient id="linearGradient4923" x1="-4.849" x2="4.013" y1="5.773" y2="25.449" gradientTransform="matrix(0.5807401,-0.8473808,0.5803628,0.8468302,-20.429431,-11.306649)" gradientUnits="userSpaceOnUse" xlink:href="#linearGradient5954"/><linearGradient id="linearGradient5906" x1="-4.849" x2="4.013" y1="5.773" y2="25.449" gradientTransform="matrix(0.5807401,-0.8473808,0.5803628,0.8468302,-20.42943,12.693351)" gradientUnits="userSpaceOnUse" xlink:href="#linearGradient5954"/><linearGradient id="linearGradient5917" x1="15.593" x2="15.646" y1=".317" y2="34.769" gradientTransform="matrix(0.9227396,0,0,0.9227396,0.9271264,0.9271264)" gradientUnits="userSpaceOnUse" xlink:href="#linearGradient5911"/><radialGradient id="radialGradient5142" cx="12.376" cy="6.733" r="10" fx="12.376" fy="6.733" gradientTransform="matrix(1.5831988,0,0,1.5831988,-7.2178135,-3.9263917)" gradientUnits="userSpaceOnUse" xlink:href="#linearGradient5954"/><radialGradient id="radialGradient5154" cx="12.25" cy="19.188" r="9" fx="12.25" fy="19.188" gradientTransform="matrix(1,0,0,0.4236111,0,11.059462)" gradientUnits="userSpaceOnUse" xlink:href="#linearGradient5148"/><filter id="filter5280" width="1.442" height="2.043" x="-.221" y="-.521"><feGaussianBlur id="feGaussianBlur5282" stdDeviation="1.657"/></filter></defs><metadata id="metadata6"/><g id="layer1"><path style="enable-background:accumulate;overflow:visible;display:inline;visibility:visible;stroke-opacity:1;stroke-dashoffset:0;stroke-dasharray:none;stroke-miterlimit:4;marker-end:none;marker-mid:none;marker-start:none;marker:none;stroke-linejoin:miter;stroke-linecap:butt;stroke-width:.99999981999999998px;stroke:#2e3436;fill-rule:evenodd;fill-opacity:1;fill:url(#radialGradient5142);color:#000;opacity:1" id="rect4917" d="M 19.601012,2.9511742 C 18.999446,2.3496084 18.030861,2.3496084 17.429295,2.9511742 L 11.999999,8.3804693 L 6.5707043,2.9511742 C 5.9691384,2.3496084 5.0005521,2.3496084 4.3989863,2.9511742 L 2.9511742,4.3989863 C 2.3496084,5.0005521 2.3496084,5.9691384 2.9511742,6.5707043 L 8.3804693,11.999999 L 2.9511742,17.429295 C 2.3496084,18.030861 2.3496084,18.999446 2.9511742,19.601012 L 4.3989863,21.048825 C 5.0005521,21.65039 5.9691384,21.65039 6.5707043,21.048825 L 11.999999,15.61953 L 17.429295,21.048825 C 18.030861,21.65039 18.999446,21.65039 19.601012,21.048825 L 21.048825,19.601012 C 21.65039,18.999446 21.65039,18.030861 21.048825,17.429295 L 15.61953,11.999999 L 21.048825,6.5707043 C 21.65039,5.9691384 21.65039,5.0005521 21.048825,4.3989863 L 19.601012,2.9511742 z"/><path style="opacity:.41954023;color:#000;fill:none;fill-opacity:1;fill-rule:evenodd;stroke:url(#linearGradient5917);stroke-width:.99999970000000005px;stroke-linecap:butt;stroke-linejoin:miter;marker:none;marker-start:none;marker-mid:none;marker-end:none;stroke-miterlimit:4;stroke-dasharray:none;stroke-dashoffset:0;stroke-opacity:1;visibility:visible;display:inline;overflow:visible;enable-background:accumulate" id="rect4927" d="M 19.014525,3.7955574 C 18.771137,3.5521707 18.381192,3.5521705 18.137805,3.7955574 L 12.062708,9.7452371 L 5.9247331,3.7953867 C 5.6080047,3.4786584 5.1142502,3.6667835 4.7975224,3.9835113 L 3.9208031,4.8602307 C 3.6040746,5.176959 3.383559,5.5756136 3.8580949,6.0501495 L 9.8079453,12 L 3.8582656,17.94968 C 3.6148789,18.193066 3.6148789,18.771137 3.8582656,19.014525 L 4.9854761,20.141734 C 5.228863,20.385123 5.8069329,20.447832 6.0503204,20.204442 L 12,14.192055 L 18.012558,20.079198 C 18.329287,20.395925 18.823042,20.395925 19.139768,20.079198 L 20.01649,19.202476 C 20.333217,18.885749 20.333217,18.391995 20.01649,18.075266 L 14.254763,12 L 20.204442,5.8621957 C 20.447831,5.6188089 20.385123,5.1661548 20.141734,4.9227679 L 19.014525,3.7955574 z"/><path style="opacity:.41954023;color:#000;fill:url(#radialGradient5154);fill-opacity:1;fill-rule:evenodd;stroke:none;stroke-width:1;stroke-linecap:butt;stroke-linejoin:miter;marker:none;marker-start:none;marker-mid:none;marker-end:none;stroke-miterlimit:10;stroke-dasharray:none;stroke-dashoffset:0;stroke-opacity:1;visibility:visible;display:inline;overflow:visible;filter:url(#filter5280);enable-background:accumulate" id="path5146" d="M 21.25,19.1875 A 9,3.8125 0 1 1 3.25,19.1875 A 9,3.8125 0 1 1 21.25,19.1875 z" transform="matrix(1,0,0,0.6721311,0,7.5409836)"/></g></svg>