<svg xmlns="http://www.w3.org/2000/svg" xmlns:cc="http://web.resource.org/cc/" xmlns:svg="http://www.w3.org/2000/svg" xmlns:xlink="http://www.w3.org/1999/xlink" id="svg4220" width="24" height="24" version="1.0"><defs id="defs4222"><linearGradient id="linearGradient6270"><stop style="stop-color:#d3d7cf;stop-opacity:1" id="stop6272" offset="0"/><stop style="stop-color:#d3d7cf;stop-opacity:0" id="stop6274" offset="1"/></linearGradient><radialGradient id="radialGradient6280" cx="5.304" cy="5.778" r="5.635" fx="5.304" fy="5.778" gradientTransform="matrix(1.303243,0,0,1.303243,-1.390396,-1.679419)" gradientUnits="userSpaceOnUse" xlink:href="#linearGradient6270"/><radialGradient id="radialGradient6288" cx="5.304" cy="5.778" r="5.635" fx="5.304" fy="5.778" gradientTransform="matrix(1.303243,0,0,1.303243,-1.390396,-1.679419)" gradientUnits="userSpaceOnUse" xlink:href="#linearGradient6270"/></defs><metadata id="metadata4225"/><g id="layer1"><path style="opacity:1;fill:#eeeeec;fill-opacity:1;stroke:none;stroke-width:.80489224;stroke-miterlimit:4;stroke-dasharray:none;stroke-opacity:1" id="path6267" d="M 16.502798 5.8505816 A 5.2325945 5.2325945 0 1 1 6.0376091,5.8505816 A 5.2325945 5.2325945 0 1 1 16.502798 5.8505816 z" transform="matrix(-0.946088,0.946088,-0.946088,-0.946088,25.19777,3.872561)"/><rect style="opacity:1;fill:#555753;fill-opacity:1;stroke:none;stroke-width:1;stroke-miterlimit:4;stroke-dasharray:none;stroke-opacity:1" id="rect6228" width="1.563" height="1.766" x="10" y="11" transform="matrix(0.479866,-0.479867,1.273788,1.273789,-4.81034,5.536993)"/><rect style="opacity:1;fill:#555753;fill-opacity:1;stroke:#2e3436;stroke-width:1.54414654;stroke-miterlimit:4;stroke-dasharray:none;stroke-opacity:1" id="rect6226" width="4.454" height="7.816" x="10" y="10" rx="2.102" ry=".945" transform="matrix(0.30332,-0.30332,0.69134,0.691339,5.176196,12.59349)"/><path style="opacity:1;fill:none;fill-opacity:1;stroke:#2e3436;stroke-width:.69762242;stroke-miterlimit:4;stroke-dasharray:none;stroke-opacity:1" id="path6230" d="M 16.502798 5.8505816 A 5.2325945 5.2325945 0 1 1 6.0376091,5.8505816 A 5.2325945 5.2325945 0 1 1 16.502798 5.8505816 z" transform="matrix(1.013524,-1.013666,1.013524,1.013666,-8.353373,14.49368)"/><path style="opacity:1;fill:none;fill-opacity:1;stroke:url(#radialGradient6280);stroke-width:1.74393415;stroke-miterlimit:4;stroke-dasharray:none;stroke-opacity:1" id="path6278" d="M 16.502798 5.8505816 A 5.2325945 5.2325945 0 1 1 6.0376091,5.8505816 A 5.2325945 5.2325945 0 1 1 16.502798 5.8505816 z" transform="matrix(0.810933,-0.810933,0.810933,0.810933,-4.883813,13.39495)"/><path style="opacity:1;fill:none;fill-opacity:1;stroke:url(#radialGradient6288);stroke-width:1.74393415;stroke-miterlimit:4;stroke-dasharray:none;stroke-opacity:1" id="path6286" d="M 16.502798 5.8505816 A 5.2325945 5.2325945 0 1 1 6.0376091,5.8505816 A 5.2325945 5.2325945 0 1 1 16.502798 5.8505816 z" transform="matrix(-0.810933,0.810933,-0.810933,-0.810933,22.88381,4.605049)"/><path style="opacity:1;fill:#555753;fill-opacity:1;stroke:none;stroke-width:2;stroke-miterlimit:4;stroke-dasharray:none;stroke-opacity:1" id="rect6290" d="M 5 5 L 5 6 L 5 8 L 6 8 L 6 6 L 8 6 L 8 5 L 6 5 L 5 5 z M 10 5 L 10 6 L 12 6 L 12 8 L 13 8 L 13 5 L 10 5 z M 5 10 L 5 12 L 5 13 L 8 13 L 8 12 L 6 12 L 6 10 L 5 10 z M 12 10 L 12 12 L 10 12 L 10 13 L 13 13 L 13 12 L 13 10 L 12 10 z"/></g></svg>