<svg xmlns="http://www.w3.org/2000/svg" xmlns:cc="http://web.resource.org/cc/" xmlns:svg="http://www.w3.org/2000/svg" xmlns:xlink="http://www.w3.org/1999/xlink" id="svg4220" width="24" height="24" version="1.0"><defs id="defs4222"><linearGradient id="linearGradient6270"><stop style="stop-color:#d3d7cf;stop-opacity:1" id="stop6272" offset="0"/><stop style="stop-color:#d3d7cf;stop-opacity:0" id="stop6274" offset="1"/></linearGradient><linearGradient id="linearGradient6236"><stop style="stop-color:#eeeeec;stop-opacity:1" id="stop6238" offset="0"/><stop style="stop-color:#eeeeec;stop-opacity:0" id="stop6240" offset="1"/></linearGradient><linearGradient id="linearGradient6216"><stop style="stop-color:#2e3436;stop-opacity:1" id="stop6218" offset="0"/><stop style="stop-color:#2e3436;stop-opacity:0" id="stop6220" offset="1"/></linearGradient><linearGradient id="linearGradient6206"><stop style="stop-color:#2e3436;stop-opacity:1" id="stop6208" offset="0"/><stop style="stop-color:#2e3436;stop-opacity:0" id="stop6210" offset="1"/></linearGradient><linearGradient id="linearGradient6192"><stop style="stop-color:#2e3436;stop-opacity:1" id="stop6194" offset="0"/><stop style="stop-color:#2e3436;stop-opacity:0" id="stop6196" offset="1"/></linearGradient><linearGradient id="linearGradient6174"><stop style="stop-color:#888a85;stop-opacity:1" id="stop6176" offset="0"/><stop style="stop-color:#888a85;stop-opacity:0" id="stop6178" offset="1"/></linearGradient><linearGradient id="linearGradient6166"><stop style="stop-color:#eeeeec;stop-opacity:1" id="stop6168" offset="0"/><stop style="stop-color:#eeeeec;stop-opacity:0" id="stop6170" offset="1"/></linearGradient><linearGradient id="linearGradient6172" x1="13.031" x2="13.031" y1="9.342" y2="18.346" gradientUnits="userSpaceOnUse" xlink:href="#linearGradient6166"/><linearGradient id="linearGradient6180" x1="8.577" x2="8.577" y1="12.492" y2="5.532" gradientUnits="userSpaceOnUse" xlink:href="#linearGradient6174"/><radialGradient id="radialGradient6198" cx="3.952" cy="21.274" r="1.683" fx="3.952" fy="21.274" gradientTransform="matrix(1,0,0,0.815217,0,3.931052)" gradientUnits="userSpaceOnUse" xlink:href="#linearGradient6192"/><radialGradient id="radialGradient6202" cx="3.952" cy="21.274" r="1.683" fx="3.952" fy="21.274" gradientTransform="matrix(1,0,0,0.815217,0,3.931052)" gradientUnits="userSpaceOnUse" xlink:href="#linearGradient6192"/><radialGradient id="radialGradient6212" cx="12.002" cy="21.182" r="9.002" fx="12.002" fy="21.182" gradientTransform="matrix(1,0,0,0.182922,0,17.30772)" gradientUnits="userSpaceOnUse" xlink:href="#linearGradient6206"/><radialGradient id="radialGradient6222" cx="11.581" cy="21.073" r="8.288" fx="11.581" fy="21.073" gradientTransform="matrix(1,0,0,0.207506,0,16.69998)" gradientUnits="userSpaceOnUse" xlink:href="#linearGradient6216"/><radialGradient id="radialGradient6242" cx="2.689" cy="5.15" r="5.669" fx="2.689" fy="5.15" gradientTransform="matrix(1.932636,9.120067e-7,-9.120067e-7,1.932636,-3.966624,-4.667428)" gradientUnits="userSpaceOnUse" xlink:href="#linearGradient6236"/><radialGradient id="radialGradient6250" cx="2.689" cy="5.15" r="5.669" fx="2.689" fy="5.15" gradientTransform="matrix(1.932636,9.120067e-7,-9.120067e-7,1.932636,-3.966624,-4.667428)" gradientUnits="userSpaceOnUse" xlink:href="#linearGradient6236"/><radialGradient id="radialGradient6261" cx="2.689" cy="5.15" r="5.669" fx="2.689" fy="5.15" gradientTransform="matrix(1.932636,9.120067e-7,-9.120067e-7,1.932636,-3.966624,-4.667428)" gradientUnits="userSpaceOnUse" xlink:href="#linearGradient6236"/><radialGradient id="radialGradient6276" cx="5.304" cy="5.778" r="5.635" fx="5.304" fy="5.778" gradientTransform="matrix(1.303243,0,0,1.303243,-1.390396,-1.679419)" gradientUnits="userSpaceOnUse" xlink:href="#linearGradient6270"/><radialGradient id="radialGradient6280" cx="5.304" cy="5.778" r="5.635" fx="5.304" fy="5.778" gradientTransform="matrix(1.303243,0,0,1.303243,-1.390396,-1.679419)" gradientUnits="userSpaceOnUse" xlink:href="#linearGradient6270"/><radialGradient id="radialGradient6288" cx="5.304" cy="5.778" r="5.635" fx="5.304" fy="5.778" gradientTransform="matrix(1.303243,0,0,1.303243,-1.390396,-1.679419)" gradientUnits="userSpaceOnUse" xlink:href="#linearGradient6270"/></defs><metadata id="metadata4225"/><g id="layer1"><path style="opacity:1;fill:#eeeeec;fill-opacity:1;stroke:none;stroke-width:.80489224;stroke-miterlimit:4;stroke-dasharray:none;stroke-opacity:1" id="path6267" d="M 16.502798 5.8505816 A 5.2325945 5.2325945 0 1 1 6.0376091,5.8505816 A 5.2325945 5.2325945 0 1 1 16.502798 5.8505816 z" transform="matrix(-0.946088,0.946088,-0.946088,-0.946088,25.19777,3.872561)"/><rect style="opacity:1;fill:#555753;fill-opacity:1;stroke:none;stroke-width:1;stroke-miterlimit:4;stroke-dasharray:none;stroke-opacity:1" id="rect6228" width="1.563" height="1.766" x="10" y="11" transform="matrix(0.479866,-0.479867,1.273788,1.273789,-4.81034,5.536993)"/><rect style="opacity:1;fill:#555753;fill-opacity:1;stroke:#2e3436;stroke-width:1.54414654;stroke-miterlimit:4;stroke-dasharray:none;stroke-opacity:1" id="rect6226" width="4.454" height="7.816" x="10" y="10" rx="2.102" ry=".945" transform="matrix(0.30332,-0.30332,0.69134,0.691339,5.176196,12.59349)"/><path style="opacity:1;fill:none;fill-opacity:1;stroke:#2e3436;stroke-width:.69762242;stroke-miterlimit:4;stroke-dasharray:none;stroke-opacity:1" id="path6230" d="M 16.502798 5.8505816 A 5.2325945 5.2325945 0 1 1 6.0376091,5.8505816 A 5.2325945 5.2325945 0 1 1 16.502798 5.8505816 z" transform="matrix(1.013524,-1.013666,1.013524,1.013666,-8.353373,14.49368)"/><path style="opacity:1;fill:none;fill-opacity:1;stroke:url(#radialGradient6280);stroke-width:1.74393415;stroke-miterlimit:4;stroke-dasharray:none;stroke-opacity:1" id="path6278" d="M 16.502798 5.8505816 A 5.2325945 5.2325945 0 1 1 6.0376091,5.8505816 A 5.2325945 5.2325945 0 1 1 16.502798 5.8505816 z" transform="matrix(0.810933,-0.810933,0.810933,0.810933,-4.883813,13.39495)"/><rect style="opacity:1;fill:#555753;fill-opacity:1;stroke:none;stroke-width:1;stroke-miterlimit:4;stroke-dasharray:none;stroke-opacity:1" id="rect6282" width="3" height="5.412" x="8" y="6" rx="1.5" ry=".951" transform="matrix(0.666667,0,0,1.47806,2.666667,-3.868354)"/><rect style="opacity:1;fill:#555753;fill-opacity:1;stroke:none;stroke-width:1;stroke-miterlimit:4;stroke-dasharray:none;stroke-opacity:1" id="rect6284" width="3" height="5.412" x="8" y="6" rx="1.5" ry=".951" transform="matrix(1.452899e-7,0.666667,-1.47806,0,21.86836,2.666664)"/><path style="opacity:1;fill:none;fill-opacity:1;stroke:url(#radialGradient6288);stroke-width:1.74393415;stroke-miterlimit:4;stroke-dasharray:none;stroke-opacity:1" id="path6286" d="M 16.502798 5.8505816 A 5.2325945 5.2325945 0 1 1 6.0376091,5.8505816 A 5.2325945 5.2325945 0 1 1 16.502798 5.8505816 z" transform="matrix(-0.810933,0.810933,-0.810933,-0.810933,22.88381,4.605049)"/></g></svg>