<svg xmlns="http://www.w3.org/2000/svg" xmlns:cc="http://web.resource.org/cc/" xmlns:svg="http://www.w3.org/2000/svg" xmlns:xlink="http://www.w3.org/1999/xlink" id="svg4220" width="24" height="24" version="1.0"><defs id="defs4222"><linearGradient id="linearGradient6270"><stop style="stop-color:#d3d7cf;stop-opacity:1" id="stop6272" offset="0"/><stop style="stop-color:#d3d7cf;stop-opacity:0" id="stop6274" offset="1"/></linearGradient><radialGradient id="radialGradient6280" cx="5.304" cy="5.778" r="5.635" fx="5.304" fy="5.778" gradientTransform="matrix(1.303243,0,0,1.303243,-1.390396,-1.679419)" gradientUnits="userSpaceOnUse" xlink:href="#linearGradient6270"/><radialGradient id="radialGradient6288" cx="5.304" cy="5.778" r="5.635" fx="5.304" fy="5.778" gradientTransform="matrix(1.303243,0,0,1.303243,-1.390396,-1.679419)" gradientUnits="userSpaceOnUse" xlink:href="#linearGradient6270"/></defs><metadata id="metadata4225"/><g id="layer1"><path style="opacity:1;fill:#eeeeec;fill-opacity:1;stroke:none;stroke-width:.80489224;stroke-miterlimit:4;stroke-dasharray:none;stroke-opacity:1" id="path6267" d="M 16.502798 5.8505816 A 5.2325945 5.2325945 0 1 1 6.0376091,5.8505816 A 5.2325945 5.2325945 0 1 1 16.502798 5.8505816 z" transform="matrix(-0.946088,0.946088,-0.946088,-0.946088,25.19777,3.872561)"/><rect style="opacity:1;fill:#555753;fill-opacity:1;stroke:none;stroke-width:1;stroke-miterlimit:4;stroke-dasharray:none;stroke-opacity:1" id="rect6228" width="1.563" height="1.766" x="10" y="11" transform="matrix(0.479866,-0.479867,1.273788,1.273789,-4.81034,5.536993)"/><rect style="opacity:1;fill:#555753;fill-opacity:1;stroke:#2e3436;stroke-width:1.54414654;stroke-miterlimit:4;stroke-dasharray:none;stroke-opacity:1" id="rect6226" width="4.454" height="7.816" x="10" y="10" rx="2.102" ry=".945" transform="matrix(0.30332,-0.30332,0.69134,0.691339,5.176196,12.59349)"/><path style="opacity:1;fill:none;fill-opacity:1;stroke:#2e3436;stroke-width:.69762242;stroke-miterlimit:4;stroke-dasharray:none;stroke-opacity:1" id="path6230" d="M 16.502798 5.8505816 A 5.2325945 5.2325945 0 1 1 6.0376091,5.8505816 A 5.2325945 5.2325945 0 1 1 16.502798 5.8505816 z" transform="matrix(1.013524,-1.013666,1.013524,1.013666,-8.353373,14.49368)"/><path style="opacity:1;fill:none;fill-opacity:1;stroke:url(#radialGradient6280);stroke-width:1.74393415;stroke-miterlimit:4;stroke-dasharray:none;stroke-opacity:1" id="path6278" d="M 16.502798 5.8505816 A 5.2325945 5.2325945 0 1 1 6.0376091,5.8505816 A 5.2325945 5.2325945 0 1 1 16.502798 5.8505816 z" transform="matrix(0.810933,-0.810933,0.810933,0.810933,-4.883813,13.39495)"/><path style="opacity:1;fill:none;fill-opacity:1;stroke:url(#radialGradient6288);stroke-width:1.74393415;stroke-miterlimit:4;stroke-dasharray:none;stroke-opacity:1" id="path6286" d="M 16.502798 5.8505816 A 5.2325945 5.2325945 0 1 1 6.0376091,5.8505816 A 5.2325945 5.2325945 0 1 1 16.502798 5.8505816 z" transform="matrix(-0.810933,0.810933,-0.810933,-0.810933,22.88381,4.605049)"/><image id="image6326" width="24" height="24" transform="translate(-27,0)" xlink:href="stock-icons/24/gtk-zoom-100.png"/><path style="opacity:1;fill:#555753;fill-opacity:1;stroke:none;stroke-width:2;stroke-miterlimit:4;stroke-dasharray:none;stroke-opacity:1" id="rect6329" d="M -13 6 L -15 9 L -14 9 L -14 14 L -12 14 L -12 9 L -12 8 L -12 6 L -13 6 z"/><rect style="opacity:1;fill:#555753;fill-opacity:1;stroke:none;stroke-width:2;stroke-miterlimit:4;stroke-dasharray:none;stroke-opacity:1" id="rect6335" width="1" height="1.522" x="-18" y="7" transform="matrix(2,0,0,1.314262,18,-2.199836)"/><rect style="opacity:1;fill:#555753;fill-opacity:1;stroke:none;stroke-width:2;stroke-miterlimit:4;stroke-dasharray:none;stroke-opacity:1" id="rect6337" width="1" height="1.522" x="-18" y="7" transform="matrix(2,0,0,1.314262,18,1.800166)"/><path style="opacity:1;fill:#555753;fill-opacity:1;stroke:none;stroke-width:2;stroke-miterlimit:4;stroke-dasharray:none;stroke-opacity:1" id="path6340" d="M -13,6 L -15,9 L -14,9 L -14,14 L -12,14 L -12,9 L -12,8 L -12,6 L -13,6 z" transform="translate(-8,0)"/><path style="opacity:1;fill:#555753;fill-opacity:1;stroke:none;stroke-width:2;stroke-miterlimit:4;stroke-dasharray:none;stroke-opacity:1" id="path6342" d="M -13,6 L -15,9 L -14,9 L -14,14 L -12,14 L -12,9 L -12,8 L -12,6 L -13,6 z" transform="translate(25,-1)"/><rect style="opacity:1;fill:#555753;fill-opacity:1;stroke:none;stroke-width:2;stroke-miterlimit:4;stroke-dasharray:none;stroke-opacity:1" id="rect6344" width="1" height="1.522" x="-18" y="7" rx=".5" ry=".5" transform="matrix(1,0,0,1.314262,26,-2.199831)"/><rect style="opacity:1;fill:#555753;fill-opacity:1;stroke:none;stroke-width:2;stroke-miterlimit:4;stroke-dasharray:none;stroke-opacity:1" id="rect6346" width="1" height="1.522" x="-18" y="7" rx=".5" ry=".5" transform="matrix(1,0,0,1.314263,26,0.800158)"/><path style="opacity:1;fill:#555753;fill-opacity:1;stroke:none;stroke-width:2;stroke-miterlimit:4;stroke-dasharray:none;stroke-opacity:1" id="path6348" d="M -13,6 L -15,9 L -14,9 L -14,14 L -12,14 L -12,9 L -12,8 L -12,6 L -13,6 z" transform="translate(19,-1)"/></g></svg>